<svg width="61" height="95" viewBox="0 0 61 95" fill="none" xmlns="http://www.w3.org/2000/svg">
<path d="M29.3 36.5573C30.0925 36.698 30.8981 36.4696 31.6855 36.3701C32.2663 36.2973 32.8253 36.25 33.4072 36.2799C33.9799 36.3087 34.5618 36.2976 35.1314 36.2314C35.9558 36.1363 36.7567 36.3625 37.572 36.3524C37.7173 36.3503 37.8756 36.3966 37.9373 36.5783C37.9659 36.6651 38.0192 36.7463 38.0762 36.8188C38.4899 37.3525 38.5654 37.9051 38.1744 38.4859C38.1306 38.451 38.0761 38.3791 38.0459 38.3901C37.9358 38.4235 37.9616 38.5055 38.0128 38.5792C37.9778 38.6231 37.9058 38.6776 37.9168 38.7078C37.9501 38.8177 38.0321 38.7919 38.106 38.7406C38.2143 39.0439 37.8343 39.1062 37.706 39.3395C37.6482 39.3514 37.6937 39.3854 37.7344 39.3812C37.821 39.3743 37.8363 39.3224 37.7632 39.2742C37.7284 39.2513 37.6726 39.2555 37.6275 39.2557C37.6192 39.2562 37.6129 39.3051 37.706 39.3395C37.6519 39.9475 37.1903 40.3389 36.8053 40.7807C36.594 41.0232 36.4027 41.2778 36.088 41.4272C35.8311 41.5497 35.6447 41.8166 35.4578 42.0192C34.7058 42.8407 33.8042 43.5226 33.2929 44.5818C33.0249 45.1368 32.798 45.7069 32.5342 46.2616C32.4903 46.2267 32.4359 46.1548 32.4056 46.1658C32.2956 46.1992 32.3214 46.2812 32.3725 46.3549C32.3375 46.3988 32.2655 46.4533 32.2765 46.4835C32.3098 46.5934 32.3919 46.5676 32.4657 46.5163C32.2549 47.006 32.118 47.5155 31.9536 48.0408C31.8958 48.0527 31.9413 48.0867 31.982 48.0825C32.0685 48.0756 32.0839 48.0237 32.0108 47.9756C31.976 47.9526 31.9202 47.9568 31.8751 47.957C31.8668 47.9576 31.8605 48.0064 31.9536 48.0408C32.091 48.3273 32.0226 48.5821 31.7483 48.805C31.6905 48.8169 31.7359 48.8509 31.7767 48.8467C31.8632 48.8398 31.8785 48.7879 31.8054 48.7397C31.7706 48.7168 31.7148 48.721 31.6697 48.7212C31.6614 48.7217 31.6551 48.7706 31.7483 48.805C31.754 49.0277 32.0518 49.2711 31.7045 49.4759C31.6467 49.4877 31.6922 49.5217 31.7329 49.5176C31.8195 49.5107 31.8348 49.4588 31.7617 49.4106C31.7269 49.3877 31.6711 49.3919 31.626 49.3921C31.6177 49.3926 31.6114 49.4414 31.7045 49.4759C31.9095 49.9279 31.7167 50.3555 31.7075 50.7912C31.6865 51.9159 31.6698 53.0404 31.7206 54.1624C31.7459 54.7288 31.9237 55.2869 32.0348 55.849C32.0539 55.9455 32.0573 56.0297 31.8445 56.0643C31.7867 56.0762 31.8322 56.1102 31.8729 56.106C31.9594 56.0991 31.9747 56.0472 31.9016 55.999C31.8668 55.9761 31.8111 55.9803 31.7643 55.9815C31.756 55.982 31.7497 56.0308 31.8429 56.0652C31.9908 56.2058 32.204 56.3323 31.8676 56.4814C31.8098 56.4932 31.8553 56.5272 31.896 56.5231C31.9825 56.5162 31.9978 56.4643 31.9247 56.4161C31.8899 56.3931 31.8342 56.3974 31.7891 56.3976C31.7807 56.3981 31.7744 56.4469 31.8676 56.4814C32.0156 56.6219 32.2287 56.7485 31.8923 56.8975C31.8345 56.9094 31.88 56.9434 31.9207 56.9392C32.0073 56.9323 32.0226 56.8804 31.9495 56.8322C31.9147 56.8093 31.8589 56.8135 31.8138 56.8137C31.8055 56.8142 31.7992 56.8631 31.8923 56.8975C32.1793 57.1967 32.0891 57.522 32.1079 57.8383C32.1626 58.758 32.3202 59.6655 32.1992 60.5983C32.103 61.3425 32.0587 62.102 32.3831 62.8207C32.1437 63.6863 32.4265 64.5495 32.397 65.4167C32.3669 66.2755 32.4984 67.1378 32.4751 67.9971C32.4642 68.3627 32.7182 68.6982 32.4489 69.0603C32.391 69.0721 32.4365 69.1061 32.4772 69.102C32.5638 69.0951 32.5791 69.0432 32.506 68.995C32.4712 68.9721 32.4154 68.9763 32.3703 68.9765C32.362 68.977 32.3557 69.0258 32.4489 69.0603C32.5981 69.7704 32.6459 70.4766 32.6979 71.1826C32.7052 71.2774 32.7168 71.3611 32.5041 71.3957C32.4462 71.4075 32.4917 71.4415 32.5324 71.4374C32.619 71.4305 32.6343 71.3786 32.5612 71.3304C32.5264 71.3075 32.4706 71.3117 32.4255 71.3119C32.4172 71.3124 32.4109 71.3612 32.5041 71.3957C32.5909 71.9008 32.7636 72.4015 32.5098 72.8988C32.452 72.9107 32.4975 72.9447 32.5382 72.9405C32.6247 72.9336 32.64 72.8817 32.5669 72.8335C32.5321 72.8106 32.4764 72.8148 32.4313 72.815C32.4229 72.8155 32.4166 72.8644 32.5098 72.8988C32.659 73.6089 32.7068 74.3152 32.7588 75.0212C32.7661 75.1159 32.7778 75.1996 32.565 75.2342C32.5072 75.2461 32.5527 75.28 32.5934 75.2759C32.6799 75.269 32.6952 75.2171 32.6221 75.1689C32.5873 75.146 32.5316 75.1502 32.4865 75.1504C32.4781 75.1509 32.4718 75.1998 32.565 75.2342C32.8516 75.6111 32.8677 76.0235 32.9097 76.4211C33.0339 77.5955 33.034 78.779 33.1056 79.9558C33.1132 80.0697 33.1759 80.1971 33.1425 80.296C32.8634 81.1264 33.1943 81.9124 33.3325 82.7042C33.3881 83.0208 33.4366 83.3586 33.3958 83.6426C33.3534 83.9425 33.7084 84.1766 33.363 84.4556C33.3052 84.4674 33.3507 84.5014 33.3914 84.4973C33.4779 84.4904 33.4932 84.4385 33.4201 84.3903C33.3853 84.3674 33.3296 84.3716 33.2845 84.3718C33.2761 84.3723 33.2698 84.4211 33.363 84.4556C33.6749 84.8652 33.6288 85.2856 33.4372 85.704C33.3794 85.7158 33.4249 85.7498 33.4656 85.7457C33.5521 85.7388 33.5674 85.6869 33.4943 85.6387C33.4595 85.6158 33.4038 85.62 33.3587 85.6202C33.3503 85.6207 33.344 85.6695 33.4372 85.704C33.5487 86.2293 33.3502 86.6731 33.0347 87.0748C32.9908 87.0399 32.9364 86.968 32.9061 86.979C32.7961 87.0124 32.8218 87.0944 32.873 87.1681C32.838 87.212 32.766 87.2665 32.777 87.2968C32.8103 87.4067 32.8923 87.3808 32.9662 87.3296C32.7662 87.9314 32.5273 88.5105 32.1711 89.0433C31.9309 89.4036 31.8666 89.8561 31.5828 90.2007C31.3 90.5469 31.1453 90.9547 30.9682 91.3647C30.7333 91.9135 30.3872 92.434 30.0025 92.895C29.5727 93.4122 28.6019 93.3098 28.1328 92.7736C27.7284 92.312 27.3073 91.8664 26.9181 91.3939C26.8128 91.2674 26.6872 91.2216 26.5709 91.1359C26.1209 90.8082 25.6084 90.5252 25.4301 89.9438C25.3417 89.6527 24.9953 89.6611 24.8728 89.3854C24.6664 88.9235 24.6295 88.4003 24.3089 87.9721C24.1682 87.7843 24.3768 87.496 24.3039 87.1981C24.0993 86.3585 23.7813 85.55 23.6704 84.6823C23.5308 83.6007 23.3201 82.5301 23.1475 81.4547C23.1418 81.415 23.2115 81.364 23.2837 81.2986C23.295 81.2921 23.2724 81.3052 23.2481 81.3192C23.2869 81.3527 23.3211 81.3933 23.3667 81.4164C23.4185 81.4425 23.4614 81.4048 23.4444 81.3307C23.4378 81.3043 23.3628 81.2939 23.2853 81.2977C22.9168 80.499 23.0308 79.6176 22.9118 78.7695C22.8238 78.1467 23.03 77.481 22.6404 76.9032C22.7392 76.4136 22.6732 75.9223 22.6549 75.4314C22.6304 74.7656 22.5196 74.1107 22.6806 73.4303C22.7838 73.0005 22.7021 72.5118 22.6286 72.0636C22.5905 71.8295 22.5922 71.6607 22.7833 71.4729C22.7946 71.4663 22.772 71.4794 22.7477 71.4934C22.7865 71.527 22.8207 71.5675 22.8664 71.5906C22.9181 71.6167 22.961 71.579 22.944 71.5049C22.9374 71.4786 22.8624 71.4681 22.7849 71.4719C22.7538 71.0896 22.8372 70.6928 22.7558 70.2793C22.728 70.134 22.6916 69.944 22.7293 69.763C22.8075 69.3908 23.1823 69.0582 22.9037 68.6315C23.1212 68.2132 23.0833 67.7294 23.0856 67.3041C23.0873 66.8555 23.2817 66.4829 23.3188 66.0655C23.4243 64.8446 23.6235 63.6406 23.8571 62.4362C23.9855 61.7702 23.9553 61.0646 24.132 60.3665C24.1433 60.3599 24.1207 60.373 24.0964 60.387C24.1352 60.4206 24.1694 60.4611 24.2151 60.4842C24.2668 60.5103 24.3097 60.4726 24.2927 60.3985C24.2861 60.3722 24.2111 60.3617 24.1336 60.3655C24.1137 59.5657 24.1267 58.7447 24.1481 57.9232C24.1508 57.842 24.1578 57.7347 24.3085 57.6821C24.3198 57.6756 24.2972 57.6886 24.2729 57.7026C24.3117 57.7362 24.3459 57.7767 24.3916 57.7998C24.4433 57.8259 24.4862 57.7883 24.4692 57.7141C24.4626 57.6878 24.3876 57.6773 24.3101 57.6812C24.228 57.565 24.0157 57.4401 24.2854 57.265C24.2967 57.2585 24.2741 57.2716 24.2498 57.2856C24.2886 57.3191 24.3228 57.3597 24.3684 57.3828C24.4202 57.4089 24.4631 57.3712 24.4461 57.2971C24.4395 57.2707 24.3645 57.2602 24.287 57.2641C24.134 56.6444 24.2917 56.0067 24.3191 55.3711C24.3383 54.9339 24.3454 54.4908 24.3141 54.0634C24.2542 53.2802 24.344 52.4988 24.2945 51.7225C24.2635 51.2433 24.3101 50.7192 24.0726 50.2818C23.8711 49.9139 23.8433 49.5598 23.9045 49.1694C23.9888 48.6322 24.0324 48.0992 23.6432 47.6416C23.6357 46.938 23.0216 46.479 22.8994 45.8308C22.775 45.1709 22.3292 44.6901 22.0357 44.1257C21.7205 43.52 21.3818 42.9258 21.01 42.3528C20.7516 41.9575 20.6774 41.4258 20.1544 41.2069C19.9667 41.1281 20.2029 40.869 20.0752 40.7039C20.001 40.609 19.7228 40.7094 19.8326 40.4479C19.341 39.9958 19.2005 39.2785 18.7421 38.8502C18.3526 38.4854 18.2113 37.9235 17.6924 37.6743C17.5315 37.5972 17.4557 37.3203 17.3606 37.1256C17.1182 36.6349 17.2023 36.4185 17.6488 36.1242C18.0043 35.8888 18.3293 35.8582 18.7631 35.9263C19.4735 36.037 20.2097 35.9756 20.9355 35.9935C20.9815 35.9948 21.0271 36.0589 21.0941 36.13C21.1006 36.1413 21.0875 36.1187 21.0736 36.0945C21.0399 36.1333 20.9993 36.1675 20.9761 36.2132C20.9499 36.2649 20.9876 36.3077 21.0618 36.2907C21.0882 36.2841 21.0988 36.2091 21.095 36.1316C21.8313 36.1563 22.5956 36.1326 23.3637 36.3282C23.3702 36.3395 23.3572 36.3169 23.3432 36.2927C23.3096 36.3315 23.269 36.3657 23.2458 36.4114C23.2196 36.4631 23.2572 36.5059 23.3315 36.4889C23.3578 36.4823 23.3684 36.4073 23.3646 36.3298C23.563 36.3896 23.8069 36.0917 24.0359 36.3727C24.0425 36.384 24.0294 36.3614 24.0154 36.3372C23.9818 36.376 23.9412 36.4101 23.918 36.4558C23.8918 36.5075 23.9295 36.5504 24.0037 36.5333C24.0301 36.5267 24.0406 36.4517 24.0369 36.3743C24.2144 36.3234 24.4464 36.2325 24.6029 36.3057C25.3626 36.6548 26.1958 36.4255 26.9657 36.6503C27.4878 36.4608 28.0436 36.6844 28.5771 36.5184C28.7962 36.45 29.0589 36.3263 29.315 36.5572C29.3215 36.5685 29.3085 36.5459 29.2945 36.5217C29.2609 36.5605 29.2203 36.5947 29.1971 36.6403C29.1709 36.692 29.2085 36.7349 29.2828 36.7178C29.3091 36.7112 29.3197 36.6363 29.316 36.5588L29.3 36.5573ZM27.9497 79.9175C27.9339 79.961 27.8999 80.0065 27.9023 80.0481C27.9091 80.1346 27.961 80.1498 28.0094 80.0767C28.0324 80.0419 28.0282 79.9862 28.028 79.9411C28.0276 79.9328 27.9787 79.9266 27.9401 80.121C27.1261 80.4769 26.7765 81.1629 26.5352 81.9694C26.4578 82.2272 26.6446 82.5023 26.2199 82.711C26.2634 82.7268 26.3089 82.7607 26.3506 82.7582C26.4371 82.7513 26.4524 82.6994 26.3793 82.6512C26.3445 82.6283 26.2887 82.6325 26.2436 82.6327C26.2353 82.6332 26.229 82.6821 26.4235 82.7204C26.7379 83.0446 26.2203 83.507 26.602 83.8246C26.6064 83.8286 26.552 83.9246 26.5097 83.9597C26.4133 84.0391 26.296 84.1197 26.5124 84.1734C26.7202 84.2234 26.8788 84.375 27.0575 84.4419C27.6126 84.653 28.2461 84.7348 28.7878 84.5533C29.6238 84.2729 30.2089 83.4983 30.1015 82.5618C30.0665 82.2548 30.0491 81.9335 30.0511 81.616C30.0533 80.9217 29.7681 80.3568 29.0394 79.9383C29.0236 79.9818 28.9895 80.0273 28.992 80.0689C28.9988 80.1554 29.0507 80.1706 29.099 80.0975C29.122 80.0627 29.1179 80.007 29.1177 79.9619C29.1172 79.9536 29.0683 79.9474 29.0297 80.1418C28.7108 80.1904 28.3669 79.9456 28.0622 80.2205C28.0557 80.2242 27.9833 80.1585 27.95 79.9216L27.9497 79.9175ZM25.8486 73.4972C25.7485 73.1483 25.3685 73.0276 25.1349 72.7687C24.9102 72.5175 24.5815 72.6836 24.5986 73.0567C24.6167 73.4315 24.5613 73.6378 24.1528 73.5724C24.0076 73.5486 23.9255 73.6304 23.8195 73.6745C23.724 73.7145 23.667 73.7948 23.7006 73.883C23.7432 73.994 23.805 74.1197 23.8957 74.1835C24.0275 74.2774 24.0172 74.1177 24.0359 74.0531C24.0871 73.8729 24.2627 73.8598 24.3859 73.7821C24.8507 73.4858 24.8255 73.5542 25.0018 73.9043C25.0699 74.0372 25.2027 74.2747 25.2445 74.2613C25.5 74.1848 25.7673 74.0843 25.9715 73.9191C26.1056 73.8115 25.9064 73.6532 25.8477 73.4956L25.8486 73.4972ZM24.3132 75.3284C23.9697 75.4988 23.9624 75.5869 24.2724 75.7953C24.6311 76.0358 24.6048 76.0165 24.8879 75.6594C25.01 75.505 25.1316 75.3014 25.0567 75.209C24.9747 75.1079 24.7356 75.2911 24.5513 75.1996C24.5056 75.1764 24.3949 75.2834 24.3141 75.33L24.3132 75.3284ZM29.7976 71.949C29.6342 72.0132 29.5764 72.096 29.6588 72.2873C29.7628 72.5307 29.9759 72.5304 30.1684 72.5913C30.2119 72.3941 30.3172 72.2106 30.1599 71.998C30.0355 71.831 29.9365 71.8386 29.7976 71.949ZM23.0542 42.4853C22.8635 42.5545 22.9283 42.6742 23.0021 42.8318C23.118 43.0812 23.2507 43.0197 23.4301 42.9161C23.6143 42.8097 23.5767 42.7109 23.5011 42.5501C23.3826 42.3 23.2448 42.3451 23.0542 42.4853ZM30.7665 71.3874C30.9138 71.2356 31.2869 71.2398 31.2229 70.9797C31.194 70.8587 30.9201 71.1868 30.6719 71.1041C30.4817 71.0397 30.5717 71.4159 30.3532 71.4108C30.3543 71.4575 30.3506 71.507 30.3633 71.5513C30.3666 71.5645 30.4252 71.5802 30.4455 71.5706C30.5534 71.5148 30.6566 71.4509 30.7649 71.3883L30.7665 71.3874ZM30.7009 70.3406C30.7317 70.3939 30.756 70.4509 30.7929 70.4962C30.828 70.5384 30.8806 70.607 30.9162 70.6015C31.0446 70.5812 30.9804 70.4999 30.9664 70.4197C30.9391 70.2827 30.9547 70.1381 30.9315 70.0009C30.9123 69.8893 30.8033 69.8683 30.7231 69.9124C30.6552 69.9516 30.5743 70.0392 30.5732 70.1045C30.5737 70.1838 30.6536 70.2625 30.6984 70.3399L30.7009 70.3406ZM30.0039 74.8448C29.8036 75.0466 30.0782 75.1527 30.1297 75.3016C30.1529 75.3679 30.2986 75.344 30.3648 75.2757C30.5584 75.0735 30.3189 74.9535 30.2528 74.813C30.2195 74.7441 30.0919 74.7769 30.0023 74.8458L30.0039 74.8448ZM32.0645 40.2294C31.8629 40.0295 31.7563 40.304 31.6072 40.3557C31.5409 40.3789 31.563 40.5254 31.6329 40.5905C31.835 40.7837 31.9553 40.5442 32.096 40.4781C32.1651 40.4447 32.1324 40.3172 32.0636 40.2278L32.0645 40.2294ZM26.3864 46.017C26.4269 46.0388 26.4817 46.0889 26.5095 46.0772C26.6194 46.0288 26.7147 45.9436 26.8277 45.9042C27.0489 45.8282 27.0217 45.6243 27.0799 45.4638C27.0843 45.4526 27.0596 45.4174 27.0443 45.4133C26.7738 45.3629 26.8118 45.6078 26.7183 45.7371C26.6534 45.8262 26.5158 45.8605 26.4135 45.926C26.3941 45.9372 26.3959 45.9813 26.3864 46.017ZM27.9799 72.3506C27.9448 72.3945 27.877 72.4488 27.8857 72.4825C27.9045 72.5599 27.9571 72.6285 28.0062 72.6948C28.019 72.7133 28.0699 72.7269 28.0893 72.7157C28.1956 72.6608 28.305 72.6041 28.402 72.533C28.426 72.5149 28.4126 72.4021 28.41 72.4014C28.2679 72.3866 28.1387 72.2525 27.9824 72.3513L27.9799 72.3506ZM31.3747 80.4967C31.233 80.6021 31.045 80.6311 31.1606 80.8463C31.2152 80.9482 31.2907 80.967 31.3771 80.93C31.576 80.8453 31.5396 80.6404 31.5911 80.4794C31.5087 80.486 31.4247 80.4936 31.3747 80.4967ZM31.6439 82.0715C31.539 82.1063 31.5277 82.1989 31.5653 82.2826C31.6157 82.3998 31.6922 82.4762 31.8418 82.392C31.942 82.3341 31.9619 82.2602 31.925 82.1739C31.8736 82.0551 31.7919 81.9732 31.6439 82.0715ZM26.9442 73.9127C26.9993 73.982 27.0223 74.1302 27.1203 74.0908C27.2998 74.0173 27.1462 73.908 27.1061 73.8236C27.0706 73.7472 27.0346 73.6065 26.9367 73.6459C26.7555 73.7203 26.9246 73.8229 26.9458 73.9118L26.9442 73.9127ZM29.2683 71.596C29.3131 71.6325 29.3554 71.6684 29.3976 71.7042C29.4497 71.5816 29.4992 71.4584 29.5513 71.3358C29.495 71.3317 29.4302 71.3089 29.3837 71.3292C29.2705 71.3795 29.178 71.4545 29.2683 71.596ZM23.505 45.6963C23.4839 45.7344 23.4336 45.7892 23.446 45.8143C23.4822 45.8881 23.5006 46.0023 23.617 45.9911C23.6452 45.9877 23.696 45.9002 23.683 45.8776C23.6468 45.8038 23.6305 45.6971 23.505 45.6963ZM28.6715 52.3977C28.6488 52.4367 28.6244 52.4766 28.6016 52.5155C28.6296 52.523 28.6728 52.5455 28.6838 52.5348C28.718 52.5043 28.7379 52.4605 28.7633 52.4222C28.7352 52.4147 28.7072 52.4072 28.6715 52.3977ZM31.6171 37.0767C31.6399 37.0377 31.6643 36.9978 31.6871 36.9588C31.659 36.9513 31.6159 36.9289 31.6048 36.9396C31.5707 36.9701 31.5507 37.0139 31.5254 37.0522C31.5534 37.0597 31.5815 37.0671 31.6171 37.0767ZM34.7632 42.2868C34.7912 42.2943 34.8343 42.3167 34.8454 42.306C34.8795 42.2756 34.8995 42.2318 34.9248 42.1935C34.8968 42.186 34.8536 42.1635 34.8426 42.1742C34.8084 42.2047 34.7885 42.2485 34.7632 42.2868ZM31.3213 55.6024C31.3124 55.6355 31.3049 55.6635 31.2967 55.6941C31.3425 55.6913 31.392 55.695 31.4339 55.6816C31.4487 55.6773 31.4508 55.6288 31.4583 55.6008C31.4116 55.6019 31.3665 55.6021 31.3213 55.6024ZM25.1273 45.6205C25.1184 45.6537 25.1108 45.6817 25.1026 45.7122C25.1484 45.7095 25.198 45.7132 25.2398 45.6998C25.2546 45.6955 25.2567 45.6469 25.2643 45.6189C25.2175 45.6201 25.1724 45.6203 25.1273 45.6205ZM27.6858 73.7041C27.7138 73.7115 27.7569 73.734 27.768 73.7233C27.8022 73.6928 27.8221 73.649 27.8474 73.6107C27.8194 73.6032 27.7763 73.5808 27.7652 73.5915C27.7311 73.622 27.7111 73.6658 27.6858 73.7041ZM26.9986 74.8842C26.9758 74.9231 26.9514 74.963 26.9287 75.002C26.9567 75.0095 26.9998 75.0319 27.0109 75.0212C27.045 74.9908 27.065 74.947 27.0903 74.9087C27.0623 74.9012 27.0342 74.8937 26.9986 74.8842Z" fill="#322723"/>
<path d="M36.6097 16.365C36.4495 16.5242 35.9701 16.504 36.2898 16.9307C36.4033 17.0825 36.3263 17.2367 36.2662 17.3639C35.8915 18.1634 35.9022 18.1594 35.9267 18.9373C35.9333 19.1465 36.077 19.3842 35.7794 19.5818C35.7216 19.5937 35.7671 19.6277 35.8078 19.6235C35.8943 19.6166 35.9096 19.5647 35.8365 19.5166C35.8017 19.4936 35.746 19.4978 35.7009 19.4981C35.6925 19.4986 35.6862 19.5474 35.7794 19.5818C35.8118 20.6047 35.7511 21.6233 35.6712 22.6421C35.5978 23.6013 35.4628 24.5508 35.1852 25.4772C35.1308 25.6593 35.0374 25.8746 35.3857 25.6864C35.7233 25.5022 36.0738 25.5754 36.4229 25.6686C36.586 25.7122 36.8177 25.856 36.9027 25.6262C36.9806 25.4177 37.3436 25.2662 37.0426 24.9278C36.8552 24.7153 36.9999 23.9991 37.1491 23.7236C37.2116 23.6079 37.24 23.4666 37.3555 23.6518C37.5746 24.0052 37.8979 24.3673 37.787 24.795C37.7068 25.1039 37.9375 25.287 37.9059 25.5721C37.837 26.1843 37.4607 26.4769 36.8679 26.7008C36.8101 26.7126 36.8556 26.7466 36.8963 26.7425C36.9828 26.7356 36.9981 26.6837 36.9251 26.6355C36.8903 26.6126 36.8345 26.6168 36.7894 26.617C36.781 26.6175 36.7747 26.6663 36.8679 26.7008C37.4515 27.3495 37.6144 28.0646 37.5897 28.873C37.5652 29.6705 37.6539 30.4736 37.7257 31.2736C37.8006 32.0977 37.8193 32.9477 38.0514 33.7305C38.1787 34.1562 38.1517 34.5872 38.2729 35.01C38.4449 35.6102 37.9283 36.1042 37.245 35.9844C36.7769 35.9017 36.3086 35.8148 35.8475 35.9046C35.3584 36.0019 34.9349 35.6976 34.4455 35.7757C34.0447 35.8393 33.6006 35.8913 33.2257 35.6041C33.16 35.5538 33.1573 35.62 33.1147 35.6768C32.9411 35.9062 32.716 35.8747 32.4934 35.646C32.4816 35.5882 32.4475 35.6337 32.4516 35.6744C32.4584 35.7609 32.5103 35.7761 32.5587 35.703C32.5817 35.6682 32.5775 35.6125 32.5773 35.5674C32.5768 35.5591 32.528 35.5529 32.4934 35.646C31.141 35.8307 29.7855 35.6406 28.4395 35.8216C28.4279 35.8239 28.4106 35.7715 28.3972 35.6437C28.3854 35.586 28.3513 35.6314 28.3554 35.6721C28.3622 35.7586 28.4141 35.7738 28.4624 35.7007C28.4854 35.6659 28.4813 35.6102 28.4811 35.5651C28.4806 35.5568 28.4317 35.5506 28.3972 35.6437C27.4897 35.819 26.599 35.6424 25.6992 35.6368C24.7744 35.6328 23.856 35.483 22.9229 35.5654C22.4348 35.6083 21.9165 35.3975 21.4424 35.4797C20.7516 35.601 20.0736 35.6137 19.3814 35.613C19.0345 35.6132 18.6908 35.5555 18.343 35.569C18.0811 35.5782 17.8614 35.4404 17.69 35.1584C17.3756 34.6362 17.1156 34.1299 17.4564 33.548C17.5771 33.3427 17.2627 33.1304 17.5294 32.9764C17.5601 33.0297 17.5844 33.0867 17.6223 33.1337C17.6574 33.1758 17.7199 33.243 17.7495 33.2345C17.8612 33.2002 17.8312 33.1185 17.7823 33.0413C17.75 32.9889 17.7218 32.9364 17.691 32.8831C17.726 32.8392 17.798 32.7847 17.787 32.7545C17.7538 32.6446 17.6717 32.6704 17.5978 32.7217C17.7359 31.7962 17.9405 30.8775 17.7455 29.9313C17.7221 29.82 17.7436 29.6182 17.9468 29.5073C17.9581 29.5008 17.9355 29.5139 17.9113 29.5279C17.95 29.5614 17.9842 29.6019 18.0299 29.6251C18.0816 29.6512 18.1245 29.6135 18.1076 29.5393C18.101 29.513 18.0259 29.5025 17.9484 29.5064C17.8155 29.3658 17.8831 29.1804 17.8655 29.0119C17.7827 28.2226 18.3496 27.4649 19.1452 27.3499C19.4577 27.305 19.7832 27.3797 20.0836 27.2019C20.1644 27.1553 20.2329 27.2255 20.301 27.3024C20.4256 27.4435 20.6359 27.5352 20.7847 27.4234C21.0704 27.209 21.3136 27.3913 21.5744 27.4323C21.8064 27.4684 22.0158 27.6294 22.2759 27.4491C22.5023 27.2926 22.7571 27.7674 23.046 27.4392C23.2331 27.2257 23.5507 27.3652 23.8073 27.3504C25.0774 27.2843 26.3452 27.0538 27.6191 27.2781C27.7247 27.2967 27.8035 27.2728 27.872 27.216C28.2513 26.9023 28.6792 27.0835 29.0358 27.1897C29.2443 27.2522 29.2146 27.2457 29.3002 27.0952C29.3645 26.9827 29.6117 27.0337 29.6814 27.0537C30.2699 27.2218 30.8436 27.1144 31.4299 27.0772C32.0072 27.043 32.596 26.9355 33.1766 27.1125C33.2447 27.1334 33.3379 27.0409 33.4242 27.0298C33.826 26.9829 34.1977 26.8242 34.6404 26.9302C34.8584 26.983 35.2378 26.9533 35.4674 26.7088C35.6217 26.9425 35.747 26.7303 35.9194 26.6631C35.9307 26.6565 35.9081 26.6696 35.8838 26.6836C35.9226 26.7172 35.9568 26.7577 36.0025 26.7808C36.0542 26.8069 36.0971 26.7692 36.0801 26.6951C36.0735 26.6688 35.9985 26.6583 35.921 26.6621C35.7311 26.4489 35.6042 26.6621 35.469 26.7079C34.946 26.474 34.3559 26.5607 33.8236 26.3666C33.5838 26.5933 33.4181 25.9853 33.128 26.3227C32.9278 26.5546 32.6419 26.1601 32.3507 26.339C32.046 26.5278 31.7491 26.1892 31.4016 26.2069C31.0615 26.2225 30.7064 26.5071 30.3589 26.23C30.069 26.4447 30.0178 26.173 29.888 26.0155C29.779 25.8826 29.524 25.9674 29.5655 26.1027C29.6552 26.3887 29.612 26.4072 29.3204 26.3948C28.5695 26.3635 27.8139 26.365 27.0643 26.4105C26.8436 26.4238 26.8482 26.178 26.7095 26.2215C26.6323 26.2445 26.5977 26.3936 26.536 26.4809C26.5199 26.5053 26.4755 26.533 26.4584 26.5257C25.7068 26.243 24.9504 26.8218 24.1876 26.5047C23.9629 26.4105 23.6615 26.4296 23.422 26.5636C23.261 26.6544 23.1547 26.6792 23.0524 26.4908C23.0179 26.4311 22.9618 26.4161 22.8736 26.5208C22.5985 26.8432 22.1542 26.906 21.8954 26.6444C21.6686 26.4159 21.424 26.5335 21.3433 26.5693C20.7623 26.8209 20.1191 26.5767 19.5423 26.843C19.3739 26.9209 19.1282 26.8389 19.0199 26.5915C18.8761 26.2678 18.6796 26.0133 18.7298 25.5776C18.7791 25.1553 18.5436 24.6951 18.5082 24.227C18.4164 23.0189 18.4974 21.8079 18.3928 20.5964C18.3492 20.0879 18.5077 19.5487 18.5353 19.0142C18.6544 16.7008 18.5322 14.3912 18.401 12.0846C18.3525 11.2539 18.2341 10.4292 18.1497 9.59988C18.1446 9.54256 18.183 9.47091 18.161 9.42546C18.043 9.1837 17.7847 8.94544 17.9975 8.67194C18.2463 8.35617 18.6371 8.11113 18.9999 8.06743C19.5062 8.0075 20.0143 8.10366 20.2606 7.50739C20.5446 7.46178 20.8298 7.42194 21.112 7.3731C22.1439 7.19695 23.1584 6.97927 24.1441 6.58875C24.6562 6.38565 25.2237 6.10318 25.8406 6.31303C26.1775 6.42625 26.4031 5.91727 26.7685 6.11729C27.2681 5.85898 27.9094 6.0849 28.3733 5.64917C28.4153 5.60987 28.7078 5.59382 28.8754 5.63043C29.4258 5.74742 29.9733 5.93056 30.5335 5.66524C31.0099 6.05733 31.6026 5.70651 32.129 5.92769C32.5312 6.09793 32.974 6.28993 33.4544 6.17394C33.5335 6.15412 33.6609 6.18815 33.7195 6.24474C33.975 6.4932 34.2762 6.52589 34.6156 6.55377C34.9214 6.5795 35.2077 6.78432 35.5148 6.8459C35.9387 6.93046 36.3036 7.21906 36.7591 7.19061C36.8899 7.18185 36.9744 7.26861 37.0385 7.39084C37.1835 7.66438 37.3336 7.93927 37.5061 8.19693C37.6097 8.35019 37.611 8.51298 37.5198 8.62376C37.3641 8.81695 37.3734 9.01602 37.3442 9.24164C37.278 9.74681 37.029 10.2263 37.0956 10.756C37.1557 11.2335 36.8622 11.6806 36.9859 12.16C36.6052 12.5197 37.0238 12.9796 36.8152 13.3949C36.6177 13.7844 36.7774 14.2775 36.6918 14.6929C36.5995 15.1378 36.6343 15.5976 36.4937 16.0296C36.445 16.1804 36.5762 16.2509 36.6104 16.3625L36.6097 16.365ZM36.5373 9.52024C36.6516 9.46069 36.6749 9.37408 36.6058 9.26551C36.8398 9.111 36.6276 8.98605 36.581 8.84938C36.8151 8.69487 36.6029 8.56992 36.4737 8.06991C36.4085 8.13985 36.4064 8.21848 36.4719 8.27966C36.5179 8.32198 36.4869 8.48841 36.6323 8.38939C36.7174 8.3316 36.8779 8.28846 36.7987 8.1663C36.7526 8.09392 36.5874 8.09893 36.5579 8.43231C36.3238 8.58683 36.5361 8.71178 36.5827 8.84845C36.3486 9.00296 36.5608 9.12791 36.6074 9.26458C36.4931 9.32413 36.4698 9.41074 36.5809 9.59194L36.5389 9.51931C36.5053 9.5581 36.4647 9.5923 36.4415 9.63797C36.4153 9.68968 36.453 9.7325 36.5272 9.71547C36.5535 9.70886 36.5641 9.63388 36.5389 9.51931L36.5373 9.52024ZM36.3894 10.9141C36.3736 10.9576 36.3396 11.0031 36.342 11.0447C36.3488 11.1312 36.4007 11.1464 36.4491 11.0733C36.4721 11.0385 36.4679 10.9828 36.4677 10.9377C36.4672 10.9294 36.4184 10.9232 36.3798 11.1176C36.2655 11.1772 36.2422 11.2638 36.3533 11.445L36.3113 11.3724C36.2777 11.4111 36.2371 11.4453 36.2139 11.491C36.1877 11.5427 36.2254 11.5855 36.2996 11.5685C36.3259 11.5619 36.3365 11.4869 36.3113 11.3724C36.4257 11.3128 36.4489 11.2262 36.3878 10.915L36.3894 10.9141ZM35.9384 16.3222C36.0528 16.2626 36.076 16.176 36.0069 16.0674C36.241 15.9129 36.0287 15.788 35.9902 15.4487C35.9744 15.4923 35.9403 15.5377 35.9428 15.5794C35.9496 15.6658 36.0015 15.681 36.0498 15.608C36.0728 15.5732 36.0687 15.5174 36.0685 15.4723C36.068 15.464 36.0191 15.4578 35.9805 15.6522C35.7465 15.8068 35.9587 15.9317 36.0053 16.0684C35.8909 16.1279 35.8677 16.2145 35.9788 16.3957L35.9368 16.3231C35.9032 16.3619 35.8626 16.3961 35.8394 16.4418C35.8132 16.4935 35.8509 16.5363 35.9251 16.5193C35.9514 16.5127 35.962 16.4377 35.9368 16.3231L35.9384 16.3222ZM35.9027 16.7904C35.8869 16.834 35.8529 16.8795 35.8553 16.9211C35.8621 17.0075 35.914 17.0228 35.9624 16.9497C35.9854 16.9149 35.9812 16.8592 35.9811 16.8141C35.9806 16.8057 35.9317 16.7995 35.935 17.0666L35.8931 16.994C35.8595 17.0328 35.8189 17.067 35.7957 17.1126C35.7695 17.1643 35.8071 17.2072 35.8814 17.1901C35.9077 17.1835 35.9183 17.1085 35.9021 16.793L35.9027 16.7904ZM33.2273 25.2217C33.2115 25.2653 33.1774 25.3107 33.1798 25.3524C33.1867 25.4388 33.2386 25.454 33.2869 25.381C33.3099 25.3462 33.3057 25.2904 33.3056 25.2453C33.3051 25.237 33.2562 25.2308 33.2596 25.4979L33.2176 25.4252C33.184 25.464 33.1434 25.4982 33.1202 25.5439C33.094 25.5956 33.1316 25.6384 33.2059 25.6214C33.2322 25.6148 33.2428 25.5398 33.2266 25.2242L33.2273 25.2217ZM29.4158 23.3161L29.3226 23.1547C29.5558 23.0846 29.7031 22.8619 29.637 22.6913C29.5031 22.3511 29.5802 21.9472 29.3258 21.4506C29.31 21.4941 29.2759 21.5396 29.2784 21.5812C29.2852 21.6677 29.3371 21.6829 29.3854 21.6098C29.4084 21.575 29.4043 21.5193 29.4041 21.4742C29.4036 21.4659 29.3548 21.4597 29.3162 21.6541C29.1793 22.3465 29.1784 22.6548 29.3219 23.1573C29.2869 23.2011 29.2149 23.2556 29.2259 23.2859C29.2592 23.3958 29.3412 23.3699 29.4151 23.3187L29.5083 23.4801C29.394 23.5396 29.3707 23.6262 29.4398 23.7348C29.1225 24.2602 29.3632 24.8637 29.2063 25.417C29.1476 25.6252 29.3341 25.4852 29.415 25.4686C29.5091 25.4487 29.592 25.4504 29.673 25.6317L29.631 25.5591C29.5974 25.5979 29.5568 25.6321 29.5336 25.6778C29.5074 25.7295 29.5451 25.7723 29.6193 25.7553C29.6456 25.7487 29.6562 25.6737 29.631 25.5591C29.898 25.4653 29.9538 25.2522 29.9573 25.0006C29.9628 24.5024 29.6642 24.1346 29.4389 23.7332C29.5532 23.6736 29.5765 23.587 29.5074 23.4785C29.5424 23.4346 29.6144 23.3801 29.6034 23.3498C29.5701 23.2399 29.488 23.2658 29.4142 23.317L29.4158 23.3161ZM20.1223 25.8841C20.1573 25.8402 20.2293 25.7857 20.2183 25.7555C20.185 25.6455 20.1029 25.6714 20.0291 25.7227C19.9565 25.4289 20.1336 25.1609 20.0725 24.8497C19.9285 24.115 19.9872 23.3581 19.9462 22.6113C19.8547 20.9747 19.6775 19.3425 19.7036 17.7005C19.7106 17.2983 19.6767 16.8961 19.6511 16.4933C19.6486 16.4517 19.5781 16.4042 19.5273 16.3797C19.4765 16.3553 19.4492 16.4012 19.4365 16.4838C19.4244 16.5747 19.3696 16.6666 19.3781 16.7521C19.5145 18.0636 19.3209 19.3633 19.2715 20.6701C19.2364 21.5986 19.1054 22.5437 19.2419 23.4483C19.3523 24.1809 19.2682 24.8901 19.3001 25.6098C19.306 25.7506 19.2459 25.8219 19.4321 25.9317C19.6339 26.0498 19.7607 26.1574 19.9599 25.9799C20.0038 26.0149 20.0582 26.0867 20.0885 26.0757C20.1986 26.0423 20.1728 25.9603 20.1216 25.8866L20.1223 25.8841ZM19.2837 10.0298C19.2679 10.0734 19.2338 10.1189 19.2363 10.1605C19.2431 10.2469 19.295 10.2622 19.3433 10.1891C19.3663 10.1543 19.3622 10.0985 19.362 10.0535C19.3615 10.0451 19.3126 10.0389 19.274 10.2334C19.04 10.3879 19.2522 10.5128 19.2988 10.6495C19.0707 10.8629 19.2049 11.1664 19.2021 11.3854C19.1967 11.9136 19.1261 12.4708 19.4327 13.1288C19.3767 13.1138 19.4178 12.92 19.2808 13.0336C19.2496 13.058 19.2377 13.1531 19.2599 13.1877C19.3013 13.252 19.3751 13.2977 19.4359 13.3508C19.497 13.2811 19.496 13.2085 19.3533 12.9874C19.6153 12.4445 19.4872 11.8793 19.4888 11.3145C19.4893 11.043 19.4049 10.8594 19.2981 10.652C19.5322 10.4975 19.3199 10.3726 19.2814 10.0333L19.2837 10.0298ZM28.3528 23.7147C28.1187 23.8692 28.3309 23.9941 28.5163 24.3713L28.3775 24.1308C28.3425 24.1747 28.2938 24.2135 28.2759 24.2647C28.1548 24.6037 28.3786 25.0361 27.9971 25.3124C27.9874 25.318 28.0385 25.4176 28.0722 25.4648C28.1216 25.5353 28.1729 25.6391 28.2398 25.6543C28.3695 25.6849 28.3123 25.5371 28.3556 25.4777C28.6258 25.1022 28.5977 24.6988 28.3766 24.1292C28.6106 23.9747 28.3984 23.8497 28.3518 23.713C28.5859 23.5585 28.3737 23.4336 28.3271 23.2969C28.3612 23.2514 28.4246 23.2083 28.4277 23.1613C28.5174 21.8571 28.679 20.5543 28.5342 19.2433C28.521 19.1197 28.3346 18.9648 28.6374 18.8136L28.5647 18.8556C28.6035 18.8892 28.6376 18.9297 28.6833 18.9528C28.735 18.9789 28.7779 18.9412 28.761 18.8671C28.7544 18.8408 28.6794 18.8303 28.5647 18.8556C28.5504 17.1659 28.2744 15.5046 28.0366 13.8384C28.015 13.6852 27.7359 13.5602 28.0585 13.3351C27.9734 13.352 27.9648 13.3893 28.0305 13.4546C28.0875 13.5121 28.1319 13.5854 28.1951 13.6351C28.2434 13.6739 28.295 13.629 28.2811 13.5488C28.2607 13.4315 28.2002 13.3416 27.9884 13.3778C27.9585 13.1842 27.6023 13.0562 27.9432 12.7583L27.8704 12.8003C27.9092 12.8338 27.9434 12.8744 27.9891 12.8975C28.0408 12.9236 28.0837 12.8859 28.0667 12.8118C28.0601 12.7854 27.9851 12.7749 27.8704 12.8003C27.6745 12.5131 27.7745 12.1562 27.655 11.8486C27.6532 11.8454 27.7019 11.8215 27.8005 11.7646L27.7278 11.8066C27.7666 11.8402 27.8007 11.8807 27.8464 11.9038C27.8981 11.9299 27.941 11.8922 27.9241 11.8181C27.9175 11.7918 27.8425 11.7813 27.7278 11.8066C27.5211 11.1985 27.4437 10.5718 27.4742 9.9301C27.4769 9.86395 27.3973 9.74849 27.3336 9.73147C27.1969 9.69632 27.2133 9.85904 27.2211 9.90618C27.3192 10.4457 27.0199 11.0209 27.3581 11.5358C27.4398 11.6587 27.3893 11.7653 27.3671 11.8836C27.319 12.1438 27.1417 12.3817 27.3504 12.6723C27.5135 12.8987 27.2852 13.164 27.3298 13.4503C27.4773 14.3852 27.4504 15.339 27.5292 16.2856C27.6941 18.2585 27.9555 20.2231 28.1146 22.1972C28.1454 22.5754 28.1783 22.9459 28.3255 23.2978C28.0914 23.4524 28.3036 23.5773 28.3502 23.714L28.3528 23.7147ZM24.9048 17.7427C24.6708 17.8972 24.883 18.0222 24.9296 18.1588C24.6245 18.4555 24.8068 18.7226 24.979 18.9911C24.8244 20.0036 25.0462 20.9925 25.2133 21.9763C25.2838 22.3897 25.1167 22.8692 25.4812 23.2205C25.2471 23.375 25.4593 23.5 25.5059 23.6366C25.3924 24.2015 25.4528 24.7541 25.6852 25.4441C25.6292 25.4292 25.6703 25.2354 25.5333 25.3489C25.5021 25.3734 25.4902 25.4685 25.5123 25.5031C25.5538 25.5674 25.6276 25.613 25.6884 25.6661C25.7495 25.5964 25.7485 25.5238 25.6058 25.3028C25.7931 24.7126 25.7618 24.1732 25.5068 23.6382C25.7409 23.4837 25.5287 23.3588 25.4821 23.2221C25.7547 22.9141 25.6164 22.57 25.5575 22.2403C25.4177 21.4344 25.1779 20.6496 25.215 19.8104C25.2267 19.5583 25.2157 19.2181 24.98 18.9927C25.0976 18.7074 25.1028 18.429 24.9305 18.1604C25.1646 18.0059 24.9523 17.881 24.9058 17.7443C25.1398 17.5898 24.9276 17.4648 24.881 17.3282C25.1151 17.1737 24.9029 17.0487 24.8563 16.912C25.0222 16.8335 24.9146 16.7256 24.9045 16.6109C24.7544 14.7758 24.7418 12.9323 24.7621 11.0935C24.7695 10.4866 24.561 9.89034 24.7253 9.26396C24.7832 9.04328 24.8112 8.85281 24.9425 8.64355C25.0798 8.42224 24.6876 8.25056 24.7308 7.99319C24.7508 7.87838 24.7861 7.74176 24.8627 7.66529C24.9565 7.57023 25.0426 7.51406 24.9539 7.3716C24.857 7.21877 24.7611 7.30644 24.6455 7.34518C24.2119 7.49007 24.1 7.81509 24.1566 8.21927C24.1728 8.3369 24.2743 8.44183 23.9057 8.51262C23.9493 8.52836 23.9948 8.56235 24.0364 8.55982C24.1229 8.55291 24.1382 8.50103 24.0652 8.45284C24.0304 8.42989 23.9746 8.4341 23.9295 8.43433C23.9211 8.43484 23.9148 8.48367 24.1094 8.52199C24.156 8.65866 24.3682 8.78361 23.9314 8.93036C23.9749 8.9461 24.0204 8.9801 24.0621 8.97757C24.1486 8.97066 24.1639 8.91878 24.0908 8.87059C24.056 8.84764 24.0003 8.85185 23.9551 8.85208C23.9468 8.85259 23.9405 8.90141 24.1351 8.93973C24.1554 9.225 24.2092 9.51241 24.1858 9.79281C24.1685 10.0094 24.3377 10.2388 24.144 10.441C23.8529 10.7468 24.3256 10.8936 24.2927 11.1428C24.2734 11.296 23.9493 11.3282 24.1449 11.5811C24.4068 11.9227 24.4118 12.3158 24.4349 12.7479C24.4952 13.8602 24.5696 14.9707 24.624 16.0842C24.6373 16.3498 24.618 16.6859 24.8614 16.9134C24.6273 17.0679 24.8396 17.1929 24.8861 17.3295C24.6521 17.484 24.8643 17.609 24.9109 17.7457L24.9048 17.7427ZM33.3067 24.0826C33.1923 24.1421 33.1691 24.2288 33.3705 24.5665C33.2969 24.439 33.2577 24.3412 33.2403 24.3447C33.1312 24.3647 33.1057 24.4698 33.1492 24.5415C33.2189 24.6584 33.1998 24.7598 33.163 24.8714C33.146 24.9242 33.1909 24.9758 33.2621 24.9498C33.3358 24.9244 33.4443 24.851 33.443 24.8002C33.4416 24.6933 33.3785 24.5878 33.238 24.3332C33.3523 24.2736 33.3756 24.187 33.3064 24.0784C33.5405 23.9239 33.3283 23.799 33.2817 23.6623C33.5007 23.4519 33.4957 23.2267 33.3254 22.9914C33.3641 22.6851 33.4427 22.3771 33.4346 22.0719C33.4024 20.7992 33.5168 19.5302 33.4709 18.2525C33.4354 17.2465 33.3949 16.2283 33.4452 15.2179C33.4779 14.5728 33.269 13.9682 33.2487 13.3321C33.1998 11.7205 32.9807 10.1167 33.056 8.50008C33.0649 8.28404 32.8913 7.96463 33.1455 7.8824C33.3022 7.83281 33.3798 8.1948 33.5003 8.36624C33.5496 8.43675 33.5645 8.51853 33.5769 8.61467C33.7123 9.75245 33.9418 10.8854 34.0021 12.0277C34.1221 14.2998 34.3939 16.5661 34.2464 18.8528C34.1638 20.1208 34.2464 21.3987 34.2133 22.6703C34.1903 23.5488 34.1634 24.4316 34.0054 25.304C33.9904 25.3901 33.8406 25.5412 34.061 25.5646C34.1367 25.5725 34.241 25.4994 34.2998 25.4332C34.4843 25.219 34.6086 24.9191 34.4997 24.6894C34.3737 24.4264 34.4729 24.2249 34.4857 23.9894C34.6008 21.9043 34.644 19.8177 34.6277 17.7289C34.6242 17.1778 34.4784 16.6379 34.5643 16.0847C34.6313 15.6522 34.5692 15.2124 34.609 14.7698C34.6498 14.318 34.6233 13.8426 34.6777 13.3808C34.7643 12.6572 34.6329 11.9368 34.6519 11.2157C34.6698 10.5188 34.2713 9.79124 34.7962 9.1288C34.4463 8.71316 34.6305 8.2259 34.6098 7.76442C34.6008 7.54361 34.4951 7.36793 34.2357 7.32185C33.9983 7.28027 33.7818 7.16644 33.5406 7.35729C33.2995 7.54815 33.0112 7.54892 32.7421 7.19855C32.7263 7.24211 32.6922 7.28761 32.6947 7.32922C32.7015 7.41568 32.7534 7.43091 32.8017 7.35782C32.8247 7.32301 32.8206 7.2673 32.8195 7.22059C32.819 7.21227 32.7701 7.20604 32.7315 7.40049C32.35 7.36682 31.9692 7.3306 31.5879 7.30109C31.3268 7.28183 31.1404 7.07095 31.1841 6.8929C31.2586 6.58518 31.0691 6.60418 30.9147 6.5793C30.6396 6.53583 30.6007 6.78208 30.6157 6.93487C30.6606 7.42328 30.5702 7.94244 30.9185 8.37404C31.0278 8.51108 31.0541 8.67237 31.0554 8.8761C31.0664 10.3138 31.4065 11.7315 31.3405 13.1813C31.3047 13.9853 31.4983 14.8097 31.3863 15.5975C31.2682 16.4232 31.3974 17.2331 31.373 18.0456C31.3326 19.3644 31.5175 20.6888 31.5006 22.022C31.4885 22.9716 31.5729 23.9279 31.5118 24.8822C31.4985 25.0943 31.5683 25.2563 31.7181 25.3441C31.8652 25.427 32.0475 25.4853 32.2365 25.3461C32.4424 25.1949 32.5259 24.9961 32.4214 24.8003C32.2135 24.4103 32.3107 23.9926 32.2974 23.6C32.2879 23.2849 32.2941 22.9671 32.2783 22.6448C32.1934 20.9076 32.1595 19.1689 32.2945 17.4318C32.3042 17.3142 32.3843 17.1991 32.2881 17.0847C32.0103 16.7566 32.0969 16.3579 32.0855 15.9836C32.0513 14.8305 31.9562 13.6802 31.9251 12.5253C31.9013 11.6179 31.826 10.6887 31.7101 9.77859C31.6378 9.20915 31.7796 8.71192 31.9039 8.18819C31.9285 8.08146 31.9961 8.02307 32.08 8.00044C32.1755 7.97544 32.2364 8.04358 32.2906 8.12633C32.5081 8.46563 32.5068 9.16148 32.2342 9.39852C32.0863 9.52692 32.053 9.59994 32.1532 9.76593C32.5568 10.4389 32.5908 11.207 32.6603 11.9545C32.744 12.8423 32.6318 13.7679 32.8371 14.62C33.2373 16.2763 33.1395 17.951 33.1697 19.6122C33.1887 20.5933 33.2817 21.5942 33.1038 22.5814C33.0832 22.6987 33.245 22.8485 33.3224 22.9824C33.1033 23.1928 33.1084 23.4181 33.2787 23.6533C33.0446 23.8078 33.2568 23.9328 33.3034 24.0694L33.3067 24.0826ZM27.2156 8.46318C27.1998 8.50674 27.1657 8.55223 27.1682 8.59385C27.175 8.6803 27.2269 8.69553 27.2752 8.62244C27.2982 8.58764 27.2941 8.53193 27.2939 8.48683C27.2934 8.47851 27.2446 8.47228 27.3262 8.87494L27.206 8.66673C27.1719 8.71223 27.0976 8.78522 27.1076 8.79882C27.2254 8.96541 27.1009 9.1492 27.1534 9.31475C27.1688 9.36392 27.2285 9.42629 27.2739 9.43022C27.4093 9.44456 27.3538 9.31095 27.3901 9.24694C27.4864 9.08156 27.3779 8.95701 27.214 8.46411L27.2156 8.46318ZM21.5524 10.2264C21.5366 10.2699 21.5025 10.3154 21.505 10.3571C21.5118 10.4435 21.5637 10.4587 21.612 10.3857C21.635 10.3508 21.6309 10.2951 21.6307 10.25C21.6302 10.2417 21.5814 10.2355 21.5428 10.4299C21.4071 10.4824 21.4698 10.6657 21.3932 10.7121C20.9117 10.9944 21.5091 10.9615 21.499 11.1008C21.0757 11.4464 21.6742 12.009 21.2351 12.3572C21.2105 12.3779 21.2206 12.4775 21.2457 12.5211C21.483 12.9135 21.2064 13.3228 21.2882 13.7146C21.3719 14.1096 21.372 14.5055 21.3597 14.9022C21.357 14.9834 21.3509 15.0923 21.033 15.1166C21.0766 15.1323 21.1221 15.1663 21.1637 15.1638C21.2502 15.1569 21.2655 15.105 21.1925 15.0568C21.1577 15.0339 21.1019 15.0381 21.0568 15.0383C21.0484 15.0388 21.0422 15.0876 21.2367 15.126C21.2579 15.4688 21.3372 15.819 21.2927 16.1525C21.0272 18.0855 21.3843 20.0142 21.2968 21.9456C21.26 22.733 21.6138 23.51 21.1616 24.2984C21.2051 24.3141 21.2506 24.3481 21.2923 24.3456C21.3788 24.3387 21.3941 24.2868 21.321 24.2386C21.2862 24.2156 21.2305 24.2199 21.1837 24.221C21.1754 24.2215 21.1691 24.2704 21.3636 24.3087C21.409 24.7344 21.4428 25.1625 21.5007 25.5875C21.554 25.9785 21.7662 25.7936 22.0177 25.6506C21.9326 25.6674 21.9239 25.7047 21.9897 25.77C22.0466 25.8276 22.0911 25.9009 22.1542 25.9505C22.2025 25.9893 22.2542 25.9444 22.2402 25.8643C22.2199 25.7469 22.1593 25.657 21.9475 25.6932C21.9908 25.0851 22.1101 24.4631 21.9415 23.8761C21.7928 23.3572 22.0953 22.877 21.9715 22.3975C21.8399 21.8859 21.8407 21.3647 21.8297 20.8567C21.8035 19.6129 21.9042 18.3689 21.8636 17.1227C21.8436 16.4908 21.8398 15.8645 21.7553 15.229C21.6802 14.6698 21.7009 14.0746 21.7033 13.4965C21.7081 12.706 21.752 11.8823 21.4974 11.1017C21.6787 11.0014 21.8885 10.9168 21.6742 10.6575C21.6184 10.5907 21.5849 10.5067 21.5492 10.2283L21.5524 10.2264ZM25.6916 10.6278C25.6132 10.7161 25.6191 10.7859 25.6719 10.8587C25.7056 10.906 25.7391 11.005 25.758 11.0005C25.863 10.9808 25.8849 10.8842 25.8527 10.806C25.8235 10.7368 25.7494 10.687 25.8999 11.25C25.8533 11.1693 25.7898 11.0145 25.7625 11.0195C25.609 11.0521 25.6131 11.2198 25.6151 11.3241C25.6222 12.1614 25.6111 13.0007 25.6781 13.8336C25.7926 15.2675 25.6313 16.7164 25.9392 18.1419C25.9739 18.3027 26.0259 18.5309 25.9497 18.7535C25.8439 19.0556 25.959 19.3744 26.0106 19.6953C26.132 20.4581 26.3328 21.2052 26.315 22.0031C26.2927 23.0619 26.4661 24.1239 26.5125 25.186C26.5229 25.4318 26.5947 25.5001 26.7935 25.5532C27.0448 25.619 27.2442 25.5275 27.3028 25.3043C27.4014 24.9375 27.6359 24.5783 27.3429 24.1643C27.227 24.0009 27.2672 23.7195 27.2568 23.4887C27.199 22.1642 27.162 20.8384 27.0884 19.5164C27.0467 18.7722 26.983 18.0235 26.8649 17.2889C26.7333 16.4675 26.6473 15.6391 26.4857 14.8178C26.349 14.122 26.2232 13.4113 26.166 12.6889C26.1297 12.2192 26.186 11.6896 25.6948 10.626L25.6916 10.6278ZM29.0978 6.71364C28.9978 7.01455 29.2535 7.25214 29.2232 7.55801C29.1311 8.46986 29.1497 9.38669 29.2275 10.3016C29.2577 10.6414 29.3227 10.9891 29.2797 11.3216C29.2314 11.6896 29.5175 12.0172 29.1491 12.372C29.1926 12.3877 29.2381 12.4217 29.2798 12.4192C29.3663 12.4122 29.3816 12.3604 29.3085 12.3122C29.2737 12.2892 29.2179 12.2934 29.1728 12.2937C29.1645 12.2942 29.1582 12.343 29.3527 12.3813C29.3794 12.7038 29.3316 13.0241 29.3196 13.3431C29.2854 14.1461 29.1721 14.954 29.3589 15.7629C29.6879 17.1913 29.8761 18.6408 29.9439 20.1059C29.9781 20.8222 29.9347 21.5682 30.1287 22.2439C30.2903 22.8112 30.348 23.374 30.4203 23.9435C30.464 24.2992 30.6547 24.6668 30.2817 25.0026C30.154 25.1173 30.3237 25.3701 30.4864 25.4354C30.6739 25.5101 30.7526 25.3291 30.7624 25.1706C30.8212 24.2758 30.8051 23.3856 30.6712 22.4966C30.5823 21.9023 30.525 21.3027 30.466 20.7041C30.3967 20.0167 30.6694 19.3169 30.3863 18.6324C30.3473 18.5387 30.4109 18.3987 30.4341 18.2821C30.5393 17.7328 30.5291 17.1813 30.5245 16.6244C30.5192 15.9023 30.4199 15.1891 30.4667 14.4563C30.5003 13.9247 30.5071 13.3655 30.4828 12.8157C30.4338 11.7228 30.1566 10.6604 30.1027 9.57031C30.0573 8.65177 30.0119 7.73322 29.964 6.814C29.9554 6.64245 29.9063 6.5051 29.6942 6.59314C29.5034 6.67319 29.2655 6.51137 28.8995 6.7098C28.943 6.72553 28.9885 6.75953 29.0302 6.75701C29.1167 6.75009 29.132 6.69821 29.0589 6.65002C29.0241 6.62707 28.9684 6.63129 28.9232 6.63152C28.9149 6.63202 28.9086 6.68084 29.1032 6.71917L29.0978 6.71364ZM24.7034 25.6064C24.5324 24.9368 24.9306 24.1819 24.3964 23.5627C24.3588 23.5199 24.4478 23.3867 24.432 23.3033C24.3257 22.7384 24.3091 22.1648 24.2269 21.5968C24.0358 20.2652 23.9258 18.9213 23.7885 17.5823C23.7321 17.0403 23.7352 16.4747 23.6294 15.959C23.3549 14.6326 23.3273 13.2819 23.1253 11.9503C23.0782 11.6374 23.0384 11.3182 23.0027 11.0138C22.9666 10.7011 22.8583 10.3978 22.8286 10.0814C22.8069 9.84214 23.1264 9.83196 23.0264 9.64006C22.804 9.21753 22.4733 8.8425 22.6628 8.28976C22.6935 8.20104 22.5512 7.79036 22.2962 7.86011C21.9161 7.96333 22.3012 8.19725 22.2747 8.35672C22.236 8.59211 22.4134 8.79101 22.3908 8.94606C22.3184 9.42906 22.7842 9.91117 22.1736 10.3692C22.2172 10.3849 22.2627 10.4189 22.3043 10.4164C22.3909 10.4094 22.4062 10.3576 22.3331 10.3094C22.2983 10.2864 22.2425 10.2906 22.1958 10.2918C22.1874 10.2923 22.1812 10.3411 22.3757 10.3795C22.4115 10.49 22.5463 10.5629 22.4931 10.7098C22.3473 11.1254 22.2422 11.5369 22.6076 11.9048C22.7108 12.0088 22.6302 12.1306 22.6288 12.2476C22.6116 12.9979 22.5561 13.753 22.6145 14.4962C22.6642 15.1347 22.5322 15.7833 22.6461 16.3912C22.7717 17.0568 22.7723 17.6999 22.7776 18.3661C22.782 19.0307 22.6957 19.6875 22.7221 20.3566C22.7818 21.9383 23.0744 23.5276 22.7308 25.1162C22.706 25.2338 22.773 25.391 22.7495 25.5444C22.7342 25.6522 22.8412 25.7928 22.9853 25.7289C23.5452 25.4853 24.1382 25.7584 24.7727 25.5621L24.7 25.6041C24.7387 25.6376 24.7729 25.6782 24.8186 25.7013C24.8703 25.7274 24.9132 25.6897 24.8963 25.6156C24.8897 25.5892 24.8147 25.5788 24.7 25.6041L24.7034 25.6064ZM31.8651 32.0081C31.9958 32.3652 32.1562 32.6019 32.5218 32.2832C32.8697 32.4826 33.2168 32.2887 33.5606 32.2645C33.8768 32.2411 34.2356 31.765 34.1693 31.5494C33.9525 30.8417 33.3025 30.623 32.7567 30.286C32.6769 30.2374 32.6705 30.2712 32.6387 30.3541C32.5443 30.6088 32.3692 30.6862 32.0794 30.677C31.9613 30.6742 32.0918 31.0271 31.8868 31.2058C31.634 31.4249 31.5316 31.7552 31.8635 32.009L31.8651 32.0081ZM23.126 31.2882C23.1208 31.3128 23.0847 31.3809 23.1043 31.4148C23.3139 31.763 22.9391 31.7297 22.8187 31.8573C22.7597 31.9193 22.6394 31.92 22.6332 32.0398C22.626 32.173 22.9865 32.6966 23.1325 32.7629C23.8257 33.0751 24.5196 32.7949 24.8062 32.0893C24.9915 31.6337 24.8854 31.3829 24.4256 31.1986C23.988 31.023 23.5666 31.2899 23.1295 31.2905L23.126 31.2882ZM19.398 14.0355C19.322 14.0793 19.2414 14.1151 19.2254 14.2255C19.1744 14.5777 19.0874 14.9982 19.3838 15.2166C19.5892 15.367 19.1809 15.7275 19.5722 15.6437C19.8982 15.5738 19.6514 15.2471 19.6391 15.11C19.6144 14.8209 19.4965 14.5532 19.6196 14.2476C19.6597 14.1491 19.5498 14.0296 19.3989 14.0371L19.398 14.0355ZM19.7975 32.418C19.7441 32.3068 19.6925 32.1838 19.5358 32.2484C19.3353 32.3341 19.3823 32.464 19.4761 32.6078C19.5406 32.7083 19.5835 32.8385 19.7408 32.7714C19.9397 32.6866 19.9034 32.5527 19.7966 32.4163L19.7975 32.418ZM19.1542 9.65259C19.1991 9.68913 19.2653 9.76279 19.2821 9.75091C19.4211 9.67066 19.3773 9.50877 19.4293 9.38617C19.374 9.38368 19.3084 9.36343 19.2636 9.38285C19.1488 9.43408 19.0632 9.5136 19.1542 9.65259ZM19.2477 33.7017C19.2048 33.6684 19.1462 33.5967 19.1175 33.6068C19.0128 33.6458 19.0328 33.7289 19.0905 33.7989C19.1256 33.8411 19.1904 33.9048 19.2191 33.8947C19.3237 33.8558 19.2998 33.777 19.2477 33.7017ZM36.3972 10.0316C36.3638 10.0745 36.292 10.1332 36.3021 10.1618C36.3409 10.2663 36.4241 10.2463 36.4943 10.1886C36.5365 10.1534 36.6003 10.0886 36.5903 10.06C36.5515 9.95539 36.4726 9.97938 36.3972 10.0316ZM29.2206 20.8764C29.1995 20.9145 29.1493 20.9693 29.1616 20.9945C29.1978 21.0683 29.2163 21.1824 29.3326 21.1712C29.3608 21.1678 29.4117 21.0804 29.3986 21.0578C29.3625 20.984 29.3461 20.8772 29.2206 20.8764ZM19.4239 16.0327C19.4629 16.0554 19.5028 16.0797 19.5418 16.1024C19.5493 16.0744 19.5718 16.0312 19.5611 16.0202C19.5307 15.9861 19.4869 15.9662 19.4486 15.941C19.441 15.969 19.4335 15.997 19.4239 16.0327ZM19.3831 13.6438C19.3742 13.6769 19.3667 13.7049 19.3585 13.7355C19.4043 13.7327 19.4538 13.7364 19.4956 13.723C19.5104 13.7188 19.5126 13.6702 19.5201 13.6422C19.4734 13.6433 19.4282 13.6436 19.3831 13.6438ZM31.9648 33.7561C31.9317 33.7472 31.9036 33.7398 31.873 33.7316C31.8758 33.7774 31.872 33.8269 31.8854 33.8687C31.8896 33.8834 31.9382 33.8855 31.9662 33.893C31.9651 33.8463 31.965 33.8012 31.9648 33.7561ZM21.5073 9.80481C21.4997 9.83283 21.4772 9.87596 21.4879 9.88701C21.5184 9.92108 21.5622 9.94097 21.6005 9.96621C21.608 9.93819 21.6305 9.89507 21.6198 9.88402C21.5894 9.84995 21.5456 9.83005 21.5073 9.80481ZM31.3554 25.4997C31.3943 25.5224 31.4342 25.5467 31.4732 25.5694C31.4807 25.5414 31.5033 25.4983 31.4926 25.4872C31.4621 25.4531 31.4183 25.4332 31.38 25.408C31.3725 25.436 31.365 25.464 31.3554 25.4997ZM21.9458 8.82854C21.9789 8.83739 22.007 8.84487 22.0375 8.85304C22.0348 8.80727 22.0386 8.75777 22.0252 8.71598C22.021 8.7012 21.9724 8.69913 21.9444 8.69164C21.9455 8.73835 21.9456 8.78344 21.9458 8.82854ZM29.2527 20.4727C29.2195 20.4639 29.1915 20.4564 29.1609 20.4482C29.1636 20.494 29.1599 20.5435 29.1732 20.5853C29.1775 20.6001 29.2261 20.6022 29.2541 20.6096C29.253 20.5629 29.2528 20.5178 29.2527 20.4727ZM19.6821 31.3333C19.6732 31.3664 19.6657 31.3944 19.6574 31.425C19.7032 31.4222 19.7528 31.4259 19.7946 31.4125C19.8094 31.4082 19.8115 31.3597 19.8191 31.3316C19.7723 31.3328 19.7272 31.333 19.6821 31.3333ZM25.6187 10.2589C25.6098 10.292 25.6022 10.32 25.594 10.3506C25.6398 10.3478 25.6894 10.3515 25.7312 10.3381C25.746 10.3339 25.7481 10.2853 25.7557 10.2573C25.7089 10.2584 25.6638 10.2587 25.6187 10.2589ZM25.6408 9.8157C25.6181 9.85467 25.5937 9.89457 25.5709 9.93353C25.5989 9.94102 25.6421 9.96347 25.6531 9.95277C25.6873 9.9223 25.7072 9.8785 25.7326 9.84021C25.7045 9.83272 25.6765 9.82523 25.6408 9.8157ZM25.3932 9.57345C25.4322 9.59615 25.4721 9.62046 25.511 9.64315C25.5186 9.61513 25.5411 9.572 25.5304 9.56096C25.4999 9.52689 25.4561 9.50699 25.4178 9.48175L25.3932 9.57345ZM36.3588 26.6999C36.3977 26.7226 36.4376 26.7469 36.4766 26.7696C36.4841 26.7416 36.5066 26.6985 36.496 26.6874C36.4655 26.6533 36.4217 26.6334 36.3834 26.6082L36.3588 26.6999ZM27.1807 8.00339C27.1896 7.97027 27.1972 7.94226 27.2054 7.91169C27.1596 7.91447 27.11 7.91079 27.0682 7.92418C27.0534 7.92842 27.0513 7.97699 27.0438 8.00501C27.0905 8.00385 27.1356 8.00362 27.1807 8.00339ZM20.1857 33.8854C20.1526 33.8765 20.1245 33.869 20.094 33.8609C20.0967 33.9066 20.0929 33.9562 20.1063 33.9979C20.1105 34.0127 20.1591 34.0148 20.1871 34.0223C20.186 33.9756 20.1859 33.9305 20.1857 33.8854ZM36.117 14.8956C36.1259 14.8625 36.1334 14.8345 36.1416 14.8039C36.0958 14.8067 36.0463 14.803 36.0044 14.8164C35.9896 14.8206 35.9875 14.8692 35.98 14.8972C36.0267 14.896 36.0718 14.8958 36.117 14.8956ZM36.0261 14.3649C36.0033 14.4038 35.9789 14.4437 35.9562 14.4827C35.9842 14.4902 36.0273 14.5126 36.0384 14.5019C36.0725 14.4715 36.0925 14.4276 36.1178 14.3894L36.0261 14.3649ZM35.7434 13.2368C35.7345 13.27 35.7269 13.298 35.7187 13.3285C35.7645 13.3258 35.8141 13.3294 35.8559 13.3161C35.8707 13.3118 35.8728 13.2632 35.8804 13.2352C35.8336 13.2364 35.7885 13.2366 35.7434 13.2368ZM36.1351 12.7955C36.1262 12.8286 36.1187 12.8566 36.1105 12.8872C36.1563 12.8844 36.2058 12.8881 36.2476 12.8747C36.2624 12.8704 36.2646 12.8219 36.2721 12.7938C36.2254 12.795 36.1802 12.7952 36.1351 12.7955ZM36.4009 10.6428C36.4237 10.6038 36.448 10.5639 36.4708 10.5249C36.4428 10.5174 36.3996 10.495 36.3886 10.5057C36.3544 10.5362 36.3345 10.58 36.3092 10.6182L36.4009 10.6428Z" fill="#322723"/>
<path d="M38.1696 8.39083C38.3142 8.33529 38.7209 8.65143 38.6998 8.81642C38.6764 8.99992 38.6185 9.17967 38.5588 9.35619C38.2356 10.3046 38.1468 11.2856 38.1289 12.2773C38.1273 12.3642 38.1495 12.4698 38.1109 12.5373C37.7004 13.2262 37.7937 14.0224 37.6922 14.7611C37.5919 15.4796 37.5571 16.2293 37.4492 16.9458C37.2351 18.352 37.0896 19.7574 36.9858 21.1753C36.946 21.7298 36.8443 22.3115 36.7069 22.8686C36.6413 23.1281 36.5556 23.3605 36.697 23.6577C36.801 23.8752 36.7014 24.2103 36.4762 24.3877C36.3724 24.4692 36.4619 24.7661 36.2365 24.6445C36.1389 24.5911 36.0306 24.4297 36.0575 24.2485C36.1808 23.4392 36.0622 22.6253 36.0901 21.8151C36.0917 21.7582 36.0584 21.6892 36.0809 21.6461C36.4261 20.9712 36.2071 20.226 36.3472 19.5167C36.4848 18.8218 36.58 18.1019 36.6409 17.3974C36.7012 16.6955 36.8721 16.0136 36.9225 15.3281C36.9839 14.505 37.0708 13.6887 37.1508 12.8678C37.1742 12.6283 37.1982 12.3863 37.268 12.1674C37.4827 11.4904 37.5073 10.7639 37.8102 10.109C37.9539 9.79796 37.8835 9.47063 37.8295 9.15316C37.7708 8.81259 38.0798 8.65353 38.1705 8.39245L38.1696 8.39083Z" fill="#322723"/>
<path d="M40.0396 8.86856C40.2193 9.07902 40.1705 9.32671 40.1466 9.61381C40.0447 10.7551 39.6517 11.8213 39.3749 12.9173C39.1982 13.6154 39.1503 14.3275 39.0502 15.0351C38.9423 15.8076 38.7792 16.6077 38.324 17.2751C38.2494 17.3848 38.2022 17.6725 38.0279 17.6096C37.8912 17.5594 37.7683 17.3355 37.7367 17.1687C37.706 17.0035 37.7849 16.8116 37.8356 16.6381C38.1225 15.6568 38.1617 14.6421 38.2698 13.6349C38.302 13.3323 38.4092 13.0401 38.4691 12.7408C38.5993 12.0889 38.9415 11.476 38.8586 10.7836C38.8153 10.4212 39.1829 10.2068 39.1534 9.80849C39.1324 9.52577 39.2329 9.17722 39.4697 8.88556C39.8226 8.45155 39.7787 8.41663 40.0383 8.87365L40.0396 8.86856Z" fill="#322723"/>
<path d="M17.5335 32.974C17.4644 32.8654 17.4876 32.7788 17.602 32.7192L17.6951 32.8806L17.5335 32.974Z" fill="#322723"/>
<path d="M32.5351 46.264C32.6042 46.3726 32.581 46.4592 32.4666 46.5187L32.3734 46.3573L32.5351 46.264Z" fill="#322723"/>
<path d="M38.1738 38.4881C38.2429 38.5967 38.2196 38.6833 38.1053 38.7429L38.0121 38.5815L38.1738 38.4881Z" fill="#322723"/>
<path d="M33.037 87.078C33.1062 87.1866 33.0829 87.2732 32.9686 87.3327L32.8754 87.1713L33.037 87.078Z" fill="#322723"/>
<path d="M20.1209 25.884L19.9593 25.9774C19.8901 25.8688 19.9134 25.7822 20.0277 25.7226L20.1209 25.884Z" fill="#322723"/>
</svg>
