<svg width="134" height="145" viewBox="0 0 134 145" fill="none" xmlns="http://www.w3.org/2000/svg">
<g clip-path="url(#clip0_163_2088)">
<path d="M63.7998 57.2529C65.0087 57.4228 66.2173 57.0325 67.4053 56.8385C68.2817 56.6964 69.1263 56.5942 70.01 56.6076C70.8795 56.6198 71.7611 56.5712 72.6207 56.4396C73.8651 56.2503 75.0914 56.5494 76.3265 56.4893C76.5467 56.4781 76.7891 56.5398 76.8927 56.8118C76.9407 56.9418 77.026 57.0618 77.1163 57.1687C77.7727 57.955 77.9173 58.7883 77.3565 59.6901C77.2881 59.6396 77.2017 59.5336 77.1564 59.552C76.9915 59.6086 77.035 59.7314 77.1166 59.8404C77.066 59.9088 76.9598 59.9953 76.9782 60.0406C77.0346 60.2053 77.1576 60.1617 77.2667 60.0799C77.4475 60.5337 76.8749 60.649 76.6933 61.0096C76.6064 61.0307 76.6772 61.0798 76.7387 61.0713C76.8694 61.056 76.8898 60.9766 76.7764 60.9075C76.7224 60.8747 76.6381 60.8841 76.5697 60.8869C76.5571 60.8881 76.5502 60.9625 76.6933 61.0096C76.6446 61.9341 75.9664 62.5525 75.407 63.2433C75.1 63.6224 74.8239 64.0189 74.3552 64.2625C73.9726 64.4622 73.7046 64.877 73.4324 65.1943C72.3376 66.4807 71.0084 67.5637 70.2914 69.1971C69.9156 70.053 69.6029 70.9294 69.2334 71.7847C69.165 71.7342 69.0786 71.6282 69.0333 71.6466C68.8684 71.7032 68.9119 71.826 68.9935 71.935C68.9429 72.0034 68.8367 72.09 68.8551 72.1352C68.9115 72.3 69.0345 72.2563 69.1436 72.1745C68.8509 72.9283 68.6713 73.708 68.4509 74.5133C68.3639 74.5344 68.4347 74.5834 68.4962 74.5749C68.627 74.5597 68.6474 74.4802 68.5339 74.4112C68.4799 74.3783 68.3957 74.3878 68.3273 74.3906C68.3147 74.3918 68.3078 74.4662 68.4509 74.5133C68.6749 74.94 68.5851 75.3299 68.1815 75.6828C68.0945 75.7039 68.1653 75.753 68.2268 75.7445C68.3576 75.7292 68.3779 75.6498 68.2645 75.5807C68.2105 75.5479 68.1262 75.5573 68.0578 75.5601C68.0453 75.5613 68.0384 75.6357 68.1815 75.6828C68.2023 76.02 68.6671 76.3726 68.152 76.702C68.065 76.7232 68.1358 76.7722 68.1973 76.7637C68.328 76.7485 68.3484 76.669 68.235 76.6C68.181 76.5671 68.0967 76.5765 68.0283 76.5793C68.0157 76.5806 68.0089 76.6549 68.152 76.702C68.4873 77.3759 68.2185 78.0346 68.2284 78.6956C68.2583 80.4014 68.2945 82.1067 68.4329 83.8045C68.5023 84.6617 68.8024 85.4978 69.0016 86.3437C69.0359 86.489 69.0455 86.6164 68.7249 86.6805C68.6379 86.7016 68.7087 86.7507 68.7702 86.7421C68.901 86.7269 68.9214 86.6475 68.8079 86.5784C68.7539 86.5455 68.6697 86.555 68.5989 86.5593C68.5863 86.5605 68.5794 86.6349 68.7225 86.682C68.9545 86.8869 69.2845 87.0671 68.7828 87.3114C68.6958 87.3325 68.7666 87.3815 68.8281 87.373C68.9589 87.3578 68.9792 87.2783 68.8658 87.2093C68.8118 87.1764 68.7275 87.1859 68.6591 87.1887C68.6466 87.1899 68.6397 87.2643 68.7828 87.3114C69.0147 87.5163 69.3448 87.6965 68.8431 87.9407C68.7561 87.9619 68.8269 88.0109 68.8884 88.0024C69.0191 87.9872 69.0395 87.9077 68.9261 87.8387C68.8721 87.8058 68.7878 87.8152 68.7194 87.8181C68.7068 87.8193 68.7 87.8936 68.8431 87.9407C69.2944 88.3785 69.1755 88.8766 69.2213 89.3549C69.3545 90.7459 69.6431 92.1128 69.5109 93.5333C69.4058 94.6666 69.3803 95.8201 69.9114 96.8917C69.5958 98.2168 70.0718 99.5097 70.0745 100.826C70.076 102.129 70.3226 103.429 70.3343 104.733C70.3378 105.287 70.7412 105.782 70.3527 106.345C70.2657 106.367 70.3365 106.416 70.398 106.407C70.5288 106.392 70.5491 106.312 70.4357 106.243C70.3817 106.211 70.2974 106.22 70.2291 106.223C70.2165 106.224 70.2096 106.298 70.3527 106.345C70.6177 107.414 70.7289 108.481 70.8464 109.549C70.8626 109.692 70.8849 109.818 70.5643 109.882C70.4773 109.903 70.5481 109.952 70.6096 109.944C70.7404 109.929 70.7607 109.849 70.6473 109.78C70.5933 109.747 70.509 109.757 70.4406 109.76C70.428 109.761 70.4212 109.835 70.5643 109.882C70.7236 110.643 71.0128 111.392 70.6553 112.16C70.5683 112.181 70.6391 112.23 70.7006 112.222C70.8314 112.207 70.8517 112.127 70.7383 112.058C70.6843 112.025 70.6 112.035 70.5317 112.038C70.5191 112.039 70.5122 112.113 70.6553 112.16C70.9203 113.228 71.0315 114.296 71.149 115.363C71.1652 115.507 71.1875 115.633 70.8669 115.697C70.7799 115.718 70.8507 115.767 70.9122 115.759C71.043 115.743 71.0633 115.664 70.9499 115.595C70.8959 115.562 70.8116 115.571 70.7432 115.574C70.7306 115.575 70.7238 115.65 70.8669 115.697C71.3218 116.252 71.3689 116.877 71.4544 117.477C71.7068 119.25 71.7718 121.044 71.9448 122.824C71.9626 122.996 72.0647 123.186 72.0194 123.337C71.6418 124.612 72.1864 125.785 72.4392 126.977C72.5408 127.454 72.6329 127.963 72.5866 128.396C72.5388 128.853 73.0896 129.188 72.5814 129.63C72.4944 129.651 72.5653 129.7 72.6267 129.692C72.7575 129.677 72.7779 129.597 72.6645 129.528C72.6105 129.495 72.5262 129.505 72.4578 129.507C72.4452 129.509 72.4383 129.583 72.5814 129.63C73.0766 130.234 73.0298 130.874 72.7623 131.518C72.6753 131.539 72.7461 131.588 72.8076 131.58C72.9383 131.565 72.9587 131.485 72.8453 131.416C72.7913 131.383 72.707 131.393 72.6386 131.396C72.626 131.397 72.6192 131.471 72.7623 131.518C72.96 132.308 72.6834 132.992 72.2272 133.618C72.1588 133.568 72.0724 133.462 72.0271 133.48C71.8621 133.537 71.9057 133.659 71.9873 133.768C71.9367 133.837 71.8305 133.923 71.8488 133.969C71.9053 134.133 72.0283 134.09 72.1374 134.008C71.8673 134.931 71.5368 135.822 71.0261 136.649C70.6817 137.208 70.6091 137.898 70.1978 138.436C69.7881 138.976 69.576 139.602 69.33 140.234C69.0041 141.078 68.508 141.886 67.9501 142.606C67.3269 143.413 65.8499 143.311 65.1096 142.524C64.4713 141.847 63.8087 141.194 63.1929 140.5C63.0263 140.314 62.8334 140.251 62.6525 140.128C61.9525 139.656 61.1602 139.255 60.858 138.383C60.7081 137.947 60.1835 137.979 59.9827 137.567C59.6446 136.878 59.56 136.088 59.0507 135.456C58.8271 135.179 59.1274 134.731 59.0007 134.283C58.6446 133.022 58.1183 131.814 57.9026 130.505C57.6319 128.873 57.2539 127.262 56.9334 125.641C56.9226 125.581 57.0254 125.5 57.1312 125.397C57.148 125.387 57.1144 125.408 57.0785 125.43C57.1391 125.479 57.1931 125.539 57.2636 125.571C57.3434 125.608 57.4064 125.548 57.3766 125.437C57.3652 125.397 57.2509 125.386 57.1336 125.396C56.5314 124.205 56.6559 122.863 56.4291 121.584C56.2616 120.645 56.5377 119.625 55.9155 118.77C56.0385 118.023 55.9115 117.282 55.8569 116.539C55.7833 115.531 55.5794 114.544 55.7862 113.504C55.9191 112.847 55.7685 112.111 55.6326 111.435C55.562 111.083 55.5553 110.827 55.8347 110.532C55.8515 110.521 55.8179 110.542 55.7819 110.565C55.8425 110.613 55.8965 110.673 55.967 110.706C56.0468 110.742 56.1098 110.683 56.0801 110.571C56.0686 110.532 55.9543 110.52 55.8371 110.53C55.769 109.952 55.8737 109.346 55.7277 108.724C55.6775 108.505 55.612 108.219 55.6592 107.943C55.7573 107.374 56.3072 106.85 55.8615 106.218C56.1684 105.572 56.0843 104.841 56.0645 104.196C56.0426 103.516 56.3168 102.941 56.3501 102.306C56.4432 100.45 56.6793 98.6142 56.9673 96.7759C57.1255 95.7594 57.0411 94.6915 57.2706 93.6237C57.2874 93.6132 57.2538 93.6342 57.2178 93.6568C57.2785 93.7055 57.3325 93.7651 57.403 93.7976C57.4828 93.8344 57.5457 93.7749 57.516 93.6634C57.5046 93.6239 57.3903 93.6121 57.273 93.6222C57.199 92.411 57.1738 91.1659 57.1613 89.9195C57.1609 89.7963 57.1656 89.6332 57.3911 89.5453C57.4079 89.5348 57.3744 89.5558 57.3384 89.5784C57.399 89.6271 57.453 89.6867 57.5235 89.7192C57.6033 89.756 57.6663 89.6965 57.6365 89.585C57.6251 89.5455 57.5108 89.5337 57.3935 89.5438C57.2627 89.3723 56.9342 89.1945 57.3333 88.9144C57.3501 88.9039 57.3165 88.9249 57.2805 88.9475C57.3411 88.9962 57.3951 89.0558 57.4656 89.0884C57.5454 89.1251 57.6084 89.0656 57.5786 88.9542C57.5672 88.9146 57.4529 88.9028 57.3357 88.9129C57.0698 87.9821 57.2739 87.0069 57.2807 86.042C57.2858 85.3783 57.2723 84.7063 57.2015 84.0601C57.0678 82.8763 57.1611 81.687 57.0436 80.5131C56.9704 79.7884 57.0123 78.9916 56.6284 78.3415C56.3027 77.795 56.2412 77.2598 56.3127 76.6646C56.411 75.8458 56.4478 75.0355 55.8329 74.3633C55.7829 73.2972 54.827 72.6352 54.6064 71.6593C54.3816 70.666 53.6796 69.9617 53.2038 69.1223C52.6929 68.2215 52.1469 67.3394 51.552 66.4913C51.1387 65.9063 50.9971 65.1044 50.1925 64.8012C49.9036 64.692 50.2474 64.2865 50.0449 64.0431C49.9272 63.9034 49.511 64.0708 49.6632 63.6685C48.8932 63.0101 48.641 61.9305 47.9227 61.3065C47.3123 60.775 47.0675 59.931 46.2674 59.5817C46.0193 59.4736 45.8892 59.0581 45.7343 58.7682C45.3401 58.0378 45.4558 57.7052 46.1163 57.2346C46.6423 56.8583 47.1333 56.7942 47.7944 56.8737C48.8773 57.0024 49.9897 56.8692 51.0908 56.8564C51.1607 56.856 51.2333 56.9506 51.3387 57.0547C51.3492 57.0715 51.3282 57.0379 51.3056 57.002C51.2568 57.0627 51.1971 57.1167 51.1645 57.1872C51.1276 57.267 51.187 57.3299 51.2986 57.3C51.3382 57.2885 51.3501 57.1743 51.3402 57.0571C52.4575 57.0542 53.6146 56.9763 54.7897 57.2308C54.8002 57.2476 54.7791 57.2141 54.7566 57.1781C54.7078 57.2388 54.6481 57.2928 54.6154 57.3633C54.5786 57.4431 54.638 57.506 54.7496 57.4761C54.7892 57.4646 54.8011 57.3504 54.7912 57.2332C55.095 57.313 55.4485 56.8481 55.811 57.2614C55.8215 57.2782 55.8005 57.2446 55.778 57.2087C55.7291 57.2693 55.6694 57.3234 55.6368 57.3939C55.5999 57.4737 55.6594 57.5365 55.7709 57.5067C55.8105 57.4952 55.8224 57.381 55.8125 57.2638C56.0788 57.177 56.4255 57.0265 56.6667 57.1289C57.8373 57.6163 59.0876 57.2232 60.2669 57.5218C61.0478 57.2059 61.9025 57.5144 62.702 57.2336C63.0304 57.1179 63.4217 56.916 63.8226 57.2519C63.8331 57.2687 63.8121 57.2352 63.7896 57.1993C63.7407 57.2599 63.6811 57.3139 63.6484 57.3845C63.6116 57.4642 63.671 57.5271 63.7825 57.4972C63.8221 57.4858 63.8341 57.3715 63.8241 57.2543L63.7998 57.2529ZM64.128 123.048C64.1064 123.115 64.0572 123.186 64.0633 123.249C64.0783 123.379 64.1578 123.4 64.2271 123.286C64.26 123.232 64.2507 123.148 64.248 123.08C64.2468 123.067 64.1724 123.06 64.1245 123.357C62.9103 123.941 62.4179 125 62.0964 126.236C61.9931 126.631 62.2914 127.038 61.659 127.377C61.7259 127.399 61.7967 127.448 61.8597 127.442C61.9904 127.426 62.0108 127.347 61.8974 127.278C61.8434 127.245 61.7591 127.254 61.6907 127.257C61.6781 127.258 61.6712 127.333 61.9682 127.38C62.4624 127.854 61.7033 128.584 62.2992 129.044C62.3061 129.05 62.2288 129.198 62.1667 129.254C62.0249 129.379 61.8516 129.508 62.1825 129.578C62.5002 129.642 62.7489 129.863 63.0234 129.955C63.8763 130.244 64.841 130.334 65.6522 130.029C66.904 129.558 67.7484 128.352 67.5342 126.938C67.4644 126.475 67.4203 125.989 67.406 125.508C67.3714 124.455 66.9082 123.615 65.7807 123.02C65.7591 123.087 65.7099 123.158 65.716 123.221C65.731 123.351 65.8105 123.372 65.8798 123.258C65.9127 123.204 65.9034 123.12 65.9007 123.052C65.8995 123.039 65.8251 123.032 65.7772 123.329C65.2964 123.42 64.7618 123.068 64.315 123.501C64.3054 123.507 64.192 123.412 64.1286 123.054L64.128 123.048ZM60.5917 113.432C60.4208 112.909 59.8382 112.747 59.47 112.367C59.1156 111.998 58.6265 112.268 58.6729 112.833C58.7209 113.4 58.6481 113.716 58.0254 113.639C57.804 113.611 57.6841 113.739 57.5258 113.812C57.3833 113.878 57.3012 114.003 57.3571 114.134C57.4276 114.3 57.5282 114.487 57.6692 114.579C57.8741 114.714 57.8497 114.473 57.8746 114.374C57.9422 114.098 58.2077 114.068 58.3903 113.944C59.0785 113.469 59.044 113.574 59.3304 114.095C59.4409 114.293 59.6552 114.646 59.7179 114.623C60.1009 114.493 60.5006 114.326 60.801 114.065C60.9983 113.894 60.6878 113.665 60.5902 113.43L60.5917 113.432ZM58.3647 116.292C57.8534 116.569 57.8471 116.703 58.3284 117.002C58.8853 117.347 58.8445 117.319 59.2539 116.762C59.4305 116.521 59.6037 116.206 59.4852 116.07C59.3552 115.921 59.0029 116.212 58.7185 116.083C58.648 116.051 58.4861 116.219 58.3662 116.294L58.3647 116.292ZM66.4923 110.869C66.2482 110.975 66.1652 111.104 66.3006 111.389C66.4714 111.753 66.7945 111.741 67.0896 111.822C67.1447 111.521 67.2942 111.237 67.0442 110.924C66.8465 110.677 66.6968 110.694 66.4923 110.869ZM54.6577 66.5802C54.3725 66.6955 54.4773 66.8733 54.5977 67.1081C54.7871 67.4798 54.9848 67.3793 55.251 67.2125C55.5245 67.0412 55.462 66.8935 55.3387 66.6539C55.1453 66.2813 54.939 66.3572 54.6577 66.5802ZM67.9302 109.965C68.1451 109.727 68.7108 109.713 68.5996 109.322C68.5492 109.14 68.152 109.652 67.7713 109.541C67.4794 109.453 67.6365 110.019 67.3051 110.023C67.3093 110.094 67.3064 110.169 67.328 110.235C67.3337 110.255 67.4234 110.276 67.4537 110.26C67.6141 110.17 67.767 110.067 67.9278 109.966L67.9302 109.965ZM67.7735 108.382C67.823 108.461 67.8629 108.546 67.9214 108.613C67.977 108.675 68.0604 108.776 68.1141 108.765C68.3075 108.728 68.2058 108.608 68.1802 108.487C68.1313 108.281 68.147 108.061 68.1044 107.854C68.0692 107.686 67.9027 107.66 67.7837 107.732C67.6829 107.795 67.5651 107.932 67.5669 108.031C67.5721 108.151 67.6975 108.266 67.7696 108.381L67.7735 108.382ZM66.9637 115.247C66.6711 115.564 67.0932 115.71 67.1794 115.933C67.2181 116.032 67.4377 115.988 67.5342 115.88C67.8166 115.563 67.447 115.395 67.3392 115.185C67.2849 115.083 67.0933 115.139 66.9613 115.249L66.9637 115.247ZM68.1911 62.6674C67.8746 62.3754 67.7281 62.7974 67.505 62.8838C67.4057 62.9227 67.4472 63.1435 67.5567 63.2383C67.8736 63.5201 68.0429 63.1505 68.2525 63.0426C68.3554 62.9881 68.2989 62.7967 68.1896 62.665L68.1911 62.6674ZM59.9017 71.7506C59.9644 71.7814 60.0502 71.8544 60.0916 71.8351C60.2556 71.7557 60.3954 71.6215 60.5645 71.5555C60.8956 71.4281 60.8433 71.1207 60.9226 70.8741C60.9286 70.857 60.8893 70.8049 60.8659 70.7996C60.4532 70.738 60.5241 71.1071 60.3895 71.3082C60.296 71.4469 60.0894 71.5063 59.9379 71.6112C59.9091 71.6292 59.9143 71.6961 59.9017 71.7506ZM63.7592 111.577C63.7085 111.646 63.6087 111.732 63.6237 111.782C63.6565 111.899 63.7399 112 63.8179 112.098C63.8383 112.125 63.9163 112.143 63.9451 112.125C64.1031 112.036 64.266 111.944 64.409 111.831C64.4444 111.802 64.4179 111.632 64.414 111.631C64.1977 111.616 63.9946 111.42 63.7631 111.578L63.7592 111.577ZM69.351 123.739C69.142 123.906 68.8586 123.96 69.0456 124.28C69.1338 124.432 69.2493 124.456 69.3783 124.395C69.6752 124.256 69.6087 123.947 69.6779 123.7C69.5534 123.715 69.4266 123.731 69.351 123.739ZM69.8452 126.111C69.688 126.169 69.6761 126.31 69.7377 126.435C69.8205 126.61 69.9405 126.722 70.1627 126.586C70.3115 126.492 70.3375 126.379 70.2769 126.251C70.1925 126.073 70.0641 125.954 69.8452 126.111ZM62.275 114.002C62.3623 114.104 62.4053 114.327 62.5516 114.262C62.8197 114.141 62.5809 113.984 62.5155 113.858C62.4575 113.744 62.3953 113.533 62.249 113.598C61.9785 113.721 62.2404 113.867 62.2774 114L62.275 114.002ZM65.6708 110.363C65.7407 110.416 65.8067 110.468 65.8728 110.52C65.945 110.331 66.0133 110.142 66.0855 109.953C66 109.95 65.9004 109.919 65.8311 109.952C65.6623 110.035 65.5261 110.153 65.6708 110.363ZM55.5169 71.4224C55.4869 71.4812 55.4138 71.5671 55.4339 71.6045C55.4927 71.7144 55.527 71.8864 55.7028 71.863C55.7454 71.8563 55.8176 71.721 55.7966 71.6875C55.7377 71.5776 55.7071 71.4167 55.5169 71.4224ZM63.7148 81.2968C63.6824 81.3571 63.6477 81.4189 63.6153 81.4792C63.6582 81.489 63.7248 81.5207 63.741 81.5039C63.7911 81.4558 63.8189 81.3883 63.8552 81.3289C63.8123 81.3191 63.7694 81.3093 63.7148 81.2968ZM67.3404 57.9133C67.3728 57.8529 67.4076 57.7911 67.4399 57.7308C67.397 57.721 67.3304 57.6894 67.3142 57.7062C67.2642 57.7542 67.2363 57.8217 67.2 57.8811C67.2429 57.8909 67.2858 57.9008 67.3404 57.9133ZM72.3942 65.638C72.4371 65.6478 72.5037 65.6795 72.5199 65.6626C72.5699 65.6146 72.5978 65.5471 72.6341 65.4877C72.5912 65.4779 72.5246 65.4462 72.5084 65.463C72.4583 65.5111 72.4305 65.5786 72.3942 65.638ZM67.9066 86.009C67.895 86.0597 67.8851 86.1025 67.8743 86.1493C67.9436 86.1426 68.0189 86.1455 68.0816 86.1229C68.1038 86.1156 68.1043 86.0419 68.1142 85.999C68.0434 86.0033 67.975 86.0062 67.9066 86.009ZM57.9716 71.2187C57.9599 71.2694 57.95 71.3123 57.9393 71.359C58.0085 71.3523 58.0838 71.3552 58.1465 71.3326C58.1687 71.3254 58.1693 71.2516 58.1792 71.2087C58.1084 71.2131 58.04 71.2159 57.9716 71.2187ZM63.3876 113.645C63.4305 113.655 63.4971 113.686 63.5133 113.67C63.5634 113.622 63.5912 113.554 63.6275 113.495C63.5846 113.485 63.518 113.453 63.5018 113.47C63.4517 113.518 63.4239 113.586 63.3876 113.645ZM62.4106 115.471C62.3782 115.532 62.3435 115.593 62.3111 115.654C62.354 115.664 62.4206 115.695 62.4368 115.678C62.4869 115.63 62.5147 115.563 62.551 115.503C62.5081 115.494 62.4652 115.484 62.4106 115.471Z" fill="#322723"/>
<path d="M73.7711 26.2479C73.537 26.498 72.8093 26.4936 73.3171 27.1228C73.4975 27.3467 73.3893 27.5846 73.3051 27.7808C72.7811 29.0131 72.797 29.0065 72.8767 30.1841C72.8981 30.5009 73.129 30.8533 72.6888 31.1691C72.6018 31.1903 72.6726 31.2393 72.7341 31.2308C72.8649 31.2156 72.8852 31.1361 72.7718 31.0671C72.7178 31.0342 72.6335 31.0436 72.5651 31.0465C72.5525 31.0477 72.5457 31.122 72.6888 31.1691C72.7939 32.7178 72.7577 34.2649 72.6924 35.8136C72.6337 37.2714 72.4811 38.718 72.111 40.1374C72.0385 40.4163 71.9088 40.7477 72.4263 40.4435C72.928 40.1458 73.4632 40.2375 73.9974 40.3597C74.247 40.4168 74.6062 40.6221 74.7224 40.2691C74.829 39.9488 75.3709 39.6993 74.8962 39.2029C74.6006 38.8911 74.7806 37.7975 74.9916 37.3718C75.08 37.193 75.1153 36.9774 75.3005 37.2516C75.652 37.7753 76.1618 38.3065 76.0173 38.9608C75.9125 39.4334 76.2722 39.6983 76.2401 40.1321C76.1691 41.0639 75.6147 41.528 74.7285 41.8998C74.6415 41.9209 74.7124 41.97 74.7738 41.9615C74.9046 41.9462 74.925 41.8668 74.8116 41.7977C74.7575 41.7648 74.6733 41.7743 74.6049 41.7771C74.5923 41.7783 74.5854 41.8527 74.7285 41.8998C75.6486 42.8511 75.9346 43.9261 75.9415 45.1527C75.948 46.3628 76.1265 47.5753 76.2791 48.7839C76.4377 50.0288 76.5127 51.3161 76.9074 52.4899C77.1236 53.1283 77.1062 53.783 77.3132 54.4172C77.6066 55.3174 76.8508 56.0946 75.8084 55.9504C75.0945 55.8507 74.38 55.7446 73.686 55.9059C72.95 56.0802 72.2914 55.6422 71.5539 55.7874C70.9498 55.9057 70.2795 56.0088 69.6956 55.5941C69.5933 55.5214 69.5928 55.6218 69.5313 55.7104C69.2807 56.0675 68.9378 56.0322 68.588 55.6977C68.5669 55.6108 68.5178 55.6816 68.5262 55.743C68.5412 55.8737 68.6207 55.894 68.69 55.7805C68.7229 55.7265 68.7136 55.6423 68.7109 55.574C68.7097 55.5614 68.6353 55.5546 68.588 55.6977C66.5482 56.0517 64.4832 55.8378 62.453 56.1858C62.4356 56.19 62.4065 56.1115 62.3791 55.9185C62.3581 55.8316 62.3089 55.9025 62.3173 55.9639C62.3324 56.0946 62.4119 56.1148 62.4811 56.0014C62.5141 55.9474 62.5048 55.8632 62.502 55.7948C62.5008 55.7822 62.4264 55.7755 62.3791 55.9185C61.0133 56.2339 59.6535 56.0151 58.2894 56.0559C56.8874 56.1004 55.4872 55.9236 54.0775 56.0997C53.34 56.1915 52.5429 55.9004 51.8288 56.0509C50.7884 56.2725 49.7614 56.3288 48.7122 56.3658C48.1864 56.385 47.6623 56.3164 47.1359 56.356C46.7394 56.3843 46.3989 56.1873 46.1236 55.7694C45.6185 54.9951 45.1967 54.242 45.6813 53.3412C45.853 53.0235 45.3649 52.7189 45.7607 52.4709C45.8102 52.55 45.8501 52.635 45.9102 52.7042C45.9657 52.7661 46.0641 52.8645 46.1085 52.8501C46.2758 52.7919 46.226 52.6697 46.1477 52.5553C46.0957 52.4778 46.0501 52.3996 46.0006 52.3206C46.0512 52.2522 46.1574 52.1656 46.1391 52.1204C46.0826 51.9557 45.9596 51.9993 45.8505 52.0811C46.0091 50.6707 46.2688 49.2671 45.9214 47.8436C45.88 47.6761 45.9014 47.3691 46.2034 47.1899C46.2202 47.1794 46.1866 47.2004 46.1506 47.223C46.2112 47.2717 46.2653 47.3313 46.3358 47.3638C46.4156 47.4006 46.4785 47.3411 46.4488 47.2297C46.4374 47.1901 46.3231 47.1783 46.2058 47.1884C45.9966 46.9826 46.0889 46.6979 46.0531 46.4435C45.8843 45.2517 46.702 44.0722 47.9017 43.8542C48.3729 43.7691 48.8702 43.8645 49.3158 43.5786C49.4358 43.5035 49.5435 43.6061 49.6509 43.7189C49.8475 43.926 50.1712 44.0534 50.3907 43.8759C50.8119 43.5352 51.1906 43.7983 51.5881 43.8462C51.9417 43.8881 52.2679 44.1207 52.6523 43.8332C52.9869 43.5835 53.399 44.2893 53.819 43.7759C54.0909 43.4421 54.5799 43.6361 54.9681 43.5997C56.8895 43.43 58.7984 43.0111 60.7416 43.2813C60.9027 43.3038 61.0209 43.2632 61.1216 43.1733C61.6793 42.6772 62.3378 42.9284 62.8841 43.0698C63.2036 43.1532 63.1583 43.1448 63.2796 42.912C63.371 42.738 63.7484 42.8018 63.8552 42.8283C64.7563 43.0509 65.6201 42.8566 66.5067 42.7681C67.3798 42.6847 68.2664 42.4895 69.1561 42.7259C69.2605 42.7539 69.3966 42.6086 69.5268 42.5871C70.1333 42.494 70.6881 42.2331 71.3648 42.3695C71.6981 42.4375 72.2716 42.3718 72.6061 41.9887C72.8528 42.3345 73.0312 42.0059 73.2888 41.8945C73.3055 41.884 73.272 41.9051 73.236 41.9276C73.2966 41.9764 73.3506 42.0359 73.4211 42.0685C73.5009 42.1052 73.5639 42.0457 73.5341 41.9343C73.5227 41.8947 73.4084 41.8829 73.2912 41.893C72.9917 41.5803 72.8109 41.9104 72.6085 41.9872C71.803 41.6613 70.9134 41.825 70.096 41.56C69.7449 41.9167 69.4604 41.0042 69.0392 41.5316C68.7484 41.8939 68.2935 41.3117 67.862 41.5987C67.4104 41.9017 66.9419 41.4046 66.4161 41.4505C65.9014 41.4928 65.3788 41.9437 64.8369 41.5427C64.4094 41.8839 64.3168 41.4749 64.1115 41.2433C63.939 41.0479 63.5572 41.1903 63.6275 41.3931C63.7791 41.8218 63.7147 41.8522 63.272 41.8494C62.1321 41.843 60.987 41.8867 59.8532 41.9967C59.5194 42.029 59.5129 41.6561 59.3051 41.7297C59.1893 41.7688 59.145 41.9967 59.0563 42.1324C59.0332 42.1702 58.9675 42.2147 58.9411 42.2045C57.7865 41.8172 56.6717 42.7358 55.4981 42.297C55.1525 42.1666 54.6966 42.2121 54.3409 42.4282C54.1019 42.5746 53.9421 42.6181 53.7767 42.3381C53.7212 42.2495 53.6354 42.2298 53.5074 42.3934C53.1081 42.8971 52.438 43.0167 52.0314 42.6344C51.6752 42.3005 51.3109 42.4921 51.1906 42.5507C50.3237 42.9638 49.3355 42.629 48.4757 43.0642C48.2247 43.1915 47.8479 43.0806 47.6702 42.7117C47.4345 42.2289 47.1227 41.8538 47.1749 41.1907C47.2265 40.5479 46.8443 39.8633 46.7651 39.1558C46.5597 37.3297 46.6162 35.4897 46.3913 33.6592C46.2974 32.8908 46.5081 32.0649 46.5207 31.2531C46.5746 27.7402 46.2628 24.2462 45.9376 20.7573C45.8185 19.5009 45.5939 18.2573 45.4206 17.005C45.4097 16.9184 45.464 16.8077 45.4283 16.74C45.2361 16.38 44.8316 16.033 45.1392 15.6068C45.4989 15.1146 46.0779 14.7218 46.6253 14.6357C47.3895 14.5171 48.1649 14.635 48.5055 13.7178C48.9335 13.6331 49.3636 13.5571 49.7886 13.4676C51.3431 13.1441 52.8688 12.7586 54.3415 12.1127C55.1065 11.7768 55.9513 11.3176 56.8978 11.6019C57.4146 11.755 57.7286 10.9712 58.2935 11.2544C59.0366 10.8355 60.0209 11.1428 60.7003 10.4569C60.7617 10.3951 61.2041 10.3547 61.4603 10.401C62.3008 10.5482 63.1408 10.7958 63.9754 10.363C64.7189 10.9312 65.5981 10.367 66.4081 10.6734C67.027 10.9094 67.7086 11.1762 68.4305 10.9741C68.5493 10.9397 68.7442 10.9843 68.8361 11.0669C69.237 11.4294 69.6953 11.4625 70.2112 11.4862C70.6761 11.5084 71.1214 11.8032 71.5903 11.8797C72.2373 11.9847 72.8062 12.4021 73.4952 12.334C73.6928 12.3136 73.8257 12.4405 73.9296 12.6222C74.1643 13.0289 74.4069 13.4373 74.6824 13.8184C74.8478 14.045 74.8587 14.2917 74.7265 14.4646C74.5011 14.766 74.5261 15.0672 74.4942 15.4108C74.4216 16.1801 74.0704 16.9205 74.2004 17.7197C74.3177 18.4401 73.8972 19.1339 74.1111 19.8538C73.5537 20.4199 74.2133 21.094 73.92 21.7348C73.6419 22.336 73.911 23.0748 73.8039 23.7089C73.6884 24.3884 73.7664 25.0834 73.5768 25.7459C73.5113 25.9771 73.7141 26.0769 73.772 26.244L73.7711 26.2479ZM73.2865 15.8772C73.4565 15.7807 73.4871 15.6482 73.3763 15.4874C73.7226 15.2404 73.3941 15.0626 73.316 14.858C73.6623 14.611 73.3338 14.4332 73.1106 13.6824C73.0156 13.792 73.0168 13.9113 73.1195 14.0004C73.1915 14.0621 73.1535 14.316 73.3685 14.158C73.4944 14.0657 73.7353 13.9916 73.6086 13.8107C73.5348 13.7035 73.2846 13.7202 73.2581 14.2271C72.9118 14.4741 73.2403 14.6519 73.3184 14.8565C72.9721 15.1035 73.3006 15.2813 73.3787 15.4859C73.2087 15.5824 73.1781 15.715 73.3564 15.9835L73.2889 15.8757C73.24 15.9364 73.1804 15.9904 73.1477 16.0609C73.1108 16.1407 73.1703 16.2036 73.2818 16.1737C73.3214 16.1622 73.3334 16.048 73.2889 15.8757L73.2865 15.8772ZM73.1387 17.998C73.1171 18.0648 73.068 18.1357 73.074 18.1986C73.089 18.3293 73.1686 18.3495 73.2378 18.2361C73.2708 18.1821 73.2614 18.0979 73.2587 18.0295C73.2575 18.0169 73.1831 18.0102 73.1352 18.307C72.9652 18.4035 72.9347 18.5361 73.113 18.8047L73.0454 18.6969C72.9966 18.7575 72.9369 18.8116 72.9042 18.8821C72.8674 18.9619 72.9268 19.0247 73.0384 18.9948C73.0779 18.9834 73.0899 18.8691 73.0454 18.6969C73.2155 18.6003 73.246 18.4678 73.1363 17.9995L73.1387 17.998ZM72.7513 26.2198C72.9213 26.1232 72.9519 25.9907 72.8411 25.8299C73.1874 25.5829 72.8589 25.4051 72.7819 24.893C72.7603 24.9599 72.7112 25.0307 72.7172 25.0936C72.7323 25.2243 72.8117 25.2445 72.881 25.1311C72.914 25.0771 72.9046 24.9929 72.9019 24.9245C72.9007 24.912 72.8263 24.9052 72.7784 25.202C72.4321 25.4491 72.7606 25.6268 72.8387 25.8314C72.6687 25.9279 72.6382 26.0605 72.8164 26.3291L72.7489 26.2213C72.7 26.2819 72.6404 26.336 72.6077 26.4065C72.5709 26.4863 72.6303 26.5491 72.7418 26.5192C72.7814 26.5078 72.7934 26.3935 72.7489 26.2213L72.7513 26.2198ZM72.7228 26.9314C72.7013 26.9983 72.6521 27.0691 72.6581 27.1321C72.6732 27.2627 72.7527 27.283 72.8219 27.1696C72.8549 27.1155 72.8456 27.0313 72.8428 26.963C72.8416 26.9504 72.7672 26.9436 72.7869 27.3483L72.7194 27.2405C72.6705 27.3011 72.6108 27.3552 72.5782 27.4257C72.5413 27.5055 72.6007 27.5683 72.7123 27.5385C72.7519 27.527 72.7638 27.4128 72.7219 26.9353L72.7228 26.9314ZM69.1293 39.8573C69.1078 39.9242 69.0586 39.995 69.0646 40.058C69.0797 40.1886 69.1592 40.2089 69.2284 40.0954C69.2614 40.0414 69.2521 39.9572 69.2493 39.8889C69.2481 39.8763 69.1737 39.8695 69.1934 40.2741L69.1259 40.1664C69.077 40.227 69.0174 40.2811 68.9847 40.3516C68.9478 40.4314 69.0073 40.4942 69.1188 40.4643C69.1584 40.4529 69.1704 40.3386 69.1284 39.8612L69.1293 39.8573ZM63.2479 37.1777L63.0978 36.9382C63.4475 36.8192 63.6585 36.4735 63.5489 36.2186C63.3273 35.7103 63.4221 35.0938 63.0094 34.3551C62.9878 34.422 62.9387 34.4928 62.9447 34.5557C62.9597 34.6864 63.0392 34.7066 63.1085 34.5932C63.1414 34.5392 63.1321 34.455 63.1294 34.3866C63.1282 34.374 63.0538 34.3673 63.0059 34.6641C62.8363 35.7211 62.8518 36.1884 63.0969 36.9421C63.0463 37.0105 62.9401 37.0971 62.9585 37.1423C63.0149 37.3071 63.1379 37.2634 63.247 37.1816L63.3971 37.4212C63.2271 37.5177 63.1965 37.6503 63.3073 37.811C62.8551 38.6248 63.2529 39.5263 63.0454 40.3735C62.9679 40.6923 63.2428 40.47 63.3646 40.4404C63.5061 40.4051 63.6318 40.403 63.7645 40.6735L63.697 40.5657C63.6481 40.6263 63.5885 40.6804 63.5558 40.7509C63.5189 40.8307 63.5784 40.8935 63.6899 40.8637C63.7295 40.8522 63.7415 40.738 63.697 40.5657C64.0965 40.4088 64.1695 40.0828 64.1609 39.7013C64.142 38.9459 63.6693 38.4048 63.3058 37.8086C63.4758 37.7121 63.5064 37.5796 63.3956 37.4188C63.4463 37.3503 63.5524 37.2638 63.5341 37.2186C63.4776 37.0538 63.3547 37.0975 63.2455 37.1792L63.2479 37.1777ZM49.3023 41.579C49.353 41.5105 49.4591 41.424 49.4408 41.3788C49.3843 41.214 49.2614 41.2577 49.1522 41.3394C49.026 40.8981 49.2799 40.4822 49.1702 40.0139C48.9118 38.9082 48.9592 37.7577 48.8561 36.6281C48.6279 34.1525 48.2699 31.6883 48.2196 29.198C48.2082 28.588 48.1347 27.9802 48.0738 27.3712C48.0678 27.3083 47.9583 27.2401 47.88 27.2058C47.8017 27.1715 47.7627 27.2426 47.7481 27.3685C47.7347 27.507 47.6567 27.6492 47.6742 27.7784C47.9529 29.7587 47.7306 31.7393 47.7273 33.7228C47.7249 35.1319 47.578 36.5716 47.8345 37.9353C48.042 39.0396 47.9534 40.1192 48.0412 41.2083C48.0578 41.4214 47.9705 41.5328 48.2588 41.689C48.5712 41.8569 48.7692 42.0131 49.0615 41.7332C49.1299 41.7837 49.2164 41.8897 49.2617 41.8713C49.4266 41.8147 49.3831 41.6918 49.3014 41.5829L49.3023 41.579ZM47.1629 17.5945C47.1414 17.6614 47.0922 17.7322 47.0982 17.7951C47.1133 17.9258 47.1928 17.9461 47.262 17.8326C47.295 17.7786 47.2857 17.6944 47.2829 17.6261C47.2817 17.6135 47.2073 17.6067 47.1595 17.9035C46.8132 18.1506 47.1417 18.3283 47.2198 18.5329C46.8858 18.869 47.1058 19.3215 47.1135 19.6536C47.1342 20.4545 47.0579 21.303 47.5586 22.2835C47.4728 22.2638 47.5246 21.9679 47.3231 22.1475C47.2772 22.1863 47.2644 22.3311 47.2998 22.3823C47.3661 22.4775 47.4804 22.5426 47.5756 22.6198C47.6643 22.5108 47.6588 22.4008 47.4304 22.0736C47.7978 21.2363 47.5727 20.3866 47.5442 19.5305C47.5302 19.119 47.3921 18.8453 47.2189 18.5368C47.5652 18.2898 47.2367 18.112 47.1596 17.5999L47.1629 17.5945ZM61.6585 37.84C61.3122 38.087 61.6407 38.2648 61.9424 38.8263L61.7188 38.4694C61.6681 38.5378 61.5965 38.5994 61.5722 38.678C61.4072 39.1984 61.7701 39.8416 61.207 40.2811C61.1926 40.2902 61.2754 40.4384 61.3292 40.5081C61.4078 40.6123 61.4913 40.7669 61.5936 40.7862C61.7918 40.8254 61.697 40.6046 61.7593 40.5122C62.1484 39.9282 62.0836 39.3183 61.7173 38.467C62.0636 38.22 61.7351 38.0422 61.657 37.8376C62.0033 37.5906 61.6748 37.4129 61.5967 37.2083C61.6459 37.1374 61.7397 37.0686 61.7418 36.9973C61.8063 35.0155 61.98 33.032 61.6887 31.0529C61.6619 30.8662 61.3709 30.6416 61.8216 30.3959L61.7136 30.4635C61.7742 30.5123 61.8283 30.5718 61.8988 30.6044C61.9786 30.6411 62.0415 30.5817 62.0118 30.4702C62.0004 30.4307 61.8861 30.4189 61.7136 30.4635C61.5994 27.9032 61.0901 25.4003 60.6385 22.8879C60.5973 22.6569 60.1674 22.4826 60.6441 22.1238C60.516 22.154 60.505 22.211 60.6082 22.3064C60.6976 22.3905 60.7691 22.4992 60.8675 22.571C60.9428 22.6272 61.0186 22.5563 60.9931 22.4356C60.9558 22.2588 60.8592 22.1258 60.5401 22.1924C60.4841 21.9005 59.9372 21.7261 60.4376 21.2558L60.3297 21.3234C60.3903 21.3722 60.4443 21.4318 60.5148 21.4643C60.5946 21.501 60.6576 21.4416 60.6278 21.3301C60.6164 21.2906 60.5021 21.2788 60.3297 21.3234C60.017 20.8989 60.149 20.3526 59.9511 19.8928C59.9481 19.888 60.0207 19.8492 60.167 19.7575L60.0591 19.8251C60.1197 19.8739 60.1737 19.9334 60.2442 19.966C60.324 20.0027 60.387 19.9433 60.3572 19.8318C60.3458 19.7923 60.2315 19.7805 60.0591 19.8251C59.7125 18.9148 59.5609 17.969 59.5719 16.9948C59.5724 16.8944 59.4454 16.7238 59.348 16.7014C59.1389 16.6557 59.1726 16.9014 59.187 16.9724C59.3653 17.7847 58.943 18.6731 59.4839 19.435C59.6144 19.6167 59.5437 19.7811 59.5165 19.9616C59.4579 20.3586 59.2022 20.7289 59.5345 21.1579C59.7941 21.4923 59.4625 21.9068 59.5458 22.3383C59.8206 23.7473 59.832 25.1945 60.0034 26.6249C60.3614 29.6062 60.8651 32.5696 61.2144 35.5531C61.2819 36.1246 61.352 36.6844 61.5943 37.2098C61.248 37.4568 61.5765 37.6345 61.6546 37.8391L61.6585 37.84ZM56.1054 28.9771C55.7591 29.2241 56.0876 29.4019 56.1657 29.6065C55.7196 30.0728 56.0104 30.4677 56.2862 30.8653C56.1073 32.4084 56.4976 33.8951 56.8048 35.3772C56.9344 35.9998 56.7073 36.7358 57.279 37.2483C56.9326 37.4953 57.2612 37.6731 57.3393 37.8777C57.1981 38.74 57.3199 39.5743 57.71 40.6075C57.6242 40.5879 57.676 40.2919 57.4745 40.4715C57.4286 40.5103 57.4158 40.6551 57.4512 40.7063C57.5176 40.8015 57.6319 40.8666 57.727 40.9438C57.8157 40.8348 57.8103 40.7248 57.5819 40.3976C57.8334 39.4928 57.7565 38.677 57.3408 37.8801C57.6871 37.6331 57.3586 37.4553 57.2805 37.2507C57.6768 36.7689 57.4483 36.2549 57.341 35.7584C57.0849 34.5446 56.6785 33.3681 56.6887 32.0942C56.6927 31.7114 56.6574 31.1964 56.2877 30.8677C56.4504 30.4288 56.443 30.0065 56.1672 29.6089C56.5135 29.3619 56.185 29.1841 56.1069 28.9795C56.4532 28.7325 56.1247 28.5547 56.0466 28.3501C56.393 28.1031 56.0644 27.9254 55.9864 27.7208C56.2335 27.5926 56.0645 27.435 56.0428 27.2617C55.7149 24.4884 55.5949 21.6949 55.5249 18.9067C55.5029 17.9864 55.1543 17.0941 55.3689 16.1357C55.4446 15.798 55.4766 15.5078 55.6642 15.1834C55.8602 14.8405 55.2563 14.6017 55.3077 14.2093C55.3316 14.0342 55.3777 13.8251 55.4895 13.705C55.6266 13.5558 55.754 13.466 55.6117 13.2549C55.4565 13.0286 55.3159 13.1667 55.1429 13.2318C54.4936 13.4751 54.3418 13.9739 54.4497 14.5834C54.4807 14.7608 54.6403 14.9143 54.0855 15.0418C54.1524 15.0632 54.2232 15.1123 54.2862 15.1062C54.417 15.0909 54.4373 15.0115 54.3239 14.9424C54.2699 14.9095 54.1856 14.919 54.1172 14.9218C54.1046 14.923 54.0978 14.9974 54.3947 15.0448C54.4728 15.2494 54.8013 15.4272 54.1473 15.6735C54.2142 15.695 54.285 15.744 54.348 15.7379C54.4787 15.7227 54.4991 15.6432 54.3857 15.5742C54.3317 15.5413 54.2474 15.5508 54.179 15.5536C54.1664 15.5548 54.1596 15.6291 54.4565 15.6766C54.5029 16.1078 54.6003 16.5405 54.5801 16.9668C54.5658 17.296 54.8348 17.6345 54.5523 17.9516C54.1278 18.431 54.8523 18.6276 54.8162 19.0071C54.7953 19.2404 54.3058 19.3069 54.6161 19.6795C55.0318 20.183 55.0608 20.7786 55.1196 21.4322C55.2719 23.1148 55.4454 24.794 55.589 26.4787C55.6236 26.8806 55.6128 27.3911 55.9942 27.7225C55.6478 27.9696 55.9763 28.1473 56.0544 28.3519C55.7081 28.5989 56.0366 28.7767 56.1147 28.9813L56.1054 28.9771ZM69.1873 38.1264C69.0173 38.2229 68.9868 38.3555 69.3107 38.8564C69.1921 38.6672 69.1272 38.521 69.1011 38.5273C68.9368 38.5636 68.9039 38.7243 68.9738 38.8306C69.0858 39.004 69.0624 39.1587 69.0127 39.3299C68.99 39.4109 69.0608 39.4866 69.1672 39.4433C69.2776 39.4008 69.438 39.2836 69.4332 39.2066C69.4253 39.0447 69.3239 38.8881 69.0969 38.51C69.267 38.4134 69.2975 38.2809 69.1867 38.1201C69.5331 37.8731 69.2045 37.6953 69.1265 37.4907C69.447 37.1598 69.427 36.8187 69.156 36.4715C69.1978 36.005 69.3001 35.5339 69.2711 35.0717C69.1527 33.1445 69.2565 31.2148 69.117 29.2807C69.008 27.7579 68.891 26.2167 68.9119 24.6825C68.9261 23.7029 68.5763 22.798 68.5107 21.835C68.3482 19.3949 67.9284 16.9761 67.954 14.5216C67.9556 14.1937 67.675 13.7191 68.0558 13.5805C68.2907 13.4967 68.428 14.0412 68.6201 14.2944C68.6987 14.3986 68.7258 14.5217 68.7498 14.6668C69.0173 16.3839 69.4272 18.0885 69.5812 19.8166C69.8875 23.254 70.4236 26.6741 70.3253 30.1482C70.2695 32.0745 70.4648 34.007 70.4842 35.9362C70.4974 37.2689 70.5049 38.6085 70.3133 39.9394C70.2953 40.0708 70.0765 40.308 70.4118 40.3313C70.527 40.3392 70.6811 40.2226 70.7666 40.1191C71.0346 39.7844 71.2065 39.323 71.0288 38.9807C70.8235 38.589 70.9628 38.2782 70.9692 37.9206C71.0296 34.7539 70.9808 31.5888 70.8416 28.4237C70.8062 27.5886 70.5556 26.7782 70.6554 25.9351C70.7334 25.2758 70.6152 24.6127 70.6512 23.9396C70.6884 23.2525 70.6221 22.5335 70.6794 21.8305C70.7709 20.7291 70.5323 19.6444 70.5216 18.5503C70.5106 17.493 69.8667 16.4121 70.626 15.3793C70.0729 14.7684 70.3255 14.0198 70.2687 13.3215C70.2431 12.9873 70.0732 12.7268 69.6776 12.6712C69.3155 12.6211 68.981 12.4605 68.626 12.7629C68.271 13.0654 67.834 13.0824 67.4069 12.5661C67.3853 12.633 67.3362 12.7038 67.3422 12.7667C67.3573 12.8974 67.4368 12.9176 67.506 12.8042C67.539 12.7502 67.5296 12.666 67.5254 12.5953C67.5242 12.5827 67.4498 12.5759 67.4019 12.8727C66.8218 12.8426 66.2426 12.8086 65.6631 12.7847C65.2662 12.7698 64.9722 12.4604 65.0287 12.1881C65.1248 11.7176 64.8387 11.7568 64.6032 11.7275C64.1838 11.6767 64.1384 12.0521 64.1694 12.2829C64.2642 13.0207 64.1557 13.8125 64.7073 14.4476C64.8805 14.6494 64.9292 14.8924 64.9422 15.2011C65.0377 17.3796 65.6308 19.5098 65.6102 21.7109C65.5999 22.9316 65.9385 24.1704 65.8119 25.3706C65.6781 26.6286 65.9183 27.8491 65.9258 29.082C65.9369 31.0831 66.2896 33.0804 66.3371 35.1021C66.3707 36.5421 66.551 37.9869 66.5106 39.4366C66.502 39.7589 66.6167 40.0006 66.8487 40.1254C67.0761 40.2431 67.3557 40.3215 67.6345 40.1001C67.9382 39.8597 68.0539 39.5538 67.8849 39.2627C67.5484 38.683 67.6729 38.0446 67.6312 37.4502C67.5995 36.9731 67.5915 36.4911 67.5499 36.0034C67.3261 33.375 67.1794 30.7416 67.2889 28.1011C67.2972 27.9225 67.4123 27.7436 67.2602 27.5754C66.8211 27.0933 66.9306 26.4843 66.8929 25.9175C66.7778 24.1717 66.5706 22.4334 66.4604 20.6846C66.3746 19.3106 66.2095 17.9063 65.9839 16.5332C65.8432 15.674 66.0309 14.9126 66.1907 14.112C66.2221 13.9489 66.3214 13.8567 66.4473 13.8178C66.5907 13.7746 66.6867 13.8746 66.7735 13.997C67.1216 14.4994 67.1578 15.5542 66.7575 15.9284C66.5405 16.1311 66.494 16.2436 66.6549 16.4897C67.3036 17.4877 67.3971 18.6499 67.5434 19.7792C67.7188 21.1203 67.5995 22.5293 67.9573 23.8095C68.6546 26.2981 68.5982 28.8419 68.7349 31.3581C68.8175 32.8442 69.0132 34.3561 68.7976 35.8621C68.7728 36.0411 69.0263 36.2592 69.1509 36.458C68.8304 36.7889 68.8503 37.13 69.1214 37.4773C68.775 37.7243 69.1036 37.902 69.1816 38.1066L69.1873 38.1264ZM59.0996 14.7856C59.0781 14.8524 59.0289 14.9233 59.0349 14.9862C59.05 15.1169 59.1295 15.1371 59.1987 15.0237C59.2317 14.9697 59.2224 14.8855 59.2196 14.8171C59.2184 14.8045 59.144 14.7978 59.2898 15.4036L59.0962 15.0946C59.047 15.1654 58.9385 15.2801 58.9544 15.3002C59.142 15.5463 58.9633 15.8316 59.0519 16.0797C59.0781 16.1534 59.172 16.2446 59.241 16.2481C59.447 16.2624 59.3555 16.063 59.407 15.9639C59.544 15.708 59.3726 15.5252 59.0972 14.7871L59.0996 14.7856ZM50.6124 17.7682C50.5909 17.8351 50.5417 17.9059 50.5477 17.9689C50.5628 18.0995 50.6423 18.1198 50.7115 18.0063C50.7445 17.9523 50.7352 17.8681 50.7324 17.7998C50.7312 17.7872 50.6568 17.7804 50.609 18.0773C50.4062 18.1643 50.5114 18.4387 50.3977 18.5132C49.6834 18.9674 50.5871 18.8849 50.5794 19.0965C49.9567 19.6435 50.8947 20.4634 50.2483 21.0152C50.212 21.048 50.2328 21.1984 50.2733 21.2631C50.6545 21.8448 50.2576 22.4804 50.4031 23.0698C50.5515 23.6639 50.5734 24.264 50.5764 24.8659C50.5767 24.9891 50.5735 25.1546 50.093 25.2088C50.1599 25.2303 50.2307 25.2793 50.2937 25.2732C50.4245 25.258 50.4448 25.1785 50.3314 25.1094C50.2774 25.0766 50.1931 25.086 50.1248 25.0888C50.1122 25.0901 50.1053 25.1644 50.4023 25.2118C50.4532 25.7303 50.5926 26.2567 50.5433 26.7646C50.2468 29.7091 50.8937 32.6128 50.8668 35.5451C50.8541 36.7405 51.433 37.899 50.7907 39.1186C50.8576 39.1401 50.9284 39.1891 50.9914 39.183C51.1222 39.1678 51.1426 39.0883 51.0291 39.0193C50.9751 38.9864 50.8909 38.9959 50.8201 39.0002C50.8075 39.0014 50.8006 39.0757 51.0976 39.1232C51.1897 39.766 51.2643 40.413 51.3753 41.054C51.4776 41.6437 51.7891 41.3518 52.1624 41.1213C52.0343 41.1515 52.0233 41.2084 52.1265 41.3039C52.2159 41.3879 52.2874 41.4966 52.3858 41.5684C52.4611 41.6246 52.537 41.5537 52.5114 41.433C52.4741 41.2562 52.3775 41.1233 52.0584 41.1898C52.0906 40.2656 52.2375 39.3163 51.9497 38.4358C51.6959 37.6575 52.1281 36.913 51.9142 36.1931C51.6868 35.4249 51.6594 34.6348 51.615 33.8654C51.5071 31.9817 51.5917 30.0907 51.4618 28.2039C51.3969 27.2472 51.3569 26.2983 51.1939 25.3396C51.0495 24.4961 51.0482 23.5929 51.0202 22.7165C50.9843 21.5181 51.0056 20.2672 50.577 19.098C50.8463 18.936 51.1597 18.7963 50.8206 18.415C50.7324 18.3169 50.6771 18.1914 50.6076 17.7712L50.6124 17.7682ZM56.9082 18.15C56.7943 18.2881 56.807 18.3936 56.891 18.5011C56.9447 18.5708 57.0009 18.7191 57.0294 18.7112C57.1874 18.6756 57.2153 18.5281 57.1621 18.4112C57.1141 18.3079 56.9992 18.2365 57.2581 19.0816C57.1831 18.9619 57.0783 18.7306 57.0372 18.7397C56.8062 18.7977 56.8217 19.0515 56.8304 19.2095C56.8871 20.4783 56.9162 21.751 57.0634 23.0097C57.3155 25.1768 57.1503 27.3818 57.6951 29.5256C57.7564 29.7673 57.8477 30.1104 57.7444 30.452C57.6006 30.9157 57.7925 31.3926 57.8884 31.8762C58.1142 33.0257 58.4594 34.147 58.4761 35.3574C58.5002 36.9635 58.8213 38.5636 58.9498 40.171C58.9791 40.5429 59.0916 40.6425 59.3958 40.7121C59.7804 40.7981 60.0775 40.6486 60.1542 40.307C60.2835 39.7456 60.6192 39.1884 60.1525 38.5768C59.9679 38.3355 60.0133 37.9068 59.985 37.5576C59.8248 35.5532 59.6961 33.5456 59.5122 31.546C59.4082 30.4203 59.2706 29.2889 59.0514 28.182C58.807 26.9442 58.6313 25.6933 58.3413 24.4573C58.096 23.4101 57.8664 22.3398 57.7402 21.248C57.6595 20.538 57.7158 19.7322 56.913 18.147L56.9082 18.15ZM61.8567 12.0307C61.7216 12.4922 62.1222 12.8384 62.093 13.3036C62.0034 14.6908 62.0817 16.0794 62.2497 17.4619C62.3141 17.9752 62.4316 18.4987 62.3848 19.0051C62.3317 19.5654 62.7833 20.0463 62.2442 20.6042C62.3111 20.6257 62.3819 20.6747 62.4449 20.6686C62.5757 20.6534 62.5961 20.5739 62.4827 20.5049C62.4286 20.472 62.3444 20.4814 62.276 20.4843C62.2634 20.4855 62.2565 20.5598 62.5535 20.6073C62.6116 21.0946 62.5566 21.5827 62.556 22.0668C62.5481 23.2859 62.4206 24.5166 62.7481 25.7324C63.325 27.8795 63.6895 30.0661 63.8726 32.2831C63.9637 33.3669 63.9387 34.5 64.2697 35.5135C64.5457 36.3646 64.664 37.2145 64.8048 38.0736C64.8905 38.6104 65.1997 39.1572 64.6528 39.6866C64.4654 39.8674 64.7365 40.2413 64.9867 40.3314C65.275 40.4343 65.3843 40.1556 65.3905 39.9149C65.4307 38.5554 65.3575 37.207 65.1058 35.8669C64.9386 34.9709 64.8188 34.0653 64.6966 33.1611C64.554 32.123 64.929 31.0474 64.4625 30.0255C64.3982 29.8856 64.4869 29.67 64.5156 29.4919C64.6451 28.6535 64.5994 27.8182 64.5618 26.9744C64.5143 25.8801 64.3248 24.8046 64.3555 23.6913C64.3773 22.8837 64.3571 22.0357 64.2902 21.2037C64.1559 19.5499 63.6777 17.9548 63.5363 16.3055C63.4171 14.9158 63.298 13.526 63.175 12.1354C63.1527 11.8758 63.0707 11.6703 62.754 11.8154C62.4692 11.9472 62.0998 11.7149 61.5558 12.0357C61.6227 12.0572 61.6936 12.1062 61.7565 12.1001C61.8873 12.0849 61.9077 12.0054 61.7943 11.9364C61.7403 11.9035 61.656 11.9129 61.5876 11.9158C61.575 11.917 61.5681 11.9913 61.8651 12.0388L61.8567 12.0307ZM56.2308 40.9072C55.9349 39.9017 56.4971 38.7356 55.6535 37.8264C55.5941 37.7636 55.7218 37.5568 55.6932 37.4313C55.5012 36.5809 55.4447 35.7123 55.2889 34.8559C54.9263 32.8482 54.686 30.8172 54.4046 28.7952C54.2894 27.9768 54.2632 27.1192 54.0745 26.3435C53.5858 24.348 53.47 22.3023 53.0909 20.295C53.0025 19.8233 52.9246 19.3417 52.8539 18.8823C52.782 18.4103 52.6012 17.9565 52.5389 17.4785C52.4928 17.1171 52.9766 17.0842 52.8145 16.7988C52.4543 16.1705 51.9324 15.6202 52.1894 14.7721C52.231 14.6359 51.9929 14.0212 51.6102 14.1409C51.0398 14.3182 51.6362 14.6516 51.6049 14.8948C51.5591 15.2537 51.8388 15.5454 51.8131 15.7817C51.7298 16.5178 52.4623 17.223 51.5619 17.9506C51.6288 17.972 51.6996 18.0211 51.7625 18.015C51.8933 17.9998 51.9137 17.9203 51.8003 17.8512C51.7463 17.8184 51.662 17.8278 51.5912 17.8321C51.5786 17.8333 51.5717 17.9077 51.8687 17.9551C51.9291 18.1208 52.1373 18.2238 52.0648 18.4494C51.8665 19.0873 51.7297 19.7168 52.3038 20.2544C52.4658 20.4064 52.3504 20.5954 52.3547 20.7729C52.3696 21.911 52.327 23.0586 52.4561 24.1818C52.5664 25.1468 52.4018 26.1372 52.6077 27.0523C52.8346 28.0543 52.8708 29.029 52.9153 30.0385C52.9584 31.0456 52.8635 32.0458 52.9401 33.0585C53.1173 35.4527 53.6478 37.8456 53.214 40.2723C53.1828 40.4519 53.293 40.6864 53.2658 40.9203C53.2485 41.0846 53.4184 41.2917 53.6334 41.187C54.4686 40.7871 55.3824 41.1686 56.3334 40.8363L56.2254 40.9039C56.286 40.9527 56.34 41.0122 56.4106 41.0448C56.4904 41.0815 56.5533 41.022 56.5236 40.9106C56.5122 40.871 56.3979 40.8592 56.2254 40.9039L56.2308 40.9072ZM67.4364 50.2181C67.6541 50.7522 67.9101 51.1021 68.4468 50.5991C68.985 50.8823 69.5005 50.5693 70.0202 50.5138C70.4983 50.4611 71.016 49.7198 70.9037 49.3966C70.5364 48.3358 69.5392 48.0399 68.6934 47.5591C68.5698 47.4898 68.562 47.5414 68.5183 47.6688C68.3892 48.0599 68.128 48.1869 67.6883 48.1889C67.5092 48.191 67.7263 48.7188 67.4253 49.0008C67.0541 49.3468 66.917 49.853 67.434 50.2196L67.4364 50.2181ZM54.151 49.6056C54.1445 49.6431 54.0935 49.7484 54.125 49.7987C54.4618 50.3149 53.8919 50.285 53.7165 50.485C53.6305 50.5822 53.4481 50.5898 53.4452 50.7717C53.4417 50.9741 54.0167 51.7479 54.2417 51.8404C55.3095 52.2756 56.3459 51.813 56.7416 50.7278C56.9975 50.0271 56.823 49.6527 56.1159 49.3986C55.443 49.1564 54.819 49.584 54.1564 49.6089L54.151 49.6056ZM47.5556 23.6597C47.4429 23.7303 47.3226 23.789 47.3044 23.9572C47.2465 24.4938 47.1376 25.1358 47.5987 25.4506C47.9183 25.6674 47.3193 26.2362 47.9077 26.0877C48.398 25.9639 48.0061 25.4823 47.9799 25.2752C47.9266 24.8382 47.7333 24.439 47.9031 23.969C47.9585 23.8175 47.7854 23.6425 47.5571 23.6621L47.5556 23.6597ZM49.168 51.5002C49.0809 51.3346 48.9959 51.151 48.762 51.2576C48.4627 51.3984 48.5411 51.5928 48.6912 51.8056C48.7944 51.9544 48.8665 52.1494 49.1013 52.039C49.3982 51.8997 49.3357 51.6987 49.1665 51.4978L49.168 51.5002ZM46.9461 17.0298C47.016 17.0828 47.1205 17.1908 47.1454 17.1719C47.3517 17.0426 47.2763 16.7996 47.3485 16.611C47.2645 16.6102 47.164 16.5831 47.0971 16.615C46.9259 16.699 46.8006 16.8242 46.9461 17.0298ZM48.4049 53.4761C48.338 53.4279 48.2452 53.3226 48.2024 53.3395C48.0458 53.4042 48.0807 53.5291 48.1719 53.6321C48.2274 53.694 48.3291 53.7871 48.372 53.7702C48.5286 53.7055 48.488 53.5874 48.4049 53.4761ZM73.1021 16.6599C73.0538 16.7268 72.9483 16.8197 72.9651 16.8625C73.0297 17.0189 73.1547 16.9839 73.2579 16.8926C73.3199 16.837 73.4132 16.7352 73.3964 16.6924C73.3318 16.536 73.2136 16.5767 73.1021 16.6599ZM62.8185 33.4906C62.7886 33.5494 62.7154 33.6353 62.7355 33.6727C62.7944 33.7826 62.8286 33.9546 63.0044 33.9312C63.047 33.9245 63.1192 33.7892 63.0982 33.7557C63.0394 33.6458 63.0087 33.4849 62.8185 33.4906ZM47.7043 26.6854C47.7646 26.7177 47.8264 26.7524 47.8867 26.7846C47.8966 26.7417 47.9284 26.6751 47.9115 26.659C47.8635 26.609 47.796 26.5813 47.7366 26.5451C47.7267 26.588 47.7169 26.6309 47.7043 26.6854ZM47.5116 23.0668C47.4999 23.1175 47.49 23.1604 47.4792 23.2072C47.5485 23.2004 47.6238 23.2033 47.6865 23.1807C47.7087 23.1735 47.7093 23.0997 47.7191 23.0569C47.6484 23.0612 47.58 23.064 47.5116 23.0668ZM67.6832 52.8621C67.6325 52.8505 67.5896 52.8407 67.5428 52.83C67.5495 52.8992 67.5465 52.9744 67.569 53.0371C67.5762 53.0592 67.65 53.0597 67.6929 53.0695C67.6887 52.9988 67.6859 52.9304 67.6832 52.8621ZM50.521 17.1317C50.5111 17.1746 50.4793 17.2412 50.4961 17.2573C50.5441 17.3073 50.6116 17.3351 50.671 17.3712C50.6809 17.3284 50.7127 17.2618 50.6959 17.2456C50.6479 17.1956 50.5804 17.1679 50.521 17.1317ZM66.3074 40.3812C66.3677 40.4135 66.4295 40.4481 66.4898 40.4804C66.4997 40.4375 66.5314 40.3709 66.5146 40.3547C66.4666 40.3048 66.3991 40.277 66.3397 40.2409C66.3298 40.2837 66.3199 40.3266 66.3074 40.3812ZM51.1322 15.6279C51.1829 15.6395 51.2258 15.6493 51.2726 15.6601C51.2659 15.5908 51.2689 15.5156 51.2464 15.453C51.2392 15.4308 51.1654 15.4303 51.1225 15.4205C51.1267 15.4913 51.1294 15.5596 51.1322 15.6279ZM62.8449 32.877C62.7942 32.8654 62.7513 32.8555 62.7045 32.8448C62.7112 32.9141 62.7082 32.9893 62.7307 33.0519C62.7379 33.0741 62.8117 33.0746 62.8546 33.0844C62.8504 33.0136 62.8477 32.9453 62.8449 32.877ZM48.9336 49.8625C48.9219 49.9132 48.912 49.956 48.9012 50.0028C48.9705 49.9961 49.0458 49.999 49.1085 49.9764C49.1307 49.9691 49.1312 49.8954 49.1411 49.8525C49.0703 49.8568 49.0019 49.8597 48.9336 49.8625ZM56.7775 17.5948C56.7658 17.6455 56.7559 17.6884 56.7452 17.7351C56.8145 17.7284 56.8897 17.7313 56.9524 17.7087C56.9746 17.7015 56.9752 17.6277 56.9851 17.5848C56.9143 17.5892 56.8459 17.592 56.7775 17.5948ZM56.7868 16.9218C56.7544 16.9821 56.7197 17.0439 56.6873 17.1043C56.7302 17.1141 56.7968 17.1457 56.813 17.1289C56.863 17.0809 56.8909 17.0134 56.9272 16.9539C56.8843 16.9441 56.8414 16.9343 56.7868 16.9218ZM56.3982 16.5682C56.4585 16.6005 56.5203 16.6351 56.5806 16.6674C56.5905 16.6245 56.6223 16.5579 56.6054 16.5418C56.5574 16.4918 56.4899 16.464 56.4305 16.4279L56.3982 16.5682ZM73.9568 41.9263C74.0171 41.9586 74.0789 41.9933 74.1392 42.0255C74.1491 41.9826 74.1808 41.916 74.164 41.8999C74.116 41.8499 74.0485 41.8222 73.9891 41.786L73.9568 41.9263ZM59.0216 14.0906C59.0333 14.0399 59.0432 13.997 59.054 13.9502C58.9847 13.9569 58.9094 13.9541 58.8467 13.9767C58.8245 13.9839 58.8239 14.0576 58.8141 14.1005C58.8848 14.0962 58.9532 14.0934 59.0216 14.0906ZM49.8366 53.7032C49.7859 53.6916 49.7431 53.6817 49.6963 53.671C49.7029 53.7403 49.6999 53.8155 49.7224 53.8781C49.7297 53.9003 49.8034 53.9008 49.8463 53.9106C49.8421 53.8398 49.8394 53.7715 49.8366 53.7032ZM72.9438 24.0477C72.9555 23.997 72.9653 23.9541 72.9761 23.9073C72.9068 23.9141 72.8315 23.9112 72.7689 23.9338C72.7467 23.941 72.7461 24.0148 72.7362 24.0576C72.807 24.0533 72.8754 24.0505 72.9438 24.0477ZM72.7769 23.2482C72.7446 23.3085 72.7098 23.3704 72.6774 23.4307C72.7203 23.4405 72.7869 23.4721 72.8031 23.4553C72.8532 23.4073 72.8811 23.3398 72.9173 23.2804L72.7769 23.2482ZM72.2867 21.554C72.275 21.6047 72.2651 21.6475 72.2543 21.6943C72.3236 21.6876 72.3989 21.6905 72.4616 21.6679C72.4838 21.6606 72.4843 21.5869 72.4942 21.544C72.4234 21.5483 72.355 21.5512 72.2867 21.554ZM72.8562 20.8635C72.8446 20.9142 72.8347 20.9571 72.8239 21.0039C72.8932 20.9972 72.9685 21 73.0312 20.9774C73.0534 20.9702 73.0539 20.8965 73.0638 20.8536C72.993 20.8579 72.9246 20.8607 72.8562 20.8635ZM73.1412 17.5861C73.1736 17.5258 73.2083 17.464 73.2407 17.4037C73.1978 17.3939 73.1312 17.3622 73.115 17.379C73.0649 17.4271 73.0371 17.4946 73.0008 17.554L73.1412 17.5861Z" fill="#322723"/>
<path d="M75.6982 14.0753C75.9144 13.9832 76.5481 14.4401 76.5251 14.6914C76.4997 14.9708 76.4219 15.2464 76.341 15.5172C75.9032 16.9724 75.8223 18.4642 75.8493 19.9683C75.8518 20.1002 75.8912 20.259 75.8363 20.3634C75.2519 21.4301 75.4369 22.6317 75.3235 23.7569C75.2109 24.8515 75.1991 25.9897 75.0748 27.0817C74.8274 29.2248 74.6838 31.3629 74.6041 33.5177C74.5742 34.3603 74.4519 35.2475 74.2742 36.0994C74.1889 36.4965 74.0717 36.8534 74.3023 37.296C74.4719 37.6201 74.3393 38.1335 74.0077 38.4146C73.8547 38.5438 74.0067 38.989 73.6584 38.8169C73.5075 38.7414 73.3346 38.5028 73.3654 38.2266C73.5079 36.9932 73.2836 35.7661 73.2815 34.5365C73.2809 34.4502 73.2265 34.3474 73.2583 34.2808C73.7446 33.2389 73.3719 32.1215 73.5454 31.0388C73.7159 29.9779 73.8206 28.8815 73.8744 27.8104C73.9274 26.7432 74.1491 25.7002 74.188 24.6585C74.236 23.4075 74.323 22.1655 74.3992 20.9169C74.4215 20.5526 74.4448 20.1845 74.5385 19.8489C74.8269 18.8109 74.8243 17.7084 75.2477 16.6993C75.4484 16.2199 75.3237 15.7277 75.2245 15.2494C75.1169 14.7364 75.5766 14.4784 75.6997 14.0777L75.6982 14.0753Z" fill="#322723"/>
<path d="M78.5599 14.6975C78.8438 15.0067 78.7834 15.3848 78.7629 15.8212C78.671 17.5567 78.1337 19.1943 77.7742 20.8706C77.5446 21.9384 77.5109 23.0203 77.398 24.0984C77.2768 25.2752 77.0734 26.4968 76.42 27.5333C76.313 27.7037 76.2571 28.1424 75.9895 28.0565C75.7795 27.9879 75.5811 27.6553 75.524 27.4042C75.4684 27.1555 75.5774 26.8603 75.6448 26.5946C76.0259 25.0916 76.0297 23.5514 76.1385 22.0189C76.1707 21.5584 76.3172 21.1097 76.3916 20.6527C76.5532 19.6576 77.0383 18.7098 76.8747 17.6648C76.7893 17.1179 77.3347 16.7728 77.2681 16.1707C77.2209 15.7433 77.3541 15.2095 77.697 14.7545C78.2081 14.0773 78.1397 14.0268 78.5582 14.7053L78.5599 14.6975Z" fill="#322723"/>
<path d="M45.768 52.466C45.6573 52.3053 45.6878 52.1727 45.8578 52.0762L46.0079 52.3157L45.768 52.466Z" fill="#322723"/>
<path d="M69.2321 71.7889C69.3429 71.9497 69.3123 72.0822 69.1423 72.1788L68.9922 71.9392L69.2321 71.7889Z" fill="#322723"/>
<path d="M77.3552 59.6942C77.4659 59.855 77.4354 59.9875 77.2654 60.084L77.1153 59.8445L77.3552 59.6942Z" fill="#322723"/>
<path d="M72.2302 133.623C72.3409 133.784 72.3104 133.916 72.1404 134.013L71.9903 133.773L72.2302 133.623Z" fill="#322723"/>
<path d="M49.3009 41.5789L49.061 41.7292C48.9502 41.5684 48.9808 41.4359 49.1508 41.3394L49.3009 41.5789Z" fill="#322723"/>
</g>
<defs>
<clipPath id="clip0_163_2088">
<rect width="120" height="81" fill="white" transform="translate(64.5371 144.848) rotate(-122.069)"/>
</clipPath>
</defs>
</svg>
