<svg width="90" height="98" viewBox="0 0 90 98" fill="none" xmlns="http://www.w3.org/2000/svg">
<g clip-path="url(#clip0_163_2088)">
<path d="M42.4593 38.5098C43.2744 38.6243 44.0893 38.3611 44.8903 38.2304C45.4812 38.1345 46.0507 38.0656 46.6465 38.0747C47.2327 38.0829 47.8271 38.0501 48.4067 37.9614C49.2457 37.8338 50.0726 38.0354 50.9054 37.9949C51.0538 37.9874 51.2172 38.0289 51.2871 38.2123C51.3195 38.3 51.377 38.3809 51.4379 38.453C51.8804 38.9831 51.9779 39.545 51.5998 40.153C51.5537 40.119 51.4954 40.0475 51.4649 40.0599C51.3537 40.0981 51.383 40.1809 51.4381 40.2544C51.4039 40.3005 51.3324 40.3589 51.3447 40.3894C51.3828 40.5004 51.4657 40.471 51.5393 40.4159C51.6612 40.7219 51.2751 40.7996 51.1527 41.0427C51.094 41.057 51.1418 41.09 51.1832 41.0843C51.2714 41.074 51.2851 41.0204 51.2087 40.9739C51.1723 40.9517 51.1154 40.9581 51.0693 40.96C51.0608 40.9608 51.0562 41.0109 51.1527 41.0427C51.1198 41.6661 50.6625 42.083 50.2854 42.5488C50.0784 42.8044 49.8922 43.0717 49.5762 43.236C49.3182 43.3706 49.1376 43.6503 48.954 43.8642C48.2158 44.7316 47.3196 45.4618 46.8362 46.5631C46.5828 47.1402 46.372 47.7311 46.1229 48.3078C46.0767 48.2737 46.0185 48.2023 45.9879 48.2146C45.8767 48.2528 45.9061 48.3357 45.9611 48.4091C45.927 48.4553 45.8554 48.5136 45.8678 48.5441C45.9058 48.6552 45.9887 48.6257 46.0623 48.5706C45.865 49.0789 45.7439 49.6046 45.5953 50.1475C45.5366 50.1618 45.5844 50.1948 45.6258 50.1891C45.714 50.1788 45.7277 50.1252 45.6512 50.0787C45.6148 50.0565 45.558 50.0629 45.5119 50.0648C45.5034 50.0656 45.4988 50.1157 45.5953 50.1475C45.7463 50.4352 45.6857 50.6981 45.4136 50.9361C45.355 50.9503 45.4027 50.9834 45.4442 50.9776C45.5323 50.9674 45.5461 50.9138 45.4696 50.8672C45.4332 50.8451 45.3763 50.8514 45.3302 50.8533C45.3217 50.8542 45.3171 50.9043 45.4136 50.9361C45.4277 51.1634 45.741 51.4011 45.3937 51.6233C45.335 51.6375 45.3828 51.6706 45.4242 51.6649C45.5124 51.6546 45.5261 51.601 45.4497 51.5545C45.4133 51.5323 45.3564 51.5386 45.3103 51.5406C45.3018 51.5414 45.2972 51.5915 45.3937 51.6233C45.6198 52.0776 45.4386 52.5218 45.4453 52.9674C45.4654 54.1176 45.4898 55.2673 45.5831 56.4121C45.6299 56.9901 45.8322 57.5538 45.9666 58.1241C45.9897 58.2221 45.9962 58.308 45.78 58.3512C45.7214 58.3655 45.7691 58.3985 45.8106 58.3928C45.8987 58.3825 45.9125 58.3289 45.836 58.2824C45.7996 58.2602 45.7427 58.2666 45.695 58.2695C45.6865 58.2703 45.6819 58.3205 45.7784 58.3522C45.9348 58.4904 46.1573 58.6119 45.819 58.7766C45.7604 58.7908 45.8081 58.8239 45.8496 58.8182C45.9378 58.8079 45.9515 58.7543 45.875 58.7078C45.8386 58.6856 45.7818 58.692 45.7357 58.6939C45.7272 58.6947 45.7225 58.7448 45.819 58.7766C45.9754 58.9147 46.1979 59.0362 45.8597 59.2009C45.801 59.2152 45.8488 59.2482 45.8902 59.2425C45.9784 59.2323 45.9921 59.1787 45.9157 59.1321C45.8792 59.11 45.8224 59.1163 45.7763 59.1182C45.7678 59.119 45.7632 59.1692 45.8597 59.2009C46.164 59.4961 46.0838 59.8319 46.1147 60.1544C46.2045 61.0923 46.3991 62.0139 46.3099 62.9717C46.2391 63.7358 46.2219 64.5135 46.58 65.2361C46.3672 66.1296 46.6882 67.0013 46.69 67.8885C46.691 68.7673 46.8572 69.6438 46.8651 70.5227C46.8675 70.8968 47.1395 71.2302 46.8775 71.6103C46.8189 71.6245 46.8666 71.6576 46.9081 71.6518C46.9963 71.6416 47.01 71.588 46.9335 71.5414C46.8971 71.5193 46.8403 71.5256 46.7942 71.5275C46.7857 71.5284 46.781 71.5785 46.8775 71.6103C47.0562 72.3305 47.1312 73.0504 47.2104 73.77C47.2214 73.8666 47.2364 73.9517 47.0202 73.9949C46.9615 74.0091 47.0093 74.0422 47.0507 74.0365C47.1389 74.0262 47.1526 73.9726 47.0762 73.9261C47.0398 73.9039 46.9829 73.9103 46.9368 73.9122C46.9283 73.913 46.9237 73.9631 47.0202 73.9949C47.1276 74.5079 47.3226 75.0132 47.0816 75.5308C47.0229 75.5451 47.0707 75.5781 47.1121 75.5724C47.2003 75.5621 47.214 75.5086 47.1375 75.462C47.1011 75.4398 47.0443 75.4462 46.9982 75.4481C46.9897 75.4489 46.9851 75.4991 47.0816 75.5308C47.2603 76.251 47.3352 76.971 47.4144 77.6906C47.4254 77.7872 47.4404 77.8722 47.2242 77.9155C47.1656 77.9297 47.2133 77.9628 47.2548 77.957C47.3429 77.9468 47.3567 77.8932 47.2802 77.8466C47.2438 77.8245 47.187 77.8308 47.1408 77.8327C47.1324 77.8336 47.1277 77.8837 47.2242 77.9155C47.531 78.29 47.5627 78.711 47.6203 79.1157C47.7906 80.3113 47.8344 81.5208 47.951 82.7207C47.963 82.8369 48.0318 82.9647 48.0013 83.0671C47.7467 83.9261 48.1139 84.7171 48.2844 85.5212C48.3529 85.8426 48.4149 86.1861 48.3837 86.4778C48.3515 86.7859 48.7229 87.012 48.3802 87.3099C48.3216 87.3241 48.3693 87.3572 48.4108 87.3515C48.499 87.3412 48.5127 87.2876 48.4362 87.2411C48.3998 87.2189 48.343 87.2253 48.2969 87.2272C48.2884 87.228 48.2838 87.2781 48.3802 87.3099C48.7141 87.7169 48.6826 88.1483 48.5022 88.5829C48.4435 88.5972 48.4913 88.6303 48.5327 88.6245C48.6209 88.6143 48.6346 88.5607 48.5582 88.5141C48.5217 88.492 48.4649 88.4983 48.4188 88.5002C48.4103 88.5011 48.4057 88.5512 48.5022 88.5829C48.6355 89.1157 48.449 89.5766 48.1414 89.9988C48.0953 89.9647 48.037 89.8932 48.0065 89.9056C47.8953 89.9438 47.9246 90.0266 47.9797 90.1001C47.9455 90.1462 47.8739 90.2046 47.8863 90.2351C47.9244 90.3462 48.0073 90.3167 48.0809 90.2616C47.8987 90.884 47.6759 91.4847 47.3316 92.0423C47.0994 92.4195 47.0504 92.8842 46.7731 93.2469C46.4968 93.6112 46.3538 94.0336 46.188 94.4591C45.9682 95.0287 45.6338 95.5733 45.2576 96.0587C44.8374 96.6031 43.8415 96.5343 43.3424 96.0037C42.912 95.5469 42.4653 95.1071 42.0501 94.6385C41.9378 94.5132 41.8077 94.471 41.6857 94.3877C41.2137 94.0694 40.6795 93.7991 40.4758 93.2116C40.3747 92.9173 40.021 92.9387 39.8856 92.6615C39.6577 92.197 39.6006 91.6638 39.2572 91.2379C39.1064 91.0512 39.3089 90.7489 39.2235 90.4471C38.9834 89.5967 38.6285 88.7822 38.4831 87.8994C38.3006 86.7993 38.0457 85.713 37.8296 84.6204C37.8223 84.58 37.8916 84.5253 37.963 84.4558C37.9743 84.4487 37.9517 84.4629 37.9274 84.4781C37.9683 84.511 38.0047 84.5511 38.0523 84.5731C38.1061 84.5978 38.1485 84.5577 38.1285 84.4826C38.1208 84.4559 38.0437 84.448 37.9646 84.4548C37.5586 83.6521 37.6425 82.7471 37.4896 81.8848C37.3767 81.2516 37.5628 80.5637 37.1433 79.9876C37.2262 79.4836 37.1406 78.9839 37.1038 78.483C37.0541 77.8034 36.9167 77.1383 37.0562 76.4369C37.1457 75.9939 37.0442 75.4975 36.9526 75.0421C36.9049 74.8043 36.9004 74.6317 37.0888 74.4327C37.1001 74.4256 37.0775 74.4398 37.0532 74.455C37.0941 74.4879 37.1305 74.5281 37.1781 74.55C37.2319 74.5748 37.2743 74.5347 37.2543 74.4595C37.2466 74.4329 37.1695 74.4249 37.0904 74.4317C37.0445 74.0421 37.1151 73.6335 37.0167 73.2139C36.9828 73.0665 36.9386 72.8737 36.9705 72.6873C37.0367 72.304 37.4074 71.9503 37.1069 71.5246C37.3138 71.089 37.2571 70.596 37.2438 70.1613C37.229 69.7027 37.4139 69.3147 37.4364 68.8868C37.4991 67.6353 37.6583 66.3975 37.8525 65.158C37.9592 64.4727 37.9022 63.7526 38.057 63.0327C38.0683 63.0256 38.0457 63.0397 38.0214 63.0549C38.0623 63.0878 38.0987 63.128 38.1462 63.1499C38.2 63.1747 38.2425 63.1346 38.2224 63.0594C38.2147 63.0328 38.1377 63.0248 38.0586 63.0316C38.0087 62.215 37.9917 61.3755 37.9833 60.5351C37.983 60.452 37.9862 60.3421 38.1383 60.2828C38.1496 60.2757 38.1269 60.2899 38.1027 60.3051C38.1435 60.338 38.18 60.3781 38.2275 60.4001C38.2813 60.4248 38.3238 60.3847 38.3037 60.3096C38.296 60.2829 38.2189 60.275 38.1399 60.2818C38.0516 60.1661 37.8301 60.0463 38.0992 59.8574C38.1106 59.8503 38.0879 59.8645 38.0636 59.8797C38.1045 59.9126 38.1409 59.9528 38.1885 59.9747C38.2423 59.9995 38.2847 59.9594 38.2647 59.8842C38.257 59.8576 38.1799 59.8496 38.1008 59.8564C37.9216 59.2288 38.0592 58.5713 38.0638 57.9207C38.0672 57.4732 38.0581 57.0201 38.0104 56.5844C37.9202 55.7863 37.9831 54.9844 37.9039 54.1929C37.8545 53.7042 37.8828 53.167 37.624 52.7287C37.4044 52.3602 37.3629 51.9993 37.4111 51.598C37.4774 51.046 37.5022 50.4996 37.0876 50.0464C37.0539 49.3276 36.4094 48.8813 36.2606 48.2232C36.109 47.5535 35.6358 47.0786 35.315 46.5127C34.9705 45.9053 34.6023 45.3106 34.2013 44.7387C33.9226 44.3443 33.8271 43.8036 33.2846 43.5992C33.0898 43.5256 33.3216 43.2521 33.1851 43.0881C33.1057 42.9938 32.8251 43.1067 32.9277 42.8355C32.4085 42.3916 32.2385 41.6637 31.7542 41.2429C31.3427 40.8845 31.1776 40.3155 30.6381 40.0799C30.4708 40.0071 30.3831 39.7269 30.2787 39.5315C30.0129 39.039 30.0909 38.8147 30.5363 38.4974C30.8909 38.2437 31.2219 38.2005 31.6677 38.2541C32.3978 38.3409 33.1479 38.251 33.8903 38.2424C33.9374 38.2422 33.9864 38.3059 34.0574 38.3761C34.0645 38.3874 34.0503 38.3648 34.0351 38.3406C34.0022 38.3815 33.962 38.4179 33.9399 38.4655C33.9151 38.5193 33.9551 38.5617 34.0304 38.5415C34.0571 38.5338 34.0651 38.4568 34.0584 38.3778C34.8117 38.3758 35.592 38.3233 36.3842 38.4949C36.3913 38.5062 36.3771 38.4836 36.3619 38.4594C36.329 38.5002 36.2888 38.5367 36.2668 38.5842C36.2419 38.638 36.282 38.6804 36.3572 38.6603C36.3839 38.6525 36.3919 38.5755 36.3852 38.4965C36.5901 38.5503 36.8284 38.2368 37.0728 38.5155C37.0799 38.5268 37.0658 38.5042 37.0506 38.48C37.0176 38.5209 36.9774 38.5573 36.9554 38.6048C36.9305 38.6586 36.9706 38.701 37.0458 38.6809C37.0725 38.6731 37.0806 38.5961 37.0739 38.5171C37.2534 38.4586 37.4872 38.3571 37.6498 38.4261C38.4391 38.7548 39.2821 38.4897 40.0772 38.691C40.6037 38.4781 41.18 38.6861 41.7191 38.4967C41.9405 38.4187 42.2044 38.2826 42.4747 38.5091C42.4817 38.5204 42.4676 38.4978 42.4524 38.4736C42.4194 38.5145 42.3792 38.5509 42.3572 38.5985C42.3323 38.6523 42.3724 38.6946 42.4476 38.6745C42.4743 38.6668 42.4824 38.5898 42.4757 38.5107L42.4593 38.5098ZM42.6805 82.872C42.666 82.9171 42.6328 82.9648 42.6369 83.0073C42.6471 83.0954 42.7007 83.109 42.7473 83.0325C42.7696 82.9961 42.7633 82.9393 42.7614 82.8933C42.7606 82.8848 42.7105 82.8802 42.6782 83.0804C41.8595 83.4741 41.5276 84.1881 41.3107 85.0212C41.2411 85.2875 41.4422 85.5618 41.0158 85.7908C41.0609 85.8052 41.1087 85.8383 41.1511 85.8342C41.2393 85.8239 41.253 85.7703 41.1766 85.7238C41.1402 85.7016 41.0833 85.708 41.0372 85.7099C41.0287 85.7107 41.0241 85.7608 41.2243 85.7928C41.5576 86.1126 41.0457 86.6042 41.4475 86.9147C41.4522 86.9186 41.4 87.0187 41.3582 87.0562C41.2626 87.1408 41.1457 87.2275 41.3688 87.2744C41.583 87.3179 41.7507 87.467 41.9358 87.5287C42.5108 87.7239 43.1613 87.7842 43.7082 87.5787C44.5522 87.2613 45.1216 86.448 44.9771 85.4949C44.9301 85.1825 44.9004 84.8548 44.8908 84.5302C44.8674 83.8206 44.5551 83.2539 43.7949 82.853C43.7803 82.8981 43.7472 82.9459 43.7512 82.9883C43.7614 83.0764 43.815 83.0901 43.8617 83.0136C43.8839 82.9772 43.8776 82.9204 43.8758 82.8743C43.875 82.8658 43.8248 82.8613 43.7925 83.0614C43.4684 83.1228 43.1079 82.8854 42.8067 83.1775C42.8002 83.1816 42.7237 83.1171 42.6809 82.8762L42.6805 82.872ZM40.2962 76.3883C40.181 76.0354 39.7882 75.9262 39.5399 75.6701C39.301 75.4218 38.9712 75.6036 39.0025 75.9844C39.0348 76.3667 38.9858 76.5796 38.5659 76.5278C38.4166 76.5089 38.3358 76.5955 38.229 76.6444C38.133 76.6888 38.0776 76.773 38.1153 76.8619C38.1628 76.9738 38.2307 77.1 38.3257 77.1618C38.4639 77.253 38.4475 77.0901 38.4642 77.0234C38.5098 76.8373 38.6888 76.8174 38.8119 76.7335C39.2759 76.4136 39.2527 76.4843 39.4458 76.8357C39.5203 76.9689 39.6648 77.2068 39.707 77.1915C39.9653 77.104 40.2348 76.9913 40.4374 76.8149C40.5704 76.7001 40.361 76.5456 40.2952 76.3867L40.2962 76.3883ZM38.7947 78.3165C38.4499 78.5032 38.4457 78.5936 38.7702 78.7951C39.1457 79.0277 39.1181 79.0089 39.3942 78.6335C39.5133 78.4712 39.6301 78.2586 39.5501 78.167C39.4625 78.0667 39.225 78.2628 39.0332 78.176C38.9857 78.154 38.8765 78.2674 38.7957 78.3181L38.7947 78.3165ZM44.2747 74.6603C44.1101 74.7319 44.0541 74.8187 44.1454 75.0112C44.2606 75.2561 44.4784 75.2478 44.6774 75.3031C44.7146 75.0999 44.8154 74.9085 44.6468 74.697C44.5135 74.5309 44.4126 74.5424 44.2747 74.6603ZM36.2953 44.7986C36.103 44.8764 36.1736 44.9963 36.2548 45.1546C36.3825 45.4052 36.5158 45.3375 36.6953 45.225C36.8797 45.1095 36.8376 45.0099 36.7544 44.8484C36.624 44.5972 36.4849 44.6483 36.2953 44.7986ZM45.2441 74.0506C45.3891 73.8901 45.7705 73.8805 45.6955 73.6171C45.6615 73.4945 45.3937 73.8399 45.137 73.7646C44.9402 73.7057 45.0462 74.0869 44.8227 74.0898C44.8255 74.1374 44.8235 74.1882 44.8381 74.233C44.842 74.2464 44.9025 74.2602 44.9229 74.2496C45.031 74.1886 45.1342 74.1195 45.2425 74.0516L45.2441 74.0506ZM45.1385 72.9832C45.1719 73.0365 45.1988 73.0939 45.2383 73.1389C45.2757 73.1807 45.332 73.2489 45.3681 73.2419C45.4986 73.2164 45.43 73.1357 45.4128 73.0543C45.3797 72.9153 45.3904 72.7669 45.3616 72.6275C45.3379 72.5142 45.2256 72.4968 45.1454 72.5449C45.0774 72.5874 44.998 72.6799 44.9992 72.7466C45.0027 72.8277 45.0873 72.9051 45.1359 72.9826L45.1385 72.9832ZM44.5925 77.6121C44.3952 77.8257 44.6798 77.924 44.7379 78.0743C44.7641 78.1411 44.9121 78.1114 44.9772 78.0391C45.1676 77.8253 44.9184 77.7116 44.8457 77.5704C44.8091 77.5012 44.6799 77.5394 44.5909 77.6131L44.5925 77.6121ZM45.4201 42.1605C45.2067 41.9636 45.1079 42.2481 44.9575 42.3064C44.8905 42.3326 44.9185 42.4815 44.9924 42.5454C45.206 42.7354 45.3202 42.4862 45.4615 42.4134C45.5308 42.3767 45.4928 42.2476 45.4191 42.1588L45.4201 42.1605ZM39.831 48.2848C39.8733 48.3056 39.9311 48.3548 39.959 48.3418C40.0696 48.2882 40.1638 48.1977 40.2779 48.1533C40.5011 48.0674 40.4658 47.8601 40.5193 47.6938C40.5234 47.6823 40.4969 47.6472 40.4811 47.6436C40.2028 47.602 40.2506 47.8509 40.1599 47.9865C40.0968 48.08 39.9575 48.1201 39.8554 48.1908C39.836 48.2029 39.8395 48.248 39.831 48.2848ZM42.4319 75.1379C42.3977 75.184 42.3304 75.242 42.3405 75.2761C42.3626 75.3545 42.4189 75.4227 42.4715 75.4887C42.4852 75.5071 42.5378 75.5191 42.5572 75.5069C42.6638 75.4469 42.7736 75.3849 42.87 75.3087C42.8939 75.2893 42.876 75.1745 42.8734 75.1739C42.7276 75.1641 42.5906 75.0317 42.4345 75.1385L42.4319 75.1379ZM46.2021 83.3374C46.0612 83.4505 45.8701 83.487 45.9962 83.7026C46.0557 83.8048 46.1336 83.8212 46.2205 83.7802C46.4207 83.6863 46.3759 83.4782 46.4226 83.3118C46.3386 83.3216 46.2531 83.3325 46.2021 83.3374ZM46.5353 84.937C46.4294 84.9763 46.4213 85.0714 46.4628 85.1556C46.5187 85.2735 46.5996 85.3487 46.7495 85.2571C46.8497 85.1943 46.8673 85.1181 46.8264 85.0312C46.7695 84.9117 46.6829 84.831 46.5353 84.937ZM41.4311 76.7725C41.49 76.8413 41.519 76.9919 41.6177 76.948C41.7985 76.8663 41.6374 76.7602 41.5933 76.6754C41.5542 76.5987 41.5123 76.4563 41.4136 76.5001C41.2312 76.5829 41.4078 76.6814 41.4328 76.7715L41.4311 76.7725ZM43.7208 74.3191C43.7679 74.3548 43.8124 74.3899 43.8569 74.4249C43.9056 74.2977 43.9517 74.1699 44.0004 74.0427C43.9427 74.0406 43.8756 74.0197 43.8289 74.0422C43.715 74.0978 43.6233 74.1778 43.7208 74.3191ZM36.8746 48.0635C36.8543 48.1031 36.805 48.161 36.8186 48.1863C36.8583 48.2604 36.8814 48.3764 36.9999 48.3606C37.0286 48.3561 37.0773 48.2648 37.0631 48.2422C37.0234 48.1681 37.0028 48.0596 36.8746 48.0635ZM42.402 54.7213C42.3801 54.7619 42.3567 54.8036 42.3349 54.8443C42.3638 54.8509 42.4087 54.8722 42.4196 54.8609C42.4534 54.8285 42.4722 54.783 42.4966 54.7429C42.4677 54.7363 42.4388 54.7297 42.402 54.7213ZM44.8465 38.955C44.8683 38.9143 44.8918 38.8727 44.9136 38.832C44.8847 38.8254 44.8398 38.8041 44.8289 38.8154C44.7951 38.8478 44.7763 38.8933 44.7519 38.9334C44.7808 38.94 44.8097 38.9466 44.8465 38.955ZM48.254 44.1634C48.2829 44.17 48.3278 44.1913 48.3387 44.18C48.3725 44.1476 48.3913 44.1021 48.4157 44.062C48.3868 44.0554 48.3419 44.0341 48.331 44.0454C48.2972 44.0778 48.2785 44.1233 48.254 44.1634ZM45.2283 57.8985C45.2204 57.9326 45.2138 57.9615 45.2065 57.9931C45.2532 57.9885 45.304 57.9905 45.3462 57.9752C45.3612 57.9704 45.3616 57.9207 45.3682 57.8917C45.3205 57.8947 45.2744 57.8966 45.2283 57.8985ZM38.5296 47.9262C38.5217 47.9603 38.5151 47.9892 38.5078 48.0208C38.5545 48.0163 38.6053 48.0182 38.6476 48.0029C38.6625 47.9981 38.6629 47.9484 38.6696 47.9194C38.6218 47.9224 38.5757 47.9243 38.5296 47.9262ZM42.1813 76.5319C42.2103 76.5385 42.2552 76.5598 42.2661 76.5485C42.2999 76.5161 42.3186 76.4706 42.3431 76.4305C42.3142 76.4239 42.2693 76.4026 42.2583 76.4139C42.2246 76.4463 42.2058 76.4918 42.1813 76.5319ZM41.5226 77.7633C41.5008 77.804 41.4773 77.8456 41.4555 77.8863C41.4844 77.8929 41.5293 77.9143 41.5403 77.9029C41.574 77.8705 41.5928 77.825 41.6173 77.785C41.5883 77.7783 41.5594 77.7717 41.5226 77.7633Z" fill="#322723"/>
<path d="M49.1822 17.6041C49.0243 17.7727 48.5337 17.7698 48.8761 18.194C48.9977 18.345 48.9247 18.5054 48.868 18.6376C48.5146 19.4685 48.5253 19.4641 48.5791 20.2581C48.5936 20.4717 48.7492 20.7093 48.4524 20.9222C48.3938 20.9365 48.4415 20.9695 48.483 20.9638C48.5711 20.9535 48.5849 20.8999 48.5084 20.8534C48.472 20.8312 48.4151 20.8376 48.369 20.8395C48.3605 20.8403 48.3559 20.8904 48.4524 20.9222C48.5232 21.9664 48.4989 23.0095 48.4548 24.0537C48.4152 25.0366 48.3123 26.012 48.0628 26.969C48.014 27.1571 47.9265 27.3805 48.2755 27.1754C48.6137 26.9747 48.9745 27.0365 49.3348 27.1189C49.503 27.1574 49.7452 27.2959 49.8235 27.0578C49.8954 26.8419 50.2608 26.6737 49.9407 26.3389C49.7414 26.1287 49.8628 25.3914 50.0051 25.1043C50.0647 24.9838 50.0885 24.8384 50.2133 25.0233C50.4503 25.3764 50.7941 25.7345 50.6966 26.1757C50.626 26.4943 50.8685 26.673 50.8468 26.9655C50.799 27.5937 50.4252 27.9066 49.8277 28.1573C49.769 28.1716 49.8168 28.2046 49.8582 28.1989C49.9464 28.1886 49.9601 28.135 49.8837 28.0885C49.8473 28.0663 49.7904 28.0727 49.7443 28.0746C49.7358 28.0754 49.7312 28.1255 49.8277 28.1573C50.448 28.7987 50.6409 29.5235 50.6455 30.3506C50.6499 31.1665 50.7702 31.984 50.8732 32.7989C50.9801 33.6383 51.0307 34.5063 51.2968 35.2976C51.4426 35.7281 51.4308 36.1695 51.5704 36.5971C51.7683 37.2041 51.2586 37.7281 50.5558 37.6309C50.0745 37.5636 49.5927 37.4921 49.1248 37.6009C48.6285 37.7184 48.1845 37.4231 47.6872 37.521C47.2799 37.6007 46.828 37.6703 46.4343 37.3906C46.3653 37.3417 46.3649 37.4094 46.3235 37.4691C46.1545 37.7099 45.9233 37.686 45.6874 37.4605C45.6733 37.4019 45.6401 37.4497 45.6458 37.4911C45.6559 37.5792 45.7095 37.5928 45.7562 37.5163C45.7785 37.4799 45.7722 37.4231 45.7703 37.3771C45.7695 37.3686 45.7193 37.364 45.6874 37.4605C44.3121 37.6992 42.9198 37.5549 41.551 37.7896C41.5393 37.7924 41.5196 37.7395 41.5011 37.6094C41.487 37.5508 41.4538 37.5986 41.4595 37.64C41.4697 37.7281 41.5233 37.7417 41.5699 37.6653C41.5922 37.6288 41.5859 37.5721 41.584 37.526C41.5832 37.5175 41.5331 37.5129 41.5011 37.6094C40.5802 37.822 39.6634 37.6745 38.7437 37.702C37.7984 37.732 36.8543 37.6128 35.9038 37.7315C35.4065 37.7934 34.8691 37.5971 34.3876 37.6986C33.6861 37.848 32.9937 37.886 32.2862 37.911C31.9317 37.9239 31.5784 37.8777 31.2235 37.9044C30.9561 37.9234 30.7265 37.7906 30.5409 37.5088C30.2003 36.9868 29.916 36.479 30.2427 35.8717C30.3585 35.6574 30.0293 35.4521 30.2962 35.2848C30.3296 35.3381 30.3565 35.3955 30.397 35.4421C30.4344 35.4839 30.5008 35.5503 30.5307 35.5405C30.6436 35.5013 30.61 35.4189 30.5571 35.3418C30.5221 35.2895 30.4914 35.2368 30.458 35.1835C30.4921 35.1374 30.5637 35.079 30.5513 35.0485C30.5133 34.9374 30.4304 34.9669 30.3568 35.022C30.4637 34.0711 30.6389 33.1247 30.4046 32.1649C30.3767 32.052 30.3911 31.845 30.5947 31.7242C30.6061 31.7171 30.5834 31.7313 30.5591 31.7465C30.6 31.7793 30.6364 31.8195 30.684 31.8414C30.7378 31.8662 30.7802 31.8261 30.7602 31.7509C30.7525 31.7243 30.6754 31.7163 30.5963 31.7231C30.4553 31.5843 30.5175 31.3924 30.4934 31.2209C30.3796 30.4173 30.9309 29.622 31.7398 29.4751C32.0575 29.4177 32.3928 29.482 32.6933 29.2893C32.7741 29.2386 32.8468 29.3078 32.9192 29.3838C33.0517 29.5235 33.27 29.6094 33.418 29.4897C33.702 29.26 33.9573 29.4374 34.2253 29.4696C34.4638 29.4979 34.6837 29.6548 34.9429 29.4609C35.1685 29.2925 35.4464 29.7684 35.7295 29.4223C35.9129 29.1972 36.2426 29.328 36.5043 29.3035C37.7998 29.189 39.0869 28.9066 40.3971 29.0888C40.5057 29.104 40.5854 29.0766 40.6533 29.016C41.0293 28.6814 41.4733 28.8508 41.8416 28.9462C42.057 29.0024 42.0265 28.9968 42.1083 28.8398C42.1699 28.7225 42.4244 28.7655 42.4964 28.7833C43.104 28.9334 43.6864 28.8024 44.2842 28.7428C44.8729 28.6865 45.4706 28.5549 46.0705 28.7143C46.1409 28.7332 46.2327 28.6352 46.3205 28.6207C46.7294 28.5579 47.1034 28.382 47.5597 28.474C47.7844 28.5199 48.1711 28.4755 48.3967 28.2172C48.563 28.4504 48.6832 28.2289 48.8569 28.1538C48.8683 28.1467 48.8456 28.1609 48.8213 28.1761C48.8622 28.2089 48.8986 28.2491 48.9462 28.271C49 28.2958 49.0424 28.2557 49.0224 28.1806C49.0147 28.1539 48.9376 28.1459 48.8586 28.1528C48.6566 27.9419 48.5348 28.1645 48.3983 28.2162C47.8552 27.9965 47.2554 28.1069 46.7042 27.9282C46.4675 28.1687 46.2757 27.5535 45.9917 27.9091C45.7956 28.1534 45.4889 27.7608 45.1979 27.9543C44.8935 28.1586 44.5776 27.8235 44.2231 27.8544C43.8761 27.8829 43.5237 28.1869 43.1583 27.9165C42.87 28.1466 42.8076 27.8709 42.6692 27.7147C42.5529 27.5829 42.2955 27.679 42.3429 27.8157C42.4451 28.1047 42.4016 28.1252 42.1031 28.1233C41.3346 28.119 40.5625 28.1485 39.7981 28.2226C39.573 28.2444 39.5686 27.993 39.4285 28.0426C39.3504 28.069 39.3206 28.2227 39.2608 28.3141C39.2452 28.3396 39.2009 28.3696 39.1831 28.3628C38.4046 28.1016 37.6529 28.721 36.8616 28.4251C36.6286 28.3372 36.3212 28.3679 36.0814 28.5136C35.9203 28.6123 35.8125 28.6416 35.701 28.4528C35.6636 28.3931 35.6057 28.3798 35.5194 28.4901C35.2502 28.8298 34.7984 28.9104 34.5243 28.6526C34.2841 28.4275 34.0384 28.5566 33.9574 28.5962C33.3728 28.8747 32.7065 28.649 32.1268 28.9424C31.9576 29.0282 31.7036 28.9535 31.5837 28.7047C31.4248 28.3792 31.2146 28.1263 31.2498 27.6792C31.2846 27.2458 31.0269 26.7842 30.9735 26.3072C30.835 25.0759 30.8731 23.8353 30.7214 22.6011C30.6581 22.083 30.8002 21.5262 30.8087 20.9788C30.845 18.6103 30.6348 16.2544 30.4155 13.9021C30.3352 13.055 30.1838 12.2165 30.0669 11.3721C30.0596 11.3137 30.0962 11.239 30.0721 11.1934C29.9425 10.9507 29.6698 10.7167 29.8772 10.4294C30.1197 10.0975 30.5101 9.83263 30.8792 9.77457C31.3945 9.69463 31.9173 9.77414 32.1469 9.15568C32.4355 9.09858 32.7255 9.04734 33.012 8.987C34.0602 8.76888 35.0888 8.50896 36.0818 8.07347C36.5976 7.847 37.1672 7.53737 37.8054 7.72904C38.1539 7.83231 38.3656 7.30382 38.7465 7.49474C39.2475 7.21231 39.9111 7.41951 40.3692 6.95708C40.4106 6.91537 40.7089 6.88816 40.8817 6.91938C41.4484 7.01862 42.0147 7.18557 42.5774 6.89373C43.0787 7.27685 43.6715 6.89644 44.2177 7.10303C44.635 7.26216 45.0945 7.44203 45.5813 7.30575C45.6613 7.28257 45.7928 7.31265 45.8547 7.36832C46.125 7.6128 46.4341 7.63508 46.7819 7.65104C47.0954 7.66604 47.3956 7.86479 47.7117 7.91638C48.148 7.98715 48.5316 8.26861 48.9961 8.22271C49.1294 8.20894 49.219 8.29447 49.289 8.41703C49.4473 8.69121 49.6108 8.9666 49.7966 9.22355C49.9081 9.37635 49.9155 9.54267 49.8263 9.65924C49.6743 9.86243 49.6912 10.0655 49.6697 10.2972C49.6208 10.8159 49.384 11.3151 49.4716 11.854C49.5507 12.3397 49.2672 12.8075 49.4114 13.2929C49.0356 13.6745 49.4803 14.1291 49.2825 14.5612C49.095 14.9665 49.2765 15.4646 49.2043 15.8922C49.1264 16.3503 49.179 16.8189 49.0512 17.2656C49.007 17.4215 49.1437 17.4888 49.1828 17.6015L49.1822 17.6041ZM48.8554 10.6117C48.97 10.5466 48.9906 10.4572 48.916 10.3488C49.1495 10.1823 48.928 10.0624 48.8753 9.92449C49.1088 9.75794 48.8873 9.63808 48.7368 9.13186C48.6728 9.20574 48.6736 9.28618 48.7428 9.34628C48.7913 9.38783 48.7657 9.55906 48.9107 9.4525C48.9956 9.3903 49.158 9.34029 49.0726 9.21837C49.0228 9.1461 48.8541 9.15732 48.8363 9.49911C48.6028 9.66566 48.8243 9.78552 48.8769 9.92347C48.6434 10.09 48.8649 10.2099 48.9176 10.3478C48.8029 10.4129 48.7823 10.5023 48.9026 10.6834L48.857 10.6107C48.8241 10.6516 48.7839 10.688 48.7618 10.7355C48.737 10.7894 48.777 10.8317 48.8523 10.8116C48.879 10.8039 48.887 10.7268 48.857 10.6107L48.8554 10.6117ZM48.7558 12.0416C48.7412 12.0867 48.7081 12.1344 48.7121 12.1769C48.7223 12.265 48.7759 12.2786 48.8226 12.2021C48.8448 12.1657 48.8385 12.109 48.8367 12.0629C48.8358 12.0544 48.7857 12.0498 48.7534 12.25C48.6388 12.315 48.6182 12.4044 48.7384 12.5855L48.6929 12.5128C48.6599 12.5537 48.6197 12.5902 48.5977 12.6377C48.5728 12.6915 48.6129 12.7339 48.6881 12.7137C48.7148 12.706 48.7228 12.629 48.6929 12.5128C48.8075 12.4477 48.8281 12.3584 48.7541 12.0426L48.7558 12.0416ZM48.4946 17.5851C48.6092 17.52 48.6298 17.4307 48.5551 17.3223C48.7886 17.1557 48.5671 17.0358 48.5152 16.6905C48.5006 16.7356 48.4675 16.7834 48.4716 16.8258C48.4817 16.9139 48.5353 16.9276 48.582 16.8511C48.6042 16.8147 48.5979 16.7579 48.5961 16.7118C48.5953 16.7033 48.5451 16.6988 48.5128 16.8989C48.2793 17.0655 48.5008 17.1853 48.5535 17.3233C48.4389 17.3884 48.4183 17.4777 48.5385 17.6588L48.4929 17.5861C48.46 17.627 48.4198 17.6635 48.3977 17.711C48.3729 17.7648 48.413 17.8072 48.4882 17.787C48.5149 17.7793 48.5229 17.7023 48.4929 17.5861L48.4946 17.5851ZM48.4754 18.065C48.4608 18.11 48.4277 18.1578 48.4317 18.2002C48.4419 18.2883 48.4955 18.302 48.5422 18.2255C48.5644 18.1891 48.5581 18.1323 48.5563 18.0862C48.5555 18.0777 48.5053 18.0732 48.5186 18.346L48.473 18.2733C48.4401 18.3142 48.3999 18.3507 48.3778 18.3982C48.353 18.452 48.393 18.4944 48.4683 18.4742C48.495 18.4665 48.503 18.3895 48.4748 18.0676L48.4754 18.065ZM46.0525 26.7802C46.0379 26.8253 46.0048 26.873 46.0088 26.9155C46.019 27.0036 46.0726 27.0172 46.1193 26.9407C46.1415 26.9043 46.1352 26.8475 46.1334 26.8015C46.1326 26.793 46.0824 26.7884 46.0957 27.0612L46.0501 26.9885C46.0172 27.0294 45.977 27.0659 45.9549 27.1134C45.9301 27.1672 45.9701 27.2096 46.0454 27.1895C46.0721 27.1817 46.0801 27.1047 46.0519 26.7828L46.0525 26.7802ZM42.0869 24.9735L41.9857 24.812C42.2215 24.7317 42.3638 24.4986 42.2899 24.3268C42.1405 23.9841 42.2044 23.5684 41.9261 23.0703C41.9116 23.1154 41.8784 23.1632 41.8825 23.2056C41.8926 23.2937 41.9462 23.3074 41.9929 23.2309C42.0151 23.1945 42.0088 23.1377 42.007 23.0916C42.0062 23.0831 41.956 23.0785 41.9238 23.2787C41.8094 23.9913 41.8199 24.3064 41.9851 24.8146C41.951 24.8608 41.8794 24.9191 41.8918 24.9496C41.9298 25.0607 42.0127 25.0312 42.0863 24.9761L42.1875 25.1376C42.0729 25.2027 42.0523 25.2921 42.127 25.4005C41.822 25.9491 42.0903 26.557 41.9504 27.1282C41.8981 27.3432 42.0835 27.1933 42.1656 27.1733C42.261 27.1495 42.3458 27.1481 42.4353 27.3305L42.3897 27.2578C42.3568 27.2987 42.3165 27.3351 42.2945 27.3827C42.2697 27.4365 42.3097 27.4788 42.385 27.4587C42.4116 27.451 42.4197 27.374 42.3897 27.2578C42.6591 27.152 42.7083 26.9322 42.7025 26.675C42.6897 26.1657 42.3711 25.8008 42.126 25.3989C42.2406 25.3338 42.2612 25.2444 42.1865 25.136C42.2207 25.0899 42.2922 25.0315 42.2799 25.001C42.2418 24.8899 42.1589 24.9194 42.0853 24.9745L42.0869 24.9735ZM32.6842 27.941C32.7183 27.8949 32.7899 27.8365 32.7775 27.806C32.7395 27.6949 32.6566 27.7244 32.583 27.7795C32.4979 27.4819 32.6691 27.2015 32.5951 26.8857C32.4208 26.1403 32.4528 25.3645 32.3833 24.6029C32.2295 22.9337 31.988 21.2722 31.9541 19.5932C31.9464 19.1819 31.8969 18.7721 31.8559 18.3615C31.8518 18.319 31.778 18.2731 31.7252 18.2499C31.6724 18.2268 31.6461 18.2747 31.6362 18.3596C31.6272 18.453 31.5746 18.5489 31.5864 18.636C31.7743 19.9712 31.6244 21.3066 31.6222 22.644C31.6206 23.5941 31.5216 24.5648 31.6945 25.4843C31.8344 26.2288 31.7746 26.9567 31.8338 27.6911C31.845 27.8348 31.7862 27.9099 31.9806 28.0152C32.1912 28.1284 32.3247 28.2337 32.5218 28.045C32.5679 28.079 32.6262 28.1505 32.6567 28.1381C32.768 28.0999 32.7386 28.0171 32.6836 27.9436L32.6842 27.941ZM31.2417 11.7696C31.2272 11.8147 31.194 11.8624 31.1981 11.9048C31.2082 11.9929 31.2618 12.0066 31.3085 11.9301C31.3307 11.8937 31.3244 11.8369 31.3226 11.7908C31.3218 11.7824 31.2716 11.7778 31.2394 11.9779C31.0059 12.1445 31.2274 12.2643 31.28 12.4023C31.0548 12.6289 31.2032 12.934 31.2084 13.1579C31.2224 13.6979 31.1708 14.27 31.5085 14.9311C31.4506 14.9178 31.4855 14.7183 31.3497 14.8394C31.3187 14.8655 31.3101 14.9632 31.334 14.9977C31.3787 15.0619 31.4558 15.1058 31.5199 15.1578C31.5797 15.0844 31.5761 15.0102 31.4221 14.7896C31.6697 14.225 31.518 13.6521 31.4987 13.0749C31.4893 12.7974 31.3962 12.6129 31.2794 12.4049C31.5129 12.2384 31.2914 12.1185 31.2395 11.7732L31.2417 11.7696ZM41.0153 25.42C40.7818 25.5866 41.0033 25.7064 41.2067 26.085L41.0559 25.8444C41.0218 25.8905 40.9734 25.9321 40.9571 25.985C40.8458 26.3359 41.0905 26.7696 40.7108 27.0659C40.7011 27.072 40.757 27.172 40.7932 27.219C40.8462 27.2892 40.9025 27.3934 40.9715 27.4064C41.1052 27.4329 41.0412 27.284 41.0832 27.2217C41.3456 26.8279 41.3019 26.4167 41.0549 25.8428C41.2884 25.6762 41.0669 25.5564 41.0143 25.4184C41.2478 25.2519 41.0263 25.132 40.9736 24.9941C41.0068 24.9463 41.07 24.8999 41.0714 24.8518C41.1149 23.5156 41.232 22.1782 41.0356 20.8438C41.0176 20.718 40.8213 20.5665 41.1252 20.4009L41.0524 20.4465C41.0933 20.4793 41.1297 20.5195 41.1773 20.5414C41.2311 20.5662 41.2735 20.5261 41.2535 20.451C41.2458 20.4243 41.1687 20.4163 41.0524 20.4465C40.9754 18.7202 40.632 17.0326 40.3275 15.3386C40.2997 15.1828 40.0099 15.0653 40.3313 14.8234C40.245 14.8438 40.2375 14.8822 40.3071 14.9466C40.3674 15.0033 40.4156 15.0765 40.4819 15.1249C40.5327 15.1628 40.5838 15.115 40.5666 15.0336C40.5415 14.9144 40.4763 14.8248 40.2612 14.8696C40.2235 14.6729 39.8547 14.5553 40.1921 14.2382L40.1193 14.2838C40.1602 14.3167 40.1966 14.3568 40.2442 14.3788C40.298 14.4035 40.3404 14.3634 40.3204 14.2883C40.3127 14.2616 40.2356 14.2537 40.1193 14.2838C39.9085 13.9976 39.9975 13.6292 39.8641 13.3192C39.862 13.3159 39.911 13.2898 40.0096 13.228L39.9369 13.2736C39.9777 13.3064 40.0141 13.3466 40.0617 13.3685C40.1155 13.3933 40.1579 13.3532 40.1379 13.2781C40.1302 13.2514 40.0531 13.2434 39.9369 13.2736C39.7032 12.6598 39.601 12.0221 39.6084 11.3652C39.6087 11.2975 39.5231 11.1825 39.4574 11.1674C39.3164 11.1365 39.3392 11.3022 39.3489 11.3501C39.4691 11.8978 39.1844 12.4968 39.549 13.0105C39.6371 13.133 39.5894 13.2439 39.571 13.3656C39.5315 13.6332 39.3591 13.8829 39.5831 14.1722C39.7582 14.3976 39.5346 14.6771 39.5908 14.9681C39.7761 15.918 39.7838 16.8938 39.8993 17.8583C40.1407 19.8684 40.4803 21.8665 40.7159 23.8781C40.7613 24.2634 40.8086 24.6409 40.972 24.9951C40.7385 25.1616 40.96 25.2815 41.0126 25.4194L41.0153 25.42ZM37.2711 19.4443C37.0376 19.6108 37.2591 19.7307 37.3118 19.8686C37.011 20.183 37.2071 20.4493 37.393 20.7173C37.2724 21.7578 37.5355 22.7602 37.7427 23.7595C37.83 24.1793 37.677 24.6755 38.0624 25.0211C37.8289 25.1876 38.0504 25.3075 38.103 25.4454C38.0078 26.0269 38.09 26.5894 38.353 27.286C38.2952 27.2728 38.3301 27.0732 38.1942 27.1943C38.1633 27.2204 38.1547 27.3181 38.1785 27.3526C38.2233 27.4168 38.3003 27.4607 38.3645 27.5127C38.4243 27.4393 38.4206 27.3651 38.2666 27.1445C38.4362 26.5344 38.3844 25.9844 38.104 25.447C38.3376 25.2805 38.1161 25.1606 38.0634 25.0227C38.3306 24.6978 38.1766 24.3513 38.1042 24.0165C37.9315 23.1981 37.6575 22.4049 37.6644 21.5459C37.6671 21.2878 37.6433 20.9406 37.3941 20.7189C37.5037 20.4231 37.4988 20.1383 37.3128 19.8702C37.5463 19.7037 37.3248 19.5838 37.2721 19.4459C37.5056 19.2793 37.2841 19.1595 37.2315 19.0215C37.465 18.855 37.2435 18.7351 37.1909 18.5972C37.3575 18.5108 37.2435 18.4044 37.2289 18.2877C37.0078 16.4177 36.9269 14.5342 36.8797 12.6543C36.8649 12.0338 36.6298 11.4322 36.7745 10.786C36.8256 10.5583 36.8471 10.3626 36.9736 10.1439C37.1058 9.91266 36.6986 9.7517 36.7333 9.48708C36.7494 9.36902 36.7805 9.22809 36.8559 9.14711C36.9483 9.0465 37.0342 8.98592 36.9383 8.8436C36.8336 8.69099 36.7388 8.78413 36.6221 8.82799C36.1844 8.99208 36.082 9.32837 36.1548 9.73933C36.1757 9.85894 36.2833 9.96243 35.9092 10.0484C35.9543 10.0629 36.0021 10.0959 36.0445 10.0918C36.1327 10.0815 36.1464 10.028 36.07 9.9814C36.0335 9.95923 35.9767 9.9656 35.9306 9.9675C35.9221 9.96832 35.9175 10.0185 36.1177 10.0504C36.1704 10.1884 36.3919 10.3082 35.9509 10.4744C35.996 10.4888 36.0437 10.5219 36.0862 10.5178C36.1743 10.5075 36.1881 10.4539 36.1116 10.4074C36.0752 10.3852 36.0184 10.3916 35.9723 10.3935C35.9638 10.3943 35.9591 10.4444 36.1594 10.4764C36.1906 10.7672 36.2563 11.0589 36.2427 11.3463C36.2331 11.5683 36.4144 11.7965 36.224 12.0103C35.9378 12.3336 36.4262 12.4661 36.4019 12.722C36.3878 12.8793 36.0577 12.9241 36.267 13.1754C36.5472 13.5148 36.5668 13.9164 36.6065 14.3571C36.7091 15.4916 36.8261 16.6238 36.9229 17.7597C36.9463 18.0307 36.939 18.3749 37.1961 18.5984C36.9626 18.7649 37.1841 18.8848 37.2367 19.0227C37.0032 19.1893 37.2247 19.3091 37.2774 19.4471L37.2711 19.4443ZM46.0916 25.6131C45.9769 25.6782 45.9563 25.7676 46.1747 26.1053C46.0948 25.9777 46.051 25.8792 46.0334 25.8834C45.9226 25.9079 45.9004 26.0163 45.9476 26.0879C46.0231 26.2048 46.0073 26.3091 45.9738 26.4246C45.9585 26.4792 46.0062 26.5302 46.078 26.501C46.1524 26.4724 46.2606 26.3934 46.2573 26.3414C46.252 26.2323 46.1836 26.1267 46.0306 25.8717C46.1452 25.8066 46.1658 25.7173 46.0912 25.6089C46.3247 25.4423 46.1032 25.3225 46.0505 25.1845C46.2666 24.9614 46.2532 24.7314 46.0704 24.4973C46.0986 24.1828 46.1676 23.8651 46.1481 23.5535C46.0682 22.2541 46.1382 20.953 46.0442 19.649C45.9707 18.6222 45.8917 17.5831 45.9058 16.5486C45.9154 15.8881 45.6795 15.278 45.6354 14.6287C45.5258 12.9835 45.2427 11.3526 45.26 9.69768C45.2611 9.47657 45.0719 9.15656 45.3287 9.06313C45.487 9.00666 45.5796 9.37374 45.7091 9.54449C45.7621 9.61473 45.7803 9.69776 45.7966 9.79556C45.9769 10.9533 46.2533 12.1026 46.3571 13.2678C46.5637 15.5854 46.9251 17.8915 46.8588 20.2338C46.8212 21.5327 46.9529 22.8356 46.966 24.1364C46.9749 25.0349 46.98 25.9382 46.8507 26.8355C46.8386 26.9241 46.6911 27.084 46.9172 27.0998C46.9948 27.1051 47.0988 27.0265 47.1564 26.9567C47.3371 26.731 47.453 26.4199 47.3332 26.1892C47.1947 25.925 47.2887 25.7155 47.293 25.4744C47.3337 23.3392 47.3008 21.2052 47.207 19.0711C47.1831 18.508 47.0141 17.9616 47.0814 17.3932C47.134 16.9487 47.0543 16.5015 47.0786 16.0478C47.1037 15.5845 47.0589 15.0997 47.0976 14.6257C47.1593 13.883 46.9984 13.1517 46.9912 12.414C46.9838 11.7012 46.5496 10.9723 47.0616 10.2759C46.6887 9.8641 46.8589 9.35933 46.8207 8.88849C46.8034 8.66317 46.6889 8.48753 46.4221 8.45001C46.178 8.41629 45.9524 8.30795 45.7131 8.5119C45.4737 8.71585 45.1791 8.72729 44.8911 8.37916C44.8766 8.42426 44.8434 8.47202 44.8475 8.51445C44.8576 8.60256 44.9112 8.61621 44.9579 8.53972C44.9802 8.50331 44.9739 8.44653 44.971 8.39883C44.9702 8.39035 44.92 8.38578 44.8878 8.58593C44.4966 8.5656 44.1061 8.54265 43.7154 8.52657C43.4478 8.51654 43.2495 8.30791 43.2876 8.12433C43.3524 7.8071 43.1595 7.83351 43.0007 7.81379C42.718 7.77953 42.6873 8.03262 42.7082 8.18821C42.7722 8.68569 42.699 9.21959 43.0709 9.64781C43.1877 9.78382 43.2205 9.94768 43.2293 10.1558C43.2937 11.6246 43.6936 13.0609 43.6797 14.545C43.6728 15.368 43.9011 16.2034 43.8157 17.0126C43.7255 17.8608 43.8874 18.6837 43.8925 19.5149C43.9 20.8642 44.1378 22.2109 44.1698 23.574C44.1925 24.5449 44.314 25.5191 44.2868 26.4965C44.281 26.7138 44.3583 26.8768 44.5147 26.961C44.668 27.0403 44.8566 27.0931 45.0446 26.9439C45.2494 26.7818 45.3273 26.5755 45.2134 26.3793C44.9865 25.9884 45.0704 25.5579 45.0423 25.1572C45.021 24.8355 45.0156 24.5105 44.9875 24.1817C44.8366 22.4095 44.7377 20.6339 44.8115 18.8536C44.8172 18.7332 44.8948 18.6126 44.7922 18.4992C44.4961 18.1741 44.57 17.7635 44.5445 17.3813C44.4669 16.2042 44.3273 15.0322 44.2529 13.853C44.1951 12.9267 44.0838 11.9798 43.9317 11.054C43.8368 10.4747 43.9633 9.96131 44.0711 9.42149C44.0923 9.3115 44.1592 9.24933 44.2441 9.22311C44.3408 9.19404 44.4055 9.26143 44.464 9.34399C44.6988 9.68271 44.7232 10.3939 44.4533 10.6462C44.3069 10.7829 44.2756 10.8587 44.3841 11.0247C44.8214 11.6975 44.8845 12.4812 44.9831 13.2426C45.1014 14.1468 45.021 15.0968 45.2622 15.96C45.7324 17.6379 45.6943 19.3531 45.7865 21.0496C45.8422 22.0516 45.9741 23.071 45.8288 24.0865C45.812 24.2071 45.983 24.3542 46.067 24.4882C45.8509 24.7113 45.8644 24.9413 46.0471 25.1754C45.8136 25.342 46.0351 25.4618 46.0877 25.5998L46.0916 25.6131ZM39.29 9.87564C39.2754 9.92073 39.2423 9.96849 39.2463 10.0109C39.2565 10.099 39.3101 10.1127 39.3568 10.0362C39.379 9.99977 39.3727 9.94299 39.3709 9.89692C39.3701 9.88843 39.3199 9.88387 39.4182 10.2924L39.2876 10.084C39.2545 10.1318 39.1813 10.2091 39.192 10.2226C39.3185 10.3885 39.1981 10.581 39.2578 10.7482C39.2754 10.7979 39.3387 10.8594 39.3853 10.8618C39.5242 10.8714 39.4625 10.7369 39.4972 10.6702C39.5896 10.4976 39.474 10.3743 39.2883 9.87665L39.29 9.87564ZM33.5675 11.8867C33.553 11.9318 33.5198 11.9795 33.5239 12.022C33.534 12.1101 33.5876 12.1237 33.6343 12.0472C33.6565 12.0108 33.6503 11.954 33.6484 11.908C33.6476 11.8995 33.5974 11.8949 33.5652 12.0951C33.4285 12.1537 33.4994 12.3387 33.4227 12.389C32.9411 12.6952 33.5505 12.6396 33.5453 12.7823C33.1254 13.1511 33.7578 13.7039 33.322 14.076C33.2975 14.098 33.3115 14.1995 33.3388 14.2431C33.5959 14.6353 33.3283 15.0639 33.4264 15.4612C33.5264 15.8619 33.5412 16.2664 33.5432 16.6723C33.5434 16.7553 33.5413 16.8669 33.2173 16.9035C33.2624 16.9179 33.3101 16.951 33.3526 16.9469C33.4408 16.9366 33.4545 16.883 33.378 16.8365C33.3416 16.8143 33.2848 16.8207 33.2387 16.8226C33.2302 16.8234 33.2256 16.8735 33.4258 16.9055C33.4601 17.2551 33.5541 17.61 33.5209 17.9525C33.321 19.9378 33.7571 21.8956 33.739 23.8727C33.7305 24.6787 34.1207 25.4598 33.6877 26.2821C33.7328 26.2966 33.7806 26.3297 33.823 26.3255C33.9112 26.3153 33.9249 26.2617 33.8485 26.2151C33.8121 26.193 33.7552 26.1993 33.7075 26.2023C33.699 26.2031 33.6944 26.2532 33.8946 26.2852C33.9567 26.7186 34.0071 27.1549 34.0819 27.587C34.1508 27.9847 34.3609 27.7879 34.6126 27.6324C34.5262 27.6527 34.5188 27.6912 34.5884 27.7555C34.6487 27.8122 34.6968 27.8855 34.7632 27.9339C34.814 27.9718 34.8651 27.924 34.8479 27.8426C34.8227 27.7234 34.7576 27.6337 34.5424 27.6786C34.5642 27.0555 34.6632 26.4154 34.4692 25.8217C34.298 25.297 34.5894 24.795 34.4452 24.3096C34.2919 23.7917 34.2734 23.2589 34.2435 22.7402C34.1707 21.47 34.2278 20.195 34.1402 18.9229C34.0964 18.2779 34.0695 17.638 33.9595 16.9917C33.8622 16.4229 33.8613 15.814 33.8425 15.223C33.8182 14.415 33.8326 13.5716 33.5436 12.7833C33.7252 12.674 33.9365 12.5799 33.7079 12.3228C33.6484 12.2566 33.6111 12.172 33.5643 11.8887L33.5675 11.8867ZM37.8124 12.1441C37.7356 12.2372 37.7441 12.3083 37.8008 12.3808C37.837 12.4278 37.8749 12.5278 37.8941 12.5225C38.0007 12.4985 38.0194 12.399 37.9836 12.3202C37.9512 12.2506 37.8737 12.2024 38.0483 12.7722C37.9977 12.6915 37.9271 12.5356 37.8994 12.5417C37.7437 12.5808 37.7541 12.752 37.76 12.8585C37.7982 13.7139 37.8178 14.572 37.9171 15.4207C38.087 16.8819 37.9756 18.3686 38.343 19.814C38.3843 19.9771 38.4459 20.2084 38.3762 20.4387C38.2793 20.7513 38.4086 21.0728 38.4733 21.3989C38.6255 22.174 38.8583 22.93 38.8696 23.7461C38.8858 24.829 39.1023 25.9079 39.189 26.9917C39.2087 27.2424 39.2846 27.3096 39.4897 27.3565C39.7489 27.4145 39.9493 27.3137 40.001 27.0834C40.0882 26.7049 40.3145 26.3292 39.9999 25.9168C39.8754 25.7541 39.906 25.4651 39.8869 25.2296C39.7789 23.8781 39.6921 22.5245 39.5681 21.1763C39.498 20.4173 39.4052 19.6545 39.2575 18.9082C39.0927 18.0735 38.9742 17.2302 38.7786 16.3968C38.6133 15.6907 38.4585 14.9691 38.3734 14.2329C38.319 13.7542 38.3569 13.2109 37.8157 12.1421L37.8124 12.1441ZM41.1489 8.01818C41.0578 8.32939 41.3279 8.56275 41.3083 8.87646C41.2478 9.81172 41.3006 10.748 41.4139 11.6801C41.4573 12.0263 41.5366 12.3792 41.505 12.7206C41.4691 13.0984 41.7737 13.4227 41.4102 13.7989C41.4553 13.8133 41.5031 13.8464 41.5455 13.8423C41.6337 13.832 41.6474 13.7784 41.571 13.7319C41.5345 13.7097 41.4777 13.7161 41.4316 13.718C41.4231 13.7188 41.4185 13.7689 41.6187 13.8009C41.6579 14.1295 41.6208 14.4586 41.6204 14.785C41.6151 15.607 41.5291 16.4368 41.7499 17.2565C42.1389 18.7042 42.3847 20.1785 42.5081 21.6733C42.5695 22.404 42.5527 23.168 42.7759 23.8514C42.962 24.4252 43.0417 24.9983 43.1366 25.5775C43.1944 25.9394 43.4029 26.3081 43.0342 26.6651C42.9078 26.787 43.0906 27.0391 43.2593 27.0998C43.4537 27.1692 43.5274 26.9813 43.5316 26.819C43.5587 25.9024 43.5093 24.9932 43.3396 24.0897C43.2269 23.4856 43.1461 22.8749 43.0637 22.2653C42.9676 21.5654 43.2204 20.8402 42.9058 20.1511C42.8625 20.0568 42.9223 19.9114 42.9417 19.7913C43.029 19.2261 42.9982 18.6628 42.9728 18.0939C42.9408 17.3561 42.813 16.6309 42.8337 15.8803C42.8484 15.3358 42.8348 14.764 42.7897 14.203C42.6992 13.088 42.3767 12.0125 42.2813 10.9005C42.201 9.96343 42.1207 9.02639 42.0378 8.08875C42.0227 7.91375 41.9675 7.7752 41.7539 7.873C41.5619 7.96187 41.3128 7.80527 40.9461 8.02157C40.9912 8.03604 41.0389 8.06911 41.0814 8.06499C41.1696 8.05473 41.1833 8.00114 41.1068 7.95459C41.0704 7.93242 41.0136 7.93879 40.9675 7.94069C40.959 7.94152 40.9543 7.99165 41.1546 8.02363L41.1489 8.01818ZM37.3557 27.4881C37.1562 26.8101 37.5352 26.0239 36.9664 25.4109C36.9264 25.3685 37.0125 25.2291 36.9932 25.1444C36.8637 24.5711 36.8256 23.9854 36.7206 23.408C36.4761 22.0543 36.3141 20.6849 36.1244 19.3216C36.0467 18.7698 36.029 18.1916 35.9018 17.6685C35.5723 16.3231 35.4942 14.9438 35.2386 13.5903C35.179 13.2723 35.1264 12.9476 35.0788 12.6379C35.0303 12.3196 34.9084 12.0137 34.8664 11.6914C34.8353 11.4477 35.1615 11.4255 35.0522 11.2331C34.8094 10.8095 34.4575 10.4384 34.6308 9.86653C34.6588 9.77472 34.4983 9.36029 34.2403 9.44098C33.8556 9.56051 34.2578 9.78534 34.2366 9.94929C34.2058 10.1913 34.3944 10.388 34.3771 10.5473C34.3209 11.0436 34.8147 11.5191 34.2076 12.0096C34.2528 12.0241 34.3005 12.0572 34.343 12.0531C34.4311 12.0428 34.4449 11.9892 34.3684 11.9427C34.332 11.9205 34.2752 11.9269 34.2274 11.9298C34.2189 11.9306 34.2143 11.9807 34.4145 12.0127C34.4552 12.1244 34.5956 12.1939 34.5468 12.346C34.4131 12.7761 34.3208 13.2005 34.7079 13.563C34.8171 13.6655 34.7393 13.7929 34.7422 13.9126C34.7523 14.68 34.7235 15.4537 34.8106 16.211C34.8849 16.8617 34.774 17.5295 34.9128 18.1465C35.0658 18.822 35.0902 19.4793 35.1202 20.1599C35.1493 20.8389 35.0852 21.5133 35.1369 22.1961C35.2564 23.8104 35.6141 25.4238 35.3216 27.06C35.3006 27.1811 35.3749 27.3392 35.3565 27.4969C35.3449 27.6076 35.4594 27.7473 35.6044 27.6767C36.1675 27.4071 36.7836 27.6643 37.4248 27.4402L37.352 27.4858C37.3929 27.5187 37.4293 27.5589 37.4769 27.5808C37.5307 27.6056 37.5731 27.5655 37.5531 27.4903C37.5454 27.4637 37.4683 27.4557 37.352 27.4858L37.3557 27.4881ZM44.911 33.7659C45.0578 34.126 45.2304 34.3619 45.5922 34.0228C45.9551 34.2137 46.3027 34.0027 46.6532 33.9653C46.9755 33.9298 47.3245 33.4299 47.2488 33.212C47.0011 32.4968 46.3288 32.2973 45.7585 31.9731C45.6752 31.9263 45.67 31.9611 45.6405 32.0471C45.5534 32.3108 45.3773 32.3964 45.0808 32.3977C44.9601 32.3991 45.1065 32.755 44.9035 32.9451C44.6533 33.1784 44.5608 33.5197 44.9094 33.7669L44.911 33.7659ZM35.9534 33.3529C35.949 33.3782 35.9146 33.4492 35.9359 33.4831C36.1629 33.8312 35.7787 33.811 35.6604 33.9458C35.6024 34.0114 35.4795 34.0165 35.4775 34.1392C35.4751 34.2756 35.8628 34.7974 36.0146 34.8598C36.7345 35.1531 37.4333 34.8413 37.7001 34.1096C37.8726 33.6371 37.755 33.3847 37.2782 33.2133C36.8245 33.05 36.4038 33.3384 35.957 33.3551L35.9534 33.3529ZM31.5065 15.859C31.4305 15.9066 31.3494 15.9462 31.3371 16.0596C31.298 16.4214 31.2246 16.8543 31.5355 17.0665C31.751 17.2127 31.3471 17.5962 31.7438 17.496C32.0745 17.4126 31.8102 17.0879 31.7925 16.9482C31.7566 16.6536 31.6262 16.3844 31.7408 16.0675C31.7781 15.9654 31.6614 15.8474 31.5075 15.8606L31.5065 15.859ZM32.5936 34.6304C32.5349 34.5187 32.4776 34.3949 32.3199 34.4667C32.1181 34.5617 32.1709 34.6928 32.2721 34.8363C32.3417 34.9366 32.3903 35.0681 32.5486 34.9936C32.7488 34.8997 32.7067 34.7642 32.5926 34.6288L32.5936 34.6304ZM31.0955 11.3888C31.1426 11.4245 31.2131 11.4974 31.2298 11.4846C31.3689 11.3974 31.3181 11.2336 31.3668 11.1064C31.3102 11.1059 31.2424 11.0876 31.1973 11.1091C31.0819 11.1657 30.9974 11.2502 31.0955 11.3888ZM32.0791 35.9626C32.034 35.9301 31.9714 35.8591 31.9425 35.8705C31.837 35.9141 31.8605 35.9983 31.922 36.0678C31.9594 36.1095 32.028 36.1723 32.0569 36.1609C32.1625 36.1173 32.1351 36.0377 32.0791 35.9626ZM48.7311 11.1394C48.6985 11.1845 48.6274 11.2471 48.6387 11.276C48.6822 11.3814 48.7666 11.3578 48.8361 11.2963C48.878 11.2588 48.9408 11.1902 48.9295 11.1613C48.8859 11.0559 48.8063 11.0833 48.7311 11.1394ZM41.7974 22.4875C41.7772 22.5271 41.7279 22.585 41.7414 22.6102C41.7811 22.6843 41.8042 22.8003 41.9227 22.7845C41.9514 22.78 42.0001 22.6888 41.986 22.6662C41.9463 22.5921 41.9256 22.4836 41.7974 22.4875ZM31.6067 17.8991C31.6474 17.9208 31.689 17.9442 31.7297 17.966C31.7364 17.9371 31.7578 17.8921 31.7464 17.8813C31.7141 17.8476 31.6686 17.8288 31.6285 17.8045C31.6218 17.8334 31.6152 17.8623 31.6067 17.8991ZM31.4768 15.4593C31.4689 15.4934 31.4622 15.5223 31.455 15.5539C31.5017 15.5493 31.5524 15.5513 31.5947 15.536C31.6097 15.5312 31.61 15.4814 31.6167 15.4525C31.569 15.4554 31.5229 15.4574 31.4768 15.4593ZM45.0774 35.5486C45.0432 35.5408 45.0143 35.5342 44.9828 35.5269C44.9872 35.5736 44.9852 35.6244 45.0004 35.6666C45.0053 35.6815 45.055 35.6818 45.084 35.6885C45.0811 35.6408 45.0793 35.5947 45.0774 35.5486ZM33.5058 11.4575C33.4992 11.4864 33.4778 11.5313 33.4891 11.5422C33.5215 11.5759 33.567 11.5946 33.607 11.619C33.6137 11.5901 33.6351 11.5452 33.6238 11.5343C33.5914 11.5006 33.5459 11.4819 33.5058 11.4575ZM44.1498 27.1334C44.1904 27.1552 44.2321 27.1785 44.2727 27.2003C44.2794 27.1714 44.3008 27.1265 44.2895 27.1156C44.2571 27.0819 44.2116 27.0632 44.1716 27.0388C44.1649 27.0677 44.1582 27.0966 44.1498 27.1334ZM33.9179 10.4436C33.9521 10.4514 33.981 10.458 34.0126 10.4653C34.0081 10.4186 34.0101 10.3679 33.9949 10.3256C33.9901 10.3107 33.9403 10.3104 33.9114 10.3038C33.9143 10.3515 33.9161 10.3975 33.9179 10.4436ZM41.8152 22.0737C41.781 22.0659 41.7521 22.0593 41.7206 22.052C41.725 22.0987 41.723 22.1495 41.7382 22.1917C41.7431 22.2066 41.7928 22.2069 41.8218 22.2136C41.8189 22.1659 41.8171 22.1198 41.8152 22.0737ZM32.4355 33.5261C32.4277 33.5603 32.421 33.5892 32.4137 33.6208C32.4604 33.6162 32.5112 33.6182 32.5535 33.6029C32.5684 33.598 32.5688 33.5483 32.5755 33.5194C32.5277 33.5223 32.4816 33.5242 32.4355 33.5261ZM37.7243 11.7698C37.7164 11.8039 37.7097 11.8328 37.7025 11.8644C37.7492 11.8599 37.8 11.8618 37.8422 11.8465C37.8572 11.8417 37.8576 11.792 37.8642 11.763C37.8165 11.766 37.7704 11.7679 37.7243 11.7698ZM37.7305 11.316C37.7087 11.3567 37.6853 11.3983 37.6635 11.439C37.6924 11.4456 37.7373 11.467 37.7482 11.4556C37.782 11.4232 37.8007 11.3777 37.8252 11.3377C37.7963 11.3311 37.7674 11.3244 37.7305 11.316ZM37.4685 11.0776C37.5092 11.0993 37.5509 11.1227 37.5915 11.1445C37.5982 11.1156 37.6196 11.0706 37.6083 11.0598C37.5759 11.0261 37.5304 11.0073 37.4903 10.983L37.4685 11.0776ZM49.3073 28.1752C49.348 28.197 49.3897 28.2203 49.4303 28.2421C49.437 28.2132 49.4584 28.1683 49.4471 28.1574C49.4147 28.1237 49.3692 28.105 49.3291 28.0806L49.3073 28.1752ZM39.2374 9.40704C39.2452 9.37287 39.2519 9.34395 39.2592 9.31241C39.2125 9.31694 39.1617 9.31501 39.1194 9.33024C39.1045 9.33512 39.1041 9.38484 39.0974 9.41375C39.1451 9.41084 39.1913 9.40894 39.2374 9.40704ZM33.0444 36.1157C33.0103 36.1079 32.9813 36.1012 32.9498 36.094C32.9542 36.1407 32.9522 36.1914 32.9674 36.2337C32.9723 36.2486 33.022 36.2489 33.051 36.2555C33.0481 36.2078 33.0463 36.1618 33.0444 36.1157ZM48.6243 16.1206C48.6322 16.0864 48.6389 16.0575 48.6461 16.026C48.5994 16.0305 48.5487 16.0286 48.5064 16.0438C48.4914 16.0487 48.491 16.0984 48.4844 16.1273C48.5321 16.1244 48.5782 16.1225 48.6243 16.1206ZM48.5118 15.5816C48.49 15.6222 48.4666 15.6639 48.4448 15.7046C48.4737 15.7112 48.5186 15.7325 48.5295 15.7212C48.5633 15.6888 48.582 15.6433 48.6065 15.6032L48.5118 15.5816ZM48.1813 14.4392C48.1734 14.4734 48.1667 14.5023 48.1595 14.5339C48.2062 14.5293 48.2569 14.5313 48.2992 14.516C48.3142 14.5111 48.3146 14.4614 48.3212 14.4325C48.2735 14.4354 48.2274 14.4373 48.1813 14.4392ZM48.5653 13.9737C48.5574 14.0079 48.5508 14.0368 48.5435 14.0683C48.5902 14.0638 48.641 14.0657 48.6833 14.0505C48.6982 14.0456 48.6986 13.9959 48.7053 13.967C48.6575 13.9699 48.6114 13.9718 48.5653 13.9737ZM48.7574 11.7639C48.7793 11.7232 48.8027 11.6816 48.8245 11.6409C48.7956 11.6343 48.7507 11.6129 48.7398 11.6243C48.706 11.6567 48.6872 11.7022 48.6628 11.7422L48.7574 11.7639Z" fill="#322723"/>
<path d="M50.4815 9.39714C50.6273 9.33504 51.0546 9.6431 51.0391 9.8125C51.022 10.0009 50.9695 10.1867 50.9149 10.3693C50.6197 11.3505 50.5652 12.3563 50.5834 13.3704C50.5851 13.4594 50.6116 13.5664 50.5746 13.6368C50.1806 14.356 50.3054 15.1663 50.2288 15.9249C50.1529 16.663 50.145 17.4304 50.0612 18.1666C49.8944 19.6116 49.7976 21.0532 49.7438 22.5061C49.7237 23.0742 49.6412 23.6724 49.5214 24.2468C49.4639 24.5145 49.3849 24.7552 49.5403 25.0536C49.6547 25.2721 49.5653 25.6183 49.3417 25.8078C49.2386 25.8949 49.341 26.1951 49.1062 26.0791C49.0044 26.0281 48.8879 25.8672 48.9086 25.6811C49.0047 24.8494 48.8535 24.022 48.8521 23.193C48.8517 23.1348 48.815 23.0655 48.8364 23.0206C49.1643 22.3181 48.913 21.5647 49.03 20.8347C49.1449 20.1194 49.2156 19.3802 49.2519 18.658C49.2875 17.9384 49.4371 17.2352 49.4632 16.5328C49.4956 15.6894 49.5543 14.8519 49.6057 14.01C49.6207 13.7644 49.6364 13.5162 49.6996 13.2899C49.894 12.5901 49.8923 11.8467 50.1777 11.1663C50.3131 10.8431 50.229 10.5112 50.1621 10.1888C50.0896 9.84289 50.3995 9.66893 50.4825 9.39876L50.4815 9.39714Z" fill="#322723"/>
<path d="M52.4114 9.81648C52.6028 10.0249 52.5621 10.2799 52.5483 10.5741C52.4863 11.7443 52.124 12.8484 51.8816 13.9787C51.7269 14.6986 51.7041 15.4281 51.628 16.155C51.5463 16.9484 51.4091 17.7721 50.9686 18.4709C50.8964 18.5859 50.8587 18.8816 50.6783 18.8237C50.5367 18.7775 50.4029 18.5532 50.3644 18.3839C50.3269 18.2162 50.4005 18.0172 50.4459 17.8381C50.7029 16.8246 50.7054 15.7862 50.7788 14.7529C50.8005 14.4424 50.8992 14.1399 50.9495 13.8318C51.0584 13.1608 51.3855 12.5217 51.2752 11.8172C51.2176 11.4484 51.5853 11.2157 51.5404 10.8098C51.5086 10.5216 51.5984 10.1617 51.8296 9.8549C52.1742 9.39833 52.1281 9.36426 52.4102 9.82174L52.4114 9.81648Z" fill="#322723"/>
<path d="M30.3011 35.282C30.2264 35.1736 30.247 35.0843 30.3616 35.0192L30.4628 35.1807L30.3011 35.282Z" fill="#322723"/>
<path d="M46.1229 48.3101C46.1975 48.4185 46.177 48.5079 46.0623 48.5729L45.9611 48.4114L46.1229 48.3101Z" fill="#322723"/>
<path d="M51.5994 40.1553C51.6741 40.2637 51.6535 40.3531 51.5389 40.4182L51.4377 40.2567L51.5994 40.1553Z" fill="#322723"/>
<path d="M48.1444 90.0015C48.219 90.1099 48.1984 90.1993 48.0838 90.2644L47.9826 90.1028L48.1444 90.0015Z" fill="#322723"/>
<path d="M32.6855 27.941L32.5237 28.0423C32.4491 27.9339 32.4696 27.8445 32.5843 27.7794L32.6855 27.941Z" fill="#322723"/>
</g>
<defs>
<clipPath id="clip0_163_2088">
<rect width="80.9096" height="54.6139" fill="white" transform="translate(42.957 97.5698) rotate(-122.069)"/>
</clipPath>
</defs>
</svg>
