<svg width="32" height="50" viewBox="0 0 32 50" fill="none" xmlns="http://www.w3.org/2000/svg">
<path d="M15.528 19.3736C15.948 19.4482 16.3749 19.3272 16.7922 19.2744C17.1 19.2359 17.3962 19.2108 17.7046 19.2267C18.0081 19.2419 18.3165 19.2361 18.6184 19.2009C19.0553 19.1506 19.4797 19.2705 19.9118 19.2651C19.9888 19.264 20.0726 19.2885 20.1054 19.3848C20.1205 19.4308 20.1488 19.4738 20.179 19.5123C20.3982 19.7951 20.4382 20.0879 20.231 20.3957C20.2078 20.3772 20.1789 20.3391 20.1629 20.345C20.1046 20.3627 20.1182 20.4061 20.1454 20.4452C20.1268 20.4684 20.0887 20.4973 20.0945 20.5133C20.1121 20.5716 20.1556 20.5579 20.1947 20.5307C20.2521 20.6915 20.0508 20.7245 19.9828 20.8481C19.9522 20.8544 19.9763 20.8724 19.9979 20.8702C20.0437 20.8665 20.0518 20.8391 20.0131 20.8135C19.9946 20.8014 19.9651 20.8036 19.9412 20.8037C19.9368 20.804 19.9334 20.8299 19.9828 20.8481C19.9541 21.1703 19.7095 21.3777 19.5054 21.6118C19.3935 21.7404 19.2921 21.8753 19.1253 21.9545C18.9892 22.0194 18.8904 22.1608 18.7913 22.2682C18.3928 22.7036 17.915 23.065 17.644 23.6263C17.502 23.9204 17.3818 24.2225 17.242 24.5165C17.2187 24.498 17.1899 24.4599 17.1738 24.4657C17.1155 24.4834 17.1292 24.5268 17.1563 24.5659C17.1378 24.5892 17.0996 24.6181 17.1054 24.6341C17.1231 24.6923 17.1666 24.6786 17.2057 24.6515C17.094 24.911 17.0214 25.181 16.9343 25.4594C16.9037 25.4656 16.9278 25.4837 16.9494 25.4815C16.9952 25.4778 17.0033 25.4503 16.9646 25.4248C16.9462 25.4126 16.9166 25.4148 16.8927 25.415C16.8883 25.4152 16.8849 25.4411 16.9343 25.4594C17.0071 25.6112 16.9709 25.7462 16.8255 25.8643C16.7948 25.8706 16.8189 25.8886 16.8405 25.8864C16.8864 25.8828 16.8945 25.8553 16.8558 25.8298C16.8373 25.8176 16.8078 25.8198 16.7839 25.8199C16.7794 25.8202 16.7761 25.8461 16.8255 25.8643C16.8285 25.9823 16.9863 26.1113 16.8023 26.2199C16.7717 26.2261 16.7958 26.2442 16.8174 26.242C16.8632 26.2383 16.8713 26.2108 16.8326 26.1853C16.8141 26.1731 16.7846 26.1753 16.7607 26.1755C16.7563 26.1757 16.7529 26.2016 16.8023 26.2199C16.9109 26.4594 16.8087 26.686 16.8039 26.9169C16.7928 27.513 16.7839 28.1089 16.8108 28.7035C16.8242 29.0037 16.9184 29.2994 16.9773 29.5973C16.9875 29.6485 16.9892 29.6931 16.8765 29.7114C16.8458 29.7177 16.8699 29.7357 16.8915 29.7335C16.9374 29.7298 16.9455 29.7024 16.9068 29.6768C16.8883 29.6646 16.8588 29.6669 16.834 29.6675C16.8296 29.6678 16.8262 29.6936 16.8756 29.7119C16.954 29.7864 17.067 29.8535 16.8887 29.9324C16.8581 29.9387 16.8822 29.9567 16.9038 29.9545C16.9496 29.9509 16.9577 29.9234 16.919 29.8978C16.9006 29.8857 16.871 29.8879 16.8471 29.888C16.8427 29.8883 16.8394 29.9142 16.8887 29.9324C16.9671 30.0069 17.0801 30.074 16.9018 30.153C16.8712 30.1592 16.8953 30.1773 16.9169 30.1751C16.9627 30.1714 16.9708 30.1439 16.9321 30.1184C16.9137 30.1062 16.8841 30.1084 16.8602 30.1086C16.8558 30.1088 16.8525 30.1347 16.9018 30.153C17.0539 30.3115 17.0061 30.4839 17.0161 30.6515C17.045 31.1389 17.1286 31.6199 17.0645 32.1142C17.0135 32.5086 16.99 32.9111 17.1619 33.2919C17.035 33.7507 17.1849 34.2082 17.1693 34.6677C17.1533 35.1228 17.223 35.5798 17.2107 36.0352C17.2049 36.229 17.3395 36.4067 17.1968 36.5986C17.1661 36.6049 17.1902 36.6229 17.2118 36.6207C17.2577 36.6171 17.2658 36.5896 17.227 36.564C17.2086 36.5519 17.179 36.5541 17.1551 36.5542C17.1507 36.5545 17.1474 36.5804 17.1968 36.5986C17.2758 36.9749 17.3012 37.3492 17.3287 37.7234C17.3326 37.7736 17.3388 37.8179 17.226 37.8363C17.1954 37.8425 17.2195 37.8606 17.2411 37.8584C17.2869 37.8547 17.295 37.8272 17.2563 37.8017C17.2379 37.7895 17.2083 37.7917 17.1844 37.7919C17.18 37.7921 17.1766 37.818 17.226 37.8363C17.272 38.1039 17.3636 38.3693 17.2291 38.6328C17.1984 38.6391 17.2225 38.6571 17.2441 38.6549C17.29 38.6513 17.2981 38.6238 17.2593 38.5983C17.2409 38.5861 17.2113 38.5883 17.1874 38.5884C17.183 38.5887 17.1797 38.6146 17.2291 38.6328C17.3081 39.0092 17.3335 39.3834 17.361 39.7576C17.3649 39.8078 17.3711 39.8521 17.2583 39.8705C17.2277 39.8768 17.2518 39.8948 17.2734 39.8926C17.3192 39.8889 17.3273 39.8614 17.2886 39.8359C17.2701 39.8237 17.2406 39.826 17.2167 39.8261C17.2123 39.8264 17.2089 39.8522 17.2583 39.8705C17.4102 40.0702 17.4187 40.2888 17.441 40.4995C17.5068 41.1218 17.5068 41.7491 17.5448 42.3727C17.5488 42.4331 17.5821 42.5006 17.5644 42.553C17.4164 42.9931 17.5918 43.4096 17.665 43.8292C17.6945 43.997 17.7202 44.176 17.6986 44.3265C17.6761 44.4854 17.8642 44.6095 17.6812 44.7574C17.6506 44.7636 17.6747 44.7817 17.6963 44.7795C17.7421 44.7758 17.7502 44.7483 17.7115 44.7228C17.693 44.7106 17.6635 44.7128 17.6396 44.713C17.6352 44.7132 17.6318 44.7391 17.6812 44.7574C17.8465 44.9744 17.8221 45.1972 17.7205 45.4189C17.6899 45.4252 17.714 45.4432 17.7356 45.4411C17.7814 45.4374 17.7895 45.4099 17.7508 45.3844C17.7324 45.3722 17.7028 45.3744 17.6789 45.3745C17.6745 45.3748 17.6712 45.4007 17.7205 45.4189C17.7796 45.6973 17.6744 45.9326 17.5072 46.1454C17.484 46.1269 17.4551 46.0888 17.4391 46.0947C17.3808 46.1124 17.3944 46.1558 17.4215 46.1949C17.403 46.2181 17.3648 46.247 17.3707 46.263C17.3883 46.3213 17.4318 46.3076 17.4709 46.2804C17.365 46.5993 17.2383 46.9063 17.0496 47.1886C16.9222 47.3796 16.8882 47.6193 16.7378 47.802C16.5879 47.9855 16.5059 48.2016 16.4121 48.4188C16.2876 48.7097 16.1042 48.9855 15.9003 49.2298C15.6725 49.5039 15.1581 49.4496 14.9095 49.1655C14.6951 48.9209 14.472 48.6847 14.2657 48.4343C14.2099 48.3673 14.1434 48.343 14.0818 48.2976C13.8433 48.1239 13.5717 47.974 13.4772 47.6659C13.4303 47.5115 13.2467 47.516 13.1818 47.3699C13.0725 47.1251 13.0529 46.8479 12.883 46.6209C12.8084 46.5214 12.919 46.3686 12.8803 46.2107C12.7719 45.7658 12.6034 45.3374 12.5446 44.8775C12.4707 44.3043 12.359 43.737 12.2675 43.1671C12.2645 43.146 12.3014 43.119 12.3397 43.0843C12.3457 43.0809 12.3337 43.0878 12.3208 43.0952C12.3414 43.113 12.3595 43.1345 12.3837 43.1467C12.4111 43.1606 12.4338 43.1406 12.4249 43.1013C12.4214 43.0874 12.3816 43.0818 12.3405 43.0838C12.1453 42.6606 12.2057 42.1934 12.1426 41.744C12.096 41.414 12.2053 41.0612 11.9988 40.755C12.0511 40.4955 12.0162 40.2351 12.0065 39.975C11.9935 39.6221 11.9347 39.2751 12.0201 38.9145C12.0748 38.6868 12.0315 38.4278 11.9925 38.1902C11.9723 38.0662 11.9732 37.9767 12.0745 37.8772C12.0805 37.8737 12.0685 37.8806 12.0556 37.888C12.0762 37.9058 12.0943 37.9273 12.1185 37.9396C12.1459 37.9534 12.1687 37.9334 12.1597 37.8941C12.1562 37.8802 12.1164 37.8746 12.0754 37.8767C12.0589 37.6741 12.1031 37.4638 12.0599 37.2446C12.0452 37.1676 12.0259 37.067 12.0459 36.971C12.0873 36.7738 12.286 36.5975 12.1383 36.3714C12.2536 36.1497 12.2335 35.8933 12.2347 35.6679C12.2356 35.4302 12.3386 35.2327 12.3583 35.0115C12.4142 34.3645 12.5198 33.7265 12.6435 33.0882C12.7116 32.7353 12.6956 32.3613 12.7892 31.9913C12.7952 31.9879 12.7832 31.9948 12.7704 32.0022C12.7909 32.02 12.809 32.0415 12.8333 32.0537C12.8607 32.0676 12.8834 32.0476 12.8744 32.0083C12.8709 31.9944 12.8312 31.9888 12.7901 31.9908C12.7795 31.567 12.7864 31.1319 12.7978 30.6965C12.7992 30.6535 12.8029 30.5966 12.8828 30.5688C12.8888 30.5653 12.8768 30.5722 12.8639 30.5796C12.8845 30.5974 12.9026 30.6189 12.9268 30.6312C12.9542 30.645 12.9769 30.625 12.968 30.5857C12.9645 30.5718 12.9247 30.5662 12.8836 30.5683C12.8401 30.5067 12.7276 30.4405 12.8705 30.3477C12.8765 30.3443 12.8645 30.3512 12.8517 30.3586C12.8722 30.3764 12.8903 30.3979 12.9145 30.4101C12.9419 30.424 12.9647 30.404 12.9557 30.3647C12.9522 30.3507 12.9125 30.3452 12.8714 30.3472C12.7903 30.0188 12.8739 29.6809 12.8884 29.344C12.8986 29.1124 12.9023 28.8775 12.8858 28.651C12.854 28.236 12.9016 27.8219 12.8754 27.4105C12.8589 27.1565 12.8836 26.8788 12.7578 26.6469C12.651 26.452 12.6363 26.2643 12.6687 26.0574C12.7134 25.7728 12.7364 25.4903 12.5302 25.2478C12.5262 24.8749 12.2008 24.6317 12.136 24.2881C12.0701 23.9385 11.8339 23.6836 11.6783 23.3845C11.5113 23.0636 11.3317 22.7487 11.1347 22.445C10.9978 22.2355 10.9585 21.9537 10.6813 21.8377C10.5818 21.7959 10.707 21.6587 10.6393 21.5711C10.6 21.5208 10.4526 21.5741 10.5108 21.4355C10.2502 21.1959 10.1758 20.8157 9.93284 20.5888C9.72642 20.3955 9.65158 20.0977 9.3766 19.9656C9.29133 19.9248 9.25115 19.778 9.20072 19.6748C9.0723 19.4148 9.11687 19.3001 9.35347 19.1441C9.54186 19.0194 9.71412 19.0032 9.94397 19.0393C10.3205 19.0979 10.7106 19.0654 11.0952 19.0749C11.1196 19.0756 11.1438 19.1095 11.1793 19.1472C11.1827 19.1532 11.1758 19.1412 11.1684 19.1284C11.1506 19.149 11.1291 19.1671 11.1168 19.1913C11.1029 19.2187 11.1229 19.2414 11.1622 19.2324C11.1762 19.2289 11.1818 19.1891 11.1798 19.1481C11.57 19.1612 11.975 19.1486 12.3821 19.2523C12.3855 19.2583 12.3786 19.2463 12.3712 19.2334C12.3534 19.254 12.3319 19.2721 12.3196 19.2963C12.3057 19.3237 12.3257 19.3464 12.365 19.3374C12.379 19.3339 12.3846 19.2942 12.3826 19.2531C12.4877 19.2848 12.617 19.1269 12.7383 19.2758C12.7418 19.2818 12.7349 19.2698 12.7275 19.257C12.7096 19.2776 12.6881 19.2957 12.6758 19.3199C12.662 19.3473 12.6819 19.37 12.7212 19.361C12.7352 19.3575 12.7408 19.3177 12.7388 19.2767C12.8329 19.2497 12.9559 19.2016 13.0388 19.2403C13.4414 19.4253 13.883 19.3038 14.291 19.423C14.5676 19.3225 14.8622 19.441 15.1449 19.353C15.261 19.3168 15.4002 19.2513 15.536 19.3736C15.5394 19.3796 15.5325 19.3676 15.5251 19.3548C15.5073 19.3753 15.4858 19.3935 15.4735 19.4177C15.4596 19.4451 15.4796 19.4678 15.5189 19.4587C15.5329 19.4552 15.5385 19.4155 15.5365 19.3745L15.528 19.3736ZM14.8124 42.3524C14.8041 42.3755 14.786 42.3996 14.7873 42.4216C14.7909 42.4674 14.8184 42.4755 14.844 42.4368C14.8562 42.4183 14.854 42.3888 14.854 42.3649C14.8537 42.3605 14.8278 42.3572 14.8073 42.4602C14.376 42.6488 14.1907 43.0124 14.0628 43.4398C14.0218 43.5764 14.1208 43.7222 13.8957 43.8328C13.9188 43.8412 13.9429 43.8592 13.965 43.8578C14.0108 43.8542 14.0189 43.8267 13.9802 43.8011C13.9618 43.789 13.9322 43.7912 13.9083 43.7913C13.9039 43.7916 13.9005 43.8175 14.0036 43.8378C14.1702 44.0096 13.896 44.2547 14.0982 44.423C14.1006 44.4251 14.0717 44.4759 14.0493 44.4946C13.9982 44.5366 13.9361 44.5793 14.0507 44.6078C14.1608 44.6343 14.2449 44.7147 14.3396 44.7501C14.6338 44.862 14.9695 44.9053 15.2566 44.8092C15.6996 44.6606 16.0097 44.25 15.9528 43.7537C15.9342 43.5911 15.925 43.4208 15.9261 43.2525C15.9272 42.8846 15.7761 42.5852 15.3899 42.3634C15.3815 42.3865 15.3635 42.4106 15.3648 42.4327C15.3684 42.4785 15.3959 42.4865 15.4215 42.4478C15.4337 42.4294 15.4315 42.3998 15.4314 42.3759C15.4311 42.3715 15.4052 42.3682 15.3848 42.4713C15.2158 42.497 15.0335 42.3673 14.8721 42.513C14.8686 42.515 14.8302 42.4801 14.8126 42.3546L14.8124 42.3524ZM13.699 38.95C13.6459 38.765 13.4445 38.7011 13.3207 38.5639C13.2016 38.4308 13.0274 38.5188 13.0365 38.7165C13.0461 38.9152 13.0167 39.0245 12.8003 38.9898C12.7233 38.9772 12.6798 39.0206 12.6236 39.0439C12.573 39.0651 12.5428 39.1077 12.5606 39.1544C12.5832 39.2132 12.6159 39.2799 12.664 39.3137C12.7339 39.3635 12.7284 39.2788 12.7383 39.2446C12.7654 39.1491 12.8585 39.1421 12.9238 39.101C13.1701 38.9439 13.1568 38.9802 13.2502 39.1657C13.2863 39.2361 13.3566 39.362 13.3788 39.3549C13.5142 39.3144 13.6559 39.2611 13.7641 39.1735C13.8351 39.1165 13.7296 39.0326 13.6985 38.9491L13.699 38.95ZM12.8853 39.9204C12.7032 40.0107 12.6994 40.0574 12.8636 40.1678C13.0537 40.2953 13.0398 40.2851 13.1898 40.0958C13.2545 40.014 13.319 39.9061 13.2793 39.8571C13.2358 39.8036 13.1091 39.9007 13.0114 39.8521C12.9872 39.8399 12.9286 39.8965 12.8857 39.9213L12.8853 39.9204ZM15.7917 38.1295C15.7051 38.1635 15.6745 38.2074 15.7182 38.3088C15.7733 38.4378 15.8862 38.4376 15.9883 38.4699C16.0113 38.3654 16.0671 38.2682 15.9837 38.1555C15.9178 38.0669 15.8653 38.071 15.7917 38.1295ZM12.2181 22.5152C12.117 22.5519 12.1514 22.6153 12.1904 22.6988C12.2519 22.831 12.3222 22.7984 12.4173 22.7435C12.5149 22.6871 12.495 22.6348 12.4549 22.5496C12.3921 22.417 12.3191 22.4409 12.2181 22.5152ZM16.3052 37.8319C16.3832 37.7515 16.581 37.7536 16.5471 37.6158C16.5317 37.5517 16.3866 37.7256 16.2551 37.6818C16.1542 37.6476 16.202 37.847 16.0862 37.8443C16.0868 37.869 16.0848 37.8953 16.0915 37.9188C16.0932 37.9257 16.1243 37.934 16.1351 37.9289C16.1922 37.8994 16.2469 37.8655 16.3043 37.8324L16.3052 37.8319ZM16.2704 37.2771C16.2867 37.3054 16.2996 37.3356 16.3192 37.3596C16.3378 37.3819 16.3657 37.4183 16.3845 37.4154C16.4526 37.4046 16.4185 37.3616 16.4111 37.3191C16.3966 37.2465 16.4049 37.1698 16.3926 37.0971C16.3825 37.038 16.3247 37.0268 16.2822 37.0502C16.2462 37.071 16.2034 37.1174 16.2028 37.152C16.203 37.194 16.2454 37.2357 16.2691 37.2768L16.2704 37.2771ZM15.9011 39.6641C15.7949 39.7711 15.9405 39.8273 15.9677 39.9062C15.98 39.9413 16.0572 39.9287 16.0923 39.8925C16.1949 39.7853 16.068 39.7218 16.033 39.6473C16.0153 39.6107 15.9477 39.6281 15.9002 39.6646L15.9011 39.6641ZM16.9931 21.3197C16.8862 21.2137 16.8297 21.3593 16.7507 21.3866C16.7156 21.3989 16.7273 21.4766 16.7643 21.5111C16.8714 21.6135 16.9352 21.4865 17.0098 21.4515C17.0464 21.4338 17.0291 21.3662 16.9926 21.3188L16.9931 21.3197ZM13.9839 24.3868C14.0054 24.3984 14.0345 24.4249 14.0492 24.4187C14.1075 24.3931 14.1579 24.348 14.2178 24.3271C14.335 24.2868 14.3207 24.1787 14.3515 24.0937C14.3538 24.0878 14.3407 24.0691 14.3326 24.0669C14.1893 24.0402 14.2094 24.17 14.1599 24.2385C14.1254 24.2857 14.0525 24.3039 13.9983 24.3386C13.9881 24.3445 13.989 24.3679 13.9839 24.3868ZM14.8284 38.3423C14.8099 38.3656 14.7739 38.3943 14.7785 38.4122C14.7885 38.4532 14.8163 38.4896 14.8424 38.5248C14.8491 38.5345 14.8761 38.5417 14.8864 38.5358C14.9427 38.5067 15.0007 38.4766 15.0521 38.439C15.0648 38.4294 15.0577 38.3696 15.0564 38.3693C14.9811 38.3614 14.9126 38.2903 14.8298 38.3427L14.8284 38.3423ZM16.6275 42.6593C16.5524 42.7152 16.4528 42.7306 16.5141 42.8446C16.543 42.8986 16.583 42.9086 16.6288 42.889C16.7342 42.8441 16.7149 42.7355 16.7422 42.6502C16.6985 42.6537 16.654 42.6577 16.6275 42.6593ZM16.7702 43.4939C16.7146 43.5124 16.7086 43.5614 16.7285 43.6058C16.7553 43.6679 16.7958 43.7084 16.8751 43.6637C16.9282 43.6331 16.9387 43.5939 16.9191 43.5482C16.8919 43.4852 16.8486 43.4418 16.7702 43.4939ZM14.2795 39.1702C14.3088 39.2069 14.321 39.2854 14.3729 39.2645C14.468 39.2256 14.3866 39.1677 14.3653 39.1229C14.3465 39.0824 14.3275 39.0079 14.2756 39.0288C14.1796 39.0682 14.2692 39.1225 14.2804 39.1697L14.2795 39.1702ZM15.5112 37.9424C15.535 37.9618 15.5574 37.9808 15.5798 37.9998C15.6074 37.9348 15.6336 37.8695 15.6612 37.8045C15.6314 37.8023 15.597 37.7903 15.5724 37.801C15.5124 37.8277 15.4634 37.8674 15.5112 37.9424ZM12.457 24.2169C12.4458 24.237 12.4191 24.2661 12.4257 24.2794C12.4449 24.3186 12.4547 24.379 12.5163 24.3731C12.5313 24.3713 12.5582 24.325 12.5513 24.313C12.5321 24.2739 12.5235 24.2173 12.457 24.2169ZM15.195 27.7683C15.1829 27.7889 15.17 27.8101 15.1579 27.8307C15.1728 27.8347 15.1956 27.8466 15.2015 27.8409C15.2196 27.8248 15.2302 27.8016 15.2436 27.7813C15.2287 27.7773 15.2139 27.7733 15.195 27.7683ZM16.756 19.6489C16.7681 19.6283 16.781 19.6071 16.793 19.5865C16.7782 19.5825 16.7553 19.5706 16.7495 19.5763C16.7314 19.5924 16.7208 19.6156 16.7074 19.6359C16.7222 19.6399 16.7371 19.6439 16.756 19.6489ZM18.4232 22.41C18.4381 22.414 18.4609 22.4259 18.4668 22.4202C18.4849 22.4041 18.4955 22.3808 18.5089 22.3606C18.494 22.3566 18.4712 22.3447 18.4653 22.3504C18.4472 22.3665 18.4366 22.3897 18.4232 22.41ZM16.5992 29.4666C16.5945 29.4842 16.5905 29.499 16.5862 29.5152C16.6104 29.5137 16.6367 29.5157 16.6589 29.5086C16.6667 29.5063 16.6678 29.4806 16.6718 29.4657C16.6471 29.4664 16.6231 29.4665 16.5992 29.4666ZM13.3167 24.1767C13.312 24.1943 13.308 24.2091 13.3036 24.2253C13.3279 24.2239 13.3542 24.2258 13.3763 24.2187C13.3842 24.2165 13.3853 24.1907 13.3893 24.1759C13.3645 24.1765 13.3406 24.1766 13.3167 24.1767ZM14.6726 39.0596C14.6874 39.0636 14.7103 39.0754 14.7161 39.0698C14.7342 39.0536 14.7448 39.0304 14.7582 39.0101C14.7434 39.0062 14.7205 38.9943 14.7147 38.9999C14.6966 39.0161 14.686 39.0393 14.6726 39.0596ZM14.3084 39.685C14.2963 39.7056 14.2834 39.7268 14.2713 39.7474C14.2862 39.7514 14.309 39.7633 14.3149 39.7576C14.333 39.7415 14.3436 39.7183 14.357 39.698C14.3421 39.694 14.3273 39.69 14.3084 39.685Z" fill="#322723"/>
<path d="M19.4011 8.67249C19.3162 8.75687 19.0621 8.74616 19.2315 8.97226C19.2917 9.05272 19.2509 9.13443 19.219 9.20187C19.0205 9.62557 19.0261 9.62346 19.0391 10.0357C19.0426 10.1466 19.1187 10.2725 18.9611 10.3772C18.9304 10.3835 18.9545 10.4015 18.9761 10.3993C19.022 10.3957 19.0301 10.3682 18.9913 10.3427C18.9729 10.3305 18.9434 10.3327 18.9194 10.3328C18.915 10.3331 18.9117 10.359 18.9611 10.3772C18.9782 10.9193 18.9461 11.4591 18.9037 11.999C18.8648 12.5073 18.7933 13.0105 18.6461 13.5015C18.6173 13.598 18.5678 13.7121 18.7524 13.6124C18.9313 13.5148 19.117 13.5535 19.3021 13.603C19.3885 13.626 19.5113 13.7023 19.5563 13.5805C19.5976 13.4699 19.79 13.3897 19.6305 13.2103C19.5312 13.0977 19.6079 12.7182 19.6869 12.5722C19.72 12.5108 19.7351 12.436 19.7963 12.5341C19.9124 12.7214 20.0837 12.9133 20.025 13.1399C19.9825 13.3036 20.1047 13.4007 20.088 13.5518C20.0515 13.8762 19.852 14.0313 19.5379 14.1499C19.5073 14.1562 19.5314 14.1742 19.553 14.172C19.5988 14.1684 19.6069 14.1409 19.5682 14.1153C19.5498 14.1032 19.5202 14.1054 19.4963 14.1055C19.4919 14.1058 19.4885 14.1317 19.5379 14.1499C19.8472 14.4937 19.9335 14.8727 19.9204 15.3011C19.9074 15.7237 19.9544 16.1494 19.9925 16.5733C20.0322 17.01 20.0421 17.4605 20.1651 17.8753C20.2326 18.101 20.2182 18.3293 20.2825 18.5534C20.3736 18.8715 20.0999 19.1333 19.7377 19.0698C19.4897 19.026 19.2415 18.9799 18.9972 19.0275C18.738 19.0791 18.5135 18.9178 18.2542 18.9592C18.0418 18.9929 17.8064 19.0204 17.6077 18.8683C17.5729 18.8416 17.5715 18.8766 17.5489 18.9068C17.4569 19.0283 17.3376 19.0117 17.2196 18.8904C17.2134 18.8598 17.1953 18.884 17.1975 18.9055C17.2011 18.9513 17.2286 18.9594 17.2542 18.9207C17.2664 18.9022 17.2642 18.8727 17.2641 18.8488C17.2639 18.8444 17.238 18.8411 17.2196 18.8904C16.5029 18.9883 15.7846 18.8876 15.0713 18.9835C15.0651 18.9847 15.056 18.957 15.0488 18.8892C15.0426 18.8586 15.0245 18.8827 15.0267 18.9043C15.0303 18.9501 15.0578 18.9582 15.0834 18.9195C15.0956 18.901 15.0934 18.8715 15.0933 18.8476C15.0931 18.8432 15.0672 18.8399 15.0488 18.8892C14.5679 18.9821 14.0959 18.8886 13.619 18.8856C13.1289 18.8834 12.6422 18.804 12.1478 18.8477C11.8891 18.8705 11.6144 18.7588 11.3632 18.8023C10.9971 18.8666 10.6378 18.8733 10.2709 18.873C10.0871 18.873 9.90496 18.8425 9.72065 18.8497C9.58184 18.8545 9.46542 18.7815 9.37458 18.6321C9.20795 18.3553 9.07018 18.087 9.25076 17.7786C9.31473 17.6698 9.14812 17.5573 9.28946 17.4757C9.30576 17.5039 9.31863 17.5341 9.33872 17.559C9.35732 17.5814 9.39045 17.617 9.40613 17.6125C9.4653 17.5943 9.44943 17.551 9.42352 17.5101C9.40637 17.4823 9.39142 17.4545 9.37513 17.4262C9.39368 17.403 9.43183 17.3741 9.42601 17.3581C9.40837 17.2998 9.36488 17.3135 9.32574 17.3407C9.39893 16.8502 9.50732 16.3634 9.40398 15.862C9.39162 15.8029 9.40298 15.696 9.51068 15.6373C9.51668 15.6338 9.50469 15.6407 9.49184 15.6481C9.51239 15.6659 9.5305 15.6874 9.55471 15.6997C9.58211 15.7135 9.60484 15.6935 9.59586 15.6542C9.59238 15.6403 9.55262 15.6347 9.51154 15.6368C9.4411 15.5622 9.47691 15.464 9.46761 15.3747C9.4237 14.9564 9.72412 14.5549 10.1458 14.4939C10.3114 14.4702 10.4839 14.5097 10.6431 14.4155C10.6859 14.3908 10.7222 14.428 10.7583 14.4687C10.8243 14.5435 10.9357 14.5921 11.0146 14.5329C11.166 14.4192 11.2949 14.5159 11.4331 14.5376C11.5561 14.5567 11.667 14.6421 11.8049 14.5465C11.9249 14.4635 12.0599 14.7152 12.213 14.5412C12.3122 14.4281 12.4805 14.502 12.6165 14.4942C13.2895 14.4592 13.9614 14.337 14.6365 14.4559C14.6925 14.4658 14.7342 14.4531 14.7705 14.423C14.9715 14.2567 15.1983 14.3528 15.3873 14.409C15.4978 14.4422 15.4821 14.4387 15.5274 14.3589C15.5615 14.2993 15.6925 14.3264 15.7294 14.337C16.0413 14.4261 16.3453 14.3691 16.656 14.3494C16.962 14.3313 17.274 14.2743 17.5817 14.3681C17.6178 14.3792 17.6672 14.3302 17.7129 14.3243C17.9258 14.2994 18.1228 14.2153 18.3574 14.2715C18.4729 14.2995 18.674 14.2837 18.7957 14.1542C18.8775 14.2781 18.9439 14.1656 19.0352 14.1299C19.0412 14.1265 19.0292 14.1334 19.0164 14.1408C19.0369 14.1586 19.0551 14.1801 19.0793 14.1923C19.1067 14.2062 19.1294 14.1862 19.1204 14.1469C19.1169 14.133 19.0772 14.1274 19.0361 14.1294C18.9355 14.0165 18.8682 14.1294 18.7965 14.1537C18.5194 14.0297 18.2067 14.0757 17.9246 13.9728C17.7975 14.093 17.7097 13.7707 17.556 13.9496C17.4498 14.0724 17.2983 13.8634 17.144 13.9582C16.9825 14.0583 16.8252 13.8788 16.641 13.8882C16.4608 13.8965 16.2726 14.0473 16.0884 13.9004C15.9348 14.0142 15.9077 13.8702 15.8389 13.7867C15.7811 13.7163 15.646 13.7613 15.668 13.833C15.7156 13.9846 15.6927 13.9944 15.5381 13.9878C15.1402 13.9712 14.7398 13.972 14.3425 13.9961C14.2255 14.0032 14.228 13.8729 14.1545 13.8959C14.1135 13.9082 14.0952 13.9872 14.0625 14.0334C14.054 14.0463 14.0305 14.061 14.0214 14.0572C13.6231 13.9073 13.2222 14.214 12.818 14.046C12.6989 13.9961 12.5392 14.0062 12.4123 14.0772C12.327 14.1253 12.2706 14.1385 12.2164 14.0386C12.1981 14.007 12.1684 13.9991 12.1216 14.0546C11.9758 14.2254 11.7404 14.2587 11.6032 14.1201C11.483 13.999 11.3534 14.0613 11.3107 14.0803C11.0027 14.2136 10.6619 14.0842 10.3562 14.2253C10.2669 14.2666 10.1368 14.2231 10.0794 14.092C10.0032 13.9205 9.89902 13.7856 9.92561 13.5547C9.95173 13.3309 9.82693 13.087 9.8082 12.839C9.75952 12.1987 9.80245 11.557 9.74701 10.9149C9.72391 10.6454 9.80793 10.3597 9.82255 10.0764C9.88569 8.85043 9.82092 7.62645 9.75137 6.40409C9.72565 5.96388 9.6629 5.52681 9.61818 5.08731C9.61549 5.05693 9.63582 5.01896 9.6242 4.99488C9.56166 4.86676 9.42479 4.74049 9.53756 4.59555C9.66938 4.42821 9.87652 4.29835 10.0687 4.27519C10.3371 4.24343 10.6064 4.29439 10.7369 3.9784C10.8874 3.95423 11.0385 3.93311 11.1881 3.90723C11.7349 3.81388 12.2725 3.69852 12.7949 3.49157C13.0663 3.38393 13.3671 3.23424 13.694 3.34545C13.8725 3.40545 13.9921 3.13571 14.1858 3.24172C14.4505 3.10483 14.7903 3.22455 15.0362 2.99363C15.0584 2.97281 15.2134 2.9643 15.3023 2.9837C15.5939 3.0457 15.8841 3.14276 16.181 3.00215C16.4335 3.20994 16.7476 3.02402 17.0265 3.14124C17.2397 3.23145 17.4743 3.33321 17.7289 3.27174C17.7708 3.26123 17.8384 3.27927 17.8694 3.30926C18.0048 3.44093 18.1644 3.45825 18.3443 3.47303C18.5063 3.48666 18.6581 3.59521 18.8209 3.62784C19.0455 3.67265 19.2388 3.8256 19.4803 3.81052C19.5495 3.80588 19.5944 3.85185 19.6283 3.91664C19.7052 4.06159 19.7847 4.20727 19.8761 4.34382C19.931 4.42504 19.9317 4.51131 19.8834 4.57002C19.8008 4.6724 19.8058 4.7779 19.7903 4.89746C19.7553 5.16518 19.6233 5.41929 19.6586 5.7C19.6904 5.95303 19.5349 6.18998 19.6005 6.44407C19.3987 6.63469 19.6205 6.87842 19.51 7.09848C19.4053 7.3049 19.49 7.56624 19.4446 7.78633C19.3957 8.02213 19.4141 8.26579 19.3396 8.49474C19.3138 8.57465 19.3833 8.61204 19.4015 8.67114L19.4011 8.67249ZM19.3627 5.04511C19.4233 5.01355 19.4356 4.96765 19.399 4.91012C19.523 4.82823 19.4106 4.76201 19.3859 4.68959C19.5099 4.6077 19.3975 4.54148 19.329 4.2765C19.2944 4.31357 19.2934 4.35524 19.3281 4.38766C19.3524 4.41009 19.336 4.49829 19.413 4.44581C19.4582 4.41519 19.5432 4.39233 19.5013 4.32759C19.4768 4.28923 19.3893 4.29188 19.3736 4.46856C19.2496 4.55045 19.3621 4.61666 19.3867 4.68909C19.2627 4.77097 19.3752 4.83719 19.3998 4.90962C19.3393 4.94118 19.3269 4.98708 19.3858 5.08311L19.3636 5.04461C19.3457 5.06517 19.3242 5.0833 19.3119 5.1075C19.2981 5.1349 19.318 5.15759 19.3573 5.14857C19.3713 5.14507 19.3769 5.10533 19.3636 5.04461L19.3627 5.04511ZM19.2843 5.78377C19.276 5.80685 19.2579 5.83096 19.2592 5.85302C19.2628 5.89883 19.2903 5.9069 19.3159 5.86817C19.3281 5.84972 19.3259 5.8202 19.3258 5.7963C19.3256 5.79189 19.2997 5.78859 19.2792 5.89164C19.2186 5.9232 19.2063 5.9691 19.2652 6.06513L19.243 6.02663C19.2251 6.04719 19.2036 6.06532 19.1913 6.08952C19.1774 6.11692 19.1974 6.13962 19.2367 6.13059C19.2507 6.12709 19.2563 6.08735 19.243 6.02663C19.3035 5.99507 19.3159 5.94918 19.2835 5.78426L19.2843 5.78377ZM19.0453 8.64979C19.1059 8.61823 19.1183 8.57233 19.0816 8.5148C19.2057 8.43291 19.0932 8.3667 19.0728 8.18689C19.0644 8.20997 19.0463 8.23409 19.0476 8.25614C19.0512 8.30195 19.0787 8.31003 19.1044 8.27129C19.1166 8.25285 19.1144 8.22332 19.1143 8.19943C19.114 8.19502 19.0881 8.19171 19.0677 8.29476C18.9436 8.37665 19.0561 8.44287 19.0808 8.51529C19.0202 8.54685 19.0078 8.59275 19.0667 8.68878L19.0445 8.65029C19.0267 8.67084 19.0051 8.68897 18.9928 8.71317C18.979 8.74057 18.9989 8.76327 19.0383 8.75424C19.0522 8.75074 19.0578 8.711 19.0445 8.65029L19.0453 8.64979ZM19.0264 8.89794C19.018 8.92102 19 8.94513 19.0013 8.96718C19.0049 9.013 19.0324 9.02107 19.058 8.98234C19.0702 8.96389 19.068 8.93437 19.0679 8.91047C19.0677 8.90606 19.0418 8.90276 19.0435 9.0443L19.0213 9.00581C19.0035 9.02637 18.982 9.04449 18.9697 9.0687C18.9558 9.0961 18.9758 9.11879 19.0151 9.10977C19.0291 9.10626 19.0347 9.06653 19.0261 8.89929L19.0264 8.89794ZM17.6085 13.3661C17.6002 13.3892 17.5821 13.4133 17.5834 13.4353C17.587 13.4812 17.6145 13.4892 17.6401 13.4505C17.6523 13.432 17.6501 13.4025 17.65 13.3786C17.6498 13.3742 17.6239 13.3709 17.6257 13.5125L17.6034 13.474C17.5856 13.4945 17.5641 13.5126 17.5518 13.5369C17.5379 13.5643 17.5579 13.5869 17.5972 13.5779C17.6112 13.5744 17.6168 13.5347 17.6082 13.3674L17.6085 13.3661ZM15.5887 12.3562L15.5393 12.2707C15.6629 12.2335 15.7409 12.1155 15.7059 12.0251C15.6349 11.8448 15.6758 11.6308 15.541 11.3676C15.5326 11.3907 15.5145 11.4148 15.5159 11.4368C15.5195 11.4827 15.547 11.4907 15.5726 11.452C15.5848 11.4335 15.5826 11.404 15.5825 11.3801C15.5822 11.3757 15.5563 11.3724 15.5359 11.4755C15.4633 11.8424 15.4628 12.0058 15.5389 12.272C15.5204 12.2953 15.4822 12.3242 15.488 12.3402C15.5057 12.3984 15.5492 12.3847 15.5883 12.3576L15.6377 12.4431C15.5771 12.4747 15.5648 12.5206 15.6014 12.5781C15.4332 12.8565 15.5608 13.1764 15.4776 13.4696C15.4465 13.5799 15.5453 13.5058 15.5882 13.497C15.6381 13.4864 15.682 13.4873 15.7249 13.5834L15.7027 13.5449C15.6849 13.5655 15.6634 13.5836 15.6511 13.6078C15.6372 13.6352 15.6572 13.6579 15.6965 13.6489C15.7105 13.6454 15.7161 13.6056 15.7027 13.5449C15.8442 13.4952 15.8738 13.3823 15.8756 13.2489C15.8785 12.9849 15.7203 12.79 15.6009 12.5773C15.6615 12.5457 15.6738 12.4998 15.6372 12.4423C15.6557 12.419 15.6939 12.3901 15.6881 12.3741C15.6704 12.3159 15.6269 12.3296 15.5878 12.3567L15.5887 12.3562ZM10.6636 13.7171C10.6821 13.6939 10.7203 13.665 10.7144 13.649C10.6968 13.5907 10.6533 13.6044 10.6142 13.6316C10.5757 13.4759 10.6696 13.3339 10.6372 13.1689C10.5609 12.7796 10.592 12.3785 10.5702 11.9827C10.5218 11.1154 10.4278 10.2504 10.4417 9.38022C10.4454 9.16708 10.4274 8.95392 10.4139 8.74051C10.4126 8.71845 10.3752 8.69328 10.3483 8.6803C10.3214 8.66732 10.3069 8.69166 10.3002 8.73545C10.2937 8.78364 10.2647 8.83232 10.2692 8.87764C10.3415 9.57264 10.2389 10.2614 10.2127 10.954C10.1941 11.446 10.1246 11.9469 10.197 12.4263C10.2555 12.8145 10.211 13.1903 10.2279 13.5718C10.231 13.6464 10.1991 13.6842 10.2978 13.7424C10.4048 13.805 10.4719 13.862 10.5775 13.7679C10.6008 13.7864 10.6296 13.8245 10.6457 13.8187C10.704 13.801 10.6903 13.7575 10.6632 13.7185L10.6636 13.7171ZM10.2191 5.31515C10.2108 5.33823 10.1927 5.36234 10.194 5.3844C10.1976 5.43021 10.2251 5.43828 10.2507 5.39955C10.2629 5.38111 10.2607 5.35158 10.2606 5.32768C10.2604 5.32327 10.2345 5.31997 10.214 5.42302C10.09 5.5049 10.2025 5.57112 10.2271 5.64355C10.1063 5.75667 10.1774 5.91747 10.1759 6.03353C10.173 6.31346 10.1357 6.60876 10.2981 6.95745C10.2684 6.94951 10.2902 6.84683 10.2176 6.907C10.2011 6.91995 10.1948 6.97036 10.2065 6.98868C10.2285 7.02276 10.2676 7.04695 10.2998 7.0751C10.3322 7.03816 10.3317 6.99969 10.256 6.88254C10.3949 6.59482 10.327 6.29527 10.3278 5.99599C10.3281 5.85211 10.2834 5.75479 10.2268 5.6449C10.3508 5.56302 10.2384 5.4968 10.2179 5.31699L10.2191 5.31515ZM15.0253 12.5674C14.9013 12.6493 15.0137 12.7155 15.112 12.9154L15.0384 12.788C15.0199 12.8112 14.9941 12.8318 14.9846 12.859C14.9204 13.0386 15.039 13.2678 14.8368 13.4141C14.8317 13.4171 14.8588 13.4699 14.8766 13.4949C14.9028 13.5323 14.93 13.5873 14.9655 13.5954C15.0342 13.6115 15.0039 13.5333 15.0268 13.5018C15.17 13.3028 15.1551 13.089 15.0379 12.7871C15.162 12.7052 15.0495 12.639 15.0248 12.5666C15.1489 12.4847 15.0364 12.4185 15.0117 12.3461C15.0298 12.3219 15.0634 12.2991 15.065 12.2742C15.1125 11.583 15.1982 10.8926 15.1215 10.1979C15.1145 10.1323 15.0157 10.0502 15.1762 9.97013L15.1376 9.99239C15.1582 10.0102 15.1763 10.0317 15.2005 10.0439C15.2279 10.0577 15.2506 10.0378 15.2417 9.99847C15.2382 9.98452 15.1984 9.97896 15.1376 9.99239C15.13 9.09693 14.9838 8.21651 14.8578 7.33354C14.8463 7.25235 14.6984 7.18606 14.8694 7.06681C14.8243 7.07574 14.8197 7.09549 14.8545 7.13012C14.8847 7.16061 14.9083 7.19946 14.9417 7.22576C14.9673 7.24634 14.9947 7.22255 14.9873 7.18006C14.9765 7.11786 14.9445 7.07022 14.8322 7.08942C14.8163 6.9868 14.6276 6.91901 14.8083 6.7611L14.7697 6.78336C14.7903 6.80115 14.8084 6.82262 14.8326 6.83488C14.86 6.84871 14.8827 6.82874 14.8737 6.78945C14.8702 6.77549 14.8305 6.76994 14.7697 6.78336C14.6659 6.63118 14.7189 6.44206 14.6556 6.27902C14.6546 6.27731 14.6804 6.26468 14.7327 6.23451L14.6941 6.25676C14.7147 6.27455 14.7328 6.29603 14.757 6.30828C14.7844 6.32211 14.8071 6.30214 14.7981 6.26285C14.7946 6.2489 14.7549 6.24334 14.6941 6.25676C14.5846 5.93451 14.5436 5.60236 14.5597 5.26231C14.5612 5.22726 14.519 5.16607 14.4852 5.15705C14.4128 5.13842 14.4215 5.22466 14.4256 5.24964C14.4776 5.53553 14.3189 5.8404 14.4982 6.11327C14.5415 6.17837 14.5147 6.23488 14.5029 6.29756C14.4775 6.43544 14.3835 6.56154 14.4941 6.71552C14.5805 6.83555 14.4595 6.97612 14.4832 7.12784C14.5613 7.62329 14.5471 8.12878 14.5889 8.63042C14.6763 9.67597 14.8148 10.7171 14.8991 11.7633C14.9154 11.9637 14.9329 12.16 15.0109 12.3465C14.8868 12.4284 14.9993 12.4946 15.024 12.5671L15.0253 12.5674ZM13.1981 9.40259C13.074 9.48448 13.1865 9.5507 13.2112 9.62312C13.0495 9.78032 13.1461 9.92187 13.2374 10.0642C13.1554 10.6008 13.273 11.1248 13.3616 11.6462C13.3989 11.8653 13.3104 12.1194 13.5035 12.3056C13.3795 12.3874 13.4919 12.4537 13.5166 12.5261C13.4564 12.8254 13.4885 13.1183 13.6117 13.484C13.5819 13.476 13.6037 13.3733 13.5311 13.4335C13.5146 13.4465 13.5083 13.4969 13.52 13.5152C13.542 13.5493 13.5811 13.5735 13.6133 13.6016C13.6457 13.5647 13.6452 13.5262 13.5695 13.4091C13.6688 13.0963 13.6523 12.8105 13.5171 12.5269C13.6412 12.4451 13.5287 12.3788 13.504 12.3064C13.6485 12.1432 13.5752 11.9608 13.544 11.7861C13.4699 11.359 13.3428 10.9431 13.3624 10.4984C13.3687 10.3648 13.3628 10.1845 13.2379 10.065C13.3002 9.91386 13.303 9.76629 13.2117 9.62398C13.3357 9.5421 13.2233 9.47588 13.1986 9.40345C13.3226 9.32157 13.2102 9.25535 13.1855 9.18292C13.3095 9.10104 13.197 9.03482 13.1724 8.96239C13.2603 8.92077 13.2033 8.86358 13.1979 8.80282C13.1184 7.83027 13.1117 6.85331 13.1224 5.87883C13.1264 5.55723 13.0159 5.24124 13.1029 4.90929C13.1336 4.79234 13.1485 4.6914 13.2181 4.58051C13.2908 4.46322 13.083 4.37224 13.1059 4.23585C13.1164 4.17501 13.1352 4.1026 13.1757 4.06208C13.2255 4.0117 13.2711 3.98193 13.2241 3.90643C13.1727 3.82544 13.1219 3.8719 13.0607 3.89244C12.8309 3.96922 12.7715 4.14147 12.8016 4.35566C12.8101 4.41799 12.8639 4.47361 12.6686 4.51112C12.6917 4.51946 12.7158 4.53747 12.7379 4.53613C12.7837 4.53247 12.7918 4.50498 12.7531 4.47944C12.7347 4.46728 12.7051 4.46951 12.6812 4.46963C12.6768 4.4699 12.6734 4.49578 12.7765 4.51609C12.8012 4.58851 12.9137 4.65473 12.6822 4.7325C12.7053 4.74084 12.7294 4.75886 12.7515 4.75752C12.7973 4.75386 12.8054 4.72636 12.7667 4.70082C12.7483 4.68866 12.7187 4.69089 12.6948 4.69102C12.6904 4.69128 12.687 4.71716 12.7901 4.73747C12.8009 4.88864 12.8294 5.04096 12.817 5.18955C12.8079 5.30431 12.8975 5.42592 12.7949 5.53306C12.6406 5.69513 12.8911 5.7729 12.8737 5.90498C12.8635 5.98616 12.6917 6.00321 12.7954 6.13725C12.9341 6.31829 12.9368 6.52661 12.9491 6.7556C12.981 7.34505 13.0204 7.93359 13.0493 8.52366C13.0563 8.66444 13.0461 8.84256 13.1751 8.96311C13.051 9.045 13.1635 9.11122 13.1882 9.18364C13.0641 9.26553 13.1766 9.33175 13.2013 9.40417L13.1981 9.40259ZM17.6506 12.7624C17.59 12.794 17.5777 12.8399 17.6845 13.0189C17.6455 12.9513 17.6247 12.8994 17.6155 12.9013C17.5576 12.9119 17.5441 12.9676 17.5672 13.0056C17.6041 13.0676 17.594 13.1213 17.5745 13.1805C17.5655 13.2085 17.5893 13.2358 17.627 13.222C17.6661 13.2086 17.7236 13.1697 17.7229 13.1427C17.7221 13.0861 17.6887 13.0301 17.6142 12.8952C17.6748 12.8637 17.6872 12.8178 17.6505 12.7602C17.7746 12.6783 17.6621 12.6121 17.6374 12.5397C17.7535 12.4282 17.7508 12.3088 17.6606 12.1842C17.681 12.0218 17.7227 11.8586 17.7184 11.6968C17.7014 11.0224 17.762 10.3499 17.7377 9.67278C17.7189 9.13964 17.6974 8.60003 17.7241 8.06458C17.7414 7.72269 17.6307 7.40229 17.6199 7.0652C17.594 6.21113 17.4779 5.3612 17.5178 4.50447C17.5225 4.38998 17.4305 4.22071 17.5652 4.17714C17.6483 4.15085 17.6894 4.34269 17.7532 4.43354C17.7794 4.47091 17.7873 4.51425 17.7939 4.5652C17.8656 5.16817 17.9872 5.76855 18.0192 6.37392C18.0828 7.57806 18.2268 8.77908 18.1487 9.99092C18.1049 10.6629 18.1487 11.3401 18.1311 12.014C18.1189 12.4795 18.1046 12.9474 18.0209 13.4097C18.013 13.4553 17.9336 13.5354 18.0504 13.5478C18.0905 13.552 18.1458 13.5132 18.1769 13.4782C18.2747 13.3647 18.3406 13.2057 18.2829 13.084C18.2161 12.9446 18.2687 12.8378 18.2754 12.713C18.3365 11.608 18.3594 10.5022 18.3507 9.39526C18.3489 9.10323 18.2716 8.81709 18.3171 8.52396C18.3526 8.29473 18.3197 8.06167 18.3408 7.82712C18.3624 7.58766 18.3484 7.33577 18.3772 7.091C18.4231 6.70754 18.3535 6.32578 18.3635 5.9436C18.373 5.5743 18.1618 5.18872 18.44 4.83766C18.2546 4.6174 18.3522 4.35917 18.3412 4.11461C18.3365 3.99759 18.2804 3.90449 18.143 3.88007C18.0172 3.85804 17.9024 3.79771 17.7746 3.89885C17.6469 4 17.494 4.00041 17.3514 3.81473C17.3431 3.83781 17.325 3.86192 17.3263 3.88398C17.3299 3.92979 17.3574 3.93787 17.383 3.89913C17.3952 3.88069 17.393 3.85116 17.3924 3.82641C17.3922 3.822 17.3663 3.8187 17.3458 3.92175C17.1436 3.9039 16.9418 3.88471 16.7398 3.86907C16.6014 3.85886 16.5026 3.74711 16.5258 3.65275C16.5653 3.48967 16.4649 3.49974 16.383 3.48655C16.2372 3.46352 16.2166 3.59402 16.2245 3.67499C16.2483 3.93382 16.2004 4.20895 16.385 4.43768C16.443 4.51031 16.4569 4.59578 16.4576 4.70374C16.4634 5.46563 16.6436 6.21694 16.6087 6.98529C16.5897 7.41138 16.6923 7.84825 16.6329 8.26572C16.5703 8.70331 16.6388 9.13251 16.6259 9.56311C16.6045 10.262 16.7025 10.9639 16.6935 11.6704C16.6871 12.1737 16.7318 12.6805 16.6994 13.1862C16.6924 13.2986 16.7294 13.3844 16.8088 13.4309C16.8867 13.4749 16.9833 13.5058 17.0835 13.432C17.1926 13.3519 17.2368 13.2465 17.1815 13.1428C17.0713 12.9361 17.1228 12.7147 17.1158 12.5067C17.1107 12.3397 17.114 12.1713 17.1056 12.0005C17.0607 11.0798 17.0427 10.1584 17.1142 9.23782C17.1194 9.17554 17.1618 9.11453 17.1108 9.05388C16.9636 8.87999 17.0095 8.66873 17.0035 8.47034C16.9853 7.85926 16.9349 7.24969 16.9185 6.63762C16.9059 6.15679 16.866 5.66432 16.8045 5.18202C16.7662 4.88024 16.8413 4.61674 16.9073 4.33919C16.9203 4.28263 16.9561 4.25168 17.0006 4.23969C17.0512 4.22644 17.0834 4.26255 17.1122 4.3064C17.2274 4.48622 17.2267 4.85498 17.0823 4.9806C17.0039 5.04865 16.9863 5.08734 17.0393 5.17531C17.2533 5.53196 17.2712 5.93899 17.3081 6.33514C17.3524 6.80564 17.293 7.29616 17.4018 7.7477C17.6139 8.62545 17.5621 9.513 17.5781 10.3933C17.5881 10.9133 17.6374 11.4437 17.5431 11.9669C17.5322 12.0291 17.618 12.1084 17.659 12.1794C17.5429 12.2909 17.5455 12.4103 17.6358 12.5349C17.5117 12.6168 17.6242 12.683 17.6489 12.7554L17.6506 12.7624ZM14.4227 4.48492C14.4143 4.508 14.3962 4.53211 14.3975 4.55416C14.4012 4.59998 14.4287 4.60805 14.4543 4.56932C14.4665 4.55087 14.4643 4.52135 14.4642 4.49745C14.4639 4.49304 14.438 4.48974 14.4813 4.70313L14.4176 4.59279C14.3995 4.6169 14.3602 4.65558 14.3655 4.66279C14.4279 4.75108 14.3619 4.84848 14.3897 4.93621C14.3979 4.96227 14.4295 4.99532 14.4536 4.9974C14.5253 5.005 14.4959 4.93419 14.5151 4.90027C14.5662 4.81263 14.5087 4.74662 14.4218 4.48541L14.4227 4.48492ZM11.4215 5.41933C11.4131 5.44241 11.395 5.46653 11.3963 5.48858C11.3999 5.5344 11.4274 5.54247 11.4531 5.50373C11.4652 5.48529 11.4631 5.45576 11.463 5.43187C11.4627 5.42746 11.4368 5.42415 11.4163 5.5272C11.3445 5.55502 11.3777 5.65216 11.3371 5.67676C11.0819 5.82634 11.3985 5.80892 11.3932 5.88273C11.1688 6.06586 11.486 6.36401 11.2533 6.54854C11.2402 6.55951 11.2456 6.6123 11.2589 6.6354C11.3847 6.84334 11.2381 7.06027 11.2815 7.2679C11.3258 7.47725 11.3259 7.68706 11.3193 7.89727C11.3179 7.94029 11.3147 7.99803 11.1462 8.0109C11.1693 8.01924 11.1934 8.03725 11.2155 8.03591C11.2613 8.03225 11.2694 8.00475 11.2307 7.97922C11.2123 7.96705 11.1827 7.96929 11.1588 7.96941C11.1544 7.96968 11.1511 7.99555 11.2542 8.01586C11.2654 8.19755 11.3074 8.38313 11.2838 8.55985C11.1431 9.58425 11.3324 10.6064 11.286 11.6299C11.2665 12.0472 11.454 12.459 11.2143 12.8768C11.2374 12.8851 11.2615 12.9031 11.2836 12.9018C11.3295 12.8981 11.3376 12.8706 11.2988 12.8451C11.2804 12.8329 11.2509 12.8352 11.2261 12.8358C11.2217 12.8361 11.2183 12.8619 11.3214 12.8822C11.3455 13.1079 11.3634 13.3347 11.394 13.56C11.4223 13.7672 11.5348 13.6692 11.668 13.5934C11.6229 13.6023 11.6184 13.6221 11.6532 13.6567C11.6834 13.6872 11.7069 13.726 11.7404 13.7523C11.766 13.7729 11.7934 13.7491 11.786 13.7066C11.7752 13.6444 11.7431 13.5968 11.6308 13.616C11.6538 13.2937 11.717 12.9641 11.6277 12.653C11.5488 12.378 11.7092 12.1235 11.6435 11.8694C11.5738 11.5983 11.5742 11.3221 11.5684 11.0529C11.5545 10.3937 11.6079 9.73447 11.5864 9.07402C11.5758 8.73913 11.5738 8.40727 11.529 8.07047C11.4892 7.7741 11.5001 7.45871 11.5014 7.15232C11.504 6.73342 11.5272 6.29689 11.3923 5.88322C11.4884 5.83003 11.5996 5.78523 11.486 5.64781C11.4564 5.61242 11.4387 5.5679 11.4197 5.42032L11.4215 5.41933ZM13.615 5.63208C13.5735 5.67886 13.5766 5.71586 13.6046 5.75444C13.6225 5.77947 13.6402 5.83196 13.6502 5.82958C13.7059 5.81913 13.7175 5.76796 13.7004 5.7265C13.6849 5.68981 13.6457 5.66342 13.7254 5.9618C13.7007 5.91903 13.6671 5.83697 13.6526 5.83962C13.5712 5.85694 13.5734 5.94578 13.5745 6.00105C13.5783 6.4448 13.5724 6.88957 13.6079 7.33095C13.6686 8.09084 13.5831 8.85871 13.7463 9.61415C13.7646 9.69936 13.7922 9.8203 13.7518 9.93828C13.6957 10.0984 13.7567 10.2673 13.7841 10.4374C13.8484 10.8416 13.9548 11.2375 13.9454 11.6604C13.9336 12.2215 14.0255 12.7843 14.0501 13.3472C14.0556 13.4774 14.0936 13.5136 14.199 13.5418C14.3322 13.5766 14.4378 13.5282 14.4689 13.4099C14.5211 13.2155 14.6454 13.0251 14.4901 12.8057C14.4287 12.7191 14.45 12.57 14.4445 12.4477C14.4139 11.7458 14.3942 11.0431 14.3553 10.3426C14.3332 9.94819 14.2994 9.55141 14.2368 9.16213C14.1671 8.72681 14.1215 8.28781 14.0358 7.85257C13.9634 7.48381 13.8967 7.10717 13.8664 6.72435C13.8472 6.47542 13.8771 6.19474 13.6167 5.63109L13.615 5.63208ZM15.4202 3.55775C15.3672 3.71722 15.5027 3.84313 15.4866 4.00523C15.4378 4.48846 15.4476 4.97433 15.4889 5.45919C15.5049 5.63926 15.5393 5.82353 15.5166 5.99975C15.4909 6.19474 15.6426 6.36837 15.4473 6.55637C15.4704 6.56471 15.4945 6.58273 15.5166 6.58139C15.5624 6.57772 15.5705 6.55023 15.5318 6.52469C15.5134 6.51253 15.4838 6.51476 15.4599 6.51489C15.4555 6.51515 15.4522 6.54103 15.5552 6.56134C15.5694 6.73223 15.544 6.90197 15.5377 7.07101C15.5196 7.4966 15.4595 7.92474 15.5585 8.35342C15.7329 9.1104 15.8326 9.87855 15.8685 10.655C15.8867 11.0346 15.8637 11.4299 15.9664 11.788C16.0521 12.0887 16.0827 12.3869 16.121 12.6887C16.1441 12.8772 16.2452 13.072 16.0476 13.25C15.9799 13.3108 16.0698 13.4448 16.156 13.4794C16.2554 13.5189 16.2971 13.423 16.3023 13.339C16.3335 12.8648 16.3249 12.393 16.2539 11.9219C16.2069 11.607 16.1765 11.2892 16.1452 10.972C16.1085 10.6077 16.253 10.2368 16.103 9.87411C16.0823 9.82446 16.116 9.75027 16.1283 9.68844C16.1841 9.39734 16.1787 9.10507 16.1762 8.80998C16.1734 8.42726 16.1208 8.04933 16.1456 7.66095C16.1634 7.37923 16.167 7.08288 16.1541 6.79151C16.1281 6.21233 15.9813 5.64934 15.9527 5.07164C15.9286 4.58486 15.9046 4.09808 15.8792 3.61094C15.8746 3.52002 15.8486 3.44724 15.7362 3.49389C15.6351 3.53632 15.509 3.45056 15.315 3.55571C15.3381 3.56405 15.3622 3.58207 15.3843 3.58073C15.4302 3.57707 15.4383 3.54957 15.3995 3.52403C15.3811 3.51187 15.3516 3.51411 15.3276 3.51423C15.3232 3.5145 15.3199 3.54037 15.423 3.56068L15.4202 3.55775ZM13.0914 13.57C13.0007 13.2151 13.2117 12.815 12.9286 12.4869C12.9087 12.4642 12.9559 12.3936 12.9475 12.3494C12.8912 12.0501 12.8824 11.7461 12.8388 11.4451C12.7375 10.7394 12.6792 10.0272 12.6065 9.31761C12.5766 9.03038 12.5783 8.7306 12.5221 8.45735C12.3767 7.75439 12.3621 7.03862 12.255 6.33289C12.2301 6.16708 12.209 5.99795 12.1901 5.83664C12.1709 5.67092 12.1135 5.51018 12.0978 5.34248C12.0863 5.2157 12.2556 5.2103 12.2026 5.10861C12.0848 4.88469 11.9095 4.68594 12.0099 4.39302C12.0262 4.346 11.9508 4.12836 11.8156 4.16532C11.6142 4.22003 11.8183 4.34399 11.8042 4.4285C11.7838 4.55324 11.8777 4.65865 11.8658 4.74082C11.8274 4.99679 12.0743 5.25228 11.7507 5.49499C11.7738 5.50333 11.7979 5.52134 11.8199 5.52001C11.8658 5.51634 11.8739 5.48885 11.8352 5.46331C11.8167 5.45115 11.7872 5.45338 11.7624 5.454C11.758 5.45426 11.7547 5.48014 11.8578 5.50045C11.8768 5.55905 11.9482 5.59766 11.92 5.67551C11.8427 5.89576 11.787 6.11382 11.9807 6.3088C12.0353 6.36392 11.9927 6.42847 11.9919 6.49049C11.9828 6.8881 11.9534 7.28826 11.9843 7.68211C12.0106 8.02047 11.9407 8.36422 12.001 8.68635C12.0676 9.03909 12.068 9.37991 12.0708 9.73297C12.0731 10.0852 12.0273 10.4332 12.0413 10.7878C12.073 11.626 12.228 12.4683 12.0459 13.3102C12.0328 13.3725 12.0683 13.4558 12.0559 13.5371C12.0477 13.5943 12.1044 13.6687 12.1808 13.6349C12.4775 13.5058 12.7918 13.6505 13.1281 13.5465L13.0895 13.5687C13.1101 13.5865 13.1282 13.608 13.1524 13.6203C13.1798 13.6341 13.2025 13.6141 13.1935 13.5748C13.1901 13.5609 13.1503 13.5553 13.0895 13.5687L13.0914 13.57ZM16.8867 16.9625C16.9559 17.1518 17.0409 17.2772 17.2347 17.1083C17.419 17.214 17.603 17.1112 17.7852 17.0984C17.9528 17.086 18.1429 16.8337 18.1078 16.7194C17.9929 16.3444 17.6484 16.2285 17.3592 16.0499C17.3169 16.0242 17.3135 16.0421 17.2966 16.086C17.2466 16.221 17.1538 16.262 17.0002 16.2572C16.9377 16.2556 17.0068 16.4427 16.8982 16.5373C16.7642 16.6535 16.7099 16.8285 16.8858 16.963L16.8867 16.9625ZM12.2554 16.5811C12.2526 16.5941 12.2335 16.6302 12.2439 16.6481C12.355 16.8326 12.1563 16.815 12.0926 16.8826C12.0613 16.9155 11.9975 16.9158 11.9942 16.9793C11.9904 17.0499 12.1815 17.3274 12.2589 17.3626C12.6262 17.528 12.9939 17.3795 13.1458 17.0056C13.244 16.7641 13.1878 16.6312 12.9441 16.5336C12.7122 16.4405 12.4889 16.5819 12.2572 16.5823L12.2554 16.5811ZM10.2797 7.43795C10.2395 7.4612 10.1968 7.48017 10.1883 7.53867C10.1613 7.72533 10.1151 7.94812 10.2722 8.06387C10.381 8.14359 10.1647 8.33465 10.372 8.29021C10.5448 8.25318 10.414 8.08007 10.4075 8.00742C10.3944 7.85418 10.3319 7.71233 10.3972 7.55035C10.4184 7.49816 10.3602 7.43485 10.2802 7.43881L10.2797 7.43795ZM10.4915 17.1798C10.4632 17.1208 10.4358 17.0556 10.3528 17.0899C10.2465 17.1353 10.2714 17.2042 10.3211 17.2804C10.3553 17.3336 10.378 17.4026 10.4614 17.367C10.5668 17.3221 10.5475 17.2512 10.491 17.1789L10.4915 17.1798ZM10.1506 5.11524C10.1743 5.13461 10.2094 5.17365 10.2183 5.16735C10.292 5.12482 10.2687 5.03903 10.2963 4.97406C10.267 4.97274 10.2323 4.96201 10.2085 4.9723C10.1477 4.99945 10.1023 5.04159 10.1506 5.11524ZM10.2001 17.8601C10.1773 17.8424 10.1463 17.8044 10.1311 17.8098C10.0756 17.8304 10.0862 17.8745 10.1168 17.9116C10.1354 17.9339 10.1697 17.9677 10.1849 17.9623C10.2404 17.9417 10.2277 17.9 10.2001 17.8601ZM19.2884 5.31608C19.2707 5.33885 19.2327 5.36992 19.2381 5.38509C19.2586 5.44051 19.3027 5.42986 19.3399 5.39928C19.3623 5.38066 19.3961 5.3463 19.3908 5.33113C19.3702 5.27572 19.3284 5.28843 19.2884 5.31608ZM15.4852 11.0633C15.474 11.0835 15.4474 11.1125 15.454 11.1259C15.4731 11.165 15.4829 11.2255 15.5446 11.2195C15.5595 11.2177 15.5865 11.1714 15.5796 11.1594C15.5604 11.1203 15.5517 11.0637 15.4852 11.0633ZM10.2935 8.49638C10.3141 8.50841 10.3353 8.52129 10.3559 8.53332C10.3599 8.51847 10.3718 8.49561 10.3662 8.48976C10.35 8.4717 10.3268 8.46116 10.3065 8.44778C10.3025 8.46263 10.2986 8.47748 10.2935 8.49638ZM10.2718 7.23039C10.2671 7.24794 10.2631 7.26279 10.2588 7.27899C10.2831 7.27752 10.3093 7.27946 10.3315 7.27237C10.3393 7.27012 10.3404 7.24438 10.3444 7.22953C10.3197 7.23015 10.2958 7.23027 10.2718 7.23039ZM16.9395 17.8889C16.9219 17.8842 16.9071 17.8802 16.8909 17.8759C16.8923 17.9002 16.8903 17.9264 16.8974 17.9485C16.8997 17.9564 16.9254 17.9575 16.9403 17.9614C16.9397 17.9367 16.9396 17.9128 16.9395 17.8889ZM11.3975 5.19592C11.3936 5.21076 11.3816 5.23362 11.3873 5.23948C11.4034 5.25753 11.4266 5.26807 11.4469 5.28145C11.4509 5.2666 11.4629 5.24375 11.4572 5.23789C11.4411 5.21984 11.4178 5.20929 11.3975 5.19592ZM16.6165 13.5134C16.6372 13.5254 16.6583 13.5383 16.679 13.5504C16.683 13.5355 16.6949 13.5127 16.6893 13.5068C16.6731 13.4887 16.6499 13.4782 16.6296 13.4648C16.6256 13.4797 16.6216 13.4945 16.6165 13.5134ZM11.6299 4.67854C11.6475 4.68323 11.6624 4.6872 11.6786 4.69153C11.6771 4.66727 11.6791 4.64103 11.672 4.61889C11.6698 4.61106 11.644 4.60996 11.6292 4.60599C11.6298 4.63074 11.6299 4.65464 11.6299 4.67854ZM15.5022 10.8494C15.4847 10.8447 15.4698 10.8407 15.4536 10.8364C15.455 10.8607 15.453 10.8869 15.4601 10.909C15.4624 10.9169 15.4881 10.918 15.503 10.9219C15.5024 10.8972 15.5023 10.8733 15.5022 10.8494ZM10.4303 16.6049C10.4256 16.6225 10.4216 16.6373 10.4172 16.6535C10.4415 16.652 10.4678 16.654 10.4899 16.6469C10.4978 16.6446 10.4989 16.6189 10.5029 16.6041C10.4781 16.6047 10.4542 16.6048 10.4303 16.6049ZM13.5764 5.43656C13.5717 5.45411 13.5677 5.46896 13.5633 5.48516C13.5876 5.48368 13.6139 5.48563 13.636 5.47854C13.6439 5.47629 13.645 5.45055 13.649 5.4357C13.6242 5.43632 13.6003 5.43644 13.5764 5.43656ZM13.5881 5.20169C13.5761 5.22234 13.5631 5.24348 13.5511 5.26413C13.5659 5.2681 13.5888 5.27999 13.5946 5.27433C13.6127 5.25818 13.6233 5.23496 13.6367 5.21468C13.6219 5.21071 13.607 5.20674 13.5881 5.20169ZM13.4569 5.07331C13.4775 5.08533 13.4987 5.09822 13.5193 5.11025C13.5233 5.0954 13.5353 5.07254 13.5296 5.06669C13.5135 5.04863 13.4902 5.03809 13.4699 5.02471L13.4569 5.07331ZM19.2681 14.1495C19.2887 14.1615 19.3099 14.1744 19.3305 14.1864C19.3345 14.1716 19.3465 14.1487 19.3408 14.1428C19.3247 14.1248 19.3014 14.1142 19.2812 14.1009L19.2681 14.1495ZM14.4042 4.24125C14.4089 4.2237 14.4129 4.20886 14.4173 4.19266C14.393 4.19413 14.3667 4.19218 14.3446 4.19928C14.3367 4.20152 14.3356 4.22726 14.3316 4.24211C14.3564 4.2415 14.3803 4.24137 14.4042 4.24125ZM10.6972 17.9574C10.6796 17.9527 10.6648 17.9488 10.6486 17.9444C10.65 17.9687 10.648 17.9949 10.6551 18.0171C10.6573 18.0249 10.6831 18.026 10.6979 18.03C10.6974 18.0052 10.6973 17.9813 10.6972 17.9574ZM19.14 7.89377C19.1447 7.87622 19.1487 7.86137 19.153 7.84517C19.1287 7.84664 19.1025 7.84469 19.0803 7.85179C19.0725 7.85404 19.0713 7.87978 19.0674 7.89463C19.0921 7.89401 19.116 7.89389 19.14 7.89377ZM19.0918 7.61251C19.0797 7.63316 19.0668 7.6543 19.0547 7.67495C19.0696 7.67892 19.0925 7.69082 19.0983 7.68515C19.1164 7.669 19.127 7.64579 19.1404 7.6255L19.0918 7.61251ZM18.942 7.01472C18.9372 7.03227 18.9333 7.04712 18.9289 7.06332C18.9532 7.06185 18.9794 7.0638 19.0016 7.0567C19.0094 7.05445 19.0106 7.02871 19.0146 7.01386C18.9898 7.01448 18.9659 7.0146 18.942 7.01472ZM19.1496 6.78081C19.1448 6.79836 19.1409 6.81321 19.1365 6.82941C19.1608 6.82794 19.187 6.82989 19.2092 6.82279C19.217 6.82054 19.2182 6.7948 19.2222 6.77995C19.1974 6.78057 19.1735 6.78069 19.1496 6.78081ZM19.2904 5.63998C19.3025 5.61933 19.3154 5.59819 19.3275 5.57754C19.3126 5.57357 19.2897 5.56168 19.2839 5.56734C19.2658 5.58349 19.2552 5.60671 19.2418 5.627L19.2904 5.63998Z" fill="#322723"/>
<path d="M20.2286 4.44665C20.3052 4.41722 20.5207 4.58475 20.5095 4.67219C20.4972 4.76944 20.4665 4.8647 20.4348 4.95824C20.2636 5.46085 20.2165 5.98072 20.207 6.50627C20.2062 6.55236 20.2179 6.6083 20.1975 6.64407C19.9799 7.00916 20.0294 7.43111 19.9756 7.82257C19.9224 8.20337 19.904 8.60066 19.8468 8.98037C19.7334 9.72559 19.6562 10.4704 19.6012 11.2218C19.5802 11.5156 19.5263 11.8239 19.4534 12.1191C19.4186 12.2567 19.3732 12.3798 19.4482 12.5373C19.5033 12.6526 19.4505 12.8302 19.3312 12.9242C19.2761 12.9674 19.3236 13.1247 19.2041 13.0603C19.1524 13.032 19.095 12.9465 19.1093 12.8504C19.1746 12.4215 19.1117 11.9902 19.1265 11.5608C19.1274 11.5307 19.1097 11.4941 19.1217 11.4713C19.3046 11.1136 19.1886 10.7187 19.2628 10.3428C19.3357 9.97455 19.3861 9.59303 19.4184 9.21969C19.4504 8.8477 19.541 8.48632 19.5677 8.12306C19.6002 7.68685 19.6463 7.25425 19.6887 6.81921C19.7011 6.69231 19.7138 6.56405 19.7508 6.44805C19.8646 6.08925 19.8776 5.70424 20.0381 5.35721C20.1143 5.19236 20.0769 5.01889 20.0483 4.85065C20.0172 4.67016 20.181 4.58587 20.2291 4.44751L20.2286 4.44665Z" fill="#322723"/>
<path d="M21.2199 4.7C21.3152 4.81153 21.2893 4.94279 21.2766 5.09495C21.2226 5.69978 21.0143 6.26483 20.8677 6.84562C20.774 7.21559 20.7486 7.59294 20.6956 7.96798C20.6384 8.37735 20.552 8.80134 20.3107 9.15503C20.2712 9.21319 20.2462 9.36566 20.1538 9.3323C20.0813 9.30571 20.0163 9.18704 19.9995 9.09864C19.9832 9.0111 20.025 8.90941 20.0519 8.81748C20.2039 8.29745 20.2247 7.7597 20.282 7.22594C20.2991 7.06555 20.3559 6.91072 20.3876 6.7521C20.4566 6.40664 20.638 6.0818 20.594 5.71486C20.5711 5.52281 20.7659 5.40919 20.7503 5.19811C20.7391 5.04829 20.7924 4.86357 20.9179 4.70901C21.1049 4.47901 21.0816 4.4605 21.2192 4.7027L21.2199 4.7Z" fill="#322723"/>
<path d="M9.29117 17.4745C9.25453 17.417 9.26686 17.3711 9.32745 17.3395L9.37683 17.4251L9.29117 17.4745Z" fill="#322723"/>
<path d="M17.2413 24.5177C17.2779 24.5752 17.2656 24.6211 17.205 24.6527L17.1556 24.5671L17.2413 24.5177Z" fill="#322723"/>
<path d="M20.2295 20.3966C20.2662 20.4541 20.2539 20.5 20.1933 20.5316L20.1439 20.446L20.2295 20.3966Z" fill="#322723"/>
<path d="M17.5088 46.1471C17.5455 46.2046 17.5332 46.2505 17.4726 46.2821L17.4232 46.1965L17.5088 46.1471Z" fill="#322723"/>
<path d="M10.6639 13.7171L10.5783 13.7665C10.5416 13.709 10.554 13.6631 10.6146 13.6315L10.6639 13.7171Z" fill="#322723"/>
</svg>
