<svg width="236" height="49" viewBox="0 0 236 49" fill="none" xmlns="http://www.w3.org/2000/svg">
<path d="M203.615 48.8935C193.653 48.8935 183.691 48.9022 173.729 48.876C172.909 48.876 171.972 49.216 171.253 48.5404C171.168 48.4576 170.904 48.4184 170.777 48.462C168.354 49.3685 165.798 48.8542 163.322 48.8586C132.024 48.9022 100.731 48.8891 69.4326 48.8891C69.1681 48.8891 68.9036 48.8891 68.6391 48.8891C67.4046 48.8833 66.7521 48.3617 66.6816 47.3244C66.6657 47.1152 66.7504 46.8232 66.4541 46.7709C66.306 46.7447 66.0838 46.9975 65.8986 47.1326C65.7663 47.2285 65.5812 47.3201 65.5336 47.4421C64.9622 48.8848 63.6131 48.9065 62.063 48.9065C42.2291 48.876 22.3898 48.8848 2.55588 48.8848C1.9369 48.8848 1.31791 48.863 0.704218 48.8891C0.0958146 48.9153 -0.0311565 48.6668 0.0058767 48.231C0.0376195 47.8692 0.0111672 47.5031 0.0111672 47.1414C0.0111672 32.0349 0.0111672 16.9284 0.0111672 1.82185C0.0217481 0.662489 0.778284 0.0813584 2.28078 0.0784527C4.22238 0.0784527 6.15869 0.0784527 8.10029 0.0784527C11.3645 0.0784527 14.6234 0.0479433 17.8876 0.0958867C18.8135 0.108962 19.7446 0.0915282 20.6969 0.222283C21.5328 0.335603 22.5697 0.0828112 23.5326 0.0784527C24.5007 0.0784527 25.4742 0.0784527 26.4423 0.0784527C27.4105 0.0784527 28.4051 -0.0261509 29.3468 0.108962C30.1986 0.231 31.4259 -0.514301 31.8862 0.788886C32.0185 1.16807 32.2354 0.697357 32.41 0.63198C33.3358 0.292018 34.2405 0.0523018 35.3039 0.0566603C46.1493 0.0915282 56.9895 0.0915282 67.8349 0.0566603C69.0094 0.0566603 70.131 0.370471 71.3795 0.130755C72.6334 -0.113321 74.0089 0.0784527 75.3315 0.0784527H79.2993C80.622 0.0784527 81.9499 0.0174339 83.2672 0.0958867C84.7855 0.183056 86.3833 -0.300735 87.8223 0.501226C88.0022 0.601471 88.4783 0.605829 88.5788 0.501226C89.1925 -0.135113 90.0178 0.0871697 90.7638 0.0871697C102.577 0.0784527 114.391 0.0784527 126.205 0.0871697C126.951 0.0871697 127.776 -0.135113 128.39 0.501226C128.49 0.605829 128.966 0.601471 129.146 0.501226C130.585 -0.300735 132.188 0.100245 133.701 0.100245C166.846 0.0740942 199.996 0.0784527 233.141 0.0784527C233.844 0.0784527 234.553 0.100245 235.257 0.0697358C235.828 0.0479433 236.045 0.231 235.992 0.692999C235.961 0.980659 235.987 1.27268 235.987 1.5647V47.538C235.987 47.83 235.971 48.1177 235.987 48.4097C236.008 48.7845 235.77 48.9022 235.357 48.8935C234.738 48.8848 234.125 48.8935 233.506 48.8935H203.62H203.615ZM221.92 24.5208C221.565 24.5513 221.745 24.8913 221.687 25.1528C221.639 25.3577 221.676 25.9461 221.364 25.654C220.634 24.9785 220.385 26.2163 219.856 25.7891C219.555 26.286 218.804 26.164 218.38 26.5345C217.894 26.9572 217.999 27.0488 218.634 27.1054C219.026 27.1403 219.2 27.6066 219.851 27.1882C220.444 26.809 221.332 26.3558 221.983 26.3078C222.983 26.2337 222.57 25.532 223.052 25.3141C223.438 25.1397 223.094 24.9915 222.951 24.8652C222.719 24.6603 222.507 24.4119 221.92 24.5165V24.5208ZM142.811 3.56524C143.362 3.59139 143.515 3.26886 143.372 3.03786C143.086 2.58458 142.42 2.56279 141.891 2.42768C141.78 2.39717 141.356 2.7502 141.394 2.83737C141.579 3.29501 141.96 3.61754 142.626 3.56524C142.711 3.55652 142.795 3.56524 142.817 3.56524H142.811ZM126.485 46.2915C126.342 46.0169 126.76 45.5374 126.131 45.5026C125.908 45.4895 125.649 45.8643 125.411 46.0648C125.929 46.274 125.818 47.0019 126.131 47.0324C126.771 47.0978 126.321 46.5442 126.49 46.2915H126.485ZM83.0926 8.35957C83.3518 8.35957 83.6164 8.38136 83.8703 8.3465C83.9497 8.33342 84.0766 8.12421 84.0396 8.07191C83.8915 7.85399 82.262 7.85835 82.135 8.07627C82.1033 8.13293 82.2356 8.33342 82.3202 8.3465C82.5741 8.38572 82.8387 8.35957 83.0979 8.35957H83.0926ZM67.8085 5.74012C68.0783 5.6791 68.5227 5.9101 68.6973 5.58758C68.8136 5.36965 68.5068 5.27812 68.2529 5.31299C67.9354 5.35658 67.491 5.14737 67.3164 5.4699C67.2001 5.68782 67.5016 5.76627 67.8085 5.74448V5.74012ZM133.876 13.0493C133.786 12.936 133.696 12.827 133.606 12.7181C133.378 12.9665 133.146 13.2106 132.918 13.459C133.066 13.5026 133.209 13.5723 133.363 13.5854C133.855 13.6246 133.865 13.3326 133.876 13.0493ZM25.4371 33.6954C25.3948 33.4383 25.3578 33.155 24.8763 33.2073C24.7282 33.2247 24.5854 33.2988 24.4425 33.3511C24.6859 33.5865 24.9293 33.8218 25.1726 34.0572C25.252 33.9439 25.3366 33.8349 25.4371 33.6954ZM133.87 39.3222C133.897 38.7338 133.706 38.3721 133.627 38.4462C133.479 38.5857 133.384 38.7949 133.357 38.9823C133.32 39.2481 133.267 39.5489 133.611 39.7407C133.717 39.5663 133.828 39.392 133.87 39.3222ZM140.224 38.7644C140.134 38.651 140.044 38.5421 139.955 38.4331C139.727 38.6815 139.494 38.9256 139.267 39.1741C139.415 39.2176 139.558 39.2874 139.711 39.3004C140.203 39.3397 140.214 39.0477 140.224 38.7644ZM153.778 21.9363C153.673 21.9886 153.472 22.0409 153.466 22.1062C153.45 22.298 153.334 22.5508 153.636 22.6641C153.71 22.6903 153.958 22.5726 153.958 22.5116C153.974 22.3198 154.085 22.0844 153.778 21.9363ZM72.5805 35.2035C72.3741 35.0902 72.2313 34.9507 72.1096 34.9594C71.8821 34.9812 71.6705 35.0902 71.4483 35.1642C71.5806 35.2383 71.7181 35.3735 71.8504 35.3691C72.0779 35.3647 72.3001 35.2732 72.5805 35.2035ZM125.369 37.1779C125.501 37.3391 125.586 37.4481 125.676 37.5614C125.765 37.3827 125.898 37.204 125.924 37.0166C125.94 36.9164 125.765 36.7987 125.676 36.6897C125.57 36.8597 125.459 37.034 125.369 37.1779ZM75.1569 45.4067C75.2997 45.3587 75.559 45.3239 75.5749 45.2541C75.6278 44.997 75.395 44.9403 75.141 44.9752C74.9876 44.997 74.739 45.0536 74.7231 45.1234C74.6702 45.3805 74.8977 45.4241 75.1569 45.4067ZM13.1738 9.51021C13.1104 9.41868 13.0469 9.3228 12.9834 9.23127C12.9252 9.27921 12.8088 9.34023 12.8194 9.3751C12.8458 9.4797 12.9252 9.57123 12.9834 9.66712C13.0416 9.61917 13.0998 9.57123 13.1738 9.51021ZM47.7153 11.6895C47.7841 11.7461 47.8422 11.7941 47.9057 11.8464C47.9639 11.7505 48.0433 11.6546 48.0697 11.5543C48.0803 11.5195 47.9639 11.4585 47.9057 11.4105C47.8422 11.5064 47.7788 11.5979 47.7153 11.6895ZM84.6745 11.6284C84.6163 11.5805 84.5422 11.4846 84.4999 11.4933C84.3729 11.5151 84.2618 11.5805 84.1454 11.6284C84.2036 11.6764 84.2777 11.7723 84.32 11.7635C84.447 11.7418 84.5581 11.6764 84.6745 11.6284ZM200.985 20.2844C200.917 20.2277 200.858 20.1798 200.795 20.1275C200.737 20.2234 200.657 20.3193 200.631 20.4195C200.62 20.4544 200.737 20.5154 200.795 20.5633C200.858 20.4674 200.922 20.3759 200.985 20.2844ZM134.743 28.3476C134.812 28.2909 134.87 28.243 134.934 28.1907C134.817 28.1427 134.701 28.0774 134.579 28.0556C134.537 28.0468 134.463 28.1427 134.405 28.1907C134.521 28.243 134.632 28.2953 134.743 28.3476ZM143.319 28.6875C143.256 28.596 143.192 28.5001 143.129 28.4086C143.071 28.4565 142.954 28.5176 142.965 28.5524C142.991 28.657 143.071 28.7486 143.129 28.8444C143.187 28.7965 143.245 28.7486 143.319 28.6875ZM124.538 37.5004C124.649 37.4481 124.766 37.3958 124.877 37.3435C124.818 37.2955 124.744 37.1997 124.702 37.2084C124.575 37.2302 124.464 37.2955 124.348 37.3435C124.406 37.3914 124.464 37.4394 124.538 37.5004ZM165.01 43.0705C164.947 42.979 164.883 42.8831 164.82 42.7916C164.761 42.8395 164.645 42.9006 164.656 42.9354C164.682 43.04 164.761 43.1316 164.82 43.2274C164.878 43.1795 164.936 43.1316 165.01 43.0705Z" fill="#EEEEE8"/>
</svg>
