<svg width="181" height="246" viewBox="0 0 181 246" fill="none" xmlns="http://www.w3.org/2000/svg">
<path d="M14.9842 95.2489C14.649 94.7504 14.9302 94.6041 15.1194 94.447C15.5735 94.0731 15.8384 93.5095 16.579 93.3903C16.8547 93.3469 16.3465 92.377 17.0169 91.9381C17.4818 91.6346 18.0927 91.2499 17.9899 90.4804C17.9845 90.4262 18.0981 90.3287 18.1737 90.2962C21.1795 88.8765 22.1796 85.7661 24.0176 83.3656C24.1041 83.2518 24.3149 83.2355 24.715 83.3276C24.8771 83.3818 24.8123 83.2301 24.7042 83.1813C24.4771 83.073 24.3636 83.1813 24.4771 83.4089C24.5312 83.5173 24.6771 83.5877 24.7961 83.6528C24.8177 83.6636 24.9042 83.5498 24.7204 83.3276C24.3528 82.3143 25.7583 82.867 25.6718 81.7779C25.634 81.301 26.9693 81.8266 27.4504 81.0409C27.818 80.4448 28.3694 79.8975 28.9587 79.5182C30.7805 78.3369 32.505 77.0473 34.0241 75.4921C34.889 74.6088 35.8405 73.9044 37.1649 73.9586C37.5109 73.9748 37.8785 74.0344 37.992 73.5467C38.3705 71.8778 40.2085 72.2029 41.1167 71.2492C42.4952 71.596 43.2142 70.626 44.0251 69.8132C44.5008 69.3363 44.9117 68.5615 45.7496 69.461C45.8685 69.5856 46.6092 69.2171 46.9984 68.9679C47.366 68.7294 47.593 68.258 47.9715 68.0521C48.5229 67.7486 49.523 68.3989 49.7122 67.6294C49.7987 67.2772 48.777 66.7191 48.6526 65.9713C48.631 65.825 48.3553 65.7383 48.2958 65.5811C48.0039 64.79 47.8904 63.4245 47.3228 63.3649C46.5713 63.289 45.7604 64.1994 44.9171 64.557C40.7167 66.3506 36.5162 68.1442 32.386 70.0896C30.6994 69.6127 29.7317 71.4388 28.0126 71.3467C26.5098 71.2654 22.3093 72.1053 21.2551 71.7423C20.5686 71.5093 19.8658 71.2329 19.4009 70.3388C18.8225 69.2117 18.4386 68.1551 18.6873 66.6649C18.7414 66.5023 18.59 66.5674 18.5413 66.6757C18.4332 66.9033 18.5413 67.0171 18.7684 66.9033C18.8765 66.8491 18.9468 66.7028 19.0117 66.589C19.0225 66.5674 18.909 66.4807 18.6873 66.6649C17.9953 66.9575 17.9899 66.5836 17.9899 66.2151C17.9899 62.8826 17.8007 59.5392 18.0494 56.2229C18.244 53.6165 19.0441 51.0751 20.9254 49.0593C21.2227 48.7396 21.639 48.4361 21.7471 48.0568C22.239 46.3499 23.5959 45.342 24.742 44.1661C25.2826 43.6134 25.7529 42.9415 26.6125 42.8277C26.6125 41.7006 27.5693 41.5272 28.2991 41.1479C28.9641 40.8011 29.7209 40.6006 30.3047 40.1562C30.7156 39.8419 31.0886 39.8311 31.5211 39.8149C32.0401 39.7986 32.0671 39.636 31.7481 39.2242C31.213 38.5469 31.3913 37.9074 32.0401 37.3927C32.4347 37.0784 32.7104 36.6828 33.2997 36.5148C34.0943 36.2818 34.7971 35.6857 35.5377 35.1005C35.6999 35.1547 35.635 35.003 35.5269 34.9542C35.2999 34.8458 35.1863 34.9542 35.2999 35.1818C35.3539 35.2902 35.4999 35.3606 35.6134 35.4256C35.635 35.4365 35.7215 35.3227 35.5377 35.1005C35.2891 34.6724 35.408 34.2823 35.2728 34.1522C33.5321 32.4453 33.3916 30.0394 32.6563 27.9261C32.1644 26.5172 33.0726 24.9674 34.1754 24.1708C36.0945 22.7836 38.2461 21.7812 40.7923 21.895C42.1384 21.96 42.8574 22.4856 43.4142 23.629C44.2522 25.3576 45.1982 27.0374 46.101 28.7389C46.6038 29.6872 46.5929 29.6817 47.4255 29.0206C47.6904 28.8093 47.8093 28.3758 48.5121 28.598C48.6742 28.6522 48.6094 28.5004 48.5013 28.4517C48.2742 28.3433 48.1607 28.4517 48.2742 28.6793C48.3283 28.7876 48.4742 28.8581 48.5932 28.9231C48.6148 28.9339 48.7013 28.8202 48.5175 28.598C48.2093 28.0995 48.4526 28.029 48.6905 27.8881C50.296 26.9669 51.9881 26.1975 52.1287 23.8836C52.1719 23.1846 52.7449 22.2255 53.2369 21.6999C53.9505 20.9358 54.2802 20.0959 54.4749 19.2072C54.8965 17.2565 56.0102 15.6471 57.0319 14.0486C58.405 11.919 59.6105 9.70812 60.8107 7.48642C61.4648 6.27804 62.2216 5.21054 63.5839 4.54403C65.0219 3.83959 66.2328 2.67455 67.5141 1.69917C68.3898 1.03266 69.1413 0.832166 70.136 0.777978C71.8659 0.685859 73.6607 1.22774 75.3257 0.284869C75.5527 0.154819 76.0447 0.0897933 76.3042 0.463689C76.6177 0.924285 77.0881 0.805072 77.5151 0.794234C78.526 0.76714 79.5478 -0.278684 80.4668 0.382407C81.429 1.07601 82.3589 0.76714 83.2779 0.772559C89.3055 0.821328 95.3386 0.783397 101.366 0.815909C102.118 0.815909 102.972 0.469108 103.621 1.25483C103.739 1.39572 104.172 1.42281 104.372 1.32527C105.415 0.805072 106.643 0.355313 107.556 1.0164C108.583 1.75336 109.935 0.685859 110.751 1.86715C110.838 1.99178 111.27 1.92134 111.535 1.87799C113.935 1.48784 116.216 2.44696 118.601 2.51199C120.579 2.56617 122.552 3.30855 124.504 3.82875C125.872 4.19181 127.283 4.15388 128.602 5.06423C130.164 6.14257 132.132 6.58691 133.061 8.5485C133.424 9.31797 134.424 9.68103 134.748 10.6781C134.748 10.716 134.748 10.6402 134.748 10.5589C134.608 10.6076 134.456 10.6347 134.332 10.716C134.191 10.8081 134.224 10.9707 134.435 11.0357C134.51 11.0574 134.645 10.884 134.748 10.6835C136.024 11.7239 136.586 13.3658 136.84 14.8885C137.624 19.6191 139.505 24.0137 140.733 28.598C141.024 29.6926 141.776 30.6625 142.317 31.8167C142.317 31.8547 142.317 31.7788 142.317 31.6975C142.176 31.7463 142.025 31.7734 141.9 31.8547C141.76 31.9468 141.792 32.1094 142.003 32.1744C142.079 32.1961 142.214 32.0226 142.317 31.8222C143.425 31.8113 142.484 32.868 143.057 33.2906C143.576 33.6754 144.16 34.1306 143.938 35.0734C143.938 35.1114 143.938 35.0355 143.938 34.9542C143.798 35.003 143.646 35.0301 143.522 35.1114C143.382 35.2035 143.414 35.366 143.625 35.4311C143.7 35.4527 143.836 35.2793 143.938 35.0788C144.03 34.9596 144.138 34.9271 144.203 34.965C144.847 35.3281 144.057 36.3468 144.792 36.4715C145.025 36.5094 145.328 35.5178 145.695 35.0301C146.398 34.0872 147.101 33.2148 148.144 32.6241C149.015 32.131 149.528 31.2044 149.82 30.3537C150.35 28.7985 151.312 28.2566 152.815 28.4734C153.912 28.6305 155.156 27.9369 156.102 29.0044C158.556 29.4379 159.335 31.5566 160.421 33.3503C160.854 34.0655 160.832 34.7916 160.394 35.5503C159.713 36.737 159.091 37.9779 158.08 38.9099C156.723 40.1671 156.156 41.9824 154.864 43.2775C154.464 43.6784 154.848 44.177 155.231 44.3558C156.123 44.773 156.826 45.3962 157.48 46.1006C158.01 46.6696 158.329 47.2928 158.632 48.0622C159.183 49.4603 159.826 51.2376 161.481 51.6278C162.567 51.8825 162.427 52.7441 162.919 53.248C165.005 55.383 166.579 57.8756 167.752 60.6501C168.66 62.7959 169.282 64.9146 169.406 67.2989C169.633 71.5526 168.244 75.4325 167.179 79.4044C165.914 80.8025 166.119 83.2897 164.27 84.0754C163.059 84.5902 163.719 85.0183 163.957 85.3976C165.649 88.1341 167.276 90.9302 169.206 93.4878C169.86 94.3548 169.719 95.4386 170.606 96.2243C171.352 96.8854 171.779 98.083 171.995 99.118C172.206 100.153 173.217 100.841 173.104 101.903C173.033 102.543 173.493 102.922 173.725 103.269C174.374 104.222 174.644 105.219 174.915 106.32C175.488 108.677 176.277 110.996 177.055 113.283C177.839 115.596 177.861 118.116 179.061 120.3C179.137 120.441 179.099 120.652 179.077 120.831C178.839 123.139 180.018 125.329 179.623 127.648C180.775 132.227 179.948 136.887 180.126 141.504C180.18 142.875 180.472 144.289 179.775 145.676C179.153 146.906 180.077 148.434 179.142 149.756C178.801 150.239 179.066 151.165 179.093 151.886C179.115 152.52 178.239 152.856 178.553 153.555C178.92 154.373 177.699 154.855 178.05 155.473C178.515 156.302 177.185 156.72 177.796 157.592C177.991 157.868 177.099 158.779 177.082 159.239C177.007 161.607 175.498 163.488 175.158 165.818C174.844 167.953 173.395 169.925 172.428 171.957C171.601 173.691 170.844 175.469 169.882 177.127C168.471 179.554 167.216 182.101 165.178 184.117C164.2 185.087 164.292 186.805 162.881 187.493C162.697 188.864 161.189 189.243 160.718 190.386C160.183 191.682 158.978 192.375 158.097 193.356C157.253 194.293 156.442 195.339 155.41 196.006C153.231 197.404 151.68 199.625 149.231 200.639C148.777 201.728 147.231 200.883 146.825 201.983C146.495 202.888 144.809 201.755 144.965 203.283C144.068 203.321 143.727 204.188 143.063 204.562C141.527 205.424 140.035 206.377 138.43 207.082C136.705 207.84 135.137 208.805 133.564 209.986C133.526 209.986 133.602 209.986 133.683 209.986C133.635 209.845 133.607 209.694 133.526 209.569C133.435 209.428 133.272 209.461 133.207 209.672C133.186 209.748 133.359 209.883 133.559 209.986C133.635 210.306 133.586 210.896 133.537 210.896C132.586 210.891 132.332 211.986 131.396 212.154C131.359 212.154 131.434 212.154 131.515 212.154C131.467 212.013 131.44 211.861 131.359 211.736C131.267 211.596 131.105 211.628 131.04 211.839C131.018 211.915 131.191 212.051 131.391 212.154C130.553 213.974 128.596 214.646 127.066 215.947C127.028 215.947 127.104 215.947 127.185 215.947C127.137 215.806 127.11 215.654 127.028 215.53C126.937 215.389 126.774 215.421 126.709 215.632C126.688 215.708 126.861 215.844 127.061 215.947C126.25 216.895 124.926 217.253 123.936 218.114C123.877 217.963 123.844 217.702 123.752 217.686C123.428 217.61 123.374 217.854 123.396 218.114C123.131 218.114 122.796 218.011 122.606 218.136C122.071 218.483 122.617 218.7 122.801 218.857C123.99 219.881 124.428 221.241 124.455 222.72C124.471 223.934 125.412 224.98 125.017 226.367C125.017 226.405 125.017 226.329 125.017 226.248C124.877 226.297 124.725 226.324 124.601 226.405C124.461 226.497 124.493 226.66 124.704 226.725C124.78 226.746 124.915 226.573 125.017 226.373C125.958 227.846 126.45 229.407 126.661 230.55C127.023 232.545 127.391 234.549 127.974 236.484C128.456 238.072 128.196 239.632 128.164 241.204C128.164 241.442 127.726 241.989 127.061 241.968C127.023 241.968 127.099 241.968 127.18 241.968C127.131 241.827 127.104 241.675 127.023 241.551C126.931 241.41 126.769 241.442 126.704 241.653C126.682 241.729 126.855 241.865 127.055 241.968C127.255 243.16 126.423 243.658 125.553 244.135C125.493 243.984 125.461 243.723 125.369 243.707C125.044 243.631 124.99 243.875 125.012 244.135C124.861 244.195 124.601 244.227 124.585 244.32C124.509 244.645 124.753 244.699 125.012 244.677C124.963 245.49 124.342 245.138 123.812 245.219C123.774 245.219 123.85 245.219 123.931 245.219C123.882 245.078 123.855 244.926 123.774 244.802C123.682 244.661 123.52 244.693 123.455 244.905C123.433 244.981 123.606 245.116 123.806 245.219C123.925 245.311 123.947 245.474 123.925 245.479C122.125 245.945 120.325 245.945 118.525 245.479C118.503 245.474 118.525 245.311 118.682 244.97C118.736 244.807 118.584 244.872 118.536 244.981C118.428 245.208 118.536 245.322 118.763 245.208C118.871 245.154 118.941 245.008 119.006 244.894C119.017 244.872 118.903 244.786 118.682 244.97C118.141 245.154 117.622 245.436 117.449 244.851C117.108 243.702 116.389 242.672 116.519 241.177C116.573 241.014 116.422 241.079 116.373 241.187C116.265 241.415 116.373 241.529 116.6 241.415C116.708 241.361 116.779 241.215 116.844 241.095C116.854 241.074 116.741 240.987 116.519 241.171C115.481 239.952 115.427 239.735 115.768 238.5C115.979 237.736 115.833 236.896 115.135 236.728C113.805 236.403 113.67 235.254 113.281 234.127C113.335 233.964 113.184 234.029 113.135 234.138C113.027 234.365 113.135 234.479 113.362 234.365C113.47 234.311 113.541 234.165 113.605 234.051C113.616 234.029 113.503 233.943 113.281 234.127C112.313 234.327 112.665 233.704 112.773 232.761C112.638 232.339 112.557 232.523 112.578 232.788C112.594 232.956 112.535 233.254 112.589 233.271C112.881 233.374 113.076 233.162 113.108 232.918C113.135 232.702 113.022 232.469 112.778 232.767C111.719 232.664 112.054 231.374 111.346 230.778C110.675 230.209 111.324 229.358 110.638 228.892C110.119 228.54 109.691 228.069 110.037 227.088C110.092 226.925 109.94 226.99 109.891 227.099C109.783 227.326 109.891 227.44 110.119 227.326C110.227 227.272 110.297 227.126 110.362 227.012C110.373 226.99 110.259 226.904 110.037 227.088C109.086 226.752 109.173 225.755 108.816 224.969C108.691 224.698 109.524 224.606 109.156 224.21C108.897 223.929 108.545 224.281 108.248 224.324C106.237 224.617 104.464 225.863 102.35 225.739C101.988 225.717 101.604 226.069 100.891 226.253C100.604 225.831 101.21 226.714 101.199 225.993C101.199 225.896 100.804 225.739 100.582 225.722C100.269 225.701 99.7337 225.571 99.6958 225.939C99.6526 226.34 100.155 226.232 100.891 226.253C101.269 226.784 100.901 226.773 100.534 226.795C98.8957 226.887 97.1983 226.459 95.6413 227.332C95.5711 227.37 95.4575 227.315 95.3764 227.342C94.3926 227.673 93.6682 226.08 92.4734 227.093C91.6517 227.787 90.4138 227.277 89.365 227.326C88.2027 227.386 87.035 227.337 85.8673 227.337H82.6346C81.5588 227.337 80.456 227.191 79.4126 227.38C78.4341 227.559 77.8503 226.719 76.9367 226.757C76.115 226.795 75.1257 227.202 74.4715 226.253C71.8875 226.79 69.6981 224.828 67.1086 225.11C66.0923 225.218 64.9895 224.676 63.9515 224.362C61.9621 223.755 59.9781 223.121 58.0104 222.455C56.0426 221.788 54.1073 221.013 52.2043 220.217C50.5339 219.523 48.7499 218.927 47.2633 217.87C46.3821 217.242 45.1496 217.453 44.636 216.25C44.69 216.088 44.5387 216.153 44.49 216.261C44.3819 216.489 44.49 216.602 44.7171 216.489C44.8252 216.434 44.8955 216.288 44.9603 216.174C44.9711 216.153 44.8576 216.066 44.636 216.25C43.8954 216.185 43.2791 215.92 42.7385 215.546C42.0573 215.069 41.6789 214.224 40.8356 213.92C40.6842 214.868 39.8787 215.324 39.3327 215.979C38.6894 216.754 38.1326 217.61 37.4623 218.364C36.7541 219.166 35.9594 219.892 35.2026 220.65C34.4457 221.409 33.7646 222.271 32.9104 222.899C32.0617 223.522 32.186 224.926 30.8453 225.17C30.8075 225.17 30.8832 225.17 30.9643 225.17C30.9156 225.029 30.8886 224.877 30.8075 224.752C30.7156 224.611 30.5534 224.644 30.4886 224.855C30.4669 224.931 30.6399 225.067 30.8399 225.17C30.8994 225.321 30.8778 225.565 30.7697 225.608C29.9696 225.95 30.1588 227.337 29.1587 227.31C27.5477 227.267 25.7421 227.884 24.6339 226.004C24.6879 225.841 24.5366 225.906 24.4879 226.015C24.3798 226.242 24.4879 226.356 24.715 226.242C24.8231 226.188 24.8934 226.042 24.9582 225.928C24.9691 225.906 24.8555 225.82 24.6339 226.004C23.2013 225.554 22.5904 224.454 22.0282 223.105C21.493 221.815 21.8066 220.656 22.4499 220.011C24.1365 218.32 24.8177 216.082 26.0881 214.18C26.926 212.929 28.0667 211.91 28.391 210.252C28.5478 209.444 29.7101 208.843 30.3858 208.122C30.6129 207.878 31.0291 207.743 30.9643 207.288C31.6725 206.171 31.6941 206.139 30.9589 205.667C29.8506 204.958 28.937 204.08 28.4181 202.703C28.4721 202.541 28.3208 202.606 28.2721 202.714C28.164 202.942 28.2721 203.056 28.4992 202.942C28.6073 202.888 28.6775 202.741 28.7424 202.627C28.7532 202.606 28.6397 202.519 28.4181 202.703C27.4234 202.806 27.7693 201.679 27.0449 201.468C26.3638 201.267 25.7529 201.023 25.7151 199.994C25.7691 199.831 25.6178 199.896 25.5691 200.005C25.461 200.232 25.5691 200.346 25.7962 200.232C25.9043 200.178 25.9746 200.032 26.0394 199.918C26.0502 199.896 25.9367 199.81 25.7151 199.994C23.0553 197.908 21.266 194.971 19.163 192.31C17.5304 190.246 15.833 188.094 14.9031 185.363C14.9572 185.201 14.8058 185.266 14.7572 185.374C14.649 185.602 14.7572 185.715 14.9842 185.602C15.0923 185.547 15.1626 185.401 15.2275 185.287C15.2383 185.266 15.1248 185.179 14.9031 185.363C13.7246 185.038 13.5084 183.846 13.0381 182.968C11.5136 180.118 9.2701 177.593 8.95656 173.984C9.01062 173.821 8.85925 173.886 8.81059 173.995C8.70248 174.222 8.81059 174.336 9.03765 174.222C9.14576 174.168 9.21604 174.022 9.28092 173.908C9.29173 173.886 9.1782 173.8 8.95656 173.984C7.14556 171.93 6.37791 170.283 6.13464 167.942C6.07517 167.351 5.74 166.863 5.50214 166.593C4.06415 164.962 3.88035 162.875 3.45327 160.946C2.97214 158.79 2.54507 156.6 2.19368 154.4C1.92879 152.742 1.80445 151.122 1.78824 149.469C1.77742 148.331 1.02059 147.388 1.18277 146.175C1.32873 145.091 1.52875 143.882 0.690822 142.891C0.998963 140.81 0.128601 138.659 1.14492 136.589C1.43144 136.009 1.2098 135.18 1.23683 134.465C1.28007 133.348 0.912467 132.113 2.12881 131.322C2.50182 131.078 2.2964 130.655 2.30721 130.325C2.33424 129.154 2.46939 127.957 2.27477 126.819C2.08016 125.675 2.98295 124.846 2.84781 123.795C2.71806 122.776 3.18838 121.974 3.64789 121.151C3.72898 121.004 3.93981 120.858 3.92359 120.733C3.77223 119.568 3.93981 118.414 4.62637 117.515C5.30752 116.626 5.12372 115.569 5.47511 114.616C6.3725 112.177 6.98878 109.641 8.59436 107.533C9.11333 106.851 8.57814 106.049 9.10252 105.295C9.76205 104.336 10.2053 103.231 10.946 102.288C12.5137 100.288 13.184 97.8229 14.2058 95.5416C14.3193 95.2815 14.4112 95.0539 15.0004 95.276C15.1626 95.3302 15.0977 95.1785 14.9896 95.1297C14.7626 95.0214 14.649 95.1297 14.7626 95.3573C14.8166 95.4657 14.9626 95.5361 15.0815 95.6012C15.1031 95.612 15.1896 95.4982 15.0058 95.276L14.9842 95.2489ZM156.372 31.6921C156.388 31.3182 156.204 31.134 155.831 31.1502C155.783 30.3374 155.161 30.6896 154.75 30.6083C154.702 29.7955 154.08 30.1478 153.193 30.0611C153.312 29.9418 153.739 30.3266 153.653 29.8172C153.637 29.7034 153.415 29.5354 153.296 29.5408C153.074 29.5517 152.853 29.6709 152.631 29.7468C152.718 30.0014 152.901 30.1044 153.664 30.0665C153.712 30.8793 154.334 30.5271 154.745 30.6083C154.794 31.4212 155.415 31.0689 155.826 31.1502C155.81 31.5241 155.994 31.7084 156.367 31.6921C156.35 32.066 156.534 32.2502 156.907 32.234C156.891 32.6079 157.075 32.7921 157.945 33.0901C157.859 32.9872 157.794 32.8355 157.686 32.7813C157.459 32.6729 157.345 32.7813 157.459 33.0089C157.513 33.1172 157.659 33.1877 157.772 33.2527C157.794 33.2635 157.88 33.1498 157.448 32.7704C157.464 32.3965 157.28 32.2123 156.907 32.2286C156.923 31.8547 156.74 31.6704 156.367 31.6867L156.372 31.6921ZM79.6072 38.7365C79.6667 38.8882 79.6991 39.1483 79.791 39.1646C80.1154 39.2405 80.1694 38.9966 80.1478 38.7365C81.2777 38.8557 80.2613 40.0262 80.9803 40.4109C81.6615 40.7794 81.7588 41.4567 81.8507 42.2262C81.8994 42.6218 82.4183 43.0715 82.3048 43.6351C82.1751 44.3016 81.602 44.6755 81.1317 45.0277C79.3531 46.3553 77.553 47.6504 75.6987 48.8642C73.8661 50.0618 72.001 51.216 70.0765 52.2509C69.2548 52.6899 68.4439 53.08 67.6708 53.6327C65.8815 54.9007 64.0002 56.0441 62.1081 57.1495C60.0808 58.3308 60.2268 58.2604 60.6269 60.6446C60.8593 62.0427 61.2756 61.1106 61.654 60.9481C62.8757 60.4225 64.0488 59.7072 65.3246 59.3929C66.0328 59.2141 66.6653 59.1653 67.1573 58.5584C67.5357 58.0924 68.0276 57.7998 68.6277 57.5614C71.0225 56.5968 73.3579 55.5022 75.7149 54.4564C76.5204 54.8574 77.1475 53.5785 77.6124 53.9633C78.8071 54.9549 79.5315 54.0066 80.2614 53.4864C81.8453 52.3539 83.5482 51.7199 85.4943 51.7416C86.3971 51.7524 87.2999 51.7958 88.1919 51.7253C88.9596 51.6657 89.7596 52.0017 90.4949 51.4219C91.349 50.7445 91.9761 52.213 92.8843 51.7578C93.2519 51.5736 93.7547 51.9258 94.1439 51.5411C94.8142 50.88 95.6684 51.2376 96.4306 51.2268C97.2956 51.216 98.193 50.9775 99.0363 51.4327C99.7283 51.8012 100.328 50.8096 101.074 51.3027C102.329 52.1263 103.648 51.6874 105.037 51.5899C104.307 50.5657 103.269 50.0726 103.161 48.5337C103.058 48.6204 102.907 48.6854 102.853 48.7938C102.745 49.0214 102.853 49.1351 103.08 49.0214C103.188 48.9672 103.258 48.8209 103.323 48.7071C103.334 48.6854 103.221 48.5987 102.842 49.0322C101.815 48.1002 101.285 47.076 102.302 45.8026C103.431 44.3883 103.566 42.2045 105.68 41.5434C106.053 41.4242 106.475 40.9799 106.594 40.5952C106.913 39.5873 107.572 39.1158 108.497 38.6715C109.043 38.4114 109.648 37.8749 109.886 37.1271C110.194 36.1463 111.075 35.5774 111.811 34.9867C112.221 34.6562 113.378 35.2414 113.503 34.7266C113.692 33.9246 114.254 33.903 114.708 33.6429C115.508 33.1877 116.633 33.3123 117.119 32.2882C117.963 32.5212 118.53 31.6813 119.303 31.6975C122.833 31.7734 126.445 31.2153 129.861 32.3098C131.386 32.7975 133.391 32.765 134.251 34.6833C134.348 34.9054 134.835 34.9596 135.148 35.0734C135.343 35.1439 135.402 35.6695 135.7 35.301C135.819 35.1493 135.829 34.7591 135.716 34.5966C134.9 33.4153 133.932 32.4128 133.553 30.8739C133.159 29.2753 132.418 27.7472 132.002 26.1108C131.569 24.4147 130.742 22.8595 130.261 21.1363C129.721 19.191 128.596 17.3323 127.699 15.4466C127.034 14.0431 125.796 13.2628 124.396 12.7372C123.504 12.4013 122.45 12.4717 122.077 11.1495C121.974 11.2362 121.822 11.3012 121.768 11.4096C121.66 11.6372 121.768 11.751 121.995 11.6372C122.104 11.583 122.174 11.4367 122.239 11.3229C122.25 11.3012 122.136 11.2145 121.758 11.648C120.579 11.4042 119.46 10.9707 118.2 11.0791C116.46 11.2308 114.811 10.1687 113.027 10.5643C111.762 9.60517 110.216 10.4126 108.951 9.96281C107.567 9.4697 106.21 9.41551 104.832 9.51305C103.577 9.59975 102.388 9.35048 101.291 8.90073C100.372 8.52683 99.485 8.3751 98.5281 8.39678C97.5388 8.41845 96.5495 8.39678 95.5548 8.39678H89.3434C88.2622 8.39678 87.181 8.38594 86.1052 8.39678C85.2619 8.40762 84.4618 8.18545 83.5698 8.26131C82.7805 8.32633 81.7264 8.73274 81.0993 8.33175C80.0721 7.6815 79.0612 7.95786 78.0449 7.84948C75.5636 7.58396 73.1903 8.75984 70.709 8.39136C70.3306 8.33717 70.0765 8.52683 69.7684 8.73816C67.4114 10.2934 65.4976 12.1899 64.4489 14.8885C63.9677 16.1294 63.4812 17.4245 62.7136 18.492C60.8863 21.0388 59.5943 23.8891 58.0104 26.5714C57.5671 27.3246 57.5833 28.3433 56.4859 28.6197C56.4102 28.6413 56.3778 29.0911 56.4318 29.3187C56.4913 29.5788 56.6264 29.53 56.8048 29.362C57.6428 28.5601 58.7996 29.3837 59.5889 28.9394C60.5187 28.4137 61.4377 28.5871 62.3622 28.43C64.0705 28.1428 65.622 28.999 67.2708 28.9827C68.6818 28.9665 70.0765 29.3945 71.1036 30.1369C73.7526 32.0552 76.9367 33.4153 78.5152 36.8237V36.5798C78.3747 36.6286 78.2233 36.6557 78.099 36.737C77.9584 36.8291 77.9908 36.9917 78.2017 37.0567C78.2774 37.0784 78.4125 36.905 78.5152 36.5798C79.4342 36.7478 79.0396 37.7936 79.5964 38.2055C79.445 38.2651 79.1856 38.2976 79.1693 38.3897C79.0937 38.7148 79.3369 38.769 79.5964 38.7474L79.6072 38.7365ZM30.4129 198.59C30.4723 198.742 30.5048 199.002 30.5967 199.019C30.921 199.094 30.9751 198.851 30.9535 198.59C31.986 199.013 32.6239 199.923 33.2888 200.72C34.0457 201.636 35.2134 201.89 35.9756 202.779C37.5163 204.578 39.4679 205.884 41.4248 207.185C43.8846 208.821 46.3064 210.506 48.8743 211.98C51.3502 213.395 54.1992 213.909 56.6535 215.362C57.1346 215.649 57.8536 215.232 58.4537 215.567C59.0213 215.887 58.8969 216.63 59.3997 216.96C59.816 216.283 60.4917 216.527 61.0864 216.467C61.508 216.424 61.681 216.798 61.9783 216.928C64.2435 217.919 66.6221 218.461 69.0872 218.64C69.6224 218.678 70.3738 218.423 70.6603 218.694C71.6929 219.669 73.0606 218.694 73.9256 219.285C75.0608 220.054 76.1636 219.659 77.261 219.702C79.5964 219.794 81.9318 219.74 84.2672 219.729C86.2512 219.718 88.2784 219.984 90.0678 218.754C90.257 218.624 90.5759 218.64 90.83 218.656C93.6357 218.862 96.1873 217.762 98.766 216.96C99.5336 216.722 100.096 216.185 100.82 216.89C100.961 217.025 101.199 216.993 101.182 216.787C101.101 215.719 101.907 216.126 102.415 215.92C104.88 214.923 107.416 214.121 109.751 212.771C110.438 212.376 110.848 211.368 111.962 211.585C113.124 211.818 112.74 210.154 114.162 210.3C114.076 210.197 114.011 210.046 113.903 209.992C113.676 209.883 113.562 209.992 113.676 210.219C113.73 210.328 113.876 210.398 113.989 210.463C114.011 210.474 114.097 210.36 113.665 209.981C113.762 209.401 114.189 209.125 114.67 208.897C115.27 208.61 115.979 208.426 116.427 207.981C118.103 206.345 120.325 205.386 121.795 203.489C122.714 202.302 124.12 201.544 124.828 200.146C125.423 198.975 126.023 197.881 127.228 197.111C128.034 196.596 129.104 195.924 128.807 194.575C129.985 193.388 129.829 191.324 132.007 190.787C131.921 190.684 131.856 190.533 131.748 190.479C131.521 190.37 131.407 190.479 131.521 190.706C131.575 190.814 131.721 190.885 131.834 190.95C131.856 190.961 131.942 190.847 131.51 190.468C132.083 189.08 132.656 187.693 133.224 186.312C134.267 186.192 134.645 185.244 134.678 184.556C134.721 183.645 135.224 182.941 135.386 182.096C135.792 179.982 136.229 177.82 137.408 175.907C137.635 175.539 138.181 175.165 138.003 174.536C137.624 173.187 138.619 172.011 138.527 170.705C138.473 169.968 139.235 169.546 139.1 168.76C138.83 167.162 139.522 165.715 140.203 164.36C140.754 163.255 140.738 162.323 140.441 161.163C139.938 159.201 139.987 157.186 140.468 155.181C140.733 154.081 141.938 152.916 140.311 151.783C139.997 151.566 140.17 150.607 140.16 149.995C140.127 148.071 140.424 146.082 139.57 144.289C139.251 143.622 138.965 143.015 139.095 142.327C139.349 140.956 138.711 139.77 138.3 138.583C138.121 138.068 138.094 137.586 137.986 137.093C137.867 136.562 138.473 136.312 138.451 135.982C138.424 135.554 137.657 135.922 137.44 135.386C137.084 134.508 136.959 133.592 136.792 132.671C136.532 131.273 135.5 130.14 135.608 128.201C135.505 128.287 135.354 128.352 135.3 128.461C135.191 128.688 135.3 128.802 135.527 128.688C135.635 128.634 135.705 128.488 135.77 128.374C135.781 128.352 135.667 128.266 135.289 128.699C134.245 128.444 134.954 127.604 135.062 126.575C134.959 126.662 134.808 126.727 134.754 126.835C134.645 127.063 134.754 127.176 134.981 127.063C135.089 127.008 135.159 126.862 135.224 126.748C135.235 126.727 135.121 126.64 134.743 127.073C133.899 126.055 133.856 124.613 133.083 123.627C131.861 122.077 131.153 120.305 130.277 118.593C130.088 118.225 130.018 117.753 129.737 117.477C127.785 115.521 126.634 113.001 125.326 110.319C125.223 110.405 125.071 110.47 125.017 110.579C124.909 110.806 125.017 110.92 125.244 110.806C125.353 110.752 125.423 110.606 125.488 110.492C125.499 110.47 125.385 110.384 125.007 110.817C124.666 110.904 124.504 110.633 124.369 110.432C122.255 107.36 119.898 104.499 117.368 101.757C116.46 100.771 115.2 100.337 114.308 99.3347C113.297 98.1913 112.081 97.2322 111.265 95.6933C111.162 95.78 111.011 95.845 110.956 95.9534C110.848 96.181 110.956 96.2948 111.184 96.181C111.292 96.1268 111.362 95.9805 111.427 95.8667C111.438 95.845 111.324 95.7583 110.946 96.1918C109.351 95.211 107.897 94.0026 106.421 92.8755C103.712 90.8164 100.631 89.3587 97.9551 87.2671C97.4469 86.8715 96.7766 86.6385 96.1495 86.4488C94.9332 86.0804 93.8682 85.4572 92.7816 84.8232C91.6788 84.1838 90.3381 84.0267 89.6353 82.6828C89.5326 82.7695 89.3812 82.8345 89.3272 82.9429C89.219 83.1705 89.3272 83.2843 89.5542 83.1705C89.6623 83.1163 89.7326 82.97 89.7975 82.8562C89.8083 82.8345 89.6948 82.7478 89.3164 83.1813C88.3054 83.3656 87.3972 82.9483 86.6945 82.3848C85.77 81.6424 84.7105 82.3848 83.6833 81.7616C82.867 81.2685 81.6615 81.0409 80.5154 80.9325C78.499 80.7429 76.5637 79.8867 74.4824 79.9246C73.239 78.8246 71.7578 79.5236 70.39 79.4099C68.9629 79.2906 67.3897 79.0251 66.1139 79.4803C64.6975 79.9842 63.3569 79.9355 61.9892 79.8921C60.4809 79.8379 59.151 80.8242 57.6265 80.4773C56.9832 80.331 56.5021 80.7537 55.9453 80.965C55.3344 81.1981 54.6965 81.4582 54.0532 81.6424C52.2043 82.1572 50.1555 81.9621 48.4796 83.1542C48.1823 83.3656 47.6039 83.1867 46.9119 83.1867H47.1552C47.1065 83.0459 47.0795 82.8941 46.9984 82.7695C46.9065 82.6286 46.7443 82.6611 46.6794 82.8725C46.6578 82.9483 46.8308 83.0838 47.1552 83.1867C47.0957 83.3385 47.0525 83.6094 46.966 83.6257C44.4738 84.0483 42.4249 85.5439 39.8841 86.438H40.1274C40.0788 86.2971 40.0517 86.1454 39.9706 86.0208C39.8787 85.8799 39.7165 85.9124 39.6517 86.1237C39.63 86.1996 39.803 86.335 40.1274 86.438C39.4625 87.37 38.284 87.4513 37.1811 88.0636H37.4244C37.3758 87.9227 37.3487 87.771 37.2676 87.6464C37.1757 87.5055 37.0136 87.538 36.9487 87.7494C36.9271 87.8252 37.1001 87.9607 37.4244 88.0636C36.5541 89.0444 35.3161 89.5646 34.2673 90.2637C33.0564 91.0711 32.2401 92.312 30.4561 92.9351C30.575 92.8159 31.0021 93.2007 30.9156 92.6913C30.8994 92.5775 30.6778 92.4095 30.5588 92.4149C30.3372 92.4258 30.1155 92.545 29.8939 92.6208C29.9804 92.8755 30.1642 92.9785 30.9264 92.9405C30.6075 93.7046 30.0669 94.2465 29.0614 94.5662H29.3046C29.256 94.4253 29.229 94.2736 29.1479 94.1489C29.056 94.008 28.8938 94.0406 28.8289 94.2519C28.8073 94.3277 28.9803 94.4632 29.3046 94.5662C28.0667 95.4928 26.9855 96.5765 26.0611 97.8174C26.0016 97.6657 25.9692 97.4056 25.8773 97.3894C25.5529 97.3135 25.4988 97.5573 25.5205 97.8174C25.3691 97.877 25.1096 97.9096 25.0934 98.0017C25.0177 98.3268 25.261 98.381 25.5205 98.3593C25.3907 98.95 25.0285 99.313 24.196 99.4431H24.4393C24.3906 99.3022 24.3636 99.1505 24.2825 99.0258C24.1906 98.8849 24.0284 98.9174 23.9635 99.1288C23.9419 99.2047 24.1149 99.3401 24.4393 99.4431C23.5473 100.608 22.7364 101.838 21.7525 102.911C20.4605 104.32 19.3739 105.848 18.3035 107.425C17.6331 108.411 16.8222 109.316 16.3519 110.411C15.86 111.565 15.8924 112.963 14.7247 113.787C14.8383 115.168 13.8273 116.117 13.3732 117.282C13.011 118.208 12.1136 119.064 12.1028 119.959C12.0866 120.983 11.7352 121.904 11.3784 122.663C10.9243 123.627 11.1406 124.667 10.5892 125.594C10.1351 126.358 10.2864 127.502 9.79448 128.217C9.11333 129.208 9.56203 130.281 9.19983 131.23C8.64301 132.676 8.0916 134.134 8.24837 135.684C8.41596 137.299 7.50775 138.702 7.6375 140.333C7.8159 142.663 7.65912 145.015 7.69696 147.356C7.70778 148.115 7.35639 148.998 8.22134 149.567C8.19972 151.669 9.55121 153.755 8.25378 155.89C8.10241 156.14 7.99429 156.844 8.71869 156.877C9.03224 156.888 9.34579 157.045 9.28092 157.261C8.97818 158.302 9.70258 159.093 9.86476 160.014C10.1675 161.764 10.4 163.563 11.0108 165.216C11.2595 165.888 11.4433 166.495 11.4703 167.427C11.4703 167.346 11.4703 167.264 11.4703 167.183C11.3298 167.232 11.1784 167.259 11.0541 167.34C10.9135 167.432 10.946 167.595 11.1568 167.66C11.2325 167.682 11.3676 167.508 11.4703 167.183C11.9785 167.145 12.0163 167.487 12.0109 167.855C11.9947 168.738 12.3407 169.421 14.2004 171.898C14.276 171.139 13.5354 170.63 13.3516 169.893C13.3516 169.871 13.1083 169.882 13.1029 169.893C12.9948 170.695 13.1894 171.421 13.6219 172.103C13.7354 172.288 13.6489 172.662 14.0328 172.45C14.1355 172.396 14.1301 172.141 13.0975 169.893C13.3732 168.289 12.2326 166.858 12.5245 165.254C10.8432 163.726 11.7839 161.472 11.027 159.646C10.7351 158.952 10.254 158.172 10.3351 157.196C10.454 155.842 10.5351 154.465 9.93504 153.056C9.51337 152.065 9.78367 150.737 9.87557 149.572C9.96747 148.407 9.12955 147.486 9.27551 146.272C9.57824 143.747 9.37822 141.2 9.7242 138.632C10.1242 135.635 9.9891 132.563 10.9351 129.62C11.4487 128.027 11.9136 126.418 12.4002 124.814C12.9083 123.134 13.5354 121.443 14.276 119.915C15.5194 117.363 16.7033 114.762 18.244 112.329C19.7847 109.901 21.6011 107.647 22.9094 105.073C23.0445 104.802 23.6878 104.829 24.4122 104.564C24.915 104.38 24.969 104.656 25.1961 104.813C25.6718 105.127 25.3691 105.355 25.1042 105.577C24.4176 106.141 24.0825 106.97 23.5473 107.631C21.0822 110.687 19.3847 114.198 17.3791 117.531C16.1141 119.633 15.5086 121.996 14.2923 124.126C13.4489 125.61 13.4868 127.567 12.8435 129.203C11.5028 132.622 11.1027 136.22 11.0108 139.786C10.9081 143.671 10.3945 147.621 11.4757 151.474C11.0811 153.615 12.3515 155.614 12.0163 157.749C12.8218 158.925 12.2542 160.35 12.6542 161.548C13.2651 163.379 13.8273 165.216 14.3896 167.059C15.8708 171.935 17.7359 176.671 20.228 181.153C21.8768 184.111 23.9203 186.745 26.1584 189.254C26.9044 190.094 27.6828 190.896 28.3586 191.828C29.429 193.296 30.6994 194.673 31.9319 196.044C32.5915 196.775 33.6294 197.057 34.2295 198.027C34.7809 198.921 35.8891 199.447 36.5865 200.27C37.6839 201.576 39.1003 202.579 40.4464 203.424C45.1387 206.35 49.6041 209.688 54.8587 211.666C56.8859 212.43 58.724 213.714 60.9837 213.844C61.5675 214.901 62.9622 213.785 63.5623 214.803C65.5139 215.291 67.4222 216.326 69.3467 216.391C71.8172 216.478 74.1904 217.274 76.688 217.079C78.8342 216.917 81.0074 216.993 83.1698 217.058C85.6187 217.133 87.9108 216.397 90.23 215.8C90.5976 215.708 90.9598 215.437 91.4139 215.399C92.0031 215.356 92.6518 215.687 93.1762 215.091C93.6519 214.554 94.6737 215.253 95.0197 214.332C97.7497 213.806 100.031 211.98 102.82 211.639C103.139 211.601 103.291 211.433 103.475 211.254C105.21 209.574 107.47 208.68 109.405 207.293C112.054 205.396 114.789 203.603 116.833 200.996C115.86 200.021 114.989 199.111 114.07 198.244C113.53 197.734 113.411 197.057 113.827 196.613C114.346 196.06 114.719 196.781 115.097 197.095C116.114 197.935 116.768 199.192 118.071 199.707C119.044 198.791 120.017 197.875 120.985 196.954C121.049 196.894 121.114 196.824 121.282 196.656C120.379 195.8 119.46 194.954 118.595 194.066C118.482 193.952 118.568 193.578 118.655 193.356C118.692 193.258 118.952 193.248 119.114 193.204C120.12 192.928 120.412 193.968 121.087 194.304C122.087 194.803 122.109 194.684 123.109 193.789C125.153 191.958 126.007 189.335 127.693 187.276C128.169 186.691 128.299 186.127 127.477 185.64C127.11 185.423 126.882 185.081 126.363 185.016C126.055 184.978 125.715 184.437 125.563 184.052C125.45 183.77 125.515 183.299 125.693 183.055C125.926 182.741 126.309 182.843 126.591 183.147C126.839 183.412 127.066 183.71 127.358 183.906C128.283 184.523 129.137 184.42 129.564 183.396C129.942 182.486 130.429 181.565 130.429 180.492C130.429 180.15 131.472 179.652 130.218 179.663C129.364 179.668 128.931 179.262 128.769 178.46C128.634 177.788 128.937 177.495 129.58 177.463C130.315 177.43 130.753 178.303 131.515 178.021C132.607 177.625 131.569 176.536 132.159 175.989C132.44 175.729 132.434 175.236 132.586 175.105C133.407 174.401 132.699 174.065 132.294 173.745C132.072 173.567 131.634 173.745 131.461 173.312C131.213 172.7 131.618 172.033 132.283 172.071C132.537 172.087 132.807 171.973 133.024 172.255C133.278 172.591 133.683 172.732 133.607 172.141C133.489 171.204 134.056 170.494 134.186 169.654C134.31 168.814 133.667 167.801 133.948 167.313C134.354 166.598 134.754 165.818 135.256 165.13C135.3 165.07 135.267 164.951 135.256 164.864C135.116 161.851 136.154 158.909 135.813 155.88C135.743 155.24 135.813 154.785 134.937 154.585C134.543 154.498 134.381 153.485 135.132 153.132C135.446 152.986 135.721 153.024 135.813 152.542C136.132 150.916 135.143 149.485 135.186 147.909C135.186 147.838 134.916 147.724 134.754 147.692C133.899 147.535 133.981 147.009 134.462 146.624C135.116 146.104 135.137 145.714 134.743 144.977C133.964 143.536 134.132 141.845 133.683 140.279C132.878 137.456 132.013 134.654 130.905 131.95C129.953 129.637 128.872 127.361 127.639 125.188C125.645 121.655 123.806 118.051 121.287 114.789C119.211 112.101 117.179 109.343 114.789 106.997C112.108 104.363 109.356 101.735 106.351 99.4268C105.302 98.6194 104.388 97.7145 102.95 97.8283C102.301 97.8825 102.237 97.4869 102.274 96.9884C102.302 96.6361 102.258 96.4031 101.837 96.1756C100.869 95.6499 99.9715 94.9943 99.0796 94.344C98.366 93.8238 97.9767 93.7913 97.9281 94.8371C97.9173 95.0918 97.5388 95.1785 97.2685 95.1189C96.9874 95.0593 96.7982 94.8696 96.8739 94.5553C97.2199 93.0923 96.263 92.545 95.1656 92.0519C94.4034 91.7105 93.6736 91.3041 92.9384 90.9085C92.5762 90.7134 92.3059 90.773 92.0085 91.0548C91.2409 91.7863 90.7327 91.8568 90.5543 91.1903C89.9597 88.9523 87.7919 89.5809 86.435 88.7572C86.1106 88.5622 86.0349 88.909 86.062 89.1637C86.1106 89.6188 85.6727 89.7272 85.4889 90.009C85.3159 90.2745 85.0294 90.3016 84.7807 90.2366C84.505 90.1661 84.4023 89.9223 84.4348 89.6243C84.5429 88.6435 84.4618 87.8144 83.1103 88.0853C82.5319 87.1045 81.7426 87.0774 80.8019 87.5218C80.6452 87.5976 80.3532 87.3321 80.11 87.2779C77.9962 86.8119 75.8933 86.2809 73.6931 86.4488C73.2444 86.4814 73.066 86.6548 73.0822 87.0883C73.093 87.4513 73.1038 87.809 73.0822 88.172C73.066 88.47 72.9038 88.6218 72.5741 88.638C72.2443 88.6543 72.0767 88.5026 72.0118 88.2208C71.8767 87.641 72.3578 86.8769 71.7037 86.4759C70.536 85.7661 69.1629 85.6523 67.9195 86.0153C66.8762 86.3188 67.1573 87.4784 67.1411 88.3508C67.1411 88.443 67.1356 88.5297 67.1411 88.6218C67.1789 89.1582 66.8113 89.1691 66.4437 89.1637C66.0274 89.1528 65.503 89.2991 65.5139 88.5838C65.5247 88.1341 65.4868 87.6789 65.5247 87.2291C65.5679 86.6602 65.3625 86.4001 64.7786 86.4543C64.4218 86.4868 64.0597 86.438 63.6974 86.4651C62.546 86.5464 61.3837 86.2754 60.243 86.6006C60.2971 87.6897 60.6647 88.6814 61.1891 89.6188C61.2269 89.6893 61.1891 89.7977 61.1891 89.8844C61.1891 90.2257 61.2864 90.6972 60.8485 90.7622C60.4485 90.8218 59.8106 91.0277 59.643 90.54C59.497 90.1119 59.0375 89.6405 59.0862 89.4508C59.3132 88.5405 58.7564 87.809 58.3888 87.2833C57.7076 86.2917 56.8913 87.5597 56.075 87.5489C53.7342 87.5109 51.5827 88.7193 49.2257 88.6272C48.7824 89.4888 47.4903 88.6868 47.1281 89.711C45.5496 89.9981 44.2251 90.9844 42.6682 91.3474C41.9708 91.51 42.4952 91.7755 42.6682 92.0139C43.4899 93.1952 44.463 94.2898 44.9495 95.6716C45.0468 95.948 45.1712 96.4465 44.7819 96.6524C44.3981 96.8583 43.6575 96.9179 43.5656 96.6416C43.1493 95.3356 41.7384 94.6095 41.6951 93.0652C41.6627 91.8134 41.5384 91.8405 40.2734 92.4149C37.2082 93.813 34.5592 95.8504 32.0887 98.0721C29.8885 100.05 27.8937 102.261 25.8016 104.38C25.2664 103.773 25.3475 102.96 25.5799 102.559C25.9151 101.984 26.0448 101.296 26.5854 100.787C28.3586 99.1179 29.948 97.2485 31.8022 95.6824C32.8672 94.7829 33.9862 93.645 35.4783 93.5583C36.3865 93.5041 37.0136 93.2223 37.5163 92.5721C38.1813 91.7159 39.084 91.0765 40.0463 90.8706C40.8248 90.7026 41.4735 90.3449 42.16 90.0632C43.398 89.5592 44.836 89.3912 45.701 88.172C47.4579 88.275 48.9013 87.1154 50.6204 86.9745C51.9719 86.8661 53.3828 86.7144 54.6208 86.2158C57.2373 85.1592 60.0214 84.9749 62.6973 84.9316C67.66 84.8557 72.6605 84.2976 77.6124 85.3488C78.6882 85.5764 79.8505 85.2784 80.9047 85.907C81.9048 86.5085 83.0454 86.4705 84.1861 86.4814C85.4619 86.4976 86.6782 86.9203 87.8351 87.4405C89.0731 87.9986 90.1543 88.9957 91.668 88.6272C92.2464 89.505 93.6411 88.8223 94.106 89.9169C95.8197 90.139 96.8631 91.8243 98.6903 91.9706C99.2363 92.0139 100.004 92.6588 100.631 93.1194C102.134 94.214 103.264 95.7908 104.815 96.7012C108.535 98.8795 111.594 101.822 114.762 104.651C116.492 106.195 117.806 108.091 119.352 109.788C121.049 111.646 122.39 113.765 123.888 115.77C124.855 117.06 125.585 118.544 126.634 119.758C127.72 121.01 128.277 122.549 129.002 123.941C130.304 126.445 131.786 128.867 132.618 131.647C133.337 134.047 134.062 136.475 134.905 138.816C136.283 142.631 137.002 146.581 137.289 150.51C137.635 155.181 137.889 159.96 136.846 164.626C136.559 165.904 136.64 167.319 136.224 168.43C135.559 170.18 135.316 172.017 134.786 173.778C133.802 177.072 132.932 180.389 131.461 183.51C130.023 186.55 128.385 189.476 126.612 192.332C124.72 195.383 122.201 197.919 119.92 200.633C117.93 203.001 115.665 205.174 113.119 206.99C111.173 208.371 109.286 209.867 107.226 211.048C105.286 212.159 103.204 213.037 101.091 213.839C98.8957 214.668 96.9172 216.12 94.4196 215.996C93.8412 217.079 92.6789 216.359 91.7923 216.868C90.1975 217.789 88.3108 218.19 86.3863 218.158C85.0619 218.136 83.6887 217.887 82.4021 218.309C79.9532 219.117 77.4557 218.445 74.9905 218.678C74.0391 217.61 72.7741 218.103 71.7091 218.196C70.4171 218.315 69.4116 217.399 68.1412 217.562C67.2059 217.681 66.1572 217.849 65.503 216.77C65.2165 216.299 64.6921 216.548 64.2705 216.51C63.6596 216.451 62.9893 216.57 62.4379 216.359C58.9402 215.02 55.4047 213.806 51.9881 212.219C45.5334 209.211 39.7165 205.283 34.3376 200.677C31.0075 197.821 28.4775 194.196 25.3529 191.14C25.1691 190.961 25.0718 190.728 24.9528 190.5C23.7257 188.208 21.8066 186.463 20.1145 184.54C20.1307 184.166 19.9469 183.981 19.5739 183.998C19.4928 183.586 19.8442 182.963 19.0333 182.914C19.1198 182.074 18.8062 181.5 17.9521 181.288C17.871 180.876 18.2224 180.253 17.1736 180.21C17.4115 180.291 17.4872 180.21 17.4169 179.95C17.3574 179.722 17.352 179.473 17.2655 179.256C17.2007 179.088 17.0061 179.126 16.925 179.348C16.806 179.673 16.8277 179.988 17.4115 180.205C17.4926 180.616 17.1412 181.24 17.9521 181.288C17.8656 182.128 18.1791 182.703 19.0333 182.914C19.1144 183.326 18.763 183.949 19.5739 183.998C19.5577 184.372 19.7415 184.556 20.1145 184.54C20.0226 185.623 20.9254 186.312 21.1957 187.493C21.1957 187.412 21.1957 187.33 21.1957 187.249C21.0551 187.298 20.9038 187.325 20.7794 187.406C20.6389 187.498 20.6713 187.661 20.8821 187.726C20.9578 187.747 21.093 187.574 21.1957 187.249C23.7581 190.419 25.9529 193.898 29.1154 196.553C29.2236 196.645 29.2452 196.851 29.3046 197.003C29.1533 197.062 28.8938 197.095 28.8776 197.187C28.8019 197.512 29.0452 197.566 29.3046 197.545C29.2884 197.919 29.4722 198.103 29.8452 198.087C29.829 198.46 30.0128 198.645 30.3858 198.628L30.4129 198.59ZM109.881 56.6185C109.821 56.4668 109.789 56.2066 109.697 56.1904C109.373 56.1145 109.318 56.3584 109.34 56.6185C109 56.6781 108.908 56.4559 108.794 56.1904C108.329 55.1121 107.621 54.115 106.448 53.9524C105.032 53.7574 103.567 53.817 102.134 53.9308C100.62 54.0554 99.3066 53.1288 97.7605 53.3239C96.2522 53.5081 94.6953 53.4756 93.1762 53.3347C91.5652 53.183 90.1543 54.05 88.5325 53.9687C86.8566 53.882 84.9429 53.2697 83.5698 54.982C83.4995 55.0687 83.213 54.9603 83.0454 54.9983C81.4182 55.3884 79.8343 55.9195 78.2503 56.4397C76.6718 56.9599 75.1419 57.6806 73.5255 58.0978C71.0063 58.7535 68.8547 60.2653 66.3734 61.0727C64.7678 61.5929 63.0595 62.2919 61.7026 63.4678C61.4972 63.6466 61.0161 63.8688 61.5297 64.2156C61.7459 64.3619 61.7729 64.6545 62.2973 64.5462C64.2272 64.1452 66.1464 63.6141 68.152 63.6521C69.9522 63.6846 71.7578 63.755 73.5525 63.6304C75.3311 63.5112 76.9367 64.5299 78.7369 64.2156C81.0344 63.8146 83.2292 65.0338 85.5322 64.7466C85.6187 64.7358 85.7376 64.7087 85.7971 64.7466C87.9811 66.2097 90.9057 65.1856 93.0086 66.9087C94.9386 66.3452 96.3333 68.3989 98.2308 67.9925C98.9876 69.1033 100.199 68.3664 101.182 68.6807C102.707 69.1629 104.08 69.9649 105.578 70.4743C106.68 70.8482 107.751 71.3088 108.81 71.7965C110.324 72.4901 112.005 72.9994 113.27 74.0182C114.584 75.0803 116.319 75.3783 117.444 76.9064V76.6625C117.303 76.7113 117.152 76.7384 117.027 76.8197C116.887 76.9118 116.919 77.0744 117.13 77.1394C117.206 77.1611 117.341 76.9877 117.444 76.6625C119.157 77.2694 120.374 78.6133 121.752 79.6808C123.823 81.2793 125.736 83.0784 127.715 84.7907C127.564 84.8503 127.304 84.8828 127.288 84.9749C127.212 85.3001 127.456 85.3543 127.715 85.3326C127.774 85.4843 127.807 85.7444 127.899 85.7607C128.223 85.8365 128.277 85.5927 128.256 85.3326C128.975 86.0533 129.699 86.7794 130.418 87.7439V87.5001C130.277 87.5489 130.126 87.576 130.002 87.6572C129.861 87.7494 129.894 87.9119 130.104 87.9769C130.18 87.9986 130.315 87.8252 130.418 87.5001C131.737 87.9932 131.883 89.4996 132.894 90.3341C134.894 91.9814 136.597 93.9539 137.986 96.414V96.1701C137.846 96.2189 137.694 96.246 137.57 96.3273C137.43 96.4194 137.462 96.582 137.673 96.647C137.748 96.6687 137.884 96.4953 137.986 96.1701C139.224 96.8908 139.543 98.2943 140.36 99.3239C143.192 102.911 145.728 106.677 147.717 111.045V110.801C147.577 110.85 147.425 110.877 147.301 110.958C147.16 111.05 147.193 111.213 147.404 111.278C147.479 111.299 147.614 111.126 147.717 110.801C147.809 110.801 147.96 110.768 147.977 110.801C150.582 115.938 153.026 121.145 154.739 126.662C155.577 129.355 156.642 132.005 156.367 134.914C156.35 135.093 156.291 135.364 156.383 135.44C157.329 136.226 156.696 137.299 156.923 138.204C157.151 139.114 157.621 139.959 157.453 140.962C157.059 143.362 158.01 145.654 158.075 148.039C158.107 149.122 158.805 150.19 158.14 151.317C158.805 152.054 158.659 152.72 157.988 153.371C157.269 154.07 158.632 154.492 158.199 155.446C157.788 156.356 157.367 157.522 157.459 158.643C157.524 159.429 157.059 159.927 156.518 160.052C155.907 160.188 155.669 160.599 155.285 160.941C155.837 161.439 156.502 161.19 157.086 161.163C158.356 161.109 157.518 161.624 157.486 162.122C157.367 163.829 157.453 165.547 157.432 167.259C157.432 167.649 157.642 168.224 156.659 168.229H156.902C156.853 168.088 156.826 167.936 156.745 167.812C156.653 167.671 156.491 167.703 156.426 167.915C156.404 167.991 156.577 168.126 156.902 168.229C156.902 168.858 157.123 169.605 156.864 170.099C155.642 172.429 155.318 175.035 154.512 177.484C153.62 180.183 152.831 182.892 151.507 185.417C151.301 185.813 151.858 186.555 150.717 186.647H150.961C150.912 186.507 150.885 186.355 150.804 186.23C150.712 186.089 150.55 186.122 150.485 186.333C150.463 186.409 150.636 186.545 150.961 186.647C149.798 188.474 149.75 190.928 147.771 192.305C147.679 192.37 147.771 192.651 147.712 192.803C146.544 195.794 145.241 198.71 142.863 200.969C142.43 201.381 142.23 201.788 142.311 202.6V202.356C142.171 202.405 142.019 202.432 141.895 202.514C141.754 202.606 141.787 202.768 141.998 202.833C142.073 202.855 142.208 202.682 142.311 202.356C142.462 202.291 142.657 202.27 142.765 202.156C144.657 200.243 146.728 198.618 149.431 198.005C149.663 197.951 149.831 197.68 150.058 197.572C151.361 196.954 152.301 195.892 153.258 194.879C154.204 193.876 155.686 193.34 155.945 191.703C156.004 191.34 156.491 190.945 156.869 190.76C158.913 189.769 159.589 187.531 161.167 186.089C162.383 184.978 163.2 183.375 164.027 181.895C165.059 180.053 166.989 178.758 167.298 176.487C169.217 174.78 168.838 171.751 170.925 170.142C170.736 168.592 172.125 167.752 172.558 166.49C173.152 164.75 173.493 162.897 174.239 161.233C174.969 159.597 175.017 157.776 175.839 156.216C176.18 155.571 176.407 154.986 176.363 154.259C176.315 153.36 176.444 152.444 176.326 151.555C176.207 150.623 177.223 149.989 176.882 149.074C176.607 148.337 177.59 148.109 177.45 147.394C177.158 145.893 177.834 144.479 177.947 143.015C178.066 141.493 178.05 139.943 177.958 138.415C177.758 135.061 178.272 131.712 177.52 128.331C176.985 125.925 176.904 123.389 176.385 120.939C176.158 119.861 176.471 118.691 175.823 117.645C175.196 116.631 175.163 115.396 174.817 114.285C174.12 112.047 173.422 109.82 172.676 107.593C171.795 104.976 170.898 102.375 169.865 99.817C169.206 98.1859 167.887 96.8854 167.481 95.1189C165.427 92.908 164.654 89.7976 162.324 87.7819C162.146 86.541 161.07 86.6439 160.237 86.4109C159.664 86.2538 159.07 86.5626 158.453 86.1237C157.626 85.5276 156.653 85.0942 155.55 85.3163C155.167 85.3922 154.918 85.0779 154.615 84.9749C153.112 84.4602 151.874 83.4306 150.247 83.0784C148.652 82.7316 147.117 81.9133 145.63 81.2251C142.295 79.6808 138.803 78.3369 135.943 75.9202C135.191 75.2862 134.7 75.5896 134.462 76.1532C133.84 77.6108 132.515 78.4128 131.569 79.5562C131.137 80.0764 130.45 80.0655 130.131 79.8217C129.342 79.2256 128.558 78.7054 127.564 78.8355C126.407 78.9818 126.077 77.8059 125.131 77.497C123.239 76.8739 122.098 75.1128 120.79 73.6985C120.249 73.1132 119.903 72.1758 120.644 71.2113C121.244 70.4309 121.471 69.3743 122.033 68.556C122.46 67.9329 122.277 67.5915 121.822 67.2339C119.822 65.6678 117.817 64.1126 115.811 62.5575C115.962 62.4979 116.222 62.4653 116.238 62.3732C116.314 62.0481 116.071 61.9939 115.811 62.0156C115.752 61.8639 115.719 61.6038 115.627 61.5875C115.303 61.5116 115.249 61.7555 115.27 62.0156C114.411 61.7067 113.946 60.9318 113.346 60.3249C112.865 59.8372 112.016 59.886 111.816 58.8998C111.648 58.087 110.286 58.2387 109.87 57.3988C109.837 57.3283 109.87 57.2254 109.87 57.1387C110.021 57.0791 110.281 57.0466 110.297 56.9544C110.373 56.6293 110.129 56.5751 109.87 56.5968L109.881 56.6185ZM15.2761 175.29C15.3572 175.702 15.0058 176.325 16.2871 177.127C16.4276 176.715 16.2817 176.504 16.06 176.384C15.833 176.26 15.7627 176.368 15.8059 176.628C15.8546 176.921 15.7086 177.289 16.1357 177.392C16.1735 177.403 16.2817 177.138 15.8167 176.373C15.7356 175.962 16.087 175.338 15.0383 175.295C15.2761 175.376 15.3518 175.295 15.2815 175.035C15.2221 174.807 15.2167 174.558 15.1302 174.341C15.0653 174.173 14.8707 174.211 14.7896 174.434C14.6707 174.759 14.6923 175.073 15.2761 175.29ZM79.1748 43.6134C79.0828 43.6134 78.9855 43.5863 78.9044 43.6134C76.8232 44.475 74.6554 45.0711 72.5146 45.7376C72.0172 45.8893 71.5902 46.1115 71.1253 46.2957C69.1142 47.0814 67.06 47.7534 65.0327 48.4957C62.8487 49.2923 60.6755 50.1214 58.5077 50.9504C57.886 51.1889 57.2535 51.4165 56.6913 51.7578C56.1777 52.0667 56.448 52.2835 56.8913 52.2726C57.4157 52.2672 57.2968 52.6899 57.4644 52.95C58.0698 53.882 58.4537 54.8791 58.724 55.952C58.7618 56.1091 59.0483 56.8081 59.297 56.5805C60.1619 55.7894 61.3458 55.8057 62.2595 55.2529C62.9785 54.8194 63.5623 54.1692 64.2975 53.6869C65.076 53.1721 65.9355 52.2672 66.6815 52.3756C67.9357 52.5598 67.5465 50.815 68.5953 51.1184C71.3253 49.4657 74.1202 47.9105 76.7475 46.1115C77.6503 45.4883 78.7855 45.0873 79.4342 44.0794C79.564 43.8735 79.6667 43.8139 79.4126 43.6893C79.3369 43.6513 79.2558 43.6351 59.0645 56.8569V56.6131C58.924 56.6618 58.7726 56.6889 58.6483 56.7702C58.5077 56.8623 58.5401 57.0249 58.751 57.0899C58.8267 57.1116 58.9618 56.9382 79.1802 43.608L79.1748 43.6134ZM31.7914 63.6629H32.0347C31.986 63.522 31.959 63.3703 31.8779 63.2456C31.786 63.1048 31.6238 63.1373 31.5589 63.3486C31.5373 63.4245 31.7103 63.5599 32.0347 63.6629C30.7156 64.7629 29.1965 65.5432 27.4666 66.3723H27.7099C27.6612 66.2314 27.6342 66.0797 27.5531 65.955C27.4612 65.8141 27.299 65.8467 27.2342 66.058C27.2125 66.1339 27.3855 66.2693 27.7099 66.3723C26.1367 67.5807 24.3852 68.5181 22.7472 69.629C22.4012 69.862 22.1039 70.1817 21.7849 70.458C22.3526 71.027 22.6661 70.5014 23.104 70.2196C23.3581 70.0571 23.796 70.1654 24.1527 70.1654C24.9636 70.1654 25.7908 70.2846 26.5746 70.1329C27.3747 69.9758 28.1207 69.5477 28.8992 69.2551C29.1317 69.1684 29.3911 69.0871 29.6398 69.0925C30.8345 69.125 32.0401 69.2605 32.5644 67.7649C32.6996 67.3748 33.1753 67.5373 33.4997 67.4398C34.5322 67.1255 35.7594 66.9792 36.5054 66.3073C37.3812 65.527 39.1165 66.4915 39.3489 64.7466C41.2086 64.6437 42.5709 63.4136 44.144 62.655C44.9495 62.2648 45.8037 61.9885 46.6362 61.6634C46.2307 60.753 45.8361 59.8372 45.4198 58.9269C45.3171 58.6993 45.0577 58.5096 45.036 58.282C44.9712 57.6155 44.5657 57.583 44.1278 57.7944C40.4518 59.5555 36.7919 61.3437 32.8834 63.121H33.1267C33.078 62.9801 33.051 62.8284 32.9699 62.7038C32.878 62.5629 32.7158 62.5954 32.6509 62.8067C32.6293 62.8826 32.8023 63.0181 33.1267 63.121C33.078 63.9338 32.4563 63.5816 31.8022 63.6629H31.7914ZM55.2317 66.1447C55.1452 66.0417 55.0803 65.89 54.9722 65.8358C54.7452 65.7274 54.6316 65.8358 54.7452 66.0634C54.7992 66.1718 54.9452 66.2422 55.0587 66.3073C55.0803 66.3181 55.1668 66.2043 54.7343 65.825C54.6911 65.2939 55.0641 65.2831 55.4317 65.2831C56.5994 65.2831 57.7671 65.2723 58.9348 65.2831C59.5565 65.2885 59.7943 64.8171 60.0971 64.4161C59.7349 64.1885 59.6105 63.6358 59.0645 63.6521C59.3294 62.8826 58.6915 62.3353 58.4645 61.7392C57.5833 59.4092 56.5778 57.1116 55.3993 54.9224C55.0533 54.283 54.6749 53.7736 54.7343 53.0312C54.7668 52.679 54.7776 52.3051 54.2586 52.2726C53.7991 52.2455 53.6586 52.484 53.6477 52.912C53.6423 53.2047 53.4531 53.313 53.1396 53.3726C51.4691 53.6978 50.0582 54.6081 48.604 55.4263C48.2039 55.6539 47.7552 55.8165 47.3065 55.9249C46.62 56.0874 46.4686 56.1904 46.7227 56.4071C47.4633 57.0466 47.9282 57.8702 48.2364 58.7535C48.7067 60.0919 49.7987 61.1106 49.9176 62.6604C50.0257 64.0747 51.3826 65.0826 51.534 66.5782C51.5664 66.8762 51.9449 67.3964 52.4044 67.3097C52.6639 67.261 52.972 66.86 53.0261 66.5782C53.0693 66.3506 52.1233 65.9713 53.1288 65.8412C53.6586 65.7708 54.2046 65.8304 55.2371 66.1447H55.2317ZM151.761 30.6246C151.696 30.6896 151.593 30.7438 151.577 30.8197C151.215 32.3369 149.469 32.8084 148.977 34.0655C148.506 35.2577 147.128 35.7074 146.998 37.0296C145.62 37.2301 145.82 39.3543 144.203 39.3217C143.911 39.3163 143.998 39.6794 144.257 39.8257C146.144 40.9094 148.014 42.0311 149.944 43.0444C150.307 43.2341 150.534 43.6026 151.047 43.6513C152.193 43.7597 150.507 44.3666 151.166 44.6376C151.474 44.7622 151.545 45.5317 152.139 44.9193C152.469 44.5725 152.464 44.1065 152.712 43.8031C153.469 42.8765 153.55 41.5272 154.599 40.7957C154.604 39.2784 155.994 38.6607 156.632 37.5715C157.026 36.8941 158.015 36.1897 157.859 35.767C157.578 35.0138 156.75 34.3581 155.999 33.9246C155.664 33.7296 155.237 33.5507 154.918 33.3123C153.945 32.5699 152.426 32.5158 152.042 31.031C152.004 30.8847 151.858 30.7655 151.766 30.63L151.761 30.6246ZM39.6787 23.6506C38.4299 24.3117 36.6135 24.6098 35.1647 25.9916C34.2457 26.8694 34.4025 27.6334 34.7755 28.3433C35.7107 30.1098 35.7702 32.3424 37.5271 33.6591C38.0515 34.0547 37.9758 34.5641 37.9866 35.0897C37.9866 35.4202 37.8731 35.8483 38.284 35.9729C38.4083 36.0109 38.7273 35.6586 38.83 35.4311C39.1057 34.7862 39.3435 34.4503 40.2355 34.3148C41.6735 34.0926 43.052 33.3773 44.4035 32.7596C45.7875 32.1256 45.6091 32.0877 44.9387 30.7438C43.8954 28.663 42.1168 26.9778 41.7384 24.5339C41.6249 23.7969 40.9383 23.4122 39.6895 23.6561L39.6787 23.6506ZM124.147 68.5994C124.077 68.6698 123.974 68.724 123.958 68.7999C123.693 69.9053 122.72 70.6098 122.358 71.6285C122.206 72.0566 121.958 72.8586 123.082 72.9453C123.558 72.9832 124.012 73.7147 124.417 74.1861C125.563 75.5137 127.099 76.3157 128.569 77.1502C129.066 77.432 129.672 77.9305 130.456 77.7788C131.272 77.6217 130.786 76.6354 131.461 76.4187C131.688 76.3483 131.851 76.0611 132.034 75.866C132.386 75.4921 133.094 74.9231 133.013 74.7605C132.743 74.2349 132.213 73.8231 131.732 73.4329C131.569 73.3029 131.272 73.3679 131.018 73.227C128.72 71.959 126.461 70.6423 124.52 68.8541C124.412 68.7511 124.271 68.6807 124.152 68.5994H124.147ZM142.111 50.6578C140.414 50.6362 139.116 51.2051 138.203 52.3268C137.938 52.6465 137.851 52.9608 138.149 53.248C138.695 53.7736 139.003 54.5648 140.154 53.9741C141.106 53.4918 142.122 54.2613 142.971 54.8574C143.846 55.4751 142.462 55.952 142.825 56.6347C143.057 57.0737 142.63 57.6968 143.041 58.1628C143.219 58.3633 143.403 58.6776 143.614 58.7047C143.879 58.7426 143.922 58.4175 143.933 58.152C143.976 57.2958 143.652 56.353 144.56 55.7027C145.263 55.1988 145.095 54.7111 144.506 54.2017C143.83 53.6219 143.279 53.0367 143.349 51.9638C143.436 50.6795 143.311 50.6741 142.106 50.6578H142.111ZM111.081 51.7416C111.93 51.9096 112.048 51.4544 112.07 50.6903C112.092 49.8558 111.854 49.0376 112.503 48.1598C112.908 47.6125 112.757 46.4637 111.848 45.8134C111.394 45.4883 111.211 45.1523 110.665 45.7593C109.837 46.675 109.427 47.9918 108.07 48.4415C107.626 48.5879 107.518 49.1026 107.935 49.5253C108.502 50.0997 109.124 50.6253 109.627 51.2539C110.032 51.7578 110.513 51.7578 111.075 51.7416H111.081ZM132.591 109.181C133.618 109.181 135.916 108.232 136.581 107.631C137.073 107.181 137.013 106.612 136.824 106.173C136.619 105.691 135.986 105.881 135.608 105.973C135.229 106.065 134.694 106.341 134.527 106.525C133.629 107.501 133.137 106.818 132.607 106.211C132.461 106.038 132.543 105.658 132.386 105.507C132.175 105.301 132.056 104.791 131.651 105.003C131.364 105.154 131.013 105.496 130.986 105.783C130.915 106.547 131.072 107.257 131.402 108.032C131.699 108.725 131.548 109.446 132.58 109.191L132.591 109.181ZM145.338 48.5066C146.166 48.7667 146.803 48.1923 147.393 47.477C147.868 46.8972 147.766 46.4474 147.128 45.9706C146.874 45.7809 146.598 45.8947 146.403 45.7701C145.268 45.0494 143.652 45.6509 142.684 44.3341C142.43 43.9927 142.035 44.7134 141.814 44.9844C141.63 45.212 141.695 45.7051 142.176 45.7701C142.695 45.8405 143.365 45.6455 143.711 45.9056C144.225 46.2957 143.955 47.0706 143.911 47.6558C143.836 48.745 144.571 48.4524 145.338 48.5012V48.5066ZM150.771 150.363C151.128 150.363 151.49 150.363 151.847 150.363C152.112 150.363 152.469 150.407 152.518 150.114C152.545 149.957 152.215 149.74 152.042 149.551C151.982 149.486 151.923 149.415 151.853 149.361C151.339 148.987 151.496 148.234 150.917 147.844C150.334 147.448 149.442 148.017 149.02 147.134C148.95 146.987 148.301 147.042 148.268 147.551C148.231 148.087 148.231 148.629 148.268 149.171C148.317 149.876 148.728 150.293 149.425 150.363C149.869 150.407 150.323 150.374 150.771 150.374V150.363ZM150.68 57.7022C151.134 57.7022 151.582 57.7402 152.02 57.6914C152.615 57.6264 153.242 56.9165 153.118 56.4668C152.95 55.8382 152.415 56.1362 152.026 56.0766C151.447 55.9899 150.858 56.2283 150.296 55.7244C149.734 55.2204 148.944 55.6323 148.263 55.5347C147.76 55.4643 147.712 55.8328 147.717 56.2067C147.717 56.548 147.706 57.182 147.977 57.1116C149.025 56.8244 149.674 58.1032 150.68 57.7022ZM39.7976 56.6185C40.8518 56.5155 41.9492 55.719 43.0682 55.0145C43.5007 54.7436 43.3061 54.6244 42.879 54.4239C41.0248 53.5515 40.5166 53.6598 38.9002 55.4101C38.6408 55.6865 38.3921 55.9628 38.538 56.3204C38.7002 56.716 39.1219 56.6131 39.7976 56.6185ZM162.594 64.7466C163.232 64.7087 164.065 65.0447 163.957 63.8038C163.854 62.6062 163.492 62.0373 162.578 62.0373C161.675 62.0373 161.313 62.6225 161.216 63.8255C161.118 65.088 161.973 64.6925 162.594 64.7466ZM147.187 127.604C146.679 127.669 145.76 127.436 145.744 127.772C145.701 128.564 146.517 127.93 146.885 128.152C147.366 128.439 147.122 128.932 147.182 129.338C147.236 129.723 146.976 130.287 147.69 130.308C148.112 130.319 148.501 130.346 148.896 129.994C149.366 129.566 149.452 129.073 149.317 128.58C149.182 128.098 148.836 127.659 148.247 127.61C147.895 127.577 147.539 127.604 147.187 127.604ZM67.1897 44.1607C68.3087 44.307 68.6115 43.5213 68.9683 42.676C69.1359 42.2804 69.6116 41.9499 69.1413 41.5705C68.8115 41.305 68.1952 41.2833 67.9141 41.5705C67.3897 42.1124 66.5032 42.4484 66.6275 43.4617C66.6707 43.8247 66.6491 44.1986 67.1897 44.1607ZM123.396 236.587C123.396 236.473 123.423 236.37 123.396 236.294C123.217 235.839 121.498 234.804 121.049 234.907C120.914 234.94 120.752 235.108 120.709 235.243C120.471 236.029 121.547 237.616 122.352 237.579C122.887 237.551 123.223 237.08 123.401 236.587H123.396ZM138.586 43.6297C138.905 43.4563 139.246 43.1853 139.624 43.0986C139.927 43.0336 140.111 42.9252 140.143 42.6543C140.181 42.2912 140.111 41.9499 139.614 41.9878C139.073 42.0311 138.884 41.2183 138.257 41.4405C138.03 41.5218 137.64 41.3213 137.565 41.6301C137.467 42.0257 137.392 42.5297 137.565 42.8548C137.738 43.1799 138.013 43.6188 138.592 43.6297H138.586ZM142.003 128.688C142.717 128.748 143.322 128.336 143.225 127.789C143.127 127.241 142.452 126.96 141.743 127.052C141.041 127.144 141.273 127.637 141.23 128.022C141.165 128.629 141.516 128.764 141.998 128.688H142.003ZM128.531 209.428C127.72 209.428 127.304 209.433 126.888 209.428C126.542 209.423 126.136 209.368 126.115 209.851C126.099 210.257 125.909 210.788 126.38 211.032C126.699 211.2 127.023 210.994 127.277 210.696C127.58 210.338 127.931 210.024 128.531 209.428ZM122.828 242.488C123.385 242.418 124.05 241.675 123.925 241.236C123.752 240.629 123.212 240.846 122.833 240.873C121.963 240.933 122.385 241.648 122.331 242.082C122.304 242.331 122.531 242.548 122.828 242.488ZM114.589 91.2987C113.973 91.4883 114.227 92.0031 114.211 92.3878C114.184 93.1085 114.757 92.8918 115.146 92.9189C115.508 92.9405 115.87 92.908 115.822 92.3878C115.768 91.8622 115.049 91.2336 114.589 91.2987ZM152.296 146.581C152.766 146.624 153.253 146.586 153.139 145.774C153.091 145.438 153.204 145.048 152.739 144.955C152.285 144.863 151.561 145.514 151.512 146.039C151.458 146.559 151.831 146.565 152.301 146.581H152.296ZM65.0111 72.9886C65.0057 72.631 64.9624 72.3275 64.4597 72.3221C64.1245 72.3221 63.9677 72.4792 63.9353 72.7502C63.8921 73.1187 63.9732 73.4221 64.4705 73.4275C64.8057 73.4275 64.9246 73.265 65.0057 72.9886H65.0111ZM72.0389 34.3744C72.1037 34.0601 71.8875 33.8975 71.6226 33.8705C71.255 33.8271 70.9523 33.9084 70.9469 34.4069C70.9469 34.7429 71.1036 34.9 71.3739 34.9325C71.7469 34.9759 72.0713 34.8892 72.0389 34.3744ZM120.757 213.758C121.033 213.682 121.487 213.969 121.666 213.568C121.785 213.297 121.471 213.183 121.212 213.227C120.887 213.281 120.433 213.021 120.255 213.422C120.136 213.693 120.444 213.79 120.757 213.763V213.758ZM44.9712 37.4739C45.0252 37.6365 45.0847 38.0592 45.1874 38.07C45.755 38.1242 45.5172 37.6528 45.5388 37.3818C45.5604 37.138 45.6739 36.7316 45.3712 36.6882C44.809 36.6124 45.0847 37.1163 44.9766 37.4739H44.9712ZM116.908 94.0135C117.065 93.9484 117.211 93.8888 117.357 93.8238C117.108 93.5312 116.86 93.2386 116.611 92.946C116.53 93.0869 116.389 93.2169 116.373 93.3632C116.33 93.7425 116.444 94.0406 116.908 94.0135ZM143.933 130.791C143.857 130.514 144.144 130.059 143.744 129.88C143.473 129.761 143.36 130.075 143.403 130.336C143.457 130.661 143.198 131.116 143.598 131.295C143.868 131.414 143.965 131.105 143.938 130.791H143.933ZM56.7237 37.1488C56.8859 37.0946 57.3076 37.035 57.3184 36.9321C57.3725 36.3631 56.9021 36.6015 56.6318 36.5798C56.3886 36.5582 55.9831 36.4444 55.9399 36.7478C55.8642 37.3114 56.3669 37.035 56.7237 37.1434V37.1488ZM40.6788 49.2977C40.7437 49.5632 40.495 50.0618 41.0356 50.0076C41.3492 49.9751 41.2302 49.5632 41.214 49.3194C41.1978 49.043 41.4032 48.5499 40.8734 48.6041C40.5599 48.6366 40.7167 49.0485 40.6788 49.2977ZM44.4468 39.3272C44.4684 38.7961 44.5387 38.4385 44.1927 38.1946C44.1008 38.4222 43.9602 38.6444 43.9332 38.8774C43.8954 39.2079 43.8413 39.5818 44.1927 39.8203C44.3008 39.6035 44.4143 39.3868 44.4468 39.3272ZM57.2211 73.8827C57.0805 74.094 56.9075 74.2403 56.9184 74.365C56.9454 74.598 57.0805 74.8147 57.1724 75.0423C57.2643 74.9069 57.4319 74.766 57.4265 74.6305C57.4211 74.3975 57.3076 74.1699 57.2211 73.8827ZM161.281 65.7654C161.146 65.5649 161.059 65.4294 160.967 65.2885C160.875 65.5107 160.74 65.7329 160.713 65.9659C160.697 66.0905 160.875 66.2368 160.967 66.3723C161.075 66.1609 161.189 65.9442 161.281 65.7654ZM139.619 125.979C139.765 125.919 140.03 125.876 140.046 125.789C140.1 125.469 139.862 125.399 139.603 125.442C139.446 125.469 139.192 125.54 139.176 125.627C139.122 125.946 139.354 126.001 139.619 125.979ZM23.3851 63.1102C23.3256 62.9639 23.2824 62.6983 23.1959 62.6821C22.8769 62.6279 22.8067 62.8663 22.8499 63.1264C22.8769 63.2836 22.9472 63.5383 23.0337 63.5545C23.3527 63.6087 23.4067 63.3757 23.3851 63.1102ZM14.5409 173.203C14.4274 173.268 14.3085 173.334 14.1949 173.399C14.2544 173.458 14.3301 173.577 14.3733 173.567C14.5031 173.539 14.6166 173.458 14.7355 173.399C14.6761 173.339 14.6166 173.279 14.5409 173.203ZM76.2826 64.9417C76.2123 64.8713 76.1528 64.8117 76.0879 64.7466C76.0285 64.8659 75.9474 64.9851 75.9203 65.1097C75.9095 65.1531 76.0285 65.2289 76.0879 65.2885C76.1528 65.1693 76.2177 65.0555 76.2826 64.9417ZM16.8168 178.194C16.7466 178.124 16.6871 178.064 16.6222 177.999C16.5628 178.118 16.4817 178.238 16.4546 178.362C16.4438 178.406 16.5628 178.481 16.6222 178.541C16.6871 178.422 16.752 178.308 16.8168 178.194ZM149.961 182.144C150.031 182.215 150.09 182.275 150.155 182.34C150.215 182.22 150.296 182.101 150.323 181.976C150.334 181.933 150.215 181.857 150.155 181.798C150.09 181.917 150.025 182.031 149.961 182.144ZM105.826 51.7416C105.767 51.8012 105.648 51.8771 105.659 51.9204C105.686 52.0505 105.767 52.1642 105.826 52.2835C105.886 52.2239 106.005 52.148 105.994 52.1046C105.967 51.9746 105.886 51.8608 105.826 51.7416ZM80.6073 43.2666C80.5371 43.1962 80.4776 43.1366 80.4127 43.0715C80.3533 43.1908 80.2722 43.31 80.2451 43.4346C80.2343 43.4779 80.3533 43.5538 80.4127 43.6134C80.4776 43.4942 80.5425 43.3804 80.6073 43.2666ZM159.075 33.5887C159.016 33.5291 158.94 33.4099 158.897 33.4207C158.767 33.4478 158.653 33.5291 158.534 33.5887C158.594 33.6483 158.67 33.7675 158.713 33.7567C158.843 33.7296 158.956 33.6483 159.075 33.5887ZM127.639 237.416C127.574 237.302 127.51 237.183 127.445 237.069C127.385 237.129 127.266 237.205 127.277 237.248C127.304 237.378 127.385 237.492 127.445 237.611C127.504 237.551 127.564 237.492 127.639 237.416Z" fill="#E33137"/>
<path d="M140.711 12.1899C140.554 12.1303 140.273 12.0761 140.273 12.0165C140.257 11.5451 140.749 11.4259 140.965 11.1062C141.052 11.2416 141.203 11.3717 141.219 11.518C141.257 11.8756 141.197 12.217 140.711 12.1899Z" fill="#E33137"/>
<path d="M30.7102 207.26C30.6291 207.152 30.4561 207.017 30.4777 206.946C30.5426 206.735 30.7048 206.702 30.7967 206.843C30.8724 206.968 30.9048 207.12 30.9535 207.26C30.8724 207.26 30.7913 207.26 30.7102 207.26Z" fill="#E33137"/>
<path d="M123.936 218.098C123.958 218.364 123.904 218.602 123.579 218.526C123.493 218.504 123.455 218.244 123.396 218.098H123.936Z" fill="#E33137"/>
<path d="M125.558 244.108C125.574 244.482 125.39 244.666 125.017 244.65V244.108H125.558Z" fill="#E33137"/>
<path d="M83.0076 157.7C82.121 157.337 80.7587 157.484 80.6668 156.075C80.6452 155.771 80.3695 155.945 80.1262 156.042C79.4775 156.302 79.6505 157.018 79.1585 157.451C76.8394 159.521 74.0877 158.995 71.4172 159.001C71.1469 159.001 70.9036 158.491 70.5955 158.41C69.1845 158.042 68.6439 156.459 67.2384 156.064C66.8762 155.961 66.5518 155.538 66.6221 154.986C66.6545 154.731 66.8545 154.238 66.2761 154.281C66.195 154.287 66.2274 154.834 66.0707 154.964C65.476 155.462 64.5192 155.078 63.984 155.777C62.1297 155.609 60.5512 156.687 58.7996 157.028C57.2697 157.332 55.5777 157.836 54.1505 158.779C53.2153 159.396 52.0043 158.892 50.9394 159.516C49.5879 160.307 47.8039 160.02 46.4362 161.049C46.0253 161.358 45.236 161.174 44.6198 161.185C44.09 161.195 43.6521 161.239 43.171 161.634C42.16 162.458 39.8895 162.23 38.9651 161.353C38.311 160.735 38.2623 159.684 39.0678 159.353C41.3059 158.432 42.9493 156.216 45.6415 156.313C47.1876 154.774 49.7176 155.782 51.2313 154.151C53.8532 154.287 55.9993 152.217 58.6591 152.52C60.043 151.696 61.6648 151.518 63.1136 150.884C63.3461 150.781 63.4812 150.445 63.7083 150.369C65.0057 149.941 65.0814 149.951 65.0057 149.036C64.8868 147.627 65.1192 146.483 66.2923 145.47C66.9356 144.912 66.9464 143.839 67.6168 143.053C70.7793 139.363 77.1691 140.144 79.6937 143.053C80.6722 144.18 81.4561 145.367 82.1372 146.657C82.2021 146.782 82.8616 147.334 82.9319 147.302C83.7915 146.955 84.7753 146.749 85.6079 146.657C88.1757 146.37 90.6679 145.671 93.2411 145.383C94.5926 145.232 96.0522 145.01 97.4253 144.484C98.2308 144.175 99.112 143.628 100.145 143.834C101.091 144.023 101.928 143.373 102.88 143.248C105.345 142.918 107.826 142.609 110.254 142.143C111.951 141.818 113.632 141.157 115.357 140.832C118.373 140.257 121.412 139.845 124.498 140.057C125.034 140.095 125.282 140.528 125.499 140.859C125.801 141.319 125.288 141.612 125.034 141.964C123.531 144.04 121.298 144.657 118.963 144.89C118.157 144.972 117.465 145.215 116.768 145.503C116.303 145.692 115.957 146.072 115.362 146.045C114.422 146.001 113.513 145.974 112.589 146.511C111.908 146.912 110.805 146.18 110.14 147.101C108.616 146.738 107.28 147.822 105.772 147.654C104.642 147.529 103.529 148.017 102.545 148.348C100.263 149.122 97.9335 149.42 95.6089 149.892C93.4736 150.325 91.3057 150.889 89.1758 151.198C86.8837 151.528 84.8024 152.899 82.3967 152.525C81.9696 152.46 81.7372 152.677 81.7696 153.132C81.7912 153.441 81.9426 153.609 82.267 153.604C83.4995 153.582 84.251 154.438 85.1808 155.067C86.7107 156.096 88.3919 156.898 89.9326 157.928C94.3709 160.897 98.7336 163.997 103.323 166.712C106.518 168.603 109.497 170.808 112.719 172.667C114.595 173.751 116.908 174.374 118.244 176.336C119.32 176.205 119.152 177.013 119.049 177.56C118.919 178.248 118.033 178.779 117.406 178.492C115.968 177.831 114.422 177.452 113.059 176.579C109.794 174.488 106.448 172.526 103.188 170.418C101.804 169.524 99.9932 169.269 99.2309 167.432C99.285 167.27 99.1336 167.335 99.085 167.443C98.9768 167.671 99.085 167.785 99.312 167.671C99.4201 167.617 99.4904 167.47 99.5553 167.357C99.5661 167.335 99.4526 167.248 99.2309 167.432C98.8957 167.682 98.6741 167.752 98.5444 167.671C95.9657 166.105 93.4195 164.49 90.8246 162.951C88.2406 161.418 85.9052 159.451 83.0508 158.378C82.9427 158.34 82.9211 158.085 83.013 157.684C83.0671 157.522 82.9157 157.587 82.867 157.695C82.7589 157.923 82.867 158.036 83.0941 157.923C83.2022 157.868 83.2725 157.722 83.3373 157.608C83.3482 157.587 83.2346 157.5 83.013 157.684L83.0076 157.7ZM74.1526 152.303C74.0661 152.2 74.0012 152.049 73.8931 151.994C73.6661 151.886 73.5525 151.994 73.6661 152.222C73.7201 152.33 73.8661 152.401 73.9796 152.466C74.0012 152.477 74.0877 152.363 70.6712 150.602C71.2442 151.068 71.6713 151.377 72.0497 151.734C72.8876 152.531 73.0228 152.368 73.8931 151.566C74.4932 151.014 73.1038 150.455 74.0985 150.185C73.985 149.464 73.439 149.919 73.0984 149.821C72.2335 149.583 71.7523 150.472 74.1526 152.292V152.303ZM50.588 156.324C50.5015 156.324 50.3988 156.297 50.3231 156.324C48.7716 157.023 47.1552 157.408 45.4415 157.429C44.9874 157.435 44.6306 157.939 44.117 158.08C43.8305 158.161 43.7332 158.654 44.1711 159.044C44.8576 159.646 45.5063 159.879 46.1929 159.169C46.647 158.697 47.1065 158.302 47.7769 158.492C48.7932 158.779 49.496 157.814 50.4907 157.906C51.1718 157.971 50.8799 157.289 50.9502 156.909C51.0042 156.606 50.8474 156.427 43.9224 159.266V159.023C43.7818 159.071 43.6305 159.098 43.5061 159.18C43.3656 159.272 43.398 159.434 43.6088 159.499C43.6845 159.521 43.8197 159.348 50.588 156.313V156.324ZM106.334 146.028C108.454 146.229 110.648 145.335 112.881 144.814C113.416 144.69 113.989 144.354 114.578 144.419C115.389 144.511 115.914 144.18 116.341 143.563C115.73 143.297 115.141 142.956 114.503 142.804C114.119 142.712 113.568 142.555 113.243 142.945C112.892 143.373 112.47 143.368 112.038 143.303C109.556 142.934 107.389 144.554 104.934 144.419C104.415 144.392 103.788 145.34 103.929 145.752C104.145 146.397 104.653 145.904 105.01 146.001C105.345 146.093 105.723 146.023 103.929 146.261V146.017C103.788 146.066 103.637 146.093 103.512 146.175C103.372 146.267 103.404 146.429 103.615 146.494C103.691 146.516 103.826 146.343 106.329 146.017L106.334 146.028Z" fill="#E33137"/>
<path d="M36.3702 103.697C36.3378 104.206 36.4838 104.634 36.0945 104.813C35.754 104.976 35.4674 104.759 35.1863 104.499C33.77 103.198 33.4726 102.743 32.7428 100.982C32.5915 100.619 32.4185 100.25 32.7645 100.093C33.1159 99.9362 33.9159 99.947 33.9538 100.066C34.3538 101.318 35.5107 101.909 36.2351 102.862C36.4135 103.101 36.3486 103.523 36.3702 103.697Z" fill="#E33137"/>
<path d="M40.6734 99.9308C40.7437 100.299 40.5383 100.494 40.268 100.5C39.8517 100.505 39.3543 100.689 39.057 100.234C38.3272 99.118 37.5812 98.0071 36.9217 96.8475C36.7649 96.5711 36.9271 96.1485 37.4406 96.1756C37.7055 96.1918 38.0461 96.0726 38.2299 96.1972C39.5706 97.1022 39.9598 98.6465 40.6734 99.9362V99.9308Z" fill="#E33137"/>
<path d="M111.897 204.551C110.465 203.755 110 202.243 108.989 201.197C108.61 200.807 108.583 200.119 109.01 199.799C109.378 199.522 110.07 199.457 110.416 199.972C111.302 201.289 112.562 202.492 111.897 204.557V204.551Z" fill="#E33137"/>
<path d="M24.9907 123.562C25.0826 124.234 24.7582 124.489 24.2338 124.342C23.0283 124.006 21.8931 123.497 20.9146 122.69C20.5956 122.43 20.5524 122.077 20.8335 121.785C21.12 121.487 21.5525 120.831 21.8444 121.14C22.6499 122.007 23.8825 121.942 24.7042 122.684C25.0015 122.955 25.0718 123.264 24.9961 123.562H24.9907Z" fill="#E33137"/>
<path d="M32.5698 108.362C32.6509 109.018 32.2455 109.349 31.6076 109.186C30.548 108.915 29.3533 107.246 29.3209 106.092C29.3046 105.55 29.6452 105.192 29.9858 105.057C30.7156 104.77 30.2561 105.572 30.521 105.794C31.0562 106.254 31.5319 106.791 32.0401 107.289C32.3536 107.598 32.7266 107.869 32.5753 108.362H32.5698Z" fill="#E33137"/>
<path d="M106.632 206.204C106.664 206.534 106.475 206.708 106.188 206.708C105.848 206.708 105.323 206.767 105.199 206.583C104.54 205.624 103.945 204.616 103.415 203.581C103.258 203.272 103.48 202.812 103.945 202.947C104.415 203.088 104.691 202.026 104.918 202.633C105.334 203.76 106.378 204.492 106.632 205.673C106.67 205.841 106.632 206.03 106.632 206.204Z" fill="#E33137"/>
<path d="M76.9042 208.588C76.9042 209.032 76.9313 209.482 76.8988 209.927C76.8664 210.322 77.1313 210.842 76.5366 211.054C76.1312 211.2 75.3203 210.539 75.2987 209.964C75.2554 208.897 75.2933 207.824 75.2824 206.751C75.2824 206.036 75.8014 206.198 76.2123 206.188C76.5745 206.177 76.9259 206.188 76.9096 206.719C76.8934 207.342 76.9096 207.97 76.9096 208.594L76.9042 208.588Z" fill="#E33137"/>
<path d="M47.166 90.1878C47.3011 90.0523 46.8903 89.6188 47.4363 89.673C47.685 89.7001 48.0039 89.5484 48.1553 89.8573C48.7391 91.044 49.3446 92.2198 49.8419 93.4391C49.9717 93.7534 50.1068 94.4361 49.496 94.5174C48.9986 94.5824 48.0309 94.8859 48.2796 93.7805C48.4472 93.0218 47.8417 92.5612 47.6093 92.1819C47.1876 91.4992 47.193 90.8868 47.166 90.1878Z" fill="#E33137"/>
<path d="M22.039 129.767C20.8767 129.842 20.0658 129.431 19.3522 128.726C18.8981 128.276 18.9144 127.686 19.1684 127.274C19.4874 126.759 19.8766 127.144 20.2604 127.426C20.7956 127.827 21.52 127.729 22.1688 128.043C22.8661 128.385 22.8229 128.704 22.8391 129.203C22.8607 129.951 22.2769 129.696 22.039 129.756V129.767Z" fill="#E33137"/>
<path d="M22.931 117.097C22.931 117.06 22.9202 116.989 22.9472 116.935C23.1526 116.501 25.0718 116.122 25.4934 116.447C25.7043 116.61 25.9043 116.799 26.0557 117.016C26.4341 117.558 27.5477 117.932 27.0882 118.642C26.5422 119.487 25.7583 118.533 25.0664 118.43C24.2176 118.306 24.0933 117.087 23.1148 117.298C23.0716 117.309 23.0013 117.173 22.931 117.097Z" fill="#E33137"/>
<path d="M94.744 209.851C94.744 210.122 94.7818 210.398 94.7331 210.658C94.6845 210.934 94.4899 211.124 94.1709 211.048C94.0141 211.01 93.7493 210.924 93.7384 210.842C93.6249 209.802 93.3438 208.87 92.6194 208.046C92.4464 207.851 92.3815 207.185 92.76 206.811C92.9492 206.621 93.1168 206.334 93.3384 206.274C93.479 206.236 93.8357 206.513 93.879 206.702C94.1277 207.764 94.8683 208.691 94.7385 209.856L94.744 209.851Z" fill="#E33137"/>
<path d="M36.9 184.361C36.9 184.447 36.9379 184.567 36.8946 184.621C36.1648 185.607 35.3323 186.507 34.3106 187.173C34.0457 187.346 33.3862 187.401 33.1375 186.929C32.9645 186.604 33.1915 186.29 33.4781 186.019C34.1862 185.352 34.8404 184.621 35.5594 183.965C35.8621 183.689 36.8892 184.036 36.9 184.355V184.361Z" fill="#E33137"/>
<path d="M81.775 206.719C82.0723 206.659 82.2886 206.854 82.294 207.13C82.321 208.436 82.1913 209.748 82.8346 210.972C82.9643 211.222 82.7805 211.514 82.5048 211.585C82.2562 211.65 81.9696 211.628 81.7966 211.363C81.6128 211.075 81.2344 210.967 81.2074 210.517C81.1533 209.672 81.5209 208.767 80.7155 207.997C80.4343 207.727 81.2182 206.789 81.775 206.719Z" fill="#E33137"/>
<path d="M88.792 210.81C88.8136 211.14 88.8731 211.552 88.3703 211.579C88.1487 211.59 87.8622 211.455 87.6946 211.292C86.7864 210.376 86.4025 209.265 86.7323 208.003C86.808 207.721 87.1864 207.477 87.4837 207.326C87.554 207.288 87.9703 207.645 88.0135 207.867C88.2135 208.859 88.9271 209.71 88.7866 210.81H88.792Z" fill="#E33137"/>
<path d="M57.9887 204.725C57.7563 203.771 58.6915 203.148 58.5618 202.199C58.4861 201.663 59.297 201.983 59.5835 201.614C59.9133 201.186 60.0809 201.343 60.1511 201.842C60.3133 203.023 59.6646 203.988 59.3456 205.033C59.2321 205.402 58.7942 205.814 58.2753 205.619C57.8752 205.467 57.9725 205.033 57.9887 204.719V204.725Z" fill="#E33137"/>
<path d="M29.8723 182.334C29.7209 182.275 29.4614 182.242 29.4344 182.144C29.3695 181.922 29.3263 181.603 29.4344 181.435C30.2345 180.242 31.6616 179.944 32.7699 179.186C32.9861 179.034 33.1375 179.392 33.105 179.652C33.0564 179.982 33.2726 180.378 32.905 180.633C32.0779 181.202 31.2454 181.771 30.3966 182.318C30.2723 182.399 30.0507 182.329 29.8723 182.329V182.334Z" fill="#E33137"/>
<path d="M29.6128 174.211C29.9534 174.19 30.3696 174.13 30.3912 174.634C30.4021 174.856 30.2561 175.127 30.1047 175.311C29.602 175.94 28.8019 176.054 28.1207 176.363C27.6991 176.552 27.418 177.246 26.7855 176.807C26.5422 176.639 26.7638 175.268 27.2396 174.997C27.9531 174.585 28.6505 173.973 29.6128 174.217V174.211Z" fill="#E33137"/>
<path d="M38.4461 191.551C38.0894 191.519 37.6082 191.687 37.5001 191.286C37.4298 191.042 37.9596 190.885 38.0029 190.457C38.0785 189.677 38.9002 189.422 39.3165 188.864C39.576 188.517 39.9814 188.018 40.3869 188.327C40.9383 188.745 40.9545 189.579 40.3707 189.893C39.576 190.321 39.8679 191.969 38.4461 191.546V191.551Z" fill="#E33137"/>
<path d="M22.2931 135.5C21.9904 135.749 21.5903 136.291 21.3525 136.226C20.201 135.911 19.1522 135.342 18.5413 134.242C18.4657 134.107 18.6387 133.663 18.8008 133.592C19.4928 133.283 22.0823 134.703 22.2985 135.505L22.2931 135.5Z" fill="#E33137"/>
<path d="M64.0705 207.802C63.4758 207.873 63.2433 207.521 63.4055 207.022C63.692 206.133 63.9894 205.288 63.984 204.313C63.984 203.841 64.7138 204.015 65.1192 204.025C65.6166 204.042 65.7085 204.627 65.5301 204.773C64.7462 205.402 65.0057 206.231 65.0381 206.973C65.076 207.754 64.7192 207.884 64.0759 207.802H64.0705Z" fill="#E33137"/>
<path d="M21.3687 159.033C20.9254 159.033 20.4767 159.055 20.0388 159.028C19.7523 159.012 19.5469 158.844 19.6063 158.513C19.6334 158.356 19.6712 158.118 19.7793 158.063C20.7794 157.554 21.8228 157.213 22.9742 157.408C23.4608 157.489 23.3905 157.868 23.3905 158.221C23.3905 158.573 23.4662 158.979 22.9742 159.023C22.4445 159.071 21.9093 159.033 21.3741 159.033H21.3687Z" fill="#E33137"/>
<path d="M53.2855 202.92C52.6368 202.99 52.5449 202.644 52.5611 202.123C52.572 201.755 52.7017 201.506 52.9071 201.197C53.3072 200.601 53.3883 199.376 54.3181 199.745C55.2101 200.102 54.6046 200.921 54.2424 201.614C53.9721 202.134 54.5019 203.142 53.2909 202.915L53.2855 202.92Z" fill="#E33137"/>
<path d="M47.6579 198.043C47.3876 197.328 48.1931 196.802 48.3769 196.082C48.4904 195.626 49.1824 195.854 49.5662 195.919C49.9609 195.984 49.9825 196.52 49.8473 196.791C49.4527 197.599 48.977 198.368 48.4796 199.116C48.4202 199.208 47.9336 199.257 47.8039 198.943C47.7066 198.715 47.7174 198.444 47.6579 198.043Z" fill="#E33137"/>
<path d="M22.7094 164.994C22.0877 165.064 21.7309 164.972 21.7309 164.176C21.7309 163.358 22.1363 163.347 22.7148 163.368C23.2445 163.39 23.7797 163.368 24.3095 163.368C24.6717 163.368 25.0069 163.374 25.0123 163.899C25.0123 164.225 24.8717 164.42 24.596 164.441C23.9203 164.506 23.4824 165.357 22.7039 164.989L22.7094 164.994Z" fill="#E33137"/>
<path d="M20.6821 153.631C20.2604 153.582 19.8982 153.723 19.6279 153.387C19.4658 153.181 19.136 153.024 19.1144 152.818C19.0982 152.655 19.4009 152.412 19.6009 152.271C20.3794 151.729 21.2551 152 22.0877 152.076C22.3796 152.103 22.3904 152.563 22.2823 152.742C21.9147 153.365 21.3849 153.783 20.6767 153.631H20.6821Z" fill="#E33137"/>
<path d="M20.4064 147.112C20.055 147.112 19.6982 147.134 19.3468 147.107C19.0657 147.085 18.5576 147.291 18.6387 146.765C18.6819 146.489 19.0765 146.115 19.3631 146.061C19.9631 145.952 20.5902 146.039 21.2065 146.023C21.7417 146.012 22.1688 146.538 22.1688 146.765C22.1634 147.405 21.5471 147.025 21.1957 147.101C20.9416 147.155 20.6713 147.112 20.4064 147.112Z" fill="#E33137"/>
<path d="M25.5475 97.8012H26.0881C26.1043 98.1751 25.9205 98.3593 25.5475 98.3431V97.8012Z" fill="#E33137"/>
<path d="M29.8723 197.507H29.3317V196.965C29.7047 196.949 29.8885 197.133 29.8723 197.507Z" fill="#E33137"/>
<path d="M30.4129 198.049H29.8723V197.507C30.2453 197.49 30.4291 197.675 30.4129 198.049Z" fill="#E33137"/>
<path d="M30.9535 198.59H30.4129V198.049C30.7859 198.032 30.9697 198.217 30.9535 198.59Z" fill="#E33137"/>
<path d="M86.662 60.9535C86.9756 60.8885 87.1377 61.1052 87.1648 61.3707C87.208 61.7392 87.1269 62.0427 86.6296 62.0481C86.2944 62.0481 86.1376 61.8909 86.1052 61.62C86.062 61.2461 86.1485 60.921 86.662 60.9535Z" fill="#E33137"/>
<path d="M127.72 85.338V84.7961C128.093 84.7799 128.277 84.9641 128.261 85.338H127.72Z" fill="#E33137"/>
<path d="M115.287 62.0373H115.827V62.5791C115.454 62.5954 115.27 62.4112 115.287 62.0373Z" fill="#E33137"/>
<path d="M109.34 56.6185H109.881V57.1604C109.508 57.1766 109.324 56.9924 109.34 56.6185Z" fill="#E33137"/>
<path d="M79.6072 38.7365V38.1946C79.9802 38.1784 80.164 38.3626 80.1478 38.7365H79.6072Z" fill="#E33137"/>
<path d="M59.0645 63.9067C58.9564 63.988 58.8213 64.1614 58.751 64.1397C58.5401 64.0747 58.5077 63.9122 58.6483 63.82C58.7726 63.7442 58.924 63.7117 59.0645 63.6629C59.0645 63.7442 59.0645 63.8255 59.0645 63.9067Z" fill="#E33137"/>
</svg>
