<svg width="674" height="339" viewBox="0 0 674 339" fill="none" xmlns="http://www.w3.org/2000/svg">
<path d="M284.899 329.029C285.902 331.073 287.055 329.518 288.452 329.176C288.546 329.137 288.359 329.215 288.159 329.3C288.126 328.886 288.028 328.467 288.093 328.061C288.167 327.602 288.603 327.517 288.992 327.994C289.128 328.167 288.848 328.697 288.466 329.17C291.1 329.935 291.094 329.921 294.061 327.108C294.972 326.247 295.938 325.626 296.775 327.313C297.213 327.309 297.89 327.123 298.03 327.343C298.57 328.102 298.028 328.495 297.363 328.71C298.263 331.143 300.045 332.497 302.389 333.171C302.195 332.71 301.947 332.271 301.826 331.796C301.722 331.363 301.586 330.631 301.776 330.485C302.509 329.946 302.886 330.543 303.148 331.239C303.329 331.705 303.531 332.147 303.725 332.608C304.629 332.177 305.283 332.461 305.649 333.441C306.088 333.437 306.764 333.251 306.904 333.471C307.445 334.231 306.902 334.624 306.238 334.838C307.2 336.225 308.489 336.784 310.38 336.382C310.474 336.342 310.287 336.421 310.086 336.505C310.054 336.092 309.956 335.672 310.02 335.267C310.094 334.808 310.53 334.723 310.92 335.2C311.056 335.373 310.776 335.902 310.394 336.376C312.22 337.761 314.383 338.116 316.914 336.917C317.007 336.878 316.82 336.957 316.62 337.041C316.587 336.627 316.489 336.208 316.554 335.803C316.628 335.344 317.064 335.259 317.454 335.736C317.59 335.909 317.309 336.438 316.927 336.912C317.623 339.086 318.79 337.525 320.721 336.957C320.97 335.57 320.433 338.477 319.677 336.608C319.571 336.356 320.376 335.54 320.906 335.268C321.657 334.885 322.838 333.993 323.332 334.903C323.874 335.892 322.514 336.136 320.721 336.957C320.205 337.635 320.664 338.314 320.824 338.246C325.429 336.371 330.024 334.435 334.581 332.448C334.742 332.38 334.577 331.578 333.914 330.64C333.604 330.278 334.048 330.288 334.286 330.516C334.801 330.99 334.657 331.396 333.973 331.339C333.647 331.312 333.314 331.008 333.03 330.783C332.98 330.738 333.166 330.396 333.914 330.64C338.615 329.629 339.25 325.76 340.525 322.031C340.32 322.365 340.044 322.234 339.941 321.504C339.841 320.856 339.584 320.208 339.562 319.559C339.54 319.059 340.062 318.954 340.503 319.442C341.15 320.156 341.438 320.989 340.525 322.031C341.368 323.584 342.743 324.419 344.488 323.634C348.013 322.033 351.822 321.069 354.578 317.868C356.302 315.875 358.405 314.035 361.023 313.08C361.156 313.023 361.024 312.224 360.348 311.292C360.038 310.929 360.482 310.939 360.72 311.168C361.234 311.642 361.091 312.048 360.406 311.991C360.08 311.964 359.748 311.66 359.458 311.42C359.408 311.375 359.594 311.034 360.342 311.278C365.664 308.081 369.004 303.318 370.167 297.268C369.856 296.906 370.301 296.916 370.539 297.144C371.053 297.618 370.91 298.024 370.225 297.967C369.899 297.94 369.567 297.636 369.283 297.411C369.232 297.366 369.419 297.024 370.167 297.268C372.577 296.269 372.816 293.964 373.532 291.968C374.55 289.121 373.021 287.546 369.773 286.332C366.73 285.197 362.923 285.42 360.998 281.823C360.553 280.991 359.793 279.897 360.615 279.123C361.608 278.194 362.564 278.334 363.374 279.884C364.251 281.554 365.415 280.06 366.739 279.732C366.833 279.693 366.646 279.772 366.445 279.856C366.413 279.442 366.315 279.023 366.38 278.618C366.454 278.159 366.89 278.074 367.279 278.551C367.415 278.724 367.135 279.253 366.753 279.727C368.401 281.286 370.488 281.574 372.572 280.547C375.836 278.925 379.247 277.948 383.211 277.724C383.304 277.685 383.117 277.764 382.917 277.848C382.884 277.434 382.786 277.015 382.851 276.609C382.925 276.151 383.361 276.066 383.751 276.543C383.887 276.716 383.607 277.245 383.224 277.719C383.738 279.722 384.883 278.631 385.864 278.234C393.997 274.84 402.111 271.403 410.526 267.856C410.62 267.817 410.433 267.896 410.232 267.98C410.199 267.566 410.101 267.147 410.166 266.742C410.24 266.283 410.676 266.198 411.066 266.675C411.202 266.848 410.922 267.377 410.539 267.851C410.71 269.374 412.148 269.278 412.434 268.615C413.537 266.044 415.907 265.621 417.998 264.723C423.276 262.466 428.467 259.966 433.876 258.097C440.995 255.656 446.115 250.077 452.561 246.636C453.161 243.917 455.792 244.189 457.537 243.141C458.379 242.638 459.311 242.311 457.64 240.548C457.147 240.164 457.857 240.095 458.334 240.404C458.918 240.783 458.705 241.136 458.017 241.294C457.243 241.472 456.493 242.232 455.774 241.236C455.707 241.149 456.243 240.594 457.64 240.548C462.98 237.508 467.93 234.698 471.158 229.966C472.114 228.576 473.348 228.22 474.6 227.758C478.111 226.46 480.308 223.313 483.438 221.484C483.465 221.473 483.256 221.051 482.163 220.361C481.67 219.976 482.38 219.907 482.857 220.216C483.441 220.595 483.228 220.948 482.54 221.106C481.765 221.285 481.016 222.044 480.297 221.048C480.229 220.962 480.766 220.406 482.163 220.361C485.509 220.612 485.678 217.58 487.953 217.081C489.798 216.682 491.495 215.671 493.258 214.927C493.801 212.445 495.11 211.894 497.265 213.239C501.535 210.83 506.865 210.525 510.215 206.234C511.016 205.223 512.846 204.451 514.129 204.585C519.54 205.183 523.486 201.595 528.18 200.192C529.574 199.769 531.077 199.267 529.849 197.137C529.777 197.003 530.277 196.249 530.459 196.271C535.677 197.082 539.328 193.241 543.815 191.908C546.404 191.146 548.222 188.258 547.062 186.214C544.656 181.998 545.158 177.181 543.247 172.871C538.832 162.956 534.551 152.984 530.643 142.854C529.103 138.865 525.633 136.38 524.305 132.219C523.152 128.626 522.269 124.591 518.73 122.053C517.711 121.314 517.488 119.368 516.9 117.972C511.213 104.48 505.246 91.1067 499.967 77.4601C497.534 71.1662 493.188 66.0408 490.824 59.7998C490.266 58.3248 488.163 58.6353 487.911 56.768C487.706 55.2752 486.823 54.7099 485.324 55.4075C483.142 56.4258 480.693 56.9974 478.714 58.3088C475.984 60.1172 472.731 59.0046 469.92 60.1729C469.279 60.4431 467.588 59.7905 467.349 59.1843C466.629 57.3657 468.566 57.6681 469.376 57.2771C471.975 56.0172 474.73 55.0533 477.347 53.8353C480.967 52.1615 481.216 49.9515 477.933 46.8284C477.119 46.0532 476.978 45.1587 476.426 44.3715C475.522 44.8019 474.868 44.5184 474.501 43.5378C474.063 43.5418 473.386 43.7282 473.246 43.5077C472.706 42.7485 473.248 42.3555 473.913 42.1412C473.895 41.6882 473.692 40.984 473.902 40.8464C474.621 40.3131 475.019 40.8853 475.248 41.5782C475.689 41.3925 476.106 41.1508 476.563 41.0405C476.98 40.9471 477.686 40.8305 477.834 41.0315C478.38 41.8046 477.812 42.1753 477.146 42.4232C476.699 42.595 476.278 42.7891 475.837 42.9749L476.426 44.3715C477.834 42.9722 479.523 44.4805 481.021 44.0794C481.003 43.6264 480.801 42.9222 481.01 42.7846C481.729 42.2513 482.128 42.8235 482.357 43.5164C483.261 43.0861 483.915 43.3695 484.281 44.3501C485.031 43.8531 485.663 44.1953 486.038 44.8599C486.526 45.7562 486.755 46.712 485.459 47.1434C486.106 48.1204 485.915 50.0925 488.266 49.2499C488.359 49.2105 488.172 49.2893 487.972 49.3738C487.939 48.96 487.841 48.5408 487.906 48.1351C487.98 47.6763 488.416 47.5912 488.806 48.0683C488.941 48.2413 488.661 48.7706 488.279 49.2443C488.633 50.3452 488.441 52.3172 490.792 51.4747C490.885 51.4353 490.698 51.5141 490.498 51.5985C490.465 51.1847 490.367 50.7655 490.432 50.3598C490.506 49.901 490.942 49.8159 491.332 50.2931C491.468 50.4661 491.188 50.9954 490.805 51.469C491.159 52.5699 490.968 54.542 493.318 53.6994C493.412 53.66 493.225 53.7388 493.024 53.8232C492.991 53.4095 492.893 52.9902 492.958 52.5846C493.032 52.1257 493.468 52.0407 493.858 52.5178C493.994 52.6908 493.714 53.2201 493.332 53.6938C495.556 56.6213 497.435 59.8098 498.693 63.3915C498.924 64.0508 499.695 64.3507 500.718 63.7551C500.512 64.0884 500.237 63.9577 500.134 63.2281C500.034 62.5796 499.776 61.9315 499.755 61.2828C499.732 60.7823 500.254 60.6774 500.696 61.1656C501.343 61.8797 501.631 62.7123 500.718 63.7551C500.813 64.8007 501.22 65.7308 501.596 66.6583C501.884 67.3426 502.494 68.1548 502.938 67.3426C503.656 65.9871 504.946 65.2788 504.773 67.1446C504.366 71.4775 506.974 74.6053 508.076 78.3021C508.296 79.0482 508.868 79.9583 509.489 79.7133C510.842 79.1922 512.056 79.1246 512.188 80.7798C512.385 83.2625 510.56 80.7255 509.983 81.4458C509.398 82.1856 509.883 83.0009 510.306 83.4808C511.075 84.3735 512.052 83.3697 512.939 83.5714C513.827 83.7732 514.073 84.6562 514.056 85.2883C514.035 86.4321 513.19 86.0317 512.631 85.6753C512.008 85.2799 511.473 85.3904 511.656 85.938C512.47 88.2429 512.202 91.3002 515.745 91.945C515.54 92.2783 515.264 92.1476 515.161 91.418C515.061 90.7695 514.804 90.1214 514.782 89.4727C514.76 88.9722 515.282 88.8673 515.723 89.3555C516.37 90.0696 516.658 90.9022 515.745 91.945C522.091 107.823 528.731 123.577 535.377 139.346C536.254 141.427 538.342 144.066 537.764 145.494C536.601 148.369 540.65 148.423 539.671 150.727C538.933 152.485 541.128 153.698 540.955 155.827C540.791 157.788 542.495 159.964 543.378 162.059L546.015 168.316C546.403 169.238 546.811 170.168 547.186 171.096C547.76 172.532 548.237 174.074 550.231 172.872C550.346 172.807 550.812 173.318 551.102 173.557C546.906 177.185 552.039 179.922 552.326 183.14C552.455 184.566 553.501 185.556 554.92 186.422C556.021 187.093 556.825 189.188 553.818 188.137C553.026 187.862 553.113 188.927 553.401 189.611C554.184 191.469 554.961 193.313 555.88 195.491C555.921 195.589 555.839 195.394 555.75 195.184C556.151 195.163 556.554 195.076 556.949 195.156C557.397 195.247 557.493 195.699 557.043 196.087C556.88 196.221 556.357 195.915 555.886 195.505C555.447 195.509 554.819 195.922 554.888 196.123C555.494 197.973 555.917 199.982 556.955 201.551C558.208 203.441 556.562 205.171 557.531 207.098C560.057 212.119 558.996 217.254 557.749 222.319L558.467 224.023C558.509 224.121 558.426 223.925 558.338 223.716C558.738 223.695 559.142 223.607 559.537 223.687C559.984 223.778 560.081 224.231 559.631 224.618C559.467 224.753 558.945 224.447 558.473 224.037C557.903 223.915 557.449 224.107 557.008 224.292C557.914 231.032 554.58 235.25 547.906 235.761C542.256 236.201 542.437 235.96 535.838 230.715C533.661 228.984 532.859 225.326 529.352 225.439C528.824 222.619 525.672 221.858 524.834 219.086C523.242 213.853 518.822 210.831 515.246 207.124C513.905 205.732 513.125 206.719 512.141 207.034C510.346 207.627 511.19 208.883 511.655 209.986C512.22 211.327 513.262 212.269 514.16 213.355C516.415 216.056 518.703 218.759 520.115 222.259C522.541 228.276 527.463 232.452 532.278 236.525C540.587 243.549 549.562 245.885 559.77 241.221C559.864 241.181 559.677 241.26 559.476 241.344C559.444 240.931 559.346 240.511 559.41 240.106C559.484 239.647 559.921 239.562 560.31 240.039C560.446 240.212 560.166 240.741 559.784 241.215C560.694 243.562 562.005 241.858 563.079 241.421C575.01 236.475 586.898 231.432 599.4 226.162C599.565 225.731 598.935 227.148 598.588 225.765C598.504 225.454 598.869 224.791 599.169 224.681C599.729 224.478 600.406 224.554 601.036 224.519C601.099 225.266 600.756 225.722 599.414 226.157C600.03 228.627 601.347 226.937 602.416 226.487C612.569 222.29 622.682 217.994 633.1 213.603C633.194 213.564 633.007 213.643 632.806 213.727C632.773 213.314 632.675 212.894 632.74 212.489C632.814 212.03 633.25 211.945 633.64 212.422C633.776 212.595 633.496 213.124 633.113 213.598C633.131 214.051 633.59 214.729 633.764 214.656C638.369 212.781 642.963 210.844 647.521 208.858C647.681 208.79 647.516 207.988 646.854 207.05C646.544 206.687 646.988 206.697 647.226 206.926C647.74 207.4 647.597 207.806 646.912 207.749C646.586 207.722 646.254 207.418 645.97 207.192C645.92 207.148 646.106 206.806 646.854 207.05C655.895 204.243 662.965 198.253 671.695 195.642C673.315 195.157 673.607 192.715 672.225 191.636C671.126 190.784 669.778 189.674 668.328 190.565C664.54 192.885 659.64 192.828 656.483 196.758C655.121 198.451 652.327 198.987 650.095 199.812C648.936 200.235 648.242 198.998 648.37 198.072C649.02 193.604 646.72 189.343 647.162 184.831C647.244 183.941 645.275 182.518 645.373 180.437C645.454 178.873 644.3 177.106 643.436 175.579C639.953 169.481 640.131 162.251 636.917 156.007C633.811 149.981 631.604 143.476 628.841 137.256C627.989 135.346 630.168 132.305 626.649 131.42C627.975 128.707 625.776 126.738 625.039 124.467C624.336 122.313 623.319 120.274 622.436 118.179C621.459 115.86 620.251 113.59 619.552 111.187C618.735 108.39 616.356 106.514 615.997 103.311C615.63 99.9781 611.724 98.2857 610.845 94.7085C610.071 91.5646 608.402 88.6496 607.124 85.6188C605.847 82.5881 605.127 79.1252 603.196 76.6331C597.613 69.397 595.503 60.5825 591.632 52.5922C591.19 51.6929 590.864 49.988 590.421 49.9444C585.408 49.5079 586.926 45.0852 585.713 42.3563C584.541 39.7252 583.59 37.1326 581.237 34.9829C578.864 32.8249 576.981 29.8853 575.809 26.5466C574.547 22.9174 570.816 20.5589 569.453 16.0183C569.143 15.6556 569.587 15.6656 569.825 15.8942C570.34 16.3682 570.196 16.7741 569.512 16.7173C569.186 16.6902 568.853 16.3863 568.569 16.1605C568.519 16.1159 568.705 15.7742 569.453 16.0183C574.615 13.7111 580.211 14.5599 584.886 12.0303C589.332 9.62994 594.181 7.99753 598.855 6.02721C599.964 5.55996 601.158 5.22112 602.164 4.58356C603.203 3.91516 605.606 4.31689 604.835 2.07619C604.213 0.265736 602.333 -0.53733 600.693 0.384405C595.248 3.40272 588.504 2.4787 583.29 6.04171C579.238 8.81852 573.974 7.4514 569.893 10.0102C567.276 8.46524 565.306 10.3974 563.211 11.2477C561.223 12.0529 559.32 12.4272 557.146 12.1591C555.604 11.9704 554.106 11.8122 552.4 12.3175C546.239 14.1576 539.996 15.9169 533.644 16.8179C531.608 17.1003 529.574 17.201 527.647 17.9641C527.206 18.1498 526.729 18.5483 526.313 18.4935C520.862 17.7645 515.926 19.7131 510.84 20.9686C510.098 21.1497 509.019 20.7163 508.183 21.2332C502.659 24.6964 495.882 24.4771 490.148 27.2558C487.73 28.4229 485.089 27.085 482.665 28.5346C480.779 29.6584 478.66 31.4231 476.026 29.951C470.791 32.0095 465.358 33.6743 461.135 37.724C459.825 38.9832 459.045 40.2661 459.826 42.1572C460.309 43.3025 460.638 44.6439 462.32 43.82C464.645 42.6922 467.577 44.4992 469.725 42.3931C469.917 42.2136 470.575 42.5446 471.023 42.6357C470.756 43.0111 470.585 43.5765 470.231 43.7425C468.484 44.561 466.678 45.2399 464.906 46.0361C463.862 46.5088 462.974 47.0146 462.122 48.0153C459.428 51.1408 457.87 54.1988 460.322 58.4121C461.504 60.4307 461.182 61.9809 458.468 61.1018C457.062 60.6414 456.143 61.2591 455.101 61.6982C450.329 63.6604 444.81 63.256 440.375 66.2436C434.766 65.1375 430.14 71.0676 424.215 68.1698C423.761 67.9501 422.867 68.5901 422.253 68.9637C416.277 72.5848 409.104 72.6966 402.859 75.4934C400.505 76.5513 397.792 75.0793 395.405 76.8421C393.615 78.1557 391.372 79.2161 388.736 78.2222C388.06 77.9639 386.898 78.7501 386.113 79.278C382.261 81.8557 377.591 81.6364 373.373 82.9371C369.255 84.2123 365.092 85.457 360.626 85.086C360.189 85.0565 359.709 85.3738 359.298 85.6294C352.052 89.9334 343.184 89.7563 335.945 93.9261C332.91 95.6822 329.456 94.3912 326.47 96.0773C323.545 97.7212 320.381 99.5811 317.15 99.9395C308.348 100.886 301.127 105.772 293.117 108.638C288.264 110.371 283.318 111.847 278.508 113.496C273.684 115.151 268.969 114.375 264.268 115.09C262.818 115.306 261.768 117.295 260.031 115.971C252.937 119.257 244.622 119.308 238.013 123.705C230.033 128.993 220.653 132.189 214.257 139.853C212.897 141.478 209.861 140.768 209.433 143.596C199.83 148.466 193.012 157.145 184.034 162.936C177.802 166.961 171.484 170.742 164.992 174.334C158.997 177.65 153.059 180.991 146.684 183.481C144.085 187.389 139.594 187.966 135.784 189.638C132.983 190.867 130.43 192.273 128.25 194.491C124.68 198.15 119.88 200.009 115.863 203.018C111.873 206.015 107.741 208.826 103.818 211.91C98.6052 215.999 93.9834 221.006 87.5324 223.165C83.4819 224.527 80.9506 228.374 76.8664 229.618C76.0275 232.554 73.1614 232.397 71.0955 233.317C69.1096 234.203 68.7847 236.791 66.2962 237.231C64.3031 237.578 61.579 238.019 60.7311 240.037C59.7891 242.244 56.4915 241.66 56.5349 244.487C52.9698 245.134 52.6775 249.665 49.4712 250.754C46.4845 251.766 44.1005 253.461 43.0133 256.666C37.9053 257.273 36.3038 262.915 32.0238 264.703C31.583 264.888 31.092 265.03 30.7635 265.332C28.2666 267.618 28.2158 272.163 24.1062 272.974C20.5379 273.688 18.082 276.632 15.4288 278.621C11.7906 281.372 8.55592 285.005 5.17993 288.303C4.85734 288.62 4.75731 289.353 4.42656 289.426C1.94199 290.062 -0.0872646 292.563 0.0028926 294.12C0.178215 296.924 1.96313 299.741 3.45081 302.338C3.83864 302.997 5.39215 303.921 6.72351 303.311C6.70561 302.858 6.50319 302.153 6.71259 302.016C7.43158 301.482 7.83004 302.055 8.05917 302.748C8.49791 302.744 9.17435 302.557 9.3145 302.778C9.85468 303.537 9.31249 303.93 8.64782 304.144C10.4709 304.626 10.632 307.732 13.379 307.084C13.4725 307.045 13.2855 307.124 13.0851 307.208C13.0523 306.795 12.9542 306.375 13.0192 305.97C13.0932 305.511 13.5292 305.426 13.9191 305.903C14.0549 306.076 13.7747 306.605 13.3923 307.079C12.8858 310.878 17.3143 308.025 17.7536 310.784C20.2413 310.08 21.9452 314.198 24.6444 312.205C24.6265 311.752 24.4241 311.048 24.6335 310.91C25.3525 310.377 25.7509 310.949 25.98 311.642C26.4188 311.638 27.0952 311.452 27.2354 311.672C27.7756 312.431 27.2334 312.824 26.5687 313.039C28.4861 315.684 31.3229 314.242 33.9712 314.853C34.0647 314.814 33.8777 314.892 33.6773 314.977C33.6445 314.563 33.5464 314.144 33.6114 313.738C33.6854 313.279 34.1214 313.194 34.5113 313.671C34.6471 313.844 34.3668 314.374 33.9845 314.847C33.7848 315.195 33.9288 315.611 33.9555 315.6C36.446 314.978 39.1251 316.184 42.1281 314.688C42.2924 314.257 41.6627 315.674 41.3156 314.29C41.232 313.98 41.5972 313.316 41.8969 313.207C42.4563 313.004 43.1334 313.08 43.7635 313.045C43.8264 313.791 43.4841 314.248 42.1414 314.682C41.6538 315.168 41.777 315.609 41.8422 315.615C46.7093 315.257 51.0142 313.081 54.8801 310.498C58.4549 308.119 61.6065 304.998 65.5707 303.245C69.6492 301.427 71.8844 297.475 75.418 294.999C79.0675 292.425 81.5966 288.349 85.8044 286.427C86.0314 286.332 86.2703 286.264 86.4722 286.146C87.8162 285.267 87.0769 282.207 88.8353 282.535C90.7759 282.885 92.0119 281.936 93.8366 281.414C93.9301 281.374 93.7431 281.453 93.5428 281.538C93.5099 281.124 93.4119 280.705 93.4768 280.299C93.5508 279.84 93.9869 279.755 94.3767 280.232C94.5126 280.405 94.2323 280.935 93.85 281.408C93.7608 282.466 94.5305 282.799 95.1556 282.453C98.1708 280.837 101.353 279.841 104.153 277.378C107.234 274.649 111.865 273.733 115.862 272.131C120.805 270.163 125.094 267.203 128.996 263.585C129.666 262.974 130.566 262.496 131.434 262.278C137.034 260.937 140.904 256.461 145.961 254.165C146.121 254.097 145.956 253.295 145.294 252.357C144.984 251.995 145.428 252.005 145.666 252.233C146.18 252.707 146.037 253.113 145.352 253.056C145.026 253.029 144.694 252.725 144.404 252.486C144.354 252.441 144.54 252.099 145.288 252.343C148.083 251.922 150.207 251.027 152.344 250.126C153.252 249.743 153.995 249.266 152.713 247.569C152.403 247.206 152.848 247.216 153.086 247.445C153.6 247.919 153.456 248.325 152.772 248.268C152.446 248.241 152.113 247.937 151.823 247.697C151.773 247.653 151.96 247.311 152.707 247.555C157.221 246.771 159.357 243.255 162.226 240.731C163.004 240.041 163.097 238.209 164.593 238.697C166.088 239.185 164.107 240.267 164.692 240.909C165.302 241.573 166.04 241.048 166.681 240.777C170.675 239.094 174.801 237.651 178.658 235.68C190.167 229.81 202.837 227.068 214.777 222.332C218.606 220.817 221.178 217.627 224.903 216.238C224.456 215.292 224.71 214.625 225.65 214.279C224.611 211.032 225.022 209.954 227.891 208.4C227.627 207.179 225.68 207.111 225.811 206.826C226.76 204.748 226.479 201.692 229.863 200.989C229.624 201.354 229.476 201.153 229.214 200.457C228.459 198.44 229.932 194.135 231.68 193.694C231.965 193.623 232.379 194.008 232.737 194.186C231.744 196.085 233.074 198.567 231.474 200.294C231.17 200.62 230.617 200.688 229.856 201.009C231.401 202.249 232.432 203.986 230.559 205.4C229.378 206.293 229.223 207.904 227.87 208.425C227.563 210.199 227.271 211.967 227.094 214.048C227.135 214.146 227.053 213.951 226.964 213.741C227.365 213.72 227.768 213.633 228.164 213.713C228.611 213.804 228.707 214.257 228.257 214.644C228.094 214.778 227.571 214.472 227.1 214.062C226.529 213.941 226.075 214.132 225.635 214.318C226.081 215.265 225.827 215.931 224.888 216.278C225.378 217.403 225.861 218.4 225.292 219.775C223.236 224.786 221.455 229.928 219.405 234.954C218.221 237.854 217.493 240.793 217.819 244.29C217.86 244.388 217.778 244.192 217.689 243.983C218.09 243.962 218.493 243.874 218.889 243.954C219.336 244.045 219.432 244.498 218.982 244.885C218.819 245.02 218.296 244.714 217.825 244.304C214.801 245.266 219.564 247.946 216.984 249.214C214.338 250.511 217.086 253.037 216.014 254.936C216.055 255.034 215.973 254.838 215.885 254.629C216.285 254.608 216.688 254.52 217.084 254.6C217.531 254.691 217.628 255.144 217.177 255.531C217.014 255.666 216.492 255.36 216.02 254.95C214.529 257.831 215.059 261.589 215.676 264.47C216.55 268.559 216.359 272.324 215.999 276.209C215.899 277.353 216.508 278.051 216.836 279.277C216.877 279.375 216.795 279.18 216.706 278.97C217.107 278.949 217.51 278.862 217.906 278.942C218.353 279.033 218.449 279.485 217.999 279.873C217.836 280.007 217.313 279.701 216.842 279.291C214.411 280.727 217.067 282.14 217.272 284.044C217.313 284.142 217.231 283.946 217.143 283.737C217.543 283.716 217.946 283.628 218.342 283.708C218.789 283.799 218.886 284.252 218.435 284.639C218.272 284.774 217.749 284.468 217.278 284.058C214.847 285.494 217.504 286.907 217.851 289.113C218.274 289.296 216.88 288.601 218.211 288.287C218.509 288.21 219.164 288.609 219.281 288.921C219.495 289.505 219.443 290.202 219.497 290.853C218.775 290.894 218.321 290.526 217.857 289.127C216.964 292.233 218.612 296.144 221.719 298.289C221.701 297.836 221.498 297.132 221.708 296.994C222.427 296.461 222.825 297.033 223.054 297.726C223.493 297.722 224.169 297.535 224.31 297.756C224.85 298.515 224.308 298.908 223.643 299.122C225.421 302.781 229.113 304.86 231.023 308.496C231.359 309.144 232.958 310.065 234.283 309.44C234.266 308.987 234.063 308.283 234.273 308.146C234.992 307.612 235.39 308.185 235.619 308.878C236.058 308.874 236.734 308.687 236.874 308.908C237.415 309.667 236.872 310.06 236.208 310.274C237.211 312.319 238.364 310.763 239.762 310.421C239.855 310.382 239.668 310.461 239.468 310.545C239.435 310.131 239.337 309.712 239.402 309.306C239.476 308.847 239.912 308.762 240.302 309.24C240.438 309.413 240.157 309.942 239.775 310.415C241.601 311.8 243.764 312.155 246.295 310.957C246.388 310.918 246.201 310.996 246.001 311.081C245.968 310.667 245.87 310.248 245.935 309.842C246.009 309.383 246.445 309.298 246.835 309.775C246.971 309.948 246.691 310.478 246.308 310.951C250.812 311.784 254.526 310.185 254.977 306.179C255.359 302.794 257.074 299.884 256.517 296.024C256.207 295.661 256.651 295.671 256.889 295.9C257.403 296.374 257.26 296.779 256.575 296.723C256.249 296.696 255.917 296.392 255.633 296.166C255.583 296.121 255.769 295.78 256.517 296.024C259.069 295.885 257.664 294.454 257.752 293.431C258.474 285.33 259.203 277.243 259.756 269.115C259.982 265.731 261.527 262.793 261.987 259.441C262.508 255.751 263.079 251.958 263.931 248.342C264.806 244.635 264.923 240.621 266.846 237.196C268.261 234.658 268.325 231.786 268.011 228.876C267.924 228.073 268.31 227.533 269.106 227.296C269.909 227.072 270.543 227.233 270.797 228.096C271.215 229.499 272.501 230.684 272.079 232.26C271.823 233.256 269.587 233.063 270.67 235.222C270.711 235.32 270.629 235.124 270.54 234.915C270.941 234.894 271.344 234.806 271.739 234.887C272.187 234.978 272.283 235.43 271.833 235.817C271.67 235.952 271.147 235.646 270.676 235.236C269.377 238.349 268.57 241.847 268.735 245.561C269.174 245.557 269.851 245.37 269.991 245.591C270.531 246.35 269.989 246.743 269.324 246.957C269.342 247.41 269.544 248.114 269.335 248.252C268.616 248.785 268.218 248.213 267.988 247.52C266.336 252.296 266.491 257.477 265.407 262.408C264.79 265.234 263.962 267.935 263.03 270.613C262.546 272.002 262.971 272.974 263.468 274.113C263.906 274.109 264.583 273.923 264.723 274.144C265.263 274.903 264.721 275.296 264.056 275.51C264.074 275.963 264.276 276.667 264.067 276.805C263.348 277.338 262.95 276.766 262.721 276.073C261.237 280.876 262.117 286.098 260.89 290.875C259.414 296.628 259.229 302.348 259.993 308.227C260.751 313.943 262.107 319.178 269.4 320.956C269.494 320.916 269.307 320.995 269.106 321.08C269.073 320.666 268.975 320.247 269.04 319.841C269.114 319.382 269.55 319.297 269.94 319.774C270.076 319.947 269.796 320.477 269.413 320.95C269.767 322.051 269.576 324.023 271.633 323.304C271.615 322.851 271.412 322.147 271.622 322.01C272.341 321.476 272.739 322.049 272.968 322.741C273.407 322.737 274.083 322.551 274.224 322.772C274.764 323.531 274.222 323.924 273.557 324.138C276.137 327.163 279.351 328.555 283.178 328.307C283.161 327.854 282.958 327.15 283.168 327.012C283.887 326.479 284.285 327.051 284.514 327.744C284.953 327.74 285.629 327.553 285.769 327.774C286.31 328.533 285.767 328.926 285.103 329.14L284.899 329.029ZM342.921 306.219C343.367 307.166 343.113 307.832 339.555 316.519C339.741 316.029 340.197 315.393 340.038 315.164C338.455 312.641 342.823 311.622 341.305 309.104C341.214 308.961 341.588 307.422 342.516 308.84C342.839 309.346 344.309 309.663 344.285 309.756C343.733 311.765 342.566 313.589 343.038 315.939C343.086 316.166 341.467 316.766 340.577 317.042C340.312 317.121 339.905 316.717 342.18 308.193C341.733 307.246 341.987 306.579 342.927 306.233C342.48 305.286 342.734 304.62 343.674 304.273C343.227 303.327 343.481 302.66 344.421 302.314C343.974 301.367 344.228 300.701 345.168 300.354C344.973 299.893 344.773 299.418 343.263 297.999C343.611 298.116 344.055 298.126 344.307 298.349C344.821 298.823 344.677 299.228 343.993 299.172C343.667 299.145 343.334 298.841 343.05 298.615C343 298.57 343.186 298.229 344.592 298.952L345.928 298.389C345.096 294.512 345.784 292.71 348.916 290.55C348.47 289.604 348.724 288.937 349.663 288.591C349.469 288.13 349.269 287.655 347.758 286.236C348.106 286.352 348.551 286.362 348.802 286.585C349.316 287.059 349.173 287.465 348.488 287.408C348.162 287.381 347.83 287.077 347.54 286.838C347.49 286.793 347.676 286.451 349.082 287.175L350.417 286.612C349.379 283.365 349.79 282.287 354.334 280.043C353.749 278.99 353.218 281.911 352.449 280.048C352.343 279.797 353.147 278.981 353.677 278.708C354.428 278.326 355.609 277.433 356.103 278.344C356.645 279.332 355.285 279.576 352.645 280.738C352.687 283.04 351.94 284.999 350.404 286.617C350.85 287.564 350.596 288.23 349.657 288.577C350.103 289.524 349.849 290.19 348.91 290.536C348.648 293.46 347.647 296.085 345.922 298.375C346.368 299.322 346.114 299.988 345.175 300.335C345.621 301.281 345.367 301.948 344.428 302.294C344.874 303.241 344.62 303.907 343.681 304.254C344.127 305.201 343.873 305.867 342.934 306.213L342.921 306.219ZM309.119 259.609L307.784 260.172C308.255 261.29 308.83 262.281 308.197 263.616C305.025 270.233 304.065 277.398 304.269 285.42L304.004 284.792C304.404 284.771 304.808 284.683 305.203 284.763C305.651 284.855 305.747 285.307 305.297 285.694C305.133 285.829 304.611 285.523 304.004 284.792C302.721 285.218 303.216 286.094 303.346 287.076C303.768 290.204 302.443 292.621 300.269 294.59C300.516 295.736 302.061 296.976 300.111 297.946C300.557 298.893 300.303 299.559 295.945 310.343C297.658 307.204 296.608 303.107 298.779 300.235C299.581 299.189 299.607 300.856 299.914 301.286C301.94 304.116 298.543 306.617 299.541 309.469C299.594 309.595 298.04 310.349 297.175 310.648C296.848 310.769 296.358 310.465 299.364 299.906C298.917 298.959 299.171 298.293 300.111 297.946C299.864 296.8 298.318 295.56 300.269 294.59C298.693 292.195 298.958 289.501 299.305 287.003C300.194 280.493 301.466 274.069 302.823 267.658C303.606 263.956 305.159 261.969 307.784 260.172C307.338 259.225 307.592 258.559 308.531 258.213C307.828 255.499 310.226 256.002 311.4 255.54C312.153 255.238 312.164 256.27 311.834 256.87C311.413 257.623 311.568 258.775 310.455 259.046C310.473 259.499 310.675 260.203 310.466 260.341C309.747 260.874 309.349 260.302 309.119 259.609ZM45.5279 281.89C45.3276 281.974 45.1272 282.058 44.9269 282.143C44.894 281.729 44.796 281.31 44.861 280.904C44.935 280.445 45.371 280.36 45.7608 280.837C45.8967 281.01 45.6164 281.54 44.9269 282.143C45.1211 282.604 45.2678 283.101 45.5096 283.526C46.0082 284.335 45.9365 285.994 47.0249 285.815C48.4233 285.587 47.1064 284.366 47.1947 283.605C47.3255 282.497 48.1919 282.724 48.5102 283.33C49.3207 284.88 49.9293 286.548 50.5988 288.173C50.9402 288.984 50.707 289.625 49.928 289.904C46.1741 291.223 43.9464 295.155 39.8074 295.896C38.1835 296.186 36.6691 297.071 35.155 297.808C33.6944 298.522 31.0722 298.607 31.0025 300.084C30.853 302.976 27.4541 299.129 27.7134 302.095C27.7779 302.808 23.9927 300.769 25.8218 304.176C26.1888 304.86 25.1773 305.072 24.4759 304.677C23.6532 304.218 22.5683 304.182 22.2577 302.997C22.0349 302.17 22.1648 301.358 22.9921 301.306C26.6611 301.092 28.1136 295.693 32.5036 297.264C33.668 294.503 36.3669 294.04 38.6659 293.038C44.3798 290.548 44.3515 290.593 41.341 284.756C40.0399 282.229 37.9138 280.954 35.5757 279.735C34.5664 279.207 32.2383 279.58 32.8238 277.573C33.1849 276.302 31.4294 274.526 34.1463 273.545L33.5452 273.798C33.5124 273.385 33.4143 272.965 33.4793 272.56C33.5533 272.101 33.9893 272.016 34.3792 272.493C34.515 272.666 34.2348 273.195 33.5452 273.798C35.3344 275.692 38.6392 275.846 39.2904 279.107C39.314 279.163 40.076 279.105 41.0965 278.839L40.4955 279.093C40.4626 278.679 40.3646 278.26 40.4296 277.854C40.5036 277.395 40.9396 277.31 41.3294 277.787C41.4653 277.96 41.185 278.49 40.4955 279.093C42.3186 279.574 42.4797 282.681 45.5338 281.904L45.5279 281.89ZM603.01 157.699C603.313 157.374 603.599 157.007 603.945 156.746C604.666 156.179 606.467 155.601 606.119 155.336C603.524 153.469 605.533 151.817 605.92 150.124C606.168 149.033 606.988 148.44 607.996 148.854C608.529 149.074 609.167 149.989 609.153 150.554C609.054 154.05 610.969 155.907 613.881 157.032C614.839 157.401 615.669 157.693 614.877 158.948C614.46 159.6 614.658 160.965 613.163 160.18C611.426 159.267 608.556 162.648 607.606 158.229C607.209 156.39 605.636 157.809 604.647 158.111C603.976 158.312 603.423 158.529 603.01 157.699ZM246.239 270.931C248.123 273.459 246.393 275.586 245.538 277.739C244.957 279.234 243.694 278.55 242.521 278.156C238.628 276.869 241.174 273.542 240.318 271.288C240.149 270.849 240.416 268.385 241.796 268.823C243.28 269.283 245.827 267.749 246.247 270.911L246.239 270.931ZM492.689 188.835C489.964 190.279 487.761 186.734 485.186 188.05C484.974 187.399 484.465 186.265 484.614 186.169C486.315 185.057 486.805 182.598 489.074 182.085C490.999 181.652 490.777 184.147 492.322 184.417C493.017 184.535 494.999 184.276 494.574 186.215C494.33 187.354 494.064 188.699 492.689 188.835ZM441.089 117.424C440.947 116.974 440.597 116.48 440.675 116.068C441.187 113.402 443.843 112.052 444.404 109.316C444.622 108.303 445.488 109.386 446.059 109.474C447.951 109.745 448.182 111.523 448.486 112.842C448.736 113.921 447.395 114.322 446.51 114.498C444.693 114.852 444.048 116.456 442.984 117.628C442.467 118.192 441.698 117.973 441.076 117.429L441.089 117.424ZM109.56 236.99C110.058 237.126 111.413 237.393 112.664 237.935C113.03 238.094 110.874 242.719 110.43 242.561C109.051 242.09 107.826 241.57 107.253 239.838C106.698 238.147 107.301 237.564 109.56 236.99ZM532.694 99.6535C532.506 99.2066 532.258 98.7682 532.143 98.3071C532.025 97.8795 531.851 97.2787 532.034 97.0042C532.576 96.2001 533.15 97.0766 533.699 97.2234C534.377 97.4145 535 97.8099 535.664 98.0402C537.956 98.8505 536.486 99.2069 535.647 100.054C533.647 102.064 533.735 102.159 532.681 99.6591L532.694 99.6535ZM289.091 204.662C289.583 203.665 289.921 202.453 290.665 201.679C291.298 201.018 292.314 201.001 292.867 202.314C293.409 203.599 292.719 204.054 291.799 204.408C290.973 204.724 290.175 205.406 289.091 204.662ZM566.168 207.027C569.135 206.303 568.83 208.454 569.502 209.487C569.679 209.758 569.515 210.452 569.29 210.777C569.045 211.127 566.109 209.124 565.997 208.448C565.868 207.696 566.082 207.047 566.168 207.027ZM604.084 164.352C603.832 163.455 604.301 162.106 605.413 161.423C606.027 161.05 606.266 162.363 606.584 162.969C607.222 164.148 607.536 165.265 605.903 165.756C605.179 165.979 604.546 165.785 604.091 164.332L604.084 164.352ZM249.823 210.801C248.761 209.028 247.332 210.453 246.084 209.992C245.974 209.956 245.981 209.262 246.081 208.94C246.283 208.263 246.576 207.614 246.816 206.953C247.826 207.482 248.89 207.954 249.835 208.592C250.101 208.776 250.116 209.444 250.16 209.886C250.183 210.09 250.015 210.325 249.828 210.815L249.823 210.801ZM571.783 76.5175C570.009 77.3473 568.848 77.3924 568.892 77.012C569 76.1112 569.321 74.5946 569.776 74.5178C570.686 74.3643 571.756 74.999 572.756 75.3179C572.352 75.8168 571.936 76.3213 571.777 76.5035L571.783 76.5175ZM638.115 211.358C636.83 211.966 636.025 212.519 635.047 211.878C635.508 211.404 635.902 210.811 636.447 210.499C637.221 210.057 638.084 209.529 639.054 210.189C638.637 210.694 638.227 211.212 638.115 211.358ZM440.17 169.506C439.212 169.136 438.351 168.809 437.47 168.473C437.923 168.019 438.309 167.33 438.861 167.146C440.07 166.768 440.439 167.83 440.657 168.758C440.711 168.998 440.282 169.36 440.17 169.506ZM584.997 135.077C584.362 134.95 583.619 136.398 582.714 135.48C582.133 134.886 582.776 134.286 583.465 134.128C584.325 133.929 585.164 132.786 586.041 133.634C586.629 134.208 585.973 134.781 585.003 135.091L584.997 135.077ZM99.9084 278.69C99.1448 278.782 98.3349 279.995 97.4585 279.147C96.8703 278.573 97.5214 277.953 98.2096 277.794C99.0698 277.596 99.9092 276.453 100.786 277.301C101.374 277.875 100.718 278.447 99.9143 278.704L99.9084 278.69ZM363.19 264.781C363.821 264.449 364.46 264.361 364.668 265.227C364.722 265.467 364.171 265.913 363.813 266.147C363.219 266.528 362.555 266.595 362.341 265.714C362.287 265.474 362.881 265.092 363.19 264.781ZM437.944 248.044C437.932 247.605 437.75 246.875 437.946 246.743C438.676 246.272 439.108 246.813 439.284 247.528C439.388 247.962 439.491 248.691 439.295 248.823C438.566 249.295 438.179 248.751 437.944 248.044ZM531.793 89.4906C531.835 89.1437 531.772 88.5454 531.966 88.447C532.536 88.1574 533.182 87.5236 533.864 88.1734C534.027 88.3351 533.943 89.1435 533.756 89.2224C533.186 89.5119 532.588 90.1092 531.793 89.4906ZM116.141 234.167C115.6 234.116 114.942 234.047 114.303 233.988C114.537 233.61 114.71 233.011 115.029 232.909C115.632 232.737 116.314 232.861 116.975 232.862C116.741 233.24 116.488 233.61 116.141 234.167ZM542.437 154.939C542.775 154.994 543.353 154.948 543.455 155.152C543.754 155.749 544.389 156.436 543.781 157.12C543.629 157.282 542.843 157.17 542.76 156.974C542.461 156.377 541.863 155.741 542.437 154.939ZM462.37 59.128C462.483 58.1265 463.314 58.1215 463.933 57.91C464.12 57.8312 464.763 58.3496 464.76 58.565C464.748 59.5074 463.857 59.521 463.238 59.7325C463.032 59.8029 462.642 59.3258 462.37 59.128ZM447.942 174.174C447.985 173.827 447.921 173.229 448.116 173.131C448.686 172.841 449.331 172.207 450.014 172.857C450.176 173.019 450.092 173.827 449.905 173.906C449.335 174.196 448.738 174.793 447.942 174.174ZM541.739 97.1902C542.315 97.5886 542.902 97.7855 543.01 98.118C543.197 98.7467 543.098 99.4461 543.119 100.128C542.744 99.8749 542.177 99.6863 542.043 99.3315C541.804 98.7253 541.837 98.0205 541.739 97.1902ZM588.08 132.166C588.292 132.257 588.668 132.329 588.688 132.452C588.763 132.815 588.686 133.193 588.669 133.562C588.457 133.471 588.081 133.399 588.06 133.276C587.986 132.913 588.063 132.535 588.08 132.166ZM313.016 186.19C313.113 185.935 313.195 185.72 313.284 185.484C313.561 185.73 313.891 185.953 314.093 186.246C314.167 186.346 313.955 186.666 313.873 186.881C313.583 186.641 313.299 186.416 313.016 186.19ZM309.926 186.324C309.963 185.963 309.994 185.589 310.03 185.228C310.242 185.319 310.618 185.391 310.639 185.514C310.713 185.877 310.636 186.255 310.619 186.624C310.407 186.533 310.196 186.441 309.926 186.324ZM136.075 257.131C136.325 257.239 136.537 257.331 136.768 257.431C136.539 257.709 136.333 258.042 136.055 258.241C135.96 258.314 135.644 258.086 135.432 257.994C135.655 257.703 135.865 257.417 136.075 257.131ZM548.14 169.329C548.237 169.074 548.319 168.858 548.409 168.623C548.686 168.869 549.015 169.091 549.218 169.384C549.291 169.485 549.08 169.804 548.998 170.02C548.708 169.78 548.424 169.554 548.14 169.329ZM232.549 306.109C232.452 306.364 232.37 306.579 232.28 306.814C232.004 306.569 231.674 306.346 231.472 306.053C231.398 305.953 231.609 305.633 231.691 305.418C231.981 305.658 232.265 305.883 232.549 306.109ZM551.672 177.709L551.941 177.003C552.218 177.248 552.547 177.471 552.75 177.764C552.823 177.865 552.612 178.184 552.53 178.4C552.24 178.16 551.956 177.934 551.672 177.709ZM358.316 272.361C358.279 272.722 358.249 273.097 358.212 273.458C358 273.366 357.624 273.295 357.604 273.172C357.529 272.808 357.606 272.43 357.623 272.061C357.835 272.153 358.047 272.245 358.316 272.361ZM555.805 191.246C555.842 190.886 555.872 190.511 555.909 190.15C556.121 190.242 556.497 190.313 556.518 190.436C556.592 190.8 556.515 191.177 556.498 191.547C556.286 191.455 556.075 191.363 555.805 191.246ZM183.057 220.405C182.807 220.296 182.595 220.205 182.364 220.105C182.593 219.827 182.799 219.494 183.077 219.294C183.172 219.222 183.488 219.45 183.7 219.542C183.477 219.833 183.267 220.119 183.057 220.405ZM297.389 313.32C297.426 312.96 297.456 312.585 297.493 312.224C297.705 312.316 298.081 312.387 298.101 312.51C298.176 312.874 298.099 313.251 298.082 313.621C297.87 313.529 297.658 313.437 297.389 313.32ZM318.694 124.24C319.045 124.289 319.41 124.333 319.761 124.382C319.679 124.598 319.621 124.984 319.502 125.001C319.152 125.066 318.784 124.975 318.425 124.945C318.507 124.73 318.589 124.514 318.694 124.24ZM291.602 326.796C291.565 327.157 291.534 327.532 291.498 327.892C291.286 327.801 290.91 327.729 290.889 327.606C290.815 327.243 290.892 326.865 290.909 326.496C291.121 326.587 291.332 326.679 291.602 326.796ZM630.236 209.794C630.448 209.886 630.824 209.957 630.844 210.08C630.919 210.444 630.842 210.822 630.825 211.191C630.613 211.099 630.237 211.027 630.216 210.904C630.142 210.541 630.219 210.163 630.236 209.794ZM564.415 238.358C564.497 238.143 564.555 237.757 564.673 237.74C565.023 237.674 565.392 237.766 565.751 237.795C565.669 238.011 565.611 238.397 565.492 238.414C565.143 238.479 564.774 238.388 564.415 238.358ZM606.684 221.612C607.035 221.661 607.4 221.705 607.751 221.755C607.669 221.97 607.611 222.356 607.493 222.373C607.143 222.439 606.774 222.347 606.415 222.318C606.497 222.102 606.58 221.886 606.684 221.612ZM603.482 224.129C603.131 224.08 602.767 224.036 602.416 223.987C602.498 223.771 602.555 223.385 602.674 223.368C603.024 223.303 603.393 223.394 603.751 223.424C603.669 223.639 603.587 223.855 603.482 224.129ZM640.763 208.647C640.975 208.738 641.351 208.81 641.371 208.933C641.446 209.296 641.369 209.674 641.352 210.043C641.14 209.952 640.764 209.88 640.743 209.757C640.669 209.394 640.746 209.016 640.763 208.647Z" fill="#E33137"/>
<path d="M541.774 225.696C542.422 226.673 542.231 228.645 544.581 227.802C544.674 227.763 544.488 227.842 544.287 227.926C544.254 227.512 544.156 227.093 544.221 226.688C544.295 226.229 544.731 226.144 545.121 226.621C545.257 226.794 544.977 227.323 544.594 227.797C546.147 230.547 548.932 229.505 551.274 229.8C552.621 229.973 553.892 228.845 554.124 227.119C554.347 225.446 555.414 224.618 556.891 224.242C556.445 223.296 556.699 222.629 557.638 222.283C557.203 220.69 556.589 219.271 556.485 217.456C556.274 214.009 556.441 210.337 554.435 207.07C553.457 205.459 553.486 203.588 553.43 201.589C553.289 197.224 550.463 195.816 546.495 197.374C541.385 199.396 536.549 202.289 530.537 200.975C529.15 200.671 527.502 202.171 525.925 202.721C524.8 203.113 524.679 204.167 524.461 205.032C523.884 207.282 526.558 212.471 529.511 214.401C529.604 214.361 529.417 214.44 529.217 214.524C529.184 214.111 529.086 213.691 529.151 213.286C529.225 212.827 529.661 212.742 530.051 213.219C530.187 213.392 529.906 213.921 529.524 214.395C530.315 215.674 529.477 218.576 532.626 218.022C532.719 217.983 532.532 218.061 532.332 218.146C532.299 217.732 532.201 217.313 532.266 216.907C532.34 216.448 532.776 216.363 533.166 216.84C533.302 217.013 533.021 217.543 532.639 218.016C532.993 219.117 532.802 221.089 535.152 220.247C535.245 220.207 535.059 220.286 534.858 220.371C534.825 219.957 534.727 219.538 534.792 219.132C534.866 218.673 535.302 218.588 535.692 219.065C535.828 219.238 535.548 219.767 535.165 220.241C535.519 221.342 535.328 223.314 537.678 222.471C537.772 222.432 537.585 222.511 537.384 222.595C537.352 222.182 537.254 221.762 537.319 221.357C537.393 220.898 537.829 220.813 538.218 221.29C538.354 221.463 538.074 221.992 537.692 222.466C538.046 223.567 537.854 225.539 539.911 224.82C539.893 224.367 539.69 223.663 539.9 223.525C540.619 222.992 541.017 223.564 541.246 224.257C541.685 224.253 542.362 224.067 542.502 224.287C543.042 225.046 542.5 225.439 541.835 225.654L541.774 225.696ZM550.513 227.769C550.595 227.554 550.652 227.168 550.771 227.151C551.121 227.085 551.49 227.177 551.848 227.206C551.766 227.422 551.709 227.808 551.59 227.825C551.24 227.89 550.871 227.799 550.513 227.769Z" fill="#E33137"/>
<path d="M493.193 214.921C495.348 216.266 496.657 215.714 497.2 213.232L493.193 214.921Z" fill="#E33137"/>
<path d="M482.887 44.9204C483.534 45.8975 483.343 47.8695 485.4 47.1508L484.222 44.3575L482.887 44.9204Z" fill="#E33137"/>
<path d="M24.5368 312.12C24.9029 313.1 25.5572 313.384 26.4612 312.953L25.8725 311.557L24.5368 312.12Z" fill="#E33137"/>
<path d="M268.551 245.458C267.611 245.805 267.357 246.471 267.804 247.418L269.139 246.855L268.551 245.458Z" fill="#E33137"/>
<path d="M263.282 273.993C262.342 274.339 262.088 275.006 262.535 275.952L263.87 275.389L263.282 273.993Z" fill="#E33137"/>
<path d="M221.544 298.16C221.91 299.14 222.565 299.424 223.469 298.993L222.88 297.597L221.544 298.16Z" fill="#E33137"/>
<path d="M234.126 309.311C234.492 310.292 235.146 310.575 236.05 310.145L235.462 308.748L234.126 309.311Z" fill="#E33137"/>
<path d="M6.62513 303.219C6.99124 304.2 7.6455 304.484 8.54945 304.053L7.9608 302.657L6.62513 303.219Z" fill="#E33137"/>
<path d="M271.433 323.193C271.799 324.174 272.453 324.457 273.357 324.027L272.768 322.63L271.433 323.193Z" fill="#E33137"/>
<path d="M282.977 328.199C283.343 329.179 283.998 329.463 284.902 329.032L284.313 327.636L282.977 328.199Z" fill="#E33137"/>
<path d="M539.853 224.864C540.219 225.844 540.873 226.128 541.777 225.697L541.189 224.301L539.853 224.864Z" fill="#E33137"/>
<path d="M296.757 327.318C296.079 327.538 295.55 327.925 296.09 328.685C296.238 328.886 296.92 328.713 297.346 328.715L296.757 327.318Z" fill="#E33137"/>
<path d="M302.378 333.173C302.745 334.154 303.399 334.437 304.303 334.007L303.714 332.61L302.378 333.173Z" fill="#E33137"/>
<path d="M304.296 334.012C304.662 334.992 305.316 335.276 306.22 334.846L305.631 333.449L304.296 334.012Z" fill="#E33137"/>
<path d="M480.957 44.0908C481.323 45.0714 481.977 45.3549 482.881 44.9245L482.292 43.5279L480.957 44.0908Z" fill="#E33137"/>
<path d="M309.126 259.611L310.462 259.048C310.096 258.067 309.441 257.784 308.538 258.214L309.126 259.611Z" fill="#E33137"/>
<path d="M474.444 43.5464L475.78 42.9834L475.191 41.5868L473.856 42.1497L474.444 43.5464Z" fill="#E33137"/>
</svg>
