<svg width="634" height="339" viewBox="0 0 634 339" fill="none" xmlns="http://www.w3.org/2000/svg">
<path d="M285.609 329.029C286.613 331.073 287.766 329.518 289.163 329.176C289.257 329.137 289.07 329.215 288.869 329.3C288.837 328.886 288.739 328.467 288.804 328.061C288.878 327.602 289.314 327.517 289.703 327.994C289.839 328.167 289.559 328.697 289.177 329.17C291.811 329.935 291.805 329.921 294.772 327.108C295.683 326.247 296.649 325.626 297.485 327.313C297.924 327.309 298.601 327.123 298.741 327.343C299.281 328.102 298.739 328.495 298.074 328.71C298.974 331.143 300.756 332.497 303.1 333.171C302.906 332.71 302.658 332.271 302.537 331.796C302.433 331.363 302.297 330.631 302.487 330.485C303.219 329.946 303.597 330.543 303.859 331.239C304.04 331.705 304.241 332.147 304.436 332.608C305.34 332.177 305.994 332.461 306.36 333.441C306.799 333.437 307.475 333.251 307.615 333.471C308.156 334.231 307.613 334.624 306.949 334.838C307.911 336.225 309.2 336.784 311.091 336.382C311.185 336.342 310.998 336.421 310.797 336.505C310.764 336.092 310.666 335.672 310.731 335.267C310.805 334.808 311.241 334.723 311.631 335.2C311.767 335.373 311.487 335.902 311.105 336.376C312.931 337.761 315.094 338.116 317.625 336.917C317.718 336.878 317.531 336.957 317.331 337.041C317.298 336.627 317.2 336.208 317.265 335.803C317.339 335.344 317.775 335.259 318.165 335.736C318.3 335.909 318.02 336.438 317.638 336.912C318.334 339.086 319.501 337.525 321.432 336.957C321.681 335.57 321.144 338.477 320.388 336.608C320.282 336.356 321.087 335.54 321.617 335.268C322.368 334.885 323.549 333.993 324.043 334.903C324.585 335.892 323.225 336.136 321.432 336.957C320.916 337.635 321.375 338.314 321.535 338.246C326.14 336.371 330.734 334.435 335.292 332.448C335.453 332.38 335.287 331.578 334.625 330.64C334.315 330.278 334.759 330.288 334.997 330.516C335.512 330.99 335.368 331.396 334.683 331.339C334.357 331.312 334.025 331.008 333.741 330.783C333.691 330.738 333.877 330.396 334.625 330.64C339.326 329.629 339.961 325.76 341.236 322.031C341.031 322.365 340.755 322.234 340.652 321.504C340.552 320.856 340.294 320.208 340.273 319.559C340.251 319.059 340.773 318.954 341.214 319.442C341.861 320.156 342.149 320.989 341.236 322.031C342.079 323.584 343.454 324.419 345.199 323.634C348.724 322.033 352.533 321.069 355.289 317.868C357.013 315.875 359.116 314.035 361.734 313.08C361.867 313.023 361.735 312.224 361.059 311.292C360.748 310.929 361.193 310.939 361.431 311.168C361.945 311.642 361.802 312.048 361.117 311.991C360.791 311.964 360.459 311.66 360.169 311.42C360.119 311.375 360.305 311.034 361.053 311.278C366.375 308.081 369.715 303.318 370.877 297.268C370.567 296.906 371.012 296.916 371.25 297.144C371.764 297.618 371.621 298.024 370.936 297.967C370.61 297.94 370.278 297.636 369.994 297.411C369.943 297.366 370.13 297.024 370.877 297.268C373.288 296.269 373.527 293.964 374.243 291.968C375.261 289.121 373.732 287.546 370.484 286.332C367.441 285.197 363.634 285.42 361.709 281.823C361.264 280.991 360.504 279.897 361.326 279.123C362.319 278.194 363.275 278.334 364.085 279.884C364.962 281.554 366.126 280.06 367.45 279.732C367.544 279.693 367.357 279.772 367.156 279.856C367.124 279.442 367.025 279.023 367.09 278.618C367.164 278.159 367.6 278.074 367.99 278.551C368.126 278.724 367.846 279.253 367.464 279.727C369.111 281.286 371.199 281.574 373.283 280.547C376.547 278.925 379.958 277.948 383.922 277.724C384.015 277.685 383.828 277.764 383.628 277.848C383.595 277.434 383.497 277.015 383.562 276.609C383.636 276.151 384.072 276.066 384.462 276.543C384.598 276.716 384.318 277.245 383.935 277.719C384.449 279.722 385.594 278.631 386.575 278.234C394.707 274.84 402.822 271.403 411.237 267.856C411.331 267.817 411.144 267.896 410.943 267.98C410.91 267.566 410.812 267.147 410.877 266.742C410.951 266.283 411.387 266.198 411.777 266.675C411.913 266.848 411.633 267.377 411.25 267.851C411.421 269.374 412.859 269.278 413.145 268.615C414.248 266.044 416.618 265.621 418.709 264.723C423.987 262.466 429.177 259.966 434.587 258.097C441.706 255.656 446.826 250.077 453.272 246.636C453.872 243.917 456.503 244.189 458.248 243.141C459.09 242.638 460.022 242.311 458.351 240.548C457.858 240.164 458.568 240.095 459.045 240.404C459.629 240.783 459.416 241.136 458.728 241.294C457.954 241.472 457.204 242.232 456.485 241.236C456.417 241.149 456.954 240.594 458.351 240.548C463.691 237.508 468.641 234.698 471.869 229.966C472.825 228.576 474.059 228.22 475.311 227.758C478.822 226.46 481.019 223.313 484.149 221.484C484.176 221.473 483.967 221.051 482.873 220.361C482.381 219.976 483.091 219.907 483.568 220.216C484.152 220.595 483.939 220.948 483.251 221.106C482.476 221.285 481.727 222.044 481.008 221.048C480.94 220.962 481.477 220.406 482.873 220.361C486.219 220.612 486.389 217.58 488.664 217.081C490.509 216.682 492.206 215.671 493.969 214.927C494.512 212.445 495.821 211.894 497.976 213.239C502.246 210.83 507.576 210.525 510.926 206.234C511.727 205.223 513.557 204.451 514.84 204.585C520.251 205.183 524.197 201.595 528.891 200.192C530.285 199.769 531.788 199.267 530.56 197.137C530.488 197.003 530.988 196.249 531.17 196.271C536.388 197.082 540.039 193.241 544.526 191.908C547.115 191.146 548.933 188.258 547.773 186.214C545.367 181.998 545.869 177.181 543.958 172.871C539.543 162.956 535.262 152.984 531.354 142.854C529.814 138.865 526.344 136.38 525.016 132.219C523.863 128.626 522.98 124.591 519.441 122.053C518.422 121.314 518.199 119.368 517.611 117.972C511.924 104.48 505.957 91.1067 500.678 77.4601C498.245 71.1662 493.898 66.0408 491.535 59.7998C490.977 58.3248 488.874 58.6353 488.622 56.768C488.417 55.2752 487.534 54.7099 486.035 55.4075C483.853 56.4258 481.404 56.9974 479.425 58.3088C476.695 60.1172 473.442 59.0046 470.631 60.1729C469.99 60.4431 468.299 59.7905 468.06 59.1843C467.34 57.3657 469.277 57.6681 470.087 57.2771C472.686 56.0172 475.441 55.0533 478.058 53.8353C481.678 52.1615 481.927 49.9515 478.644 46.8284C477.83 46.0532 477.689 45.1587 477.137 44.3715C476.233 44.8019 475.578 44.5184 475.212 43.5378C474.774 43.5418 474.097 43.7282 473.957 43.5077C473.417 42.7485 473.959 42.3555 474.624 42.1412C474.606 41.6882 474.403 40.984 474.613 40.8464C475.332 40.3131 475.73 40.8853 475.959 41.5782C476.4 41.3925 476.817 41.1508 477.274 41.0405C477.691 40.9471 478.397 40.8305 478.544 41.0315C479.091 41.8046 478.523 42.1753 477.857 42.4232C477.41 42.595 476.989 42.7891 476.548 42.9749L477.137 44.3715C478.545 42.9722 480.234 44.4805 481.732 44.0794C481.714 43.6264 481.512 42.9222 481.721 42.7846C482.44 42.2513 482.839 42.8235 483.068 43.5164C483.972 43.0861 484.626 43.3695 484.992 44.3501C485.742 43.8531 486.374 44.1953 486.749 44.8599C487.237 45.7562 487.466 46.712 486.17 47.1434C486.817 48.1204 486.626 50.0925 488.976 49.2499C489.07 49.2105 488.883 49.2893 488.683 49.3738C488.65 48.96 488.552 48.5408 488.617 48.1351C488.691 47.6763 489.127 47.5912 489.517 48.0683C489.652 48.2413 489.372 48.7706 488.99 49.2443C489.344 50.3452 489.152 52.3172 491.503 51.4747C491.596 51.4353 491.409 51.5141 491.209 51.5985C491.176 51.1847 491.078 50.7655 491.143 50.3598C491.217 49.901 491.653 49.8159 492.043 50.2931C492.179 50.4661 491.898 50.9954 491.516 51.469C491.87 52.5699 491.679 54.542 494.029 53.6994C494.123 53.66 493.936 53.7388 493.735 53.8232C493.702 53.4095 493.604 52.9902 493.669 52.5846C493.743 52.1257 494.179 52.0407 494.569 52.5178C494.705 52.6908 494.425 53.2201 494.042 53.6938C496.267 56.6213 498.146 59.8098 499.404 63.3915C499.635 64.0508 500.406 64.3507 501.429 63.7551C501.223 64.0884 500.948 63.9577 500.845 63.2281C500.745 62.5796 500.487 61.9315 500.466 61.2828C500.443 60.7823 500.965 60.6774 501.407 61.1656C502.054 61.8797 502.342 62.7123 501.429 63.7551C501.524 64.8007 501.931 65.7308 502.306 66.6583C502.595 67.3426 503.205 68.1548 503.649 67.3426C504.367 65.9871 505.657 65.2788 505.484 67.1446C505.077 71.4775 507.685 74.6053 508.787 78.3021C509.007 79.0482 509.579 79.9583 510.2 79.7133C511.553 79.1922 512.767 79.1246 512.898 80.7798C513.096 83.2625 511.271 80.7255 510.694 81.4458C510.109 82.1856 510.594 83.0009 511.017 83.4808C511.786 84.3735 512.763 83.3697 513.65 83.5714C514.538 83.7732 514.784 84.6562 514.767 85.2883C514.746 86.4321 513.901 86.0317 513.342 85.6753C512.719 85.2799 512.183 85.3904 512.367 85.938C513.181 88.2429 512.913 91.3002 516.456 91.945C516.251 92.2783 515.975 92.1476 515.872 91.418C515.772 90.7695 515.514 90.1214 515.493 89.4727C515.471 88.9722 515.993 88.8673 516.434 89.3555C517.081 90.0696 517.369 90.9022 516.456 91.945C522.802 107.823 529.442 123.577 536.088 139.346C536.965 141.427 539.053 144.066 538.475 145.494C537.312 148.369 541.361 148.423 540.382 150.727C539.644 152.485 541.839 153.698 541.666 155.827C541.502 157.788 543.206 159.964 544.089 162.059L546.726 168.316C547.114 169.238 547.522 170.168 547.897 171.096C548.471 172.532 548.948 174.074 550.942 172.872C551.057 172.807 551.523 173.318 551.813 173.557C547.616 177.185 552.75 179.922 553.037 183.14C553.166 184.566 554.212 185.556 555.631 186.422C556.732 187.093 557.536 189.188 554.529 188.137C553.737 187.862 553.824 188.927 554.112 189.611C554.895 191.469 555.672 193.313 556.591 195.491C556.632 195.589 556.549 195.394 556.461 195.184C556.861 195.163 557.265 195.076 557.66 195.156C558.108 195.247 558.204 195.699 557.754 196.087C557.59 196.221 557.068 195.915 556.597 195.505C556.158 195.509 555.53 195.922 555.599 196.123C556.205 197.973 556.628 199.982 557.666 201.551C558.919 203.441 557.273 205.171 558.242 207.098C560.768 212.119 559.707 217.254 558.46 222.319L559.178 224.023C559.22 224.121 559.137 223.925 559.049 223.716C559.449 223.695 559.853 223.607 560.248 223.687C560.695 223.778 560.792 224.231 560.342 224.618C560.178 224.753 559.656 224.447 559.184 224.037C558.614 223.915 558.16 224.107 557.719 224.292C558.625 231.032 555.291 235.25 548.617 235.761C542.967 236.201 543.148 235.96 536.549 230.715C534.372 228.984 533.57 225.326 530.063 225.439C529.535 222.619 526.383 221.858 525.545 219.086C523.952 213.853 519.533 210.831 515.957 207.124C514.616 205.732 513.836 206.719 512.852 207.034C511.057 207.627 511.901 208.883 512.366 209.986C512.931 211.327 513.973 212.269 514.871 213.355C517.126 216.056 519.414 218.759 520.826 222.259C523.252 228.276 528.174 232.452 532.989 236.525C541.298 243.549 550.273 245.885 560.481 241.221C560.575 241.181 560.388 241.26 560.187 241.344C560.154 240.931 560.056 240.511 560.121 240.106C560.195 239.647 560.631 239.562 561.021 240.039C561.157 240.212 560.877 240.741 560.495 241.215C561.405 243.562 562.716 241.858 563.79 241.421C575.72 236.475 587.609 231.432 600.111 226.162C600.276 225.731 599.646 227.148 599.299 225.765C599.215 225.454 599.58 224.791 599.88 224.681C600.439 224.478 601.117 224.554 601.747 224.519C601.81 225.266 601.467 225.722 600.125 226.157C600.741 228.627 602.058 226.937 603.126 226.487C613.28 222.29 623.393 217.994 633.811 213.603C633.904 213.564 633.717 213.643 633.517 213.727C633.484 213.314 633.386 212.894 633.451 212.489C633.525 212.03 633.961 211.945 634.351 212.422C634.487 212.595 634.207 213.124 633.824 213.598C633.842 214.051 634.301 214.729 634.475 214.656C639.08 212.781 643.674 210.844 648.232 208.858C648.392 208.79 648.227 207.988 647.565 207.05C647.254 206.687 647.699 206.697 647.937 206.926C648.451 207.4 648.308 207.806 647.623 207.749C647.297 207.722 646.965 207.418 646.681 207.192C646.631 207.148 646.817 206.806 647.565 207.05C656.606 204.243 663.676 198.253 672.406 195.642C674.026 195.157 674.318 192.715 672.936 191.636C671.837 190.784 670.489 189.674 669.039 190.565C665.251 192.885 660.351 192.828 657.194 196.758C655.831 198.451 653.037 198.987 650.806 199.812C649.647 200.235 648.953 198.998 649.081 198.072C649.731 193.604 647.431 189.343 647.873 184.831C647.955 183.941 645.986 182.518 646.084 180.437C646.165 178.873 645.011 177.106 644.147 175.579C640.664 169.481 640.842 162.251 637.628 156.007C634.522 149.981 632.315 143.476 629.552 137.256C628.7 135.346 630.879 132.305 627.36 131.42C628.685 128.707 626.487 126.738 625.75 124.467C625.047 122.313 624.03 120.274 623.147 118.179C622.17 115.86 620.962 113.59 620.263 111.187C619.446 108.39 617.067 106.514 616.708 103.311C616.341 99.9781 612.435 98.2857 611.556 94.7085C610.782 91.5646 609.113 88.6496 607.835 85.6188C606.558 82.5881 605.838 79.1252 603.906 76.6331C598.324 69.397 596.214 60.5825 592.342 52.5922C591.901 51.6929 591.575 49.988 591.132 49.9444C586.119 49.5079 587.637 45.0852 586.424 42.3563C585.252 39.7252 584.301 37.1326 581.948 34.9829C579.575 32.8249 577.692 29.8853 576.52 26.5466C575.258 22.9174 571.527 20.5589 570.164 16.0183C569.854 15.6556 570.298 15.6656 570.536 15.8942C571.051 16.3682 570.907 16.7741 570.223 16.7173C569.897 16.6902 569.564 16.3863 569.28 16.1605C569.23 16.1159 569.416 15.7742 570.164 16.0183C575.326 13.7111 580.922 14.5599 585.597 12.0303C590.043 9.62994 594.892 7.99753 599.566 6.02721C600.675 5.55996 601.869 5.22112 602.875 4.58356C603.914 3.91516 606.317 4.31689 605.546 2.07619C604.924 0.265736 603.044 -0.53733 601.404 0.384405C595.959 3.40272 589.215 2.4787 584.001 6.04171C579.949 8.81852 574.685 7.4514 570.604 10.0102C567.987 8.46524 566.017 10.3974 563.922 11.2477C561.933 12.0529 560.031 12.4272 557.857 12.1591C556.315 11.9704 554.817 11.8122 553.111 12.3175C546.95 14.1576 540.707 15.9169 534.355 16.8179C532.319 17.1003 530.285 17.201 528.358 17.9641C527.917 18.1498 527.44 18.5483 527.023 18.4935C521.573 17.7645 516.637 19.7131 511.551 20.9686C510.809 21.1497 509.73 20.7163 508.894 21.2332C503.37 24.6964 496.593 24.4771 490.859 27.2558C488.441 28.4229 485.8 27.085 483.376 28.5346C481.49 29.6584 479.371 31.4231 476.737 29.951C471.502 32.0095 466.069 33.6743 461.846 37.724C460.536 38.9832 459.756 40.2661 460.537 42.1572C461.02 43.3025 461.349 44.6439 463.031 43.82C465.355 42.6922 468.288 44.4992 470.436 42.3931C470.628 42.2136 471.286 42.5446 471.733 42.6357C471.467 43.0111 471.296 43.5765 470.942 43.7425C469.195 44.561 467.389 45.2399 465.617 46.0361C464.573 46.5088 463.685 47.0146 462.833 48.0153C460.139 51.1408 458.581 54.1988 461.033 58.4121C462.215 60.4307 461.893 61.9809 459.178 61.1018C457.773 60.6414 456.854 61.2591 455.812 61.6982C451.039 63.6604 445.521 63.256 441.086 66.2436C435.477 65.1375 430.851 71.0676 424.926 68.1698C424.472 67.9501 423.578 68.5901 422.964 68.9637C416.988 72.5848 409.815 72.6966 403.57 75.4934C401.216 76.5513 398.503 75.0793 396.116 76.8421C394.326 78.1557 392.083 79.2161 389.447 78.2222C388.771 77.9639 387.608 78.7501 386.824 79.278C382.972 81.8557 378.302 81.6364 374.084 82.9371C369.966 84.2123 365.803 85.457 361.337 85.086C360.9 85.0565 360.42 85.3738 360.009 85.6294C352.763 89.9334 343.895 89.7563 336.656 93.9261C333.621 95.6822 330.167 94.3912 327.181 96.0773C324.256 97.7212 321.092 99.5811 317.861 99.9395C309.059 100.886 301.838 105.772 293.828 108.638C288.975 110.371 284.029 111.847 279.218 113.496C274.395 115.151 269.679 114.375 264.979 115.09C263.529 115.306 262.479 117.295 260.742 115.971C253.648 119.257 245.333 119.308 238.724 123.705C230.744 128.993 221.364 132.189 214.968 139.853C213.608 141.478 210.572 140.768 210.144 143.596C200.541 148.466 193.723 157.145 184.745 162.936C178.513 166.961 172.195 170.742 165.703 174.334C159.708 177.65 153.77 180.991 147.395 183.481C144.796 187.389 140.304 187.966 136.495 189.638C133.694 190.867 131.141 192.273 128.961 194.491C125.391 198.15 120.591 200.009 116.574 203.018C112.584 206.015 108.452 208.826 104.529 211.91C99.3161 215.999 94.6944 221.006 88.2433 223.165C84.1929 224.527 81.6615 228.374 77.5773 229.618C76.7384 232.554 73.8724 232.397 71.8064 233.317C69.8206 234.203 69.4956 236.791 67.0072 237.231C65.0141 237.578 62.29 238.019 61.442 240.037C60.5001 242.244 57.2025 241.66 57.2458 244.487C53.6807 245.134 53.3884 249.665 50.1821 250.754C47.1954 251.766 44.8114 253.461 43.7242 256.666C38.6162 257.273 37.0147 262.915 32.7347 264.703C32.294 264.888 31.8029 265.03 31.4745 265.332C28.9775 267.618 28.9267 272.163 24.8171 272.974C21.2489 273.688 18.7929 276.632 16.1397 278.621C12.5016 281.372 9.26686 285.005 5.89087 288.303C5.56828 288.62 5.46825 289.353 5.1375 289.426C2.65292 290.062 0.623673 292.563 0.71383 294.12C0.889153 296.924 2.67407 299.741 4.16175 302.338C4.54958 302.997 6.10308 303.921 7.43444 303.311C7.41654 302.858 7.21412 302.153 7.42353 302.016C8.14251 301.482 8.54098 302.055 8.77011 302.748C9.20884 302.744 9.88529 302.557 10.0254 302.778C10.5656 303.537 10.0234 303.93 9.35876 304.144C11.1819 304.626 11.3429 307.732 14.0899 307.084C14.1834 307.045 13.9964 307.124 13.7961 307.208C13.7632 306.795 13.6652 306.375 13.7301 305.97C13.8042 305.511 14.2402 305.426 14.63 305.903C14.7659 306.076 14.4856 306.605 14.1033 307.079C13.5967 310.878 18.0252 308.025 18.4645 310.784C20.9523 310.08 22.6562 314.198 25.3553 312.205C25.3374 311.752 25.135 311.048 25.3444 310.91C26.0634 310.377 26.4619 310.949 26.691 311.642C27.1297 311.638 27.8062 311.452 27.9463 311.672C28.4865 312.431 27.9443 312.824 27.2796 313.039C29.197 315.684 32.0338 314.242 34.6821 314.853C34.7756 314.814 34.5886 314.892 34.3883 314.977C34.3554 314.563 34.2574 314.144 34.3223 313.738C34.3964 313.279 34.8324 313.194 35.2222 313.671C35.3581 313.844 35.0778 314.374 34.6954 314.847C34.4958 315.195 34.6398 315.611 34.6665 315.6C37.1569 314.978 39.836 316.184 42.839 314.688C43.0034 314.257 42.3736 315.674 42.0265 314.29C41.943 313.98 42.3081 313.316 42.6078 313.207C43.1672 313.004 43.8444 313.08 44.4744 313.045C44.5374 313.791 44.1951 314.248 42.8524 314.682C42.3648 315.168 42.4879 315.609 42.5531 315.615C47.4202 315.257 51.7251 313.081 55.591 310.498C59.1658 308.119 62.3175 304.998 66.2816 303.245C70.3602 301.427 72.5954 297.475 76.129 294.999C79.7784 292.425 82.3075 288.349 86.5153 286.427C86.7424 286.332 86.9812 286.264 87.1831 286.146C88.5272 285.267 87.7879 282.207 89.5462 282.535C91.4868 282.885 92.7229 281.936 94.5475 281.414C94.641 281.374 94.454 281.453 94.2537 281.538C94.2208 281.124 94.1228 280.705 94.1878 280.299C94.2618 279.84 94.6978 279.755 95.0877 280.232C95.2235 280.405 94.9433 280.935 94.5609 281.408C94.4717 282.466 95.2415 282.799 95.8665 282.453C98.8817 280.837 102.064 279.841 104.864 277.378C107.945 274.649 112.576 273.733 116.573 272.131C121.516 270.163 125.805 267.203 129.707 263.585C130.377 262.974 131.277 262.496 132.145 262.278C137.745 260.937 141.615 256.461 146.672 254.165C146.832 254.097 146.667 253.295 146.005 252.357C145.695 251.995 146.139 252.005 146.377 252.233C146.891 252.707 146.748 253.113 146.063 253.056C145.737 253.029 145.405 252.725 145.115 252.486C145.065 252.441 145.251 252.099 145.999 252.343C148.794 251.922 150.918 251.027 153.055 250.126C153.963 249.743 154.706 249.266 153.424 247.569C153.114 247.206 153.559 247.216 153.796 247.445C154.311 247.919 154.167 248.325 153.483 248.268C153.157 248.241 152.824 247.937 152.534 247.697C152.484 247.653 152.67 247.311 153.418 247.555C157.932 246.771 160.068 243.255 162.937 240.731C163.715 240.041 163.808 238.209 165.304 238.697C166.799 239.185 164.817 240.267 165.402 240.909C166.013 241.573 166.751 241.048 167.392 240.777C171.386 239.094 175.512 237.651 179.369 235.68C190.878 229.81 203.548 227.068 215.488 222.332C219.317 220.817 221.889 217.627 225.613 216.238C225.167 215.292 225.421 214.625 226.36 214.279C225.322 211.032 225.733 209.954 228.601 208.4C228.338 207.179 226.391 207.111 226.522 206.826C227.471 204.748 227.19 201.692 230.574 200.989C230.335 201.354 230.187 201.153 229.925 200.457C229.17 198.44 230.643 194.135 232.391 193.694C232.676 193.623 233.09 194.008 233.448 194.186C232.455 196.085 233.785 198.567 232.185 200.294C231.881 200.62 231.328 200.688 230.567 201.009C232.112 202.249 233.143 203.986 231.27 205.4C230.089 206.293 229.934 207.904 228.581 208.425C228.274 210.199 227.982 211.967 227.805 214.048C227.846 214.146 227.764 213.951 227.675 213.741C228.076 213.72 228.479 213.633 228.874 213.713C229.322 213.804 229.418 214.257 228.968 214.644C228.805 214.778 228.282 214.472 227.811 214.062C227.24 213.941 226.786 214.132 226.346 214.318C226.792 215.265 226.538 215.931 225.598 216.278C226.089 217.403 226.572 218.4 226.003 219.775C223.947 224.786 222.166 229.928 220.116 234.954C218.932 237.854 218.204 240.793 218.53 244.29C218.571 244.388 218.489 244.192 218.4 243.983C218.801 243.962 219.204 243.874 219.6 243.954C220.047 244.045 220.143 244.498 219.693 244.885C219.53 245.02 219.007 244.714 218.536 244.304C215.512 245.266 220.275 247.946 217.695 249.214C215.049 250.511 217.796 253.037 216.725 254.936C216.766 255.034 216.684 254.838 216.596 254.629C216.996 254.608 217.399 254.52 217.795 254.6C218.242 254.691 218.339 255.144 217.888 255.531C217.725 255.666 217.203 255.36 216.731 254.95C215.24 257.831 215.77 261.589 216.387 264.47C217.26 268.559 217.07 272.324 216.71 276.209C216.61 277.353 217.218 278.051 217.547 279.277C217.588 279.375 217.506 279.18 217.417 278.97C217.818 278.949 218.221 278.862 218.616 278.942C219.064 279.033 219.16 279.485 218.71 279.873C218.547 280.007 218.024 279.701 217.553 279.291C215.122 280.727 217.778 282.14 217.983 284.044C218.024 284.142 217.942 283.946 217.853 283.737C218.254 283.716 218.657 283.628 219.053 283.708C219.5 283.799 219.596 284.252 219.146 284.639C218.983 284.774 218.46 284.468 217.989 284.058C215.558 285.494 218.214 286.907 218.562 289.113C218.985 289.296 217.591 288.601 218.922 288.287C219.22 288.21 219.875 288.609 219.991 288.921C220.206 289.505 220.154 290.202 220.208 290.853C219.486 290.894 219.032 290.526 218.568 289.127C217.675 292.233 219.323 296.144 222.43 298.289C222.412 297.836 222.209 297.132 222.419 296.994C223.138 296.461 223.536 297.033 223.765 297.726C224.204 297.722 224.88 297.535 225.021 297.756C225.561 298.515 225.018 298.908 224.354 299.122C226.132 302.781 229.824 304.86 231.733 308.496C232.069 309.144 233.669 310.065 234.994 309.44C234.976 308.987 234.774 308.283 234.983 308.146C235.702 307.612 236.101 308.185 236.33 308.878C236.769 308.874 237.445 308.687 237.585 308.908C238.126 309.667 237.583 310.06 236.919 310.274C237.922 312.319 239.075 310.763 240.473 310.421C240.566 310.382 240.379 310.461 240.179 310.545C240.146 310.131 240.048 309.712 240.113 309.306C240.187 308.847 240.623 308.762 241.013 309.24C241.148 309.413 240.868 309.942 240.486 310.415C242.312 311.8 244.475 312.155 247.006 310.957C247.099 310.918 246.912 310.996 246.712 311.081C246.679 310.667 246.581 310.248 246.646 309.842C246.72 309.383 247.156 309.298 247.546 309.775C247.682 309.948 247.402 310.478 247.019 310.951C251.522 311.784 255.237 310.185 255.688 306.179C256.07 302.794 257.785 299.884 257.228 296.024C256.917 295.661 257.362 295.671 257.6 295.9C258.114 296.374 257.971 296.779 257.286 296.723C256.96 296.696 256.628 296.392 256.344 296.166C256.294 296.121 256.48 295.78 257.228 296.024C259.78 295.885 258.375 294.454 258.463 293.431C259.185 285.33 259.914 277.243 260.467 269.115C260.692 265.731 262.238 262.793 262.698 259.441C263.219 255.751 263.79 251.958 264.642 248.342C265.517 244.635 265.634 240.621 267.557 237.196C268.972 234.658 269.036 231.786 268.722 228.876C268.635 228.073 269.021 227.533 269.817 227.296C270.62 227.072 271.254 227.233 271.507 228.096C271.926 229.499 273.212 230.684 272.79 232.26C272.534 233.256 270.298 233.063 271.381 235.222C271.422 235.32 271.34 235.124 271.251 234.915C271.651 234.894 272.055 234.806 272.45 234.887C272.898 234.978 272.994 235.43 272.544 235.817C272.38 235.952 271.858 235.646 271.387 235.236C270.088 238.349 269.281 241.847 269.446 245.561C269.885 245.557 270.562 245.37 270.702 245.591C271.242 246.35 270.7 246.743 270.035 246.957C270.053 247.41 270.255 248.114 270.046 248.252C269.327 248.785 268.928 248.213 268.699 247.52C267.047 252.296 267.202 257.477 266.118 262.408C265.501 265.234 264.673 267.935 263.741 270.613C263.257 272.002 263.682 272.974 264.178 274.113C264.617 274.109 265.294 273.923 265.434 274.144C265.974 274.903 265.432 275.296 264.767 275.51C264.785 275.963 264.987 276.667 264.778 276.805C264.059 277.338 263.661 276.766 263.431 276.073C261.948 280.876 262.828 286.098 261.601 290.875C260.125 296.628 259.94 302.348 260.704 308.227C261.461 313.943 262.818 319.178 270.111 320.956C270.204 320.916 270.018 320.995 269.817 321.08C269.784 320.666 269.686 320.247 269.751 319.841C269.825 319.382 270.261 319.297 270.651 319.774C270.787 319.947 270.507 320.477 270.124 320.95C270.478 322.051 270.287 324.023 272.343 323.304C272.326 322.851 272.123 322.147 272.333 322.01C273.052 321.476 273.45 322.049 273.679 322.741C274.118 322.737 274.794 322.551 274.934 322.772C275.475 323.531 274.932 323.924 274.268 324.138C276.848 327.163 280.062 328.555 283.889 328.307C283.871 327.854 283.669 327.15 283.878 327.012C284.597 326.479 284.996 327.051 285.225 327.744C285.664 327.74 286.34 327.553 286.48 327.774C287.021 328.533 286.478 328.926 285.814 329.14L285.609 329.029ZM343.632 306.219C344.078 307.166 343.824 307.832 340.266 316.519C340.452 316.029 340.908 315.393 340.748 315.164C339.166 312.641 343.534 311.622 342.016 309.104C341.925 308.961 342.298 307.422 343.227 308.84C343.55 309.346 345.02 309.663 344.996 309.756C344.443 311.765 343.277 313.589 343.749 315.939C343.797 316.166 342.178 316.766 341.288 317.042C341.023 317.121 340.616 316.717 342.891 308.193C342.444 307.246 342.698 306.579 343.638 306.233C343.191 305.286 343.445 304.62 344.385 304.273C343.938 303.327 344.192 302.66 345.132 302.314C344.685 301.367 344.939 300.701 345.879 300.354C345.684 299.893 345.484 299.418 343.974 297.999C344.322 298.116 344.766 298.126 345.018 298.349C345.532 298.823 345.388 299.228 344.704 299.172C344.378 299.145 344.045 298.841 343.761 298.615C343.711 298.57 343.897 298.229 345.303 298.952L346.639 298.389C345.807 294.512 346.494 292.71 349.627 290.55C349.181 289.604 349.435 288.937 350.374 288.591C350.18 288.13 349.98 287.655 348.469 286.236C348.817 286.352 349.262 286.362 349.513 286.585C350.027 287.059 349.884 287.465 349.199 287.408C348.873 287.381 348.541 287.077 348.251 286.838C348.201 286.793 348.387 286.451 349.793 287.175L351.128 286.612C350.09 283.365 350.501 282.287 355.045 280.043C354.46 278.99 353.929 281.911 353.16 280.048C353.054 279.797 353.858 278.981 354.388 278.708C355.139 278.326 356.32 277.433 356.814 278.344C357.356 279.332 355.996 279.576 353.356 280.738C353.398 283.04 352.651 284.999 351.115 286.617C351.561 287.564 351.307 288.23 350.368 288.577C350.814 289.524 350.56 290.19 349.621 290.536C349.359 293.46 348.358 296.085 346.633 298.375C347.079 299.322 346.825 299.988 345.886 300.335C346.332 301.281 346.078 301.948 345.139 302.294C345.585 303.241 345.331 303.907 344.392 304.254C344.838 305.201 344.584 305.867 343.645 306.213L343.632 306.219ZM309.83 259.609L308.495 260.172C308.966 261.29 309.541 262.281 308.908 263.616C305.736 270.233 304.776 277.398 304.98 285.42L304.715 284.792C305.115 284.771 305.519 284.683 305.914 284.763C306.362 284.855 306.458 285.307 306.008 285.694C305.844 285.829 305.322 285.523 304.715 284.792C303.432 285.218 303.927 286.094 304.057 287.076C304.479 290.204 303.154 292.621 300.98 294.59C301.227 295.736 302.772 296.976 300.822 297.946C301.268 298.893 301.014 299.559 296.656 310.343C298.369 307.204 297.318 303.107 299.49 300.235C300.292 299.189 300.318 300.856 300.625 301.286C302.651 304.116 299.254 306.617 300.252 309.469C300.305 309.595 298.751 310.349 297.886 310.648C297.559 310.769 297.069 310.465 300.075 299.906C299.628 298.959 299.882 298.293 300.822 297.946C300.575 296.8 299.029 295.56 300.98 294.59C299.404 292.195 299.669 289.501 300.016 287.003C300.905 280.493 302.177 274.069 303.534 267.658C304.317 263.956 305.87 261.969 308.495 260.172C308.049 259.225 308.302 258.559 309.242 258.213C308.539 255.499 310.937 256.002 312.11 255.54C312.864 255.238 312.875 256.27 312.545 256.87C312.123 257.623 312.279 258.775 311.166 259.046C311.184 259.499 311.386 260.203 311.177 260.341C310.458 260.874 310.06 260.302 309.83 259.609ZM46.2389 281.89C46.0385 281.974 45.8382 282.058 45.6378 282.143C45.605 281.729 45.5069 281.31 45.5719 280.904C45.6459 280.445 46.0819 280.36 46.4718 280.837C46.6076 281.01 46.3274 281.54 45.6378 282.143C45.8321 282.604 45.9788 283.101 46.2206 283.526C46.7191 284.335 46.6474 285.994 47.7359 285.815C49.1343 285.587 47.8173 284.366 47.9056 283.605C48.0364 282.497 48.9028 282.724 49.2211 283.33C50.0317 284.88 50.6402 286.548 51.3097 288.173C51.6511 288.984 51.418 289.625 50.639 289.904C46.8851 291.223 44.6573 295.155 40.5183 295.896C38.8945 296.186 37.38 297.071 35.866 297.808C34.4053 298.522 31.7831 298.607 31.7134 300.084C31.5639 302.976 28.165 299.129 28.4243 302.095C28.4889 302.808 24.7036 300.769 26.5327 304.176C26.8997 304.86 25.8882 305.072 25.1869 304.677C24.3642 304.218 23.2793 304.182 22.9686 302.997C22.7458 302.17 22.8758 301.358 23.703 301.306C27.372 301.092 28.8246 295.693 33.2145 297.264C34.3789 294.503 37.0779 294.04 39.3768 293.038C45.0907 290.548 45.0624 290.593 42.052 284.756C40.7508 282.229 38.6248 280.954 36.2866 279.735C35.2774 279.207 32.9492 279.58 33.5348 277.573C33.8958 276.302 32.1404 274.526 34.8572 273.545L34.2561 273.798C34.2233 273.385 34.1253 272.965 34.1902 272.56C34.2642 272.101 34.7003 272.016 35.0901 272.493C35.226 272.666 34.9457 273.195 34.2561 273.798C36.0453 275.692 39.3502 275.846 40.0014 279.107C40.0249 279.163 40.7869 279.105 41.8075 278.839L41.2064 279.093C41.1736 278.679 41.0755 278.26 41.1405 277.854C41.2145 277.395 41.6505 277.31 42.0404 277.787C42.1762 277.96 41.896 278.49 41.2064 279.093C43.0295 279.574 43.1906 282.681 46.2448 281.904L46.2389 281.89ZM603.721 157.699C604.024 157.374 604.31 157.007 604.656 156.746C605.377 156.179 607.178 155.601 606.83 155.336C604.235 153.469 606.244 151.817 606.631 150.124C606.879 149.033 607.699 148.44 608.707 148.854C609.24 149.074 609.878 149.989 609.864 150.554C609.765 154.05 611.68 155.907 614.592 157.032C615.55 157.401 616.38 157.693 615.588 158.948C615.171 159.6 615.369 160.965 613.874 160.18C612.137 159.267 609.267 162.648 608.317 158.229C607.92 156.39 606.347 157.809 605.358 158.111C604.687 158.312 604.134 158.529 603.721 157.699ZM246.95 270.931C248.834 273.459 247.104 275.586 246.249 277.739C245.668 279.234 244.405 278.55 243.232 278.156C239.339 276.869 241.885 273.542 241.029 271.288C240.86 270.849 241.127 268.385 242.507 268.823C243.991 269.283 246.537 267.749 246.958 270.911L246.95 270.931ZM493.4 188.835C490.675 190.279 488.472 186.734 485.897 188.05C485.685 187.399 485.176 186.265 485.324 186.169C487.026 185.057 487.516 182.598 489.785 182.085C491.71 181.652 491.488 184.147 493.033 184.417C493.727 184.535 495.71 184.276 495.285 186.215C495.041 187.354 494.775 188.699 493.4 188.835ZM441.8 117.424C441.658 116.974 441.308 116.48 441.386 116.068C441.898 113.402 444.554 112.052 445.115 109.316C445.333 108.303 446.198 109.386 446.77 109.474C448.662 109.745 448.893 111.523 449.197 112.842C449.447 113.921 448.106 114.322 447.221 114.498C445.404 114.852 444.759 116.456 443.695 117.628C443.178 118.192 442.409 117.973 441.787 117.429L441.8 117.424ZM110.271 236.99C110.769 237.126 112.124 237.393 113.375 237.935C113.741 238.094 111.585 242.719 111.141 242.561C109.762 242.09 108.537 241.57 107.964 239.838C107.409 238.147 108.012 237.564 110.271 236.99ZM533.405 99.6535C533.217 99.2066 532.969 98.7682 532.854 98.3071C532.736 97.8795 532.562 97.2787 532.745 97.0042C533.287 96.2001 533.861 97.0766 534.41 97.2234C535.088 97.4145 535.711 97.8099 536.375 98.0402C538.667 98.8505 537.197 99.2069 536.358 100.054C534.358 102.064 534.446 102.159 533.392 99.6591L533.405 99.6535ZM289.802 204.662C290.294 203.665 290.632 202.453 291.376 201.679C292.009 201.018 293.025 201.001 293.578 202.314C294.119 203.599 293.43 204.054 292.51 204.408C291.684 204.724 290.886 205.406 289.802 204.662ZM566.879 207.027C569.846 206.303 569.541 208.454 570.213 209.487C570.39 209.758 570.226 210.452 570.001 210.777C569.756 211.127 566.82 209.124 566.707 208.448C566.579 207.696 566.793 207.047 566.879 207.027ZM604.795 164.352C604.543 163.455 605.012 162.106 606.124 161.423C606.738 161.05 606.977 162.363 607.295 162.969C607.933 164.148 608.247 165.265 606.614 165.756C605.89 165.979 605.257 165.785 604.802 164.332L604.795 164.352ZM250.533 210.801C249.472 209.028 248.043 210.453 246.795 209.992C246.685 209.956 246.692 209.262 246.792 208.94C246.994 208.263 247.287 207.614 247.527 206.953C248.537 207.482 249.601 207.954 250.546 208.592C250.812 208.776 250.827 209.444 250.871 209.886C250.894 210.09 250.726 210.325 250.539 210.815L250.533 210.801ZM572.494 76.5175C570.72 77.3473 569.559 77.3924 569.603 77.012C569.711 76.1112 570.031 74.5946 570.487 74.5178C571.397 74.3643 572.467 74.999 573.466 75.3179C573.063 75.8168 572.647 76.3213 572.488 76.5035L572.494 76.5175ZM638.826 211.358C637.541 211.966 636.736 212.519 635.758 211.878C636.219 211.404 636.613 210.811 637.158 210.499C637.932 210.057 638.794 209.529 639.765 210.189C639.348 210.694 638.938 211.212 638.826 211.358ZM440.881 169.506C439.923 169.136 439.062 168.809 438.181 168.473C438.634 168.019 439.02 167.33 439.572 167.146C440.781 166.768 441.15 167.83 441.368 168.758C441.422 168.998 440.993 169.36 440.881 169.506ZM585.708 135.077C585.073 134.95 584.33 136.398 583.424 135.48C582.844 134.886 583.487 134.286 584.176 134.128C585.036 133.929 585.875 132.786 586.752 133.634C587.34 134.208 586.684 134.781 585.714 135.091L585.708 135.077ZM100.619 278.69C99.8558 278.782 99.0458 279.995 98.1694 279.147C97.5813 278.573 98.2323 277.953 98.9205 277.794C99.7808 277.596 100.62 276.453 101.497 277.301C102.085 277.875 101.429 278.447 100.625 278.704L100.619 278.69ZM363.901 264.781C364.532 264.449 365.171 264.361 365.379 265.227C365.433 265.467 364.882 265.913 364.524 266.147C363.93 266.528 363.266 266.595 363.052 265.714C362.998 265.474 363.592 265.092 363.901 264.781ZM438.655 248.044C438.643 247.605 438.461 246.875 438.657 246.743C439.387 246.272 439.819 246.813 439.995 247.528C440.099 247.962 440.202 248.691 440.006 248.823C439.277 249.295 438.89 248.751 438.655 248.044ZM532.504 89.4906C532.546 89.1437 532.483 88.5454 532.677 88.447C533.247 88.1574 533.892 87.5236 534.575 88.1734C534.738 88.3351 534.654 89.1435 534.467 89.2224C533.897 89.5119 533.299 90.1092 532.504 89.4906ZM116.852 234.167C116.311 234.116 115.653 234.047 115.014 233.988C115.248 233.61 115.42 233.011 115.739 232.909C116.343 232.737 117.025 232.861 117.686 232.862C117.452 233.24 117.199 233.61 116.852 234.167ZM543.148 154.939C543.486 154.994 544.064 154.948 544.166 155.152C544.465 155.749 545.1 156.436 544.492 157.12C544.34 157.282 543.553 157.17 543.471 156.974C543.172 156.377 542.574 155.741 543.148 154.939ZM463.081 59.128C463.194 58.1265 464.025 58.1215 464.644 57.91C464.831 57.8312 465.474 58.3496 465.471 58.565C465.459 59.5074 464.568 59.521 463.949 59.7325C463.743 59.8029 463.353 59.3258 463.081 59.128ZM448.653 174.174C448.696 173.827 448.632 173.229 448.827 173.131C449.397 172.841 450.042 172.207 450.725 172.857C450.887 173.019 450.803 173.827 450.616 173.906C450.046 174.196 449.449 174.793 448.653 174.174ZM542.45 97.1902C543.026 97.5886 543.613 97.7855 543.721 98.118C543.908 98.7467 543.809 99.4461 543.829 100.128C543.455 99.8749 542.888 99.6863 542.754 99.3315C542.515 98.7253 542.548 98.0205 542.45 97.1902ZM588.791 132.166C589.003 132.257 589.379 132.329 589.399 132.452C589.474 132.815 589.397 133.193 589.38 133.562C589.168 133.471 588.792 133.399 588.771 133.276C588.697 132.913 588.774 132.535 588.791 132.166ZM313.726 186.19C313.824 185.935 313.906 185.72 313.995 185.484C314.272 185.73 314.602 185.953 314.804 186.246C314.878 186.346 314.666 186.666 314.584 186.881C314.294 186.641 314.01 186.416 313.726 186.19ZM310.637 186.324C310.674 185.963 310.705 185.589 310.741 185.228C310.953 185.319 311.329 185.391 311.35 185.514C311.424 185.877 311.347 186.255 311.33 186.624C311.118 186.533 310.907 186.441 310.637 186.324ZM136.786 257.131C137.036 257.239 137.248 257.331 137.479 257.431C137.25 257.709 137.044 258.042 136.766 258.241C136.671 258.314 136.355 258.086 136.143 257.994C136.366 257.703 136.576 257.417 136.786 257.131ZM548.851 169.329C548.948 169.074 549.03 168.858 549.12 168.623C549.396 168.869 549.726 169.091 549.929 169.384C550.002 169.485 549.791 169.804 549.709 170.02C549.419 169.78 549.135 169.554 548.851 169.329ZM233.26 306.109C233.163 306.364 233.081 306.579 232.991 306.814C232.715 306.569 232.385 306.346 232.183 306.053C232.109 305.953 232.32 305.633 232.402 305.418C232.692 305.658 232.976 305.883 233.26 306.109ZM552.383 177.709L552.652 177.003C552.928 177.248 553.258 177.471 553.461 177.764C553.534 177.865 553.323 178.184 553.241 178.4C552.951 178.16 552.667 177.934 552.383 177.709ZM359.027 272.361C358.99 272.722 358.96 273.097 358.923 273.458C358.711 273.366 358.335 273.295 358.315 273.172C358.24 272.808 358.317 272.43 358.334 272.061C358.546 272.153 358.758 272.245 359.027 272.361ZM556.516 191.246C556.553 190.886 556.583 190.511 556.62 190.15C556.832 190.242 557.208 190.313 557.228 190.436C557.303 190.8 557.226 191.177 557.209 191.547C556.997 191.455 556.785 191.363 556.516 191.246ZM183.768 220.405C183.518 220.296 183.306 220.205 183.075 220.105C183.304 219.827 183.51 219.494 183.787 219.294C183.883 219.222 184.199 219.45 184.411 219.542C184.188 219.833 183.978 220.119 183.768 220.405ZM298.1 313.32C298.137 312.96 298.167 312.585 298.204 312.224C298.416 312.316 298.792 312.387 298.812 312.51C298.887 312.874 298.81 313.251 298.793 313.621C298.581 313.529 298.369 313.437 298.1 313.32ZM319.405 124.24C319.756 124.289 320.121 124.333 320.472 124.382C320.39 124.598 320.332 124.984 320.213 125.001C319.863 125.066 319.495 124.975 319.136 124.945C319.218 124.73 319.3 124.514 319.405 124.24ZM292.313 326.796C292.276 327.157 292.245 327.532 292.209 327.892C291.997 327.801 291.621 327.729 291.6 327.606C291.526 327.243 291.603 326.865 291.62 326.496C291.832 326.587 292.043 326.679 292.313 326.796ZM630.947 209.794C631.159 209.886 631.535 209.957 631.555 210.08C631.63 210.444 631.553 210.822 631.536 211.191C631.324 211.099 630.948 211.027 630.927 210.904C630.853 210.541 630.93 210.163 630.947 209.794ZM565.126 238.358C565.208 238.143 565.266 237.757 565.384 237.74C565.734 237.674 566.103 237.766 566.462 237.795C566.38 238.011 566.322 238.397 566.203 238.414C565.853 238.479 565.485 238.388 565.126 238.358ZM607.395 221.612C607.746 221.661 608.111 221.705 608.462 221.755C608.38 221.97 608.322 222.356 608.204 222.373C607.854 222.439 607.485 222.347 607.126 222.318C607.208 222.102 607.291 221.886 607.395 221.612ZM604.193 224.129C603.842 224.08 603.478 224.036 603.127 223.987C603.209 223.771 603.266 223.385 603.385 223.368C603.735 223.303 604.104 223.394 604.462 223.424C604.38 223.639 604.298 223.855 604.193 224.129ZM641.474 208.647C641.686 208.738 642.062 208.81 642.082 208.933C642.157 209.296 642.08 209.674 642.063 210.043C641.851 209.952 641.475 209.88 641.454 209.757C641.38 209.394 641.457 209.016 641.474 208.647Z" fill="#E33137"/>
<path d="M542.485 225.696C543.133 226.673 542.942 228.645 545.292 227.802C545.385 227.763 545.198 227.842 544.998 227.926C544.965 227.512 544.867 227.093 544.932 226.688C545.006 226.229 545.442 226.144 545.832 226.621C545.968 226.794 545.688 227.323 545.305 227.797C546.858 230.547 549.643 229.505 551.985 229.8C553.332 229.973 554.603 228.845 554.835 227.119C555.058 225.446 556.124 224.618 557.602 224.242C557.156 223.296 557.41 222.629 558.349 222.283C557.913 220.69 557.3 219.271 557.195 217.456C556.985 214.009 557.152 210.337 555.146 207.07C554.168 205.459 554.197 203.588 554.141 201.589C554 197.224 551.174 195.816 547.205 197.374C542.096 199.396 537.26 202.289 531.248 200.975C529.861 200.671 528.213 202.171 526.636 202.721C525.511 203.113 525.389 204.167 525.172 205.032C524.594 207.282 527.269 212.471 530.222 214.401C530.315 214.361 530.128 214.44 529.928 214.524C529.895 214.111 529.797 213.691 529.862 213.286C529.936 212.827 530.372 212.742 530.762 213.219C530.898 213.392 530.617 213.921 530.235 214.395C531.026 215.674 530.188 218.576 533.337 218.022C533.43 217.983 533.243 218.061 533.043 218.146C533.01 217.732 532.912 217.313 532.977 216.907C533.051 216.448 533.487 216.363 533.877 216.84C534.013 217.013 533.732 217.543 533.35 218.016C533.704 219.117 533.513 221.089 535.863 220.247C535.956 220.207 535.769 220.286 535.569 220.371C535.536 219.957 535.438 219.538 535.503 219.132C535.577 218.673 536.013 218.588 536.403 219.065C536.539 219.238 536.259 219.767 535.876 220.241C536.23 221.342 536.039 223.314 538.389 222.471C538.483 222.432 538.296 222.511 538.095 222.595C538.063 222.182 537.965 221.762 538.029 221.357C538.104 220.898 538.54 220.813 538.929 221.29C539.065 221.463 538.785 221.992 538.403 222.466C538.756 223.567 538.565 225.539 540.622 224.82C540.604 224.367 540.401 223.663 540.611 223.525C541.33 222.992 541.728 223.564 541.957 224.257C542.396 224.253 543.073 224.067 543.213 224.287C543.753 225.046 543.211 225.439 542.546 225.654L542.485 225.696ZM551.224 227.769C551.306 227.554 551.363 227.168 551.482 227.151C551.832 227.085 552.201 227.177 552.559 227.206C552.477 227.422 552.42 227.808 552.301 227.825C551.951 227.89 551.582 227.799 551.224 227.769Z" fill="#E33137"/>
<path d="M493.904 214.921C496.059 216.266 497.368 215.714 497.911 213.232L493.904 214.921Z" fill="#E33137"/>
<path d="M483.598 44.9204C484.245 45.8975 484.054 47.8695 486.11 47.1508L484.933 44.3575L483.598 44.9204Z" fill="#E33137"/>
<path d="M25.2478 312.12C25.6139 313.1 26.2681 313.384 27.1721 312.953L26.5834 311.557L25.2478 312.12Z" fill="#E33137"/>
<path d="M269.262 245.458C268.322 245.805 268.068 246.471 268.515 247.418L269.85 246.855L269.262 245.458Z" fill="#E33137"/>
<path d="M263.993 273.993C263.053 274.339 262.799 275.006 263.246 275.952L264.581 275.389L263.993 273.993Z" fill="#E33137"/>
<path d="M222.255 298.16C222.621 299.14 223.276 299.424 224.18 298.993L223.591 297.597L222.255 298.16Z" fill="#E33137"/>
<path d="M234.837 309.311C235.203 310.292 235.857 310.575 236.761 310.145L236.173 308.748L234.837 309.311Z" fill="#E33137"/>
<path d="M7.33607 303.219C7.70217 304.2 8.35644 304.484 9.26039 304.053L8.67173 302.657L7.33607 303.219Z" fill="#E33137"/>
<path d="M272.143 323.193C272.51 324.174 273.164 324.457 274.068 324.027L273.479 322.63L272.143 323.193Z" fill="#E33137"/>
<path d="M283.688 328.199C284.054 329.179 284.709 329.463 285.612 329.032L285.024 327.636L283.688 328.199Z" fill="#E33137"/>
<path d="M540.564 224.864C540.93 225.844 541.584 226.128 542.488 225.697L541.9 224.301L540.564 224.864Z" fill="#E33137"/>
<path d="M297.468 327.318C296.79 327.538 296.261 327.925 296.801 328.685C296.949 328.886 297.631 328.713 298.057 328.715L297.468 327.318Z" fill="#E33137"/>
<path d="M303.089 333.173C303.455 334.154 304.11 334.437 305.014 334.007L304.425 332.61L303.089 333.173Z" fill="#E33137"/>
<path d="M305.006 334.012C305.373 334.992 306.027 335.276 306.931 334.846L306.342 333.449L305.006 334.012Z" fill="#E33137"/>
<path d="M481.668 44.0908C482.034 45.0714 482.688 45.3549 483.592 44.9245L483.003 43.5279L481.668 44.0908Z" fill="#E33137"/>
<path d="M309.837 259.611L311.173 259.048C310.807 258.067 310.152 257.784 309.248 258.214L309.837 259.611Z" fill="#E33137"/>
<path d="M475.155 43.5464L476.491 42.9834L475.902 41.5868L474.567 42.1497L475.155 43.5464Z" fill="#E33137"/>
</svg>
