<svg width="260" height="57" viewBox="0 0 260 57" fill="none" xmlns="http://www.w3.org/2000/svg">
<path d="M2.92 26.56C0.4 34.12 2.03 31.18 0 28.69C1.99 27.27 0.14 24.86 1.36 23.29C2.6 21.69 1.62 19.63 2.84 17.87C3.8 16.49 3.98 14.5 5.39 13.26C5.97 12.75 5.99 12.16 5.97 11.49C5.95 10.82 5.97 9.99003 6.92 10.19C8.95 10.62 10.52 8.81004 12.51 9.16004C14.49 9.51004 16.26 8.43004 18.06 8.00004C21.62 7.16004 25.23 7.71004 28.66 7.03004C32.71 6.22004 36.87 6.84004 40.72 5.95004C43.43 5.32004 46.25 5.90004 48.71 4.83004C51.46 3.63004 54.21 4.53004 56.94 4.16004C57.56 4.08004 58.15 4.26004 58.83 3.87004C60.92 2.68004 63.08 2.69004 65.23 3.89004C66.1 4.37004 67.29 4.59004 67.88 3.68004C69.16 1.74004 71.02 2.07004 72.78 2.19004C79.68 2.63004 86.45 0.380035 93.36 1.19004C94.75 1.35004 95.63 -0.519965 96.92 0.220035C98.12 0.910035 99.03 0.360035 100.13 0.290035C101.8 0.190035 103.7 -0.569965 105.34 0.920035C105.81 1.35004 106.9 1.15004 107.71 1.16004C110.21 1.18004 112.74 0.940035 115.2 1.24004C117.45 1.51004 119.55 0.270035 121.76 0.890035C122.86 -0.669965 123.4 1.52004 124.57 1.30004C127.05 0.850035 129.66 -1.08996 132.22 1.17004C135.07 -0.799965 138.31 0.700035 141.3 0.130035C143.69 -0.329965 145.58 1.28004 147.89 1.27004C150.06 1.27004 152.51 0.150036 154.51 2.13004C154.76 2.38004 155.5 2.06004 155.97 2.19004C157.67 2.64004 159.01 0.120035 160.47 1.31004C162.02 2.57004 163.58 2.04004 165.14 2.15004C166.8 2.27004 168.47 2.22004 170.14 2.17004C172.3 2.10004 174.31 2.96004 176.4 3.14004C178.72 3.33004 181.23 2.63004 183.36 3.29004C188.72 4.96004 194.12 3.97004 199.48 4.10004C202.74 4.18004 206.05 4.20004 209.01 5.32004C211.12 6.12004 213.12 6.33004 215.14 6.11004C217.98 5.80004 220.37 7.62004 223.24 7.26004C226.03 6.90004 229.03 6.66004 231.69 7.34004C233.93 7.92004 236.09 8.27004 238.31 8.13004C240.46 8.00004 242.34 9.04004 244.36 9.38004C246.91 9.81004 249.41 10.11 251.98 10.18C254 10.23 255.48 11.36 256.98 12.61C258.26 13.68 257.87 14.96 257.98 16.23C258.07 17.32 257.78 18.38 258.62 19.49C259.2 20.25 259.28 21.84 258.9 22.79C257.16 27.09 258.37 31.55 257.95 35.9C257.8 37.46 258.65 39.22 257.12 40.56C256.94 40.72 256.86 41.35 256.99 41.46C259.5 43.55 256.44 45.6 256.96 47.66C257.14 48.36 256.85 48.91 256.28 49.38C254.73 50.69 253.57 52.1 253.87 54.43C253.97 55.17 252.97 56.28 251.85 56.15C247.66 55.67 243.34 57.31 239.23 55.24C238.43 54.84 237.26 55.18 236.26 55.18C231.76 55.18 227.17 55.73 222.78 55.04C217.39 54.19 212.05 54.19 206.67 54.21C205.03 54.21 203.86 52.84 202.07 53.09C200.72 53.29 199.17 53.67 197.82 52.59C196.93 51.89 196.47 53.34 195.41 53.26C192.43 53.02 189.3 53.7 186.44 53.07C180.57 51.76 174.58 53.06 168.86 52.01C161.62 50.68 154.43 51.66 147.25 51.15C144.88 50.98 142.33 51.95 140.15 50.19C139.95 50.03 139.41 50.03 139.18 50.19C137.29 51.51 135.14 51.29 133.08 51.12C131.21 50.97 129.08 52.06 127.48 50.2C126.54 52.59 124.36 49.4 123.19 51.13C123.03 51.36 122.18 51.31 121.75 51.13C117.31 49.42 112.68 50.1 108.16 50.29C106.17 50.37 105.48 47.99 104.18 48.61C102.91 49.21 101.99 50.48 100.31 50.16C97.93 49.71 95.62 50.84 93.11 50.27C90.73 49.73 88.14 50.15 85.64 50.15C82.97 50.15 80.31 50.19 77.64 50.13C76.71 50.11 75.61 50.58 74.88 49.58C73.6 47.85 72.34 47.71 71.05 49.55C70.46 50.4 69.59 50.14 68.8 50.15C66.47 50.17 64.13 50.07 61.8 50.18C58.43 50.34 55.05 49.73 51.66 51.01C50.29 51.53 48.05 51.99 46.57 50.29C44.51 51.26 42.47 50.21 40.46 50.07C36.17 49.77 32.07 50.98 27.87 51.12C23.54 51.26 19.21 51.15 14.87 51.15C14.38 51.15 13.73 50.98 13.41 51.22C9.87 53.95 6.83 51.37 4.32 49.74C2.27 48.41 1 45.61 0.94 42.78C0.9 40.78 0.94 38.78 2.89 26.56C4.69 16.54 4.57 16.27 4.37 16.17C3.95 15.97 3.74 16.17 3.95 16.59C4.05 16.79 4.32 16.92 4.53 17.04C4.57 17.06 4.73 16.85 2.89 26.56H2.92ZM133.96 35.88C134.58 34.02 132.57 32.67 132.93 30.82C132.96 30.67 132.46 30.24 132.39 30.28C132.11 30.43 131.93 30.77 131.66 30.94C130.78 31.49 131.06 32.36 130.93 33.15C130.7 34.55 131.68 36.16 130.25 37.36C129.79 37.75 129.84 38.31 130.04 38.7C130.42 39.42 131.22 39.21 131.82 39.14C133.73 38.9 134.07 37.54 133.95 35.89L133.96 35.88ZM190.98 22.15C191.46 22.15 191.96 22.2 192.42 22.12C192.58 22.09 192.68 21.71 192.8 21.49C191.91 21.16 191.03 20.73 190.11 20.55C189.84 20.5 189.25 21.12 189.14 21.53C189.01 22.05 189.52 22.19 190.01 22.16C190.33 22.14 190.65 22.16 190.98 22.16V22.15ZM125.97 42.44C126 41.98 124.64 40 124.5 40.18C124.23 40.51 124 40.99 124 41.4C124 42.11 123.62 43.09 124.93 43.16C125.52 43.19 125.79 42.91 125.97 42.44ZM40.82 15.78C40.7 15.58 40.58 15.2 40.43 15.19C39.99 15.16 39.41 14.94 39.15 15.51C39.09 15.65 39.36 16.12 39.5 16.12C39.94 16.15 40.48 16.36 40.82 15.78Z" fill="#E33137"/>
</svg>
