<svg width="54" height="50" viewBox="0 0 54 50" fill="none" xmlns="http://www.w3.org/2000/svg">
<path d="M0.785966 21.3124C0.687345 20.6363 1.01279 20.0313 1.13114 19.392C1.21989 18.9095 1.31358 18.4074 1.284 17.9616C1.25441 17.5281 1.37522 17.1484 1.77463 16.9035C1.80175 16.9721 1.81655 17.0896 1.85846 17.097C2.00639 17.1313 2.03105 17.021 2.02118 16.9035C2.30718 16.9206 2.58332 16.9378 2.51922 16.5067C2.4921 16.3156 2.51429 16.1197 2.51429 15.9237C2.58332 15.8968 2.70166 15.8821 2.70906 15.8404C2.74358 15.6935 2.63263 15.669 2.51429 15.6788C2.64003 15.4118 2.81508 15.184 2.77316 14.8411C2.70906 14.3267 2.89151 13.8613 3.25394 13.4743C3.25394 13.6752 3.25147 13.8785 3.2564 14.0793C3.2564 14.1087 3.31311 14.1675 3.33283 14.1626C3.39201 14.1479 3.49063 14.1136 3.49309 14.0793C3.50789 13.8785 3.50049 13.6776 3.50049 13.4768C3.64842 13.4474 3.91223 13.5601 3.93195 13.396C3.97387 13.0481 4.14892 12.7591 4.23028 12.4358C4.2574 12.3305 4.14399 12.2252 3.99359 12.2521C4.24754 12.0659 4.06755 11.5932 4.6001 11.5883C4.67407 11.6128 4.64448 11.5442 4.59517 11.5222C4.49162 11.4732 4.43985 11.5222 4.49162 11.6251C4.51628 11.674 4.58285 11.7059 4.63462 11.7353C4.64448 11.7402 4.68393 11.6887 4.6001 11.5883C4.52367 11.3311 4.36342 11.047 4.73324 11.0274C4.76036 11.096 4.77516 11.2136 4.81707 11.2209C4.965 11.2552 4.98965 11.145 4.97979 11.0274C5.15484 10.9931 5.40879 11.1376 5.46796 10.8437C5.50001 10.6845 5.46057 10.5204 5.22634 10.5375C5.47289 10.1579 5.79094 9.80762 5.94627 9.39367C6.09667 8.98707 6.35801 8.76173 6.70565 8.57803C6.70565 8.65885 6.69578 8.73968 6.70811 8.81806C6.72044 8.8891 6.74756 9.00667 6.78701 9.01646C6.9374 9.05076 6.95713 8.93808 6.9522 8.81806C6.94973 8.73723 6.9522 8.65885 6.9522 8.57803C7.12232 8.58537 7.20615 8.50209 7.19875 8.33309C7.36887 8.34044 7.4527 8.25716 7.4453 8.08815C7.51433 8.06121 7.63268 8.04651 7.64007 8.00487C7.67459 7.85791 7.56364 7.83341 7.4453 7.84321C7.41571 7.64236 7.61788 7.4856 7.69925 7.4856C8.31316 7.48805 8.27617 6.77283 8.76188 6.59648C9.21307 6.43237 9.28703 5.8935 9.46208 5.48201C9.48181 5.43302 9.59276 5.42322 9.66179 5.39628C9.7111 5.85921 9.70124 5.82002 9.9182 5.76369C10.3817 5.64367 10.431 5.14889 10.7614 4.91375C10.8724 4.83537 10.9093 4.7227 10.7614 4.66881C10.6554 4.62962 10.5198 4.66146 10.399 4.66146C10.4754 4.24507 10.9512 4.42387 11.252 4.24262C11.326 4.26711 11.2964 4.19853 11.2471 4.17649C11.1436 4.1275 11.0918 4.17649 11.1436 4.27936C11.1682 4.32835 11.2348 4.36019 11.2866 4.38958C11.2964 4.39448 11.3359 4.34305 11.252 4.24262C11.2348 3.78459 11.4961 3.64252 11.8783 3.68171C11.9054 3.75029 11.9202 3.86787 11.9621 3.87521C12.11 3.9095 12.1347 3.79928 12.1248 3.68171C12.1939 3.65477 12.3122 3.64007 12.3196 3.59843C12.3541 3.45147 12.2432 3.42698 12.1248 3.43677C12.221 3.04977 12.4823 2.90771 12.8645 2.9469V3.24572C12.8645 3.26287 12.8645 3.22858 12.8645 3.19184C12.8004 3.21388 12.7313 3.22613 12.6746 3.26287C12.6105 3.30451 12.6253 3.37799 12.7215 3.40738C12.756 3.41718 12.8176 3.3388 12.8645 3.24817C12.9458 3.19429 13.0272 3.20408 13.1061 3.18939C13.1776 3.17714 13.2959 3.1502 13.3058 3.11101C13.3403 2.96159 13.2269 2.942 13.1061 2.9469C13.0247 2.94935 12.9458 2.9469 12.8645 2.9469C12.8645 2.90771 12.8596 2.83668 12.8645 2.83668C13.2959 2.77299 13.6362 2.42518 14.0972 2.45702V2.75585C14.0972 2.77299 14.0972 2.7387 14.0972 2.70196C14.0331 2.724 13.9641 2.73625 13.9074 2.77299C13.8433 2.81463 13.8581 2.88811 13.9542 2.9175C13.9888 2.9273 14.0504 2.84892 14.0972 2.7583C14.2846 2.66767 14.5681 2.82443 14.5903 2.45947C15.2116 2.46927 15.7615 2.33945 16.0696 1.72466C16.2718 1.72466 16.4937 1.77854 16.6688 1.70996C16.8833 1.62913 17.0608 1.44788 17.2556 1.31071C17.0411 1.1466 16.792 1.27397 16.5627 1.23478C16.5923 1.1662 16.6244 1.03393 16.649 1.03393C17.7339 1.09761 18.7644 0.656726 19.8567 0.732656C20.8946 0.806138 21.903 0.330958 22.9558 0.499965C23.1013 0.524459 23.2171 0.443629 23.2122 0.32361C23.195 -0.0952346 23.4957 0.0125382 23.7152 0.0125382C25.8503 0.00763943 27.983 0.00763943 30.1181 0.0125382C30.3375 0.0125382 30.6087 -0.0952346 30.6309 0.32116C30.6457 0.612637 30.9465 0.499965 31.124 0.495066C32.1965 0.465674 33.2296 0.624884 34.2503 0.970246C34.6176 1.09516 35.0639 0.989841 35.4756 0.989841C35.6433 0.989841 35.8134 0.989841 35.7937 1.23478C35.7123 1.23478 35.6285 1.22498 35.5496 1.23478C35.3967 1.25927 35.1872 1.1417 35.1132 1.32051C35.0861 1.38909 35.2464 1.60219 35.3622 1.64383C35.6285 1.73935 35.8233 1.90591 36.0427 2.07002C36.3632 2.30761 36.7355 2.34925 37.0265 1.96714C37.1497 1.96714 37.342 1.91816 37.3839 1.97449C37.8647 2.64072 38.5181 2.81953 39.2996 2.70931C39.418 2.69216 39.5215 2.79259 39.492 2.9469C39.3194 2.97384 39.0728 2.84892 39.0063 3.11101C38.9446 3.3486 39.0802 3.43188 39.3268 3.44657C39.4969 3.45637 39.5782 3.74295 39.81 3.67926C39.9259 3.64742 40.0146 3.57884 39.9875 3.43677C40.5521 3.78214 41.24 3.9144 41.7134 4.41653C41.5901 4.41653 41.4372 4.36999 41.3509 4.42632C41.1093 4.58798 41.3608 4.70065 41.4471 4.75209C41.7035 4.90885 41.9772 5.05337 42.2632 5.13909C42.4185 5.18563 42.6947 5.24197 42.6971 4.9064C42.9659 4.96519 43.131 5.1293 43.1902 5.45017C43.1902 5.46731 43.1902 5.43302 43.1902 5.39628C43.1261 5.41832 43.0571 5.43057 43.0004 5.46731C42.9363 5.50895 42.9511 5.58243 43.0472 5.61182C43.0817 5.62162 43.1434 5.54324 43.1902 5.45262C43.6858 5.85676 44.5265 5.94249 44.6868 6.76303C45.4067 6.80222 45.7691 7.36803 46.2203 7.79912C46.3017 7.8775 46.4348 7.93629 46.3954 8.14693C46.3954 8.16408 46.3954 8.12979 46.3954 8.09305C46.3313 8.11509 46.2622 8.12734 46.2055 8.16408C46.1414 8.20572 46.1562 8.2792 46.2524 8.30859C46.2869 8.31839 46.3485 8.24001 46.3954 8.14938C46.8046 8.02202 46.4792 8.59762 46.8515 8.59272C47.1474 8.58782 47.3101 8.79847 47.4999 9.25161C47.5024 9.31284 47.384 9.19282 47.2657 9.07525C47.2213 9.13159 47.1498 9.18547 47.14 9.24671C47.1178 9.39857 47.1326 9.55043 47.3446 9.56758C47.4654 9.57737 47.5566 9.54063 47.4999 9.25406C47.6454 9.0728 47.9215 9.02626 47.8944 9.4549C47.887 9.56758 48.1483 9.62146 48.1188 9.81251C47.998 9.81251 47.85 9.76842 47.7637 9.81986C47.5172 9.96682 47.7563 10.0795 47.8426 10.1383C48.2864 10.4298 48.3628 11.0029 48.7721 11.314C48.8658 11.385 48.9472 11.6349 49.0976 11.3899C49.1518 11.3017 49.105 11.1548 49.105 11.0372C49.5241 11.1131 49.3441 11.5859 49.5981 11.772C49.4501 11.8014 49.1888 11.6912 49.174 11.8528C49.1543 12.0366 49.2948 12.2472 49.4033 12.426C49.5044 12.5926 49.6967 12.4774 49.8471 12.5068C49.8841 12.693 49.7238 12.9747 50.0936 12.9967C50.0936 13.0775 50.0838 13.1584 50.0961 13.2367C50.1084 13.3078 50.1355 13.4254 50.175 13.4351C50.3254 13.4694 50.3451 13.3568 50.3402 13.2367C50.3377 13.1559 50.3402 13.0775 50.3402 12.9967C50.7445 13.0996 50.7593 13.5184 50.7963 13.7658C50.8358 14.0499 51.0601 14.2116 51.0798 14.4663C50.9319 14.4394 50.853 14.5276 50.8358 14.6476C50.7643 15.211 51.1464 15.4681 51.5729 15.691C51.5729 15.8919 51.5705 16.0952 51.5754 16.296C51.5754 16.3254 51.6321 16.3842 51.6518 16.3793C51.711 16.3646 51.8096 16.3303 51.8121 16.296C51.8269 16.0952 51.8195 15.8943 51.8195 15.6935C52.0389 15.6788 52.066 15.8184 52.066 15.9874C52.066 16.2985 52.066 16.6095 52.066 16.9745C52.066 16.9917 52.066 16.9574 52.066 16.9206C52.0019 16.9427 51.9329 16.9549 51.8762 16.9917C51.8121 17.0333 51.8269 17.1068 51.923 17.1362C51.9576 17.146 52.0192 17.0676 52.066 16.977C52.6676 17.435 52.892 18.0694 52.818 18.8605C52.7588 19.5047 52.8205 20.1587 52.8008 20.8078C52.7835 21.3418 52.8723 21.839 53.3062 22.1819C53.6785 22.4758 53.4911 22.6669 53.3111 22.9681C52.7835 23.8597 52.8057 23.8744 52.8057 24.9497C52.8057 25.2338 52.7736 25.5228 52.8106 25.8021C52.9413 26.7622 52.5616 27.6661 52.495 28.6042C52.4876 28.7119 52.3249 28.7536 52.4433 28.9593C52.7465 29.4884 52.4482 29.8632 51.9945 30.1497C51.9107 30.2036 51.78 30.1987 51.9082 30.3751C52.14 30.7033 52.1203 30.718 51.7628 31.1295C51.7455 31.1295 51.78 31.1295 51.817 31.1295C51.7948 31.0658 51.7825 30.9972 51.7455 30.9409C51.7036 30.8772 51.6296 30.8919 51.6001 30.9874C51.5902 31.0217 51.6691 31.0829 51.7603 31.1295C51.8146 31.4406 51.8146 31.7516 51.8146 32.0602C51.8146 32.2268 51.7874 32.3689 51.5138 32.3542C51.568 32.3909 51.6001 32.3542 51.5705 32.2391C51.5434 32.1362 51.5409 32.0235 51.5014 31.9255C51.4719 31.8496 51.3831 31.8667 51.3461 31.9672C51.2919 32.1141 51.3017 32.2562 51.5138 32.3542C51.531 32.5379 51.6913 32.822 51.2672 32.844C51.25 32.844 51.2845 32.844 51.3215 32.844C51.2993 32.7804 51.2869 32.7118 51.25 32.6554C51.208 32.5918 51.1341 32.6065 51.1045 32.702C51.0946 32.7363 51.1735 32.7975 51.2648 32.844C51.3338 33.089 51.0922 33.209 51.0478 33.4662C50.9294 34.1594 50.6508 34.8109 50.0862 35.2934C50.0591 35.2248 50.0443 35.1073 50.0024 35.0999C49.8545 35.0656 49.8298 35.1759 49.8372 35.4012C49.783 35.4551 49.9556 35.264 49.7263 35.3008C49.6745 35.3081 49.5981 35.4086 49.6005 35.4624C49.6055 35.5629 49.6597 35.6633 49.6942 35.7637C49.8101 35.7245 49.8569 35.6412 49.8372 35.4037C49.921 35.2959 50.0024 35.2959 50.0862 35.2959C50.106 35.7147 50.138 36.1385 49.5931 36.2756C49.566 36.2071 49.5512 36.0895 49.5093 36.0821C49.3614 36.0478 49.3367 36.1581 49.3466 36.2756C48.9768 36.2977 49.137 36.5794 49.1 36.7655C48.9299 36.7582 48.8461 36.8414 48.8535 37.0104C48.7031 36.9835 48.6267 37.0741 48.6119 37.1966C48.5946 37.3607 48.6217 37.5175 48.8535 37.5003C48.7598 37.7404 49.0828 38.12 48.6069 38.2351C48.6069 38.1127 48.6538 37.9608 48.5971 37.8751C48.4368 37.635 48.3653 37.9045 48.2642 37.9682C48.1977 38.0098 48.1336 38.071 48.0916 38.1396C48.0275 38.24 47.7563 38.3111 47.998 38.4703C48.0818 38.5266 48.2371 38.4801 48.3604 38.4801C48.3974 38.8548 47.8155 38.7569 47.9018 38.8352C48.3037 39.2026 47.8623 39.2908 47.7292 39.45C47.6799 39.5088 47.495 39.4598 47.3175 39.4598C47.3002 39.4598 47.3347 39.4598 47.3717 39.4598C47.3495 39.3961 47.3372 39.3276 47.3002 39.2712C47.2583 39.2075 47.1843 39.2222 47.1547 39.3178C47.1449 39.3521 47.2238 39.4133 47.315 39.4598C47.3643 39.668 47.7563 39.837 47.3668 40.0991C46.923 40.3955 46.5236 40.7237 46.3288 41.3091C46.1784 41.7598 45.6187 41.968 45.0985 42.1566C45.0813 42.1566 45.1158 42.1566 45.1528 42.1566C45.1306 42.0929 45.1182 42.0243 45.0813 41.968C45.0393 41.9043 44.9654 41.919 44.9358 42.0145C44.9259 42.0488 45.0048 42.1101 45.0961 42.1566C44.9037 42.4015 44.6572 42.6465 44.4106 42.8914C44.3835 42.8228 44.3687 42.7053 44.3268 42.6979C44.1789 42.6636 44.1542 42.7738 44.1641 42.8914C44.0827 42.8914 44.0014 42.8816 43.9225 42.8914C43.745 42.9159 43.5058 42.7836 43.4294 43.0653C43.4121 43.1315 43.4195 43.2466 43.4639 43.2858C43.6907 43.4891 43.708 43.0261 43.9249 43.129C43.989 43.1608 44.0827 43.1339 44.1641 43.1339C44.2035 43.2858 44.0803 43.3935 43.994 43.4156C43.2445 43.5944 42.7908 44.2067 42.1374 44.6035C42.1202 44.6035 42.1547 44.6035 42.1917 44.6035C42.1695 44.5398 42.1572 44.4713 42.1202 44.4149C42.0783 44.3512 42.0043 44.3659 41.9747 44.4615C41.9649 44.4958 42.0438 44.557 42.135 44.6035C42.13 44.8705 41.9649 45.0346 41.6419 45.0934C41.6246 45.0934 41.6591 45.0934 41.6961 45.0934C41.6739 45.0297 41.6616 44.9611 41.6246 44.9048C41.5827 44.8411 41.5087 44.8558 41.4792 44.9513C41.4693 44.9856 41.5482 45.0469 41.6394 45.0934C41.2499 45.6078 40.594 45.6396 40.0072 45.8258C39.8075 45.8895 39.7484 45.9213 39.8371 46.0462C40.1872 46.541 39.7434 46.6243 39.4747 46.8055C39.5018 46.6561 39.4106 46.5802 39.2873 46.5655C39.1221 46.5483 38.9643 46.5753 38.9816 46.8055C38.9002 46.8055 38.8189 46.7957 38.74 46.808C38.6685 46.8202 38.5501 46.8472 38.5403 46.8864C38.5058 47.0358 38.6192 47.0554 38.74 47.0505C38.8213 47.048 38.9002 47.0505 38.9816 47.0505C38.8953 47.5256 38.5279 47.2293 38.2937 47.2856C38.1236 47.3272 37.9683 47.337 37.9979 47.555C38.0472 47.9126 37.9264 48.0988 37.5393 48.0278C37.2212 47.969 36.987 48.1012 36.8144 48.3486C36.6714 48.5568 36.4692 48.5201 36.2128 48.5176C36.1956 48.5176 36.2301 48.5176 36.2671 48.5176C36.2449 48.454 36.2326 48.3854 36.1956 48.329C36.1537 48.2654 36.0797 48.2801 36.0501 48.3756C36.0402 48.4099 36.1191 48.4711 36.2104 48.5176C36.2843 48.7601 36.1068 48.7307 35.949 48.7675C35.4362 48.8875 34.7286 48.3854 34.4303 49.2255C34.4204 49.2574 34.2799 49.2574 34.2034 49.25C33.2789 49.1545 32.4332 49.5292 31.5851 49.7791C31.1561 49.904 30.7542 49.9848 30.3227 49.9848C28.9273 49.9897 27.5293 50.0216 26.1363 49.975C25.2019 49.9432 24.2822 49.7448 23.3601 49.5684C22.7906 49.4607 22.2162 49.3382 21.6392 49.25C21.368 49.2084 20.9735 49.4386 20.9366 48.8679C20.9242 48.6671 20.5741 48.7503 20.3892 48.7699C19.4548 48.8679 18.582 48.6866 17.8078 48.1674C17.4577 47.9322 17.1052 48.0768 16.7551 48.0302C16.5553 48.0033 16.3236 48.0694 16.1559 47.991C15.8773 47.8612 16.3063 47.2023 15.6258 47.2783C15.2831 47.3174 14.8985 47.4056 14.5731 47.168C14.5534 47.1533 14.5706 47.0897 14.6421 46.9378C14.6668 46.8643 14.5977 46.8937 14.5755 46.9427C14.5262 47.0456 14.5755 47.097 14.6791 47.0456C14.7284 47.0211 14.7605 46.9549 14.79 46.9035C14.795 46.8937 14.7432 46.8545 14.6421 46.9378C14.3832 47.0137 14.0972 47.1729 14.149 46.6929C14.1737 46.6194 14.1046 46.6488 14.0824 46.6978C14.0331 46.8006 14.0824 46.8521 14.186 46.8006C14.2353 46.7761 14.2674 46.71 14.2969 46.6586C14.3019 46.6488 14.2501 46.6096 14.149 46.6929C13.5696 46.7198 13.0691 46.6267 12.9163 45.958C12.9409 45.8846 12.8719 45.9139 12.8497 45.9629C12.8004 46.0658 12.8497 46.1173 12.9532 46.0658C13.0026 46.0413 13.0346 45.9752 13.0642 45.9237C13.0691 45.914 13.0173 45.8748 12.9163 45.958C12.6574 46.034 12.3714 46.1932 12.4232 45.7131C12.4478 45.6396 12.3788 45.669 12.3566 45.718C12.3073 45.8209 12.3566 45.8723 12.4601 45.8209C12.5094 45.7964 12.5415 45.7302 12.5711 45.6788C12.576 45.669 12.5242 45.6298 12.4232 45.7131C11.6736 45.451 10.9808 45.0983 10.3793 44.6011C10.4606 44.6011 10.542 44.6109 10.6209 44.5986C10.6924 44.5864 10.8107 44.5594 10.8206 44.5203C10.8551 44.3708 10.7417 44.3512 10.6209 44.3561C10.5395 44.3586 10.4606 44.3561 10.3793 44.3561C10.3521 44.2876 10.3373 44.17 10.2954 44.1626C10.1475 44.1284 10.1228 44.2386 10.1327 44.3561C9.97984 44.3953 9.87875 44.2753 9.8467 44.1847C9.6322 43.5797 9.11198 43.2637 8.6534 42.8865C8.72243 42.8596 8.84078 42.8449 8.84817 42.8032C8.88269 42.6563 8.77174 42.6318 8.6534 42.6416C8.68052 42.4922 8.58929 42.4162 8.46602 42.4015C8.30083 42.3844 8.14304 42.4113 8.1603 42.6416C7.78307 42.7004 7.56857 42.5044 7.42064 42.1884C7.26039 41.848 7.09273 41.5124 6.92754 41.1719C6.99658 41.145 7.11492 41.1303 7.12232 41.0887C7.15683 40.9417 7.04589 40.9172 6.92754 40.927C6.90042 40.8584 6.88563 40.7409 6.84372 40.7335C6.69579 40.6992 6.67113 40.8094 6.68099 40.927C6.12132 40.7041 5.92655 40.1873 5.86491 39.5945C5.84765 39.4231 5.7515 39.4892 5.69726 39.5896C5.64055 39.6925 5.68986 39.7244 5.8082 39.7048C5.94134 39.6827 6.10899 39.7489 6.15584 39.5554C6.16077 39.5382 6.03996 39.4892 5.86244 39.5945C5.3225 39.6803 5.48276 39.3986 5.44577 39.2124C5.51481 39.1855 5.63315 39.1708 5.64055 39.1292C5.67507 38.9822 5.56412 38.9577 5.44577 38.9675C5.41865 38.8989 5.40386 38.7814 5.36195 38.774C5.21402 38.7397 5.18936 38.8499 5.19922 38.9675C4.95267 38.6417 4.70612 38.3135 4.45957 37.9878C4.5286 37.9608 4.64695 37.9461 4.65435 37.9045C4.68886 37.7575 4.57791 37.733 4.45957 37.7428C4.45957 37.662 4.46943 37.5812 4.45711 37.5028C4.44478 37.4317 4.41766 37.3142 4.37821 37.3044C4.22781 37.2701 4.20809 37.3828 4.21302 37.5028C4.21549 37.5836 4.21302 37.662 4.21302 37.7428C4.07249 37.7698 3.95168 37.6644 3.97633 37.5763C4.07249 37.2382 3.82347 37.0251 3.80621 36.523C3.74457 36.332 3.70759 36.4152 3.71745 36.5353C3.72485 36.6112 3.69773 36.7459 3.72238 36.7533C3.85552 36.7998 3.94428 36.7043 3.95907 36.5941C3.9714 36.4961 3.91962 36.3908 3.80868 36.5255C3.43885 36.3785 2.97534 36.0993 2.98273 35.5408C3.06409 35.5408 3.14792 35.5408 3.3427 35.6119C3.41666 35.6363 3.38708 35.5678 3.33777 35.5457C3.23421 35.4967 3.18244 35.5457 3.23421 35.6486C3.25887 35.6976 3.32544 35.7294 3.37968 35.7588C3.38954 35.7637 3.42899 35.7123 3.34516 35.6119C3.20463 35.4722 3.18983 35.3547 3.14792 35.3473C2.99999 35.313 2.97534 35.4233 2.9852 35.5408C2.62277 35.2763 2.56853 34.8329 2.52168 34.4704C2.47237 34.0834 2.39348 33.7748 2.08282 33.547C1.62177 33.2066 1.37769 32.7779 1.50589 32.1999C1.64643 31.5606 1.20757 31.1025 0.995534 30.5808C0.877189 30.2893 0.615846 30.1081 0.983206 29.7799C1.2125 29.5766 0.73419 29.4198 0.852534 28.9324C0.790897 28.7413 0.753914 28.8246 0.763776 28.9446C0.771173 29.0206 0.744052 29.1553 0.768707 29.1626C0.901844 29.2092 0.990603 29.1136 1.0054 29.0034C1.01772 28.9054 0.965948 28.8001 0.855 28.9348C0.391485 29.0279 0.275606 28.6287 0.297795 28.3592C0.426002 26.8382 -0.118875 25.3661 0.0241241 23.8524C0.0389172 23.6883 0.0339861 23.5217 0.27314 23.5413C0.27314 23.9038 0.241089 24.2688 0.283002 24.6288C0.32245 24.9913 0.0857618 25.3955 0.426002 25.7163C0.608449 25.3808 0.364364 24.9301 0.546812 24.6852C0.874724 24.2443 0.32245 23.9161 0.522156 23.5388C0.847603 23.5388 0.810621 23.2719 0.753914 23.1225C0.665156 22.8775 1.13853 22.804 0.887051 22.5566C0.712 22.3852 0.724328 22.2284 0.894448 22.0619C1.08922 21.8708 1.03252 21.6357 0.965948 21.4177C0.95362 21.3736 0.837741 21.3613 0.768707 21.3344L0.785966 21.3124ZM12.3738 11.5148C12.2037 11.5075 12.1199 11.5908 12.1273 11.7598C11.9572 11.7524 11.8733 11.8357 11.8807 12.0047C11.8117 12.0317 11.6934 12.0464 11.686 12.088C11.6515 12.235 11.7624 12.2594 11.8807 12.2496C11.7353 12.595 11.4887 12.8399 11.1411 12.9845C11.114 12.9159 11.0992 12.7983 11.0573 12.791C10.9093 12.7567 10.8847 12.8669 10.8945 12.9845C10.7244 12.9771 10.6406 13.0604 10.648 13.2294C10.4779 13.2221 10.394 13.3053 10.4014 13.4743C10.0316 13.4964 10.1919 13.7781 10.1549 13.9642C10.0859 13.9912 9.96751 14.0059 9.96012 14.0475C9.9256 14.1945 10.0365 14.219 10.1549 14.2092C10.0957 14.4761 9.93053 14.6402 9.66179 14.699C9.63467 14.6304 9.61988 14.5129 9.57796 14.5055C9.43003 14.4712 9.40538 14.5815 9.41524 14.699C9.17362 14.6892 9.0676 14.8974 8.97145 15.0395C8.86297 15.1987 8.86543 15.4191 9.16869 15.4338C8.88269 15.9213 8.63121 16.4332 8.2959 16.8814C8.17262 17.048 8.31562 17.4178 7.93594 17.3934C7.90881 17.3248 7.89402 17.2072 7.85211 17.1998C7.70418 17.1656 7.67952 17.2758 7.68938 17.3934C7.53899 17.5526 7.24806 18.2776 7.19628 18.618C7.12725 18.645 7.0089 18.6597 7.00151 18.7013C6.96699 18.8483 7.07794 18.8728 7.19628 18.863C6.98672 19.3161 6.67113 19.7276 6.64894 20.2567C6.64894 20.2861 6.5232 20.3081 6.34815 20.3326H6.4591C6.43691 20.2689 6.42458 20.2003 6.3876 20.144C6.34568 20.0803 6.27172 20.095 6.24213 20.1905C6.23227 20.2248 6.31117 20.2861 6.4591 20.3326C6.54292 21.0258 6.20022 21.6381 6.07941 22.2921C6.07941 22.2995 6.00544 22.2921 5.85751 22.2946C5.966 22.3313 6.00051 22.2946 5.96846 22.177C5.94134 22.0741 5.93887 21.9614 5.89943 21.8635C5.86984 21.7875 5.78108 21.8047 5.7441 21.9051C5.68986 22.0521 5.69972 22.1941 5.966 22.2921V23.0073C5.966 22.929 5.98572 22.8432 5.96106 22.7746C5.93148 22.6938 6.08187 22.4979 5.85012 22.5493C5.78848 22.564 5.73917 22.7306 5.72438 22.8334C5.70219 22.9877 5.70958 23.1469 5.72438 23.3037C5.73177 23.3698 5.80081 23.4923 5.82053 23.4874C5.94627 23.4629 5.97586 23.3625 5.966 23.2425C5.9586 23.1641 5.966 23.0857 5.966 22.5371C6.18543 22.5224 6.21255 22.662 6.21255 22.831C6.21255 23.142 6.21255 23.4531 6.21255 23.7617C6.0375 23.796 5.7515 23.6466 5.72931 23.9503C5.69479 24.4329 5.71205 24.9203 5.72438 25.4028C5.72684 25.5082 5.79834 25.6135 5.83779 25.7163C5.94874 25.6429 5.93394 25.5204 5.97339 25.4151C6.0868 25.1163 5.68246 24.6827 6.21255 24.4941V26.8186C6.21255 26.6569 6.19775 26.4904 6.21748 26.3311C6.23474 26.2062 6.20761 26.1572 6.09174 26.2136C6.0227 26.2479 5.96106 26.3164 5.91915 26.3826C5.86984 26.4634 5.65041 26.5393 5.79094 26.6275C6.10899 26.8259 5.84272 27.1786 6.04736 27.3819C6.06215 27.3966 6.20022 27.3378 6.20515 27.306C6.22241 27.1443 6.21255 26.9827 6.21255 26.2087C6.28158 26.2356 6.40732 26.2601 6.40979 26.292C6.43444 26.8014 6.46649 27.3133 6.45417 27.8253C6.44184 28.3666 6.88809 28.8295 6.72044 29.5006C6.67853 29.3414 6.3802 29.3439 6.4517 29.1014C6.46649 29.0549 6.36294 28.9226 6.35061 28.925C6.23474 28.9667 6.19529 29.0647 6.21255 29.1847C6.23227 29.3292 6.14351 29.5031 6.3087 29.606C6.36541 29.6427 6.4591 29.6501 6.52566 29.6329C6.59223 29.6158 6.64401 29.5521 6.70318 29.3929C7.0163 29.4149 7.00644 29.628 6.89056 29.8019C6.77961 29.9685 6.58237 30.113 6.76975 30.304C7.06315 30.6029 6.87823 31.0731 7.19628 31.3499C6.79441 31.7933 6.81413 31.8716 7.44283 32.3297C7.40339 32.7093 7.54639 32.969 7.93594 33.0645C7.93594 33.1453 7.92607 33.2262 7.9384 33.3045C7.95073 33.3756 7.97785 33.4931 8.0173 33.5029C8.16769 33.5372 8.18742 33.4246 8.18249 33.3045C8.18002 33.2237 8.18249 33.1453 8.18249 33.0645C8.56464 33.4858 8.89502 33.9365 8.92214 34.6443V34.5341C8.85803 34.5562 8.789 34.5684 8.73229 34.6052C8.66819 34.6468 8.68298 34.7203 8.77914 34.7497C8.81366 34.7595 8.87529 34.6811 8.92214 34.5341C9.52619 34.8648 9.90341 35.3816 10.1549 36.114V36.0038C10.0908 36.0258 10.0218 36.038 9.96505 36.0748C9.90094 36.1164 9.91574 36.1899 10.0119 36.2193C10.0464 36.2291 10.108 36.1507 10.1549 36.0038C10.5617 36.0038 10.3299 36.4642 10.611 36.6112C10.8304 36.7263 11.0844 36.9223 11.1411 37.3362V37.226C11.077 37.248 11.008 37.2603 10.9512 37.297C10.8871 37.3387 10.9019 37.4121 10.9981 37.4415C11.0326 37.4513 11.0942 37.373 11.1411 37.226C11.7377 37.613 12.2308 38.1029 12.6204 38.6956C12.3319 38.703 12.3023 38.943 12.4084 39.0728C12.5736 39.2712 12.8004 39.2884 12.8669 38.9406C13.0543 38.9773 13.3379 38.8181 13.36 39.1855C13.291 39.2124 13.1727 39.2271 13.1653 39.2688C13.1308 39.4157 13.2417 39.4402 13.36 39.4304C13.2812 39.9693 13.7102 40.1677 14.0529 40.3979C14.1687 40.4763 14.3635 40.3906 14.3463 40.1653C14.615 40.224 14.7802 40.3881 14.8394 40.7654V40.6551C14.7753 40.6772 14.7062 40.6894 14.6495 40.7262C14.5854 40.7678 14.6002 40.8413 14.6964 40.8707C14.7309 40.8805 14.7925 40.8021 14.8394 40.6551C15.0267 40.6919 15.3103 40.5327 15.3325 41.0103C15.3325 40.9735 15.3325 40.9368 15.3325 40.9001C15.2684 40.9221 15.1993 40.9344 15.1426 40.9711C15.0785 41.0127 15.0933 41.0862 15.1895 41.1156C15.224 41.1254 15.2856 41.047 15.3325 40.9001C15.7072 40.7996 15.9143 41.0642 16.0894 41.2993C16.2817 41.559 16.7624 41.1328 16.8118 41.6349C16.691 41.6349 16.5677 41.6251 16.4493 41.6373C16.3384 41.6496 16.1609 41.6545 16.1313 41.7182C16.0647 41.8578 16.2324 41.8357 16.3113 41.8896C16.617 42.1003 16.9474 42.1541 17.3049 42.1248C17.3271 42.4922 17.6106 42.333 17.798 42.3697C17.8251 42.4383 17.8399 42.5558 17.8818 42.5632C18.0297 42.5975 18.0544 42.4873 18.0445 42.3697C18.4267 42.3354 18.185 42.862 18.4341 42.8449C18.9641 42.8081 19.4499 43.0702 19.9356 43.0727C20.7442 43.0727 21.4814 43.5234 22.2975 43.3519C22.6649 43.276 22.8966 43.6875 23.3084 43.6164C23.6314 43.5601 23.9815 43.5258 24.339 43.7977C24.6521 44.0353 25.2265 43.6336 25.5643 44.0843C25.7147 43.8418 25.9465 43.8222 26.2004 43.8369C26.4396 43.8491 26.4618 43.6581 26.4174 43.5062C26.3631 43.3176 26.1264 43.276 26.0377 43.3862C25.6259 43.9104 25.2537 43.4082 25.0293 43.2637C24.2379 42.7567 24.1688 42.671 23.4662 42.6146C23.4933 42.4652 23.4021 42.3893 23.2788 42.3746C23.1136 42.3574 22.9558 42.3844 22.9731 42.6146C22.7857 42.3623 22.3098 42.5412 22.3764 41.8994C22.3296 41.9386 22.2605 41.968 22.2359 42.017C22.1866 42.1199 22.2359 42.1713 22.3394 42.1199C22.3887 42.0954 22.4208 42.0292 22.4504 41.9778C22.4553 41.968 22.4035 41.9288 22.2309 42.1248C22.0436 41.8725 21.5677 42.0513 21.4913 41.6349C21.5727 41.6349 21.654 41.6447 21.7329 41.6324C21.8044 41.6202 21.9228 41.5932 21.9326 41.554C21.9671 41.4046 21.8537 41.385 21.7329 41.3899C21.6515 41.3924 21.5727 41.3899 21.4913 41.3899C21.4987 41.2209 21.4149 41.1377 21.1338 41.145H21.2447C21.2226 41.0813 21.2102 41.0127 21.1732 40.9564C21.1313 40.8927 21.0574 40.9074 21.0278 41.0029C21.0179 41.0372 21.0968 41.0985 21.2447 41.145C21.2373 41.314 21.3212 41.3973 21.4913 41.3899V41.6349C21.2965 41.6349 21.0623 41.6937 20.9587 41.4683C20.6358 40.7678 20.0983 40.3686 19.3685 40.1089C19.0011 39.9791 18.9937 39.2418 18.3626 39.3741C18.3601 39.3741 18.2861 39.1684 18.2911 39.0606C18.3034 38.8254 18.2541 38.7103 17.9779 38.6834C17.6821 38.6564 17.8275 38.3797 17.793 38.2057C17.8744 38.2057 17.9582 38.2057 18.2664 38.3478C18.227 38.3013 18.1974 38.2327 18.1481 38.2082C18.0445 38.1592 17.9927 38.2082 18.0445 38.3111C18.0692 38.3601 18.1357 38.3919 18.1875 38.4213C18.1974 38.4262 18.2368 38.3748 18.0396 38.2033C18.047 38.0343 17.9632 37.951 17.793 37.9584C17.8004 37.7894 17.7166 37.7061 17.5465 37.7134C17.5539 37.5444 17.47 37.4611 17.2999 37.4685C17.3369 36.9296 16.9572 36.7043 16.5603 36.4887C16.5677 36.3197 16.4838 36.2364 16.3137 36.2438C16.3137 36.0429 16.3162 35.8396 16.3113 35.6388C16.3113 35.6094 16.2546 35.5506 16.2348 35.5555C16.1757 35.5702 16.077 35.6045 16.0746 35.6388C16.0598 35.8396 16.0672 36.0405 16.0672 36.2413C15.9168 36.0821 15.6258 35.3571 15.7171 34.7913C15.6702 34.8305 15.6012 34.8599 15.5765 34.9089C15.5272 35.0118 15.5765 35.0632 15.6801 35.0118C15.7294 34.9873 15.7615 34.9211 15.791 34.8697C15.796 34.8599 15.7442 34.8207 15.5716 35.0167C15.1747 34.8011 14.795 34.5758 14.832 34.0369C14.9133 34.0369 14.9971 34.0369 15.3053 34.179C15.2659 34.1324 15.2363 34.0638 15.187 34.0393C15.0834 33.9904 15.0317 34.0393 15.0834 34.1422C15.1081 34.1912 15.1747 34.2231 15.2264 34.2524C15.2363 34.2573 15.2757 34.2059 15.0785 34.0344C15.2708 33.6719 15.1821 33.2335 14.832 32.8098C14.832 32.7289 14.8418 32.6481 14.8295 32.5697C14.8172 32.4987 14.79 32.3811 14.7506 32.3713C14.6002 32.337 14.5805 32.4497 14.5854 32.5697C14.5879 32.6505 14.5854 32.7289 14.5854 32.8098C14.4301 32.8367 14.3561 32.7436 14.3413 32.6163C14.2649 31.9574 14.5336 31.2569 14.0972 30.6372C14.0701 30.598 14.1096 30.4755 14.1564 30.4265C14.5312 30.0224 14.3315 29.7137 14.0035 29.4149C13.7521 29.1871 13.7397 28.7462 13.9567 28.707C14.3956 28.6262 14.3389 28.3911 14.3389 28.1167C14.3389 27.791 14.3561 27.4652 14.3364 27.1394C14.2846 26.3164 14.4498 25.4886 14.1293 24.6607C14.0159 24.3667 13.8507 23.8107 14.8073 23.6515C14.7753 23.5266 14.6816 23.4752 14.5706 23.5095C14.4917 23.534 14.3216 23.3894 14.3389 23.6197C14.3487 23.7544 14.292 23.965 14.4843 23.9552C14.5977 23.9503 14.7013 23.7593 14.3389 23.507C14.3389 22.7918 14.3389 22.0766 14.3389 21.3613C14.3389 21.1948 14.3561 21.0405 14.5854 21.0576C14.5854 21.2585 14.5829 21.4618 14.5879 21.6626C14.5879 21.692 14.6446 21.7508 14.6643 21.7459C14.7235 21.7312 14.8221 21.6969 14.8246 21.6626C14.8394 21.4618 14.832 21.2609 14.832 21.0601C15.0465 21.0748 15.0785 20.9401 15.0785 20.771C15.0785 20.5408 15.0785 20.3106 15.0785 20.0803C15.293 20.095 15.3251 19.9603 15.3251 19.7913C15.3251 19.5611 15.3251 19.3308 15.4681 18.8752C15.4212 18.9144 15.3522 18.9438 15.3275 18.9928C15.2782 19.0957 15.3275 19.1471 15.4311 19.0957C15.4804 19.0712 15.5124 19.005 15.542 18.9536C15.547 18.9438 15.4952 18.9046 15.3226 19.1006H15.076C15.0366 18.7209 15.1796 18.4613 15.796 18.5078C15.7565 18.4613 15.7269 18.3927 15.6776 18.3682C15.5741 18.3192 15.5223 18.3682 15.5741 18.4711C15.5987 18.5201 15.6653 18.5519 15.7171 18.5813C15.7269 18.5862 15.7664 18.5348 15.5691 18.3633C15.6604 18.0424 15.3497 17.6064 15.7664 17.3934C16.3285 17.1068 15.4557 16.7639 15.8403 16.5042C16.0031 16.3965 16.0622 16.1491 16.3088 16.1589C16.3359 16.2274 16.3507 16.345 16.3926 16.3524C16.5406 16.3867 16.5652 16.2764 16.6983 15.9335C16.6515 15.9727 16.5825 16.0021 16.5578 16.0511C16.5085 16.154 16.5578 16.2054 16.6614 16.154C16.7107 16.1295 16.7427 16.0633 16.7723 16.0095C16.7772 15.9997 16.7255 15.9605 16.5529 16.1564H16.3063C16.3581 15.6078 16.4937 15.473 17.2728 15.5637C17.2334 15.5171 17.2038 15.4485 17.1545 15.424C17.0509 15.3751 16.9991 15.424 17.0509 15.5269C17.0756 15.5759 17.1421 15.6078 17.1939 15.6371C17.2038 15.642 17.2432 15.5906 17.046 15.4191C17.1495 15.1546 17.3986 14.944 17.3024 14.606C17.2777 14.5202 17.3986 14.4125 17.7634 14.5815C17.724 14.5349 17.6944 14.4663 17.6451 14.4418C17.5415 14.3929 17.4898 14.4418 17.5415 14.5447C17.5662 14.5937 17.6328 14.6255 17.6845 14.6549C17.6944 14.6598 17.7339 14.6084 17.5366 14.4369C17.5884 13.8883 17.724 13.7536 18.757 13.876C18.7077 13.7291 18.6239 13.6899 18.5056 13.7021C18.4291 13.7095 18.2935 13.6825 18.2861 13.707C18.2393 13.8393 18.3354 13.9275 18.4464 13.9422C18.545 13.9544 18.651 13.903 18.2763 13.7046C18.2344 13.32 19.0899 13.5184 18.7694 12.9551C19.0011 12.5828 19.2107 12.1811 19.7556 12.235C19.763 12.5215 20.0046 12.5509 20.1353 12.4456C20.335 12.2815 20.3522 12.0561 20.0021 11.99C20.7221 11.0715 21.5431 10.2559 22.4676 9.54063C22.4948 9.60921 22.5095 9.72679 22.5515 9.73413C22.6994 9.76843 22.724 9.6582 22.7142 9.54063C22.8892 9.50634 23.1432 9.65085 23.2024 9.35693C23.2344 9.19772 23.195 9.03361 22.9607 9.05076C23.3848 8.62211 23.9889 8.46045 24.44 8.071C24.4672 8.13959 24.482 8.25716 24.5239 8.2645C24.6718 8.2988 24.6965 8.18857 24.6866 8.071C24.7556 8.04406 24.874 8.02936 24.8814 7.98772C24.9159 7.84076 24.8049 7.81627 24.6866 7.82607C24.8715 7.55418 24.9652 7.1084 25.4583 7.4807C25.7048 7.66686 25.944 7.62522 26.2152 7.42927C26.5505 7.18923 26.9475 7.03247 27.3222 6.84631C27.4233 6.79488 27.5342 6.76548 27.6403 6.72629C27.5688 6.61362 27.4578 6.59648 27.3345 6.59648C26.3927 6.59893 25.4484 6.59648 24.5066 6.59648C23.6461 6.59648 22.7857 6.59403 21.9252 6.60137C21.8587 6.60137 21.7945 6.67731 21.7304 6.7165C21.7945 6.75814 21.8537 6.82672 21.9228 6.83407C22.0855 6.85121 22.2507 6.83897 22.4134 6.83897C23.3158 6.83897 24.2157 6.83897 25.1181 6.83897C25.2413 6.83897 25.4114 6.85856 25.4065 6.96878C25.3991 7.08635 25.2265 7.0937 25.1033 7.08635C25.0613 7.08635 25.0219 7.08635 24.98 7.08635C23.3749 7.15983 21.7674 6.96388 20.1575 7.2921C19.5731 7.40967 19.0554 7.59827 18.5253 7.82117C18.5524 7.67175 18.4612 7.59582 18.3379 7.58113C18.1727 7.56153 18.0149 7.59092 18.0322 7.82117C17.8448 7.85791 17.5613 7.6987 17.5391 8.0661C17.2975 8.15918 16.9153 7.83831 16.7994 8.31104C16.6121 8.34778 16.3285 8.18857 16.3063 8.55598C16.2373 8.58292 16.119 8.59762 16.1116 8.63926C16.077 8.78622 16.188 8.81072 16.3063 8.80092C16.2299 9.21731 15.7541 9.03851 15.5667 9.2908C15.5938 9.14138 15.5026 9.06545 15.3793 9.05076C15.2141 9.03361 15.0563 9.06055 15.0736 9.2908C14.9035 9.28345 14.8196 9.36673 14.827 9.53573C14.758 9.56268 14.6396 9.57737 14.6323 9.61901C14.5977 9.76598 14.7087 9.79047 14.827 9.78067C14.7309 10.1677 14.4695 10.3097 14.0874 10.2705C14.0578 10.202 14.0331 10.0721 14.0011 10.0721C13.5598 10.0452 13.1209 10.4836 13.148 10.9196C13.148 10.9515 13.2787 10.976 13.3477 11.0054C13.2713 11.4218 12.7954 11.243 12.6081 11.4952C12.5809 11.4267 12.5662 11.3091 12.5242 11.3017C12.3763 11.2674 12.3517 11.3777 12.3615 11.4952L12.3738 11.5148ZM21.4962 21.5573C21.5233 21.6259 21.5381 21.7435 21.58 21.7508C21.728 21.7851 21.7526 21.6749 21.7428 21.5573C21.8981 21.5965 21.9499 21.4569 22.0386 21.3858C22.1693 21.283 22.3049 21.1483 22.2285 20.9841C22.1175 20.7466 21.9425 20.7833 21.7526 20.9327C21.4716 21.1532 21.2941 20.8102 21.0869 20.7392C20.8675 20.6657 21.0746 20.433 21.1831 20.2616C21.2916 20.0926 21.0549 20.0044 20.9563 19.9358C20.8157 19.8378 20.7936 19.8721 20.759 20.1685C20.6851 20.8519 20.5667 20.9303 19.832 20.8274C19.6717 20.8053 19.5041 20.8249 19.3414 20.8249C19.1688 20.8249 19.0258 20.8445 19.0282 21.0772C19.0307 21.3173 19.2354 21.3785 19.3463 21.3026C19.6397 21.1017 19.7334 21.7018 20.0613 21.4226C20.2635 21.2487 20.473 21.6357 20.7714 21.5793C21.0623 21.5255 21.0845 21.8341 20.939 21.9712C20.6949 22.1966 20.8749 22.2774 21.0007 22.417C21.1042 22.5346 21.1683 22.5052 21.2669 22.4097C21.4149 22.2676 21.5381 22.1794 21.3162 21.9639C21.1757 21.8292 21.188 21.5842 21.5012 21.5597L21.4962 21.5573ZM37.0289 29.557C36.9599 29.3316 37.1325 29.001 36.9451 28.6997C36.595 28.9667 36.8514 29.3365 36.7898 29.655C36.7528 29.8485 36.7454 30.015 36.6172 30.2012C36.484 30.3947 36.7898 30.549 36.913 30.6004C37.13 30.691 37.0141 30.4535 37.0191 30.3751C37.0388 30.1326 37.0264 29.8876 38.6512 32.3027C38.7671 32.2293 38.7646 32.1509 38.6512 32.119C38.5378 32.0872 38.4121 32.1043 38.2937 32.0896C37.4554 31.9819 37.3174 31.8423 37.273 31.0585C37.2631 30.9017 37.3174 30.6592 37.1473 30.647C37.0338 30.6396 36.8637 30.8601 36.7898 31.0119C36.7084 31.1785 36.8785 31.5385 36.6788 31.5532C36.1216 31.5949 36.3139 31.9647 36.2893 32.2489C36.2794 32.3689 36.2991 32.4938 36.2819 32.6138C36.272 32.6848 36.1906 32.8073 36.1783 32.8049C36.0526 32.7583 36.0279 32.6505 36.0402 32.5281C36.0723 32.1362 36.0057 32.0039 35.6359 32.3199C35.5496 32.3958 35.3425 32.3909 35.2365 32.5232C35.1527 32.6285 34.9283 32.7314 35.239 32.8269C36.0353 33.0694 36.3953 33.7381 36.7799 34.3823C36.8415 34.4851 37.0191 34.5586 36.9919 34.4337C36.9229 34.0981 37.6354 33.8679 37.1004 33.5029C37.0511 33.4686 37.0092 33.3486 37.0314 33.2947C37.1941 32.9126 37.5467 32.6873 37.8277 32.4056C38.02 32.2146 38.163 32.4154 38.3356 32.5158C38.4984 32.6114 38.5452 32.3468 37.024 29.557H37.0289ZM33.1655 15.1865C33.269 15.2477 33.3726 15.304 33.2197 15.4216C33.1162 15.5 33.0619 15.598 33.2098 15.6739C33.2739 15.7082 33.4046 15.7131 33.4465 15.6739C33.5871 15.5392 33.772 15.3922 33.8065 15.2232C33.8632 14.9538 33.5772 14.7113 33.4022 14.726C32.9929 14.7603 32.8647 14.5815 32.734 14.2581C32.6847 14.1381 32.4381 14.1847 32.3469 14.3488C32.3124 14.41 32.3469 14.508 32.3395 14.5888C32.3099 14.8925 32.3099 14.8925 31.8735 14.9464C31.6147 14.9783 31.2941 15.304 31.3582 15.4951C31.4544 15.7866 31.7946 15.7841 32.0017 15.8772C32.2606 15.9948 32.3075 15.8943 32.3395 16.1564C32.3445 16.1956 32.3223 16.2544 32.3445 16.274C32.3864 16.3181 32.4455 16.3524 32.5047 16.372C32.522 16.3769 32.5836 16.3205 32.5836 16.2911C32.591 16.0878 32.554 15.8796 32.5959 15.6837C32.6551 15.3922 32.8252 15.1791 33.1655 15.1889V15.1865ZM44.9087 26.9386C44.8914 26.8896 44.8816 26.772 44.8396 26.7573C44.6794 26.7083 44.7188 26.87 44.6621 26.9386C44.4304 27.2227 44.5068 27.8547 43.8485 27.6881C43.814 27.6808 43.7548 27.7763 43.7055 27.8228C43.7721 27.8571 43.8386 27.9208 43.9077 27.9208C44.3687 27.9232 44.6818 27.9722 44.5093 28.6017C44.4427 28.8442 44.8076 28.925 44.9999 28.707C45.2021 28.4744 45.1897 28.102 45.5127 27.9428C45.6113 27.8939 45.7001 27.7812 45.5398 27.6954C45.4757 27.6612 45.3771 27.6685 45.3032 27.6857C44.8027 27.8081 44.8076 27.813 44.9087 27.3231C44.9333 27.208 44.9111 27.0831 44.9111 26.941L44.9087 26.9386ZM26.1807 25.4739C26.1807 25.393 26.1905 25.3122 26.1807 25.2338C26.1536 25.0599 26.2941 24.8125 25.9982 24.7439C25.5865 24.646 25.7714 25.0722 25.6038 25.1971C25.3252 25.4053 25.4731 25.7115 25.4435 25.9735C25.4188 26.2087 25.5939 26.216 25.7566 26.2111C25.9415 26.2038 26.1832 26.2822 26.1807 25.9588C26.1807 25.7972 26.1807 25.638 26.1807 25.4763V25.4739ZM43.5551 17.1435C43.1434 16.6953 43.0645 17.1264 42.9535 17.386C42.9091 17.4864 43.6143 17.942 43.7474 17.8759C43.9545 17.7755 44.2282 17.626 44.1592 17.3713C44.0901 17.119 43.957 16.683 43.5551 17.1435ZM21.5825 30.865C21.3162 30.8821 20.9883 31.1466 21.0081 31.3548C21.0327 31.6194 21.2324 31.7737 21.4642 31.8349C21.6417 31.8814 22.2556 31.296 22.1742 31.1883C22.0362 31.007 21.8858 30.7743 21.5825 30.865ZM38.5107 38.9381C38.4712 38.7936 38.6044 38.5707 38.417 38.5119C38.2567 38.4605 38.163 38.725 37.9387 38.7177C37.6675 38.7079 37.8475 39.0532 37.6773 39.1684C37.6058 39.2173 37.4382 39.3472 37.628 39.4035C37.8475 39.4696 38.1063 39.4696 38.3356 39.428C38.6167 39.3766 38.4737 39.112 38.5132 38.9381H38.5107ZM24.9479 28.4229C25.0096 28.5576 24.9331 28.952 25.0786 28.8369C25.3399 28.636 25.6038 28.7217 25.8429 28.6238C25.9563 28.5772 25.9563 28.5135 25.8528 28.4572C25.6112 28.3274 25.7788 27.8204 25.2537 27.9061C24.8567 27.9698 24.9627 28.1902 24.9479 28.4229ZM0.803224 27.2521C0.61338 26.9827 1.01033 26.5589 0.625708 26.2479C0.438329 26.5883 0.529553 26.9582 0.554208 27.3035C0.578863 27.6612 0.329847 28.0678 0.699673 28.3788C0.894448 28.0408 0.73419 27.6734 0.803224 27.2521ZM32.4948 12.7738C32.4455 12.8057 32.3518 12.8399 32.3494 12.8791C32.3371 13.1976 32.3346 13.5184 32.3494 13.8368C32.3494 13.8834 32.4603 13.9446 32.5269 13.9593C32.5959 13.974 32.702 13.9642 32.7463 13.9201C32.9041 13.756 32.702 12.8522 32.4924 12.7738H32.4948ZM31.1142 38.3135C31.1092 38.1029 31.0895 37.9461 30.8627 37.9706C30.6235 37.9951 30.3277 38.3331 30.3745 38.534C30.4238 38.7397 30.6013 38.6883 30.7542 38.7103C31.1364 38.7667 31.129 38.5291 31.1142 38.316V38.3135ZM52.5591 18.7307C52.532 18.4833 52.638 18.1967 52.4876 17.942C52.4605 17.8955 52.3446 17.8808 52.2756 17.8906C52.2066 17.9004 52.1449 17.9592 52.0784 17.9959C52.4975 18.3364 52.251 18.8042 52.32 19.2132C52.3274 19.2549 52.4161 19.2916 52.4753 19.3137C52.4901 19.3186 52.5542 19.2622 52.5542 19.2328C52.5616 19.0736 52.5591 18.912 52.5591 18.7307ZM9.61988 42.1321C9.53358 42.2423 9.21307 41.968 9.22539 42.2913C9.23279 42.4603 9.504 42.355 9.65439 42.3746C9.77274 42.3893 9.89848 42.3917 10.0144 42.3697C10.0563 42.3623 10.0908 42.2742 10.1105 42.2154C10.1154 42.1982 10.0612 42.1395 10.0291 42.137C9.90834 42.1272 9.78753 42.1321 9.61741 42.1321H9.61988ZM33.8016 48.983C34.0432 48.9928 34.2059 49.0247 34.3169 48.8679C34.2133 48.8263 34.1122 48.7626 34.0062 48.7503C33.8558 48.7332 33.6857 48.7087 33.5772 48.8679C33.6758 48.9169 33.7744 48.9683 33.8016 48.983ZM36.5432 19.4802C36.4692 19.4337 36.4101 19.3651 36.3435 19.3578C36.1808 19.3431 36.0304 19.3651 36.0378 19.5929C36.0427 19.7105 36.0748 19.8452 36.1956 19.7937C36.3312 19.735 36.4273 19.5904 36.5432 19.4802ZM27.8646 43.4597C27.7931 43.2907 27.6551 43.3666 27.5441 43.3666C27.5145 43.3666 27.443 43.4842 27.4578 43.516C27.5219 43.6556 27.6625 43.6017 27.7734 43.5944C27.8104 43.5919 27.84 43.4964 27.8646 43.4597ZM24.3242 0.475471C24.482 0.397091 24.4869 0.32361 24.3685 0.291768C24.2675 0.264825 24.1466 0.264825 24.048 0.291768C23.9297 0.32361 23.9297 0.411787 24.048 0.448528C24.1491 0.48037 24.2625 0.470573 24.3266 0.475471H24.3242ZM25.4386 34.299C25.4484 34.179 25.4213 34.0736 25.2783 34.0981C25.2389 34.1055 25.2068 34.2206 25.1945 34.2916C25.1748 34.4092 25.2068 34.517 25.3523 34.4925C25.3917 34.4851 25.4114 34.3676 25.4386 34.299ZM50.4881 33.7699C50.424 33.8654 50.3451 33.9316 50.35 33.9879C50.3624 34.0932 50.424 34.1912 50.4659 34.2941C50.5078 34.2328 50.5843 34.1692 50.5818 34.1079C50.5793 34.0026 50.5276 33.8997 50.4881 33.7699ZM2.03844 32.5501C1.97681 32.4595 1.93736 32.3983 1.89544 32.3346C1.85353 32.435 1.79189 32.5354 1.77956 32.6408C1.77217 32.6971 1.85353 32.7632 1.89544 32.8245C1.94475 32.7289 1.99653 32.631 2.03844 32.5501ZM22.4405 29.2533C22.369 29.0842 22.2309 29.1602 22.12 29.1602C22.0904 29.1602 22.0189 29.2778 22.0337 29.3096C22.0978 29.4492 22.2383 29.3953 22.3493 29.388C22.3863 29.3855 22.4159 29.29 22.4405 29.2533ZM28.3577 25.5792C28.2862 25.4102 28.1482 25.4861 28.0372 25.4861C28.0076 25.4861 27.9361 25.6037 27.9509 25.6355C28.015 25.7751 28.1556 25.7212 28.2665 25.7139C28.3035 25.7115 28.3331 25.6159 28.3577 25.5792ZM14.8369 22.7869C14.8467 22.6669 14.8196 22.5615 14.6766 22.586C14.6372 22.5934 14.6051 22.7085 14.5928 22.7795C14.5731 22.8971 14.6051 23.0049 14.7506 22.9804C14.79 22.973 14.8098 22.8555 14.8369 22.7869ZM6.08681 20.8225C6.05968 20.8494 6.00544 20.8837 6.01037 20.9033C6.0227 20.9621 6.05968 21.0135 6.08681 21.0674C6.11393 21.0405 6.16817 21.0062 6.16324 20.9866C6.15091 20.9278 6.11393 20.8764 6.08681 20.8225ZM6.6662 19.2671C6.63661 19.2157 6.60703 19.1618 6.57744 19.1104C6.55032 19.1373 6.49608 19.1716 6.50101 19.1912C6.51334 19.25 6.55032 19.3014 6.57744 19.3553C6.60456 19.3284 6.63168 19.3014 6.6662 19.2671ZM44.8298 26.2479C44.778 26.2773 44.7238 26.3067 44.672 26.336C44.6991 26.363 44.7336 26.4169 44.7533 26.412C44.8125 26.3997 44.8643 26.363 44.9185 26.336C44.8914 26.3091 44.8643 26.2822 44.8298 26.2479ZM44.7953 29.1504C44.7681 29.1773 44.7139 29.2116 44.7188 29.2312C44.7312 29.29 44.7681 29.3414 44.7953 29.3953C44.8224 29.3684 44.8766 29.3341 44.8717 29.3145C44.8594 29.2557 44.8224 29.2043 44.7953 29.1504ZM21.6195 29.3953C21.5924 29.4223 21.5381 29.4566 21.5431 29.4762C21.5554 29.5349 21.5924 29.5864 21.6195 29.6403C21.6466 29.6133 21.7009 29.579 21.6959 29.5594C21.6836 29.5006 21.6466 29.4492 21.6195 29.3953ZM16.1066 16.8177L16.1954 16.9059C16.2225 16.852 16.2595 16.7982 16.2718 16.7418C16.2767 16.7222 16.2225 16.6879 16.1954 16.661C16.1658 16.7149 16.1362 16.7663 16.1066 16.8177ZM8.05921 16.4136C8.03209 16.4405 7.97785 16.4748 7.98278 16.4944C7.99511 16.5532 8.03209 16.6047 8.05921 16.6585C8.08633 16.6316 8.14057 16.5973 8.13564 16.5777C8.12331 16.5189 8.08633 16.4675 8.05921 16.4136ZM18.6954 38.9847C18.6436 39.014 18.5894 39.0434 18.5376 39.0728C18.5647 39.0998 18.5993 39.1537 18.619 39.1488C18.6781 39.1365 18.7299 39.0998 18.7842 39.0728C18.757 39.0459 18.7299 39.0189 18.6954 38.9847ZM47.0142 39.6827C46.9871 39.7097 46.9329 39.744 46.9378 39.7636C46.9501 39.8223 46.9871 39.8738 47.0142 39.9277C47.0413 39.9007 47.0956 39.8664 47.0906 39.8468C47.0783 39.788 47.0413 39.7366 47.0142 39.6827ZM23.5031 40.5057C23.5327 40.5572 23.5623 40.611 23.5919 40.6625C23.619 40.6355 23.6733 40.6012 23.6683 40.5816C23.656 40.5229 23.619 40.4714 23.5919 40.4175C23.5648 40.4445 23.5377 40.4714 23.5031 40.5057ZM46.0625 41.1181C46.0946 41.0862 46.1217 41.0593 46.1513 41.0299C46.097 41.0029 46.0428 40.9662 45.9861 40.954C45.9664 40.9491 45.9319 41.0029 45.9047 41.0299C45.959 41.0593 46.0108 41.0887 46.0625 41.1181ZM45.4462 41.4855C45.4757 41.5369 45.5053 41.5908 45.5349 41.6422C45.562 41.6153 45.6163 41.581 45.6113 41.5614C45.599 41.5026 45.562 41.4512 45.5349 41.3973C45.5078 41.4242 45.4807 41.4512 45.4462 41.4855ZM21.9006 43.8124C21.9326 43.7805 21.9597 43.7536 21.9893 43.7242C21.9351 43.6973 21.8808 43.6605 21.8241 43.6483C21.8044 43.6434 21.7699 43.6973 21.7428 43.7242C21.797 43.7536 21.8488 43.783 21.9006 43.8124ZM37.6798 47.4865C37.7119 47.4546 37.739 47.4277 37.7686 47.3983C37.7143 47.3713 37.6601 47.3346 37.6034 47.3223C37.5837 47.3174 37.5491 47.3713 37.522 47.3983C37.5763 47.4277 37.628 47.4571 37.6798 47.4865ZM19.2403 48.4148C19.2107 48.3633 19.1811 48.3094 19.1515 48.258C19.1244 48.285 19.0702 48.3192 19.0751 48.3388C19.0874 48.3976 19.1244 48.4491 19.1515 48.5029C19.1786 48.476 19.2058 48.4491 19.2403 48.4148Z" fill="#E33137"/>
<path d="M0.292779 23.5168C0.292779 23.0441 0.292779 22.5738 0.292779 22.101C0.292779 21.9345 0.314968 21.7851 0.53933 21.8022V23.5168H0.292779Z" fill="#E33137"/>
<path d="M2.01893 16.4136C2.01893 16.2985 2.03372 16.1809 2.01646 16.0683C1.94496 15.6323 2.24082 15.6739 2.51203 15.6788V15.9237C2.36163 15.8968 2.2852 15.9874 2.27041 16.1099C2.25068 16.274 2.25068 16.4308 2.01893 16.4136Z" fill="#E33137"/>
<path d="M15.3324 1.71729C15.4482 1.24456 15.8304 1.56543 16.072 1.47235V1.71729H15.3324Z" fill="#E33137"/>
<path d="M3.25154 13.4743C3.34523 13.2343 3.02225 12.8547 3.49809 12.7395V13.4743H3.25154Z" fill="#E33137"/>
<path d="M39.4943 46.7859C39.4721 47.1533 39.1886 46.9941 39.0012 47.0309V46.7859H39.4943Z" fill="#E33137"/>
<path d="M16.072 1.47235C16.0942 1.10495 16.3777 1.26417 16.5651 1.22743C16.5429 1.59483 16.2594 1.43561 16.072 1.47235Z" fill="#E33137"/>
<path d="M35.7961 1.22743C35.9835 1.26417 36.267 1.10496 36.2892 1.47236C36.1018 1.43562 35.8183 1.59483 35.7961 1.22743Z" fill="#E33137"/>
<path d="M8.6755 42.8669C8.48812 42.8302 8.20459 42.9894 8.1824 42.622H8.6755V42.8669Z" fill="#E33137"/>
<path d="M48.8633 10.5351C49.2331 10.5571 49.0729 10.8388 49.1099 11.025C48.74 11.0029 48.9003 10.7212 48.8633 10.5351Z" fill="#E33137"/>
<path d="M49.8495 12.0047C50.2193 12.0268 50.059 12.3084 50.096 12.4946H49.8495V12.0047Z" fill="#E33137"/>
<path d="M50.096 12.4946C50.4658 12.5166 50.3056 12.7983 50.3426 12.9845H50.096V12.4946Z" fill="#E33137"/>
<path d="M14.8393 1.96224C14.8615 1.59483 15.145 1.75403 15.3324 1.71729C15.3102 2.0847 15.0266 1.9255 14.8393 1.96224Z" fill="#E33137"/>
<path d="M36.5357 1.7173C36.7231 1.75404 37.0066 1.59483 37.0288 1.96224C36.8414 1.9255 36.5579 2.08471 36.5357 1.7173Z" fill="#E33137"/>
<path d="M14.0996 2.45212C14.1218 2.08471 14.4053 2.24392 14.5927 2.20718V2.45212H14.0996Z" fill="#E33137"/>
<path d="M49.1098 36.9884C49.0728 37.1746 49.2331 37.4562 48.8633 37.4783V36.9884H49.1098Z" fill="#E33137"/>
<path d="M51.0823 14.4541C51.4521 14.4761 51.2918 14.7578 51.3288 14.944C50.959 14.9219 51.1192 14.6403 51.0823 14.4541Z" fill="#E33137"/>
<path d="M49.6029 36.2536C49.5659 36.4398 49.7262 36.7214 49.3564 36.7435V36.2536H49.6029Z" fill="#E33137"/>
<path d="M51.5753 15.1889C51.9451 15.211 51.7849 15.4926 51.8219 15.6788H51.5753V15.1889Z" fill="#E33137"/>
<path d="M1.77213 16.9035C1.80911 16.7173 1.64885 16.4357 2.01868 16.4136V16.9035H1.77213Z" fill="#E33137"/>
<path d="M41.7133 4.41162C41.9007 4.44836 42.1842 4.28915 42.2064 4.65656C42.019 4.61982 41.7355 4.77903 41.7133 4.41162Z" fill="#E33137"/>
<path d="M42.2064 4.65656C42.3938 4.6933 42.6773 4.53409 42.6995 4.9015C42.5121 4.86476 42.2286 5.02397 42.2064 4.65656Z" fill="#E33137"/>
<path d="M0.53933 21.8022C0.576312 21.6161 0.41614 21.3344 0.785966 21.3124C0.748983 21.4985 0.909156 21.7802 0.53933 21.8022Z" fill="#E33137"/>
<path d="M48.1236 9.80025C48.2937 9.7929 48.3775 9.87618 48.3701 10.0452C48.2 10.0525 48.1162 9.96925 48.1236 9.80025Z" fill="#E33137"/>
<path d="M6.94962 8.33062C6.94222 8.16161 7.02605 8.07833 7.19617 8.08568V8.33062H6.94962Z" fill="#E33137"/>
<path d="M7.19617 8.08568C7.18877 7.91667 7.2726 7.83339 7.44272 7.84074V8.08568H7.19617Z" fill="#E33137"/>
<path d="M9.66167 5.39136C9.65428 5.22235 9.7381 5.13907 9.90822 5.14642C9.91562 5.31543 9.83179 5.39871 9.66167 5.39136Z" fill="#E33137"/>
<path d="M9.90822 5.14642C9.90083 4.97741 9.98465 4.89413 10.1548 4.90148C10.1622 5.07049 10.0783 5.15377 9.90822 5.14642Z" fill="#E33137"/>
<path d="M10.1548 4.90148C10.1474 4.73248 10.2312 4.6492 10.4013 4.65654C10.4087 4.82555 10.3249 4.90883 10.1548 4.90148Z" fill="#E33137"/>
<path d="M48.3701 10.0452C48.5402 10.0378 48.6241 10.1211 48.6167 10.2901C48.4466 10.2975 48.3627 10.2142 48.3701 10.0452Z" fill="#E33137"/>
<path d="M11.8806 3.67679C11.8732 3.50778 11.9571 3.42451 12.1272 3.43185V3.67679H11.8806Z" fill="#E33137"/>
<path d="M39.7409 3.18692C39.911 3.17957 39.9948 3.26285 39.9874 3.43185C39.8173 3.4392 39.7335 3.35592 39.7409 3.18692Z" fill="#E33137"/>
<path d="M39.4943 2.94198C39.6644 2.93463 39.7483 3.01791 39.7409 3.18692C39.5707 3.19426 39.4869 3.11098 39.4943 2.94198Z" fill="#E33137"/>
<path d="M4.73066 11.0249C4.72326 10.8559 4.80709 10.7727 4.97721 10.78V11.0249H4.73066Z" fill="#E33137"/>
<path d="M6.70306 8.57556C6.69567 8.40655 6.7795 8.32327 6.94962 8.33062V8.57556H6.70306Z" fill="#E33137"/>
<path d="M51.3288 14.944C51.4989 14.9366 51.5827 15.0199 51.5753 15.1889C51.4052 15.1963 51.3214 15.113 51.3288 14.944Z" fill="#E33137"/>
<path d="M49.3564 36.7435C49.3638 36.9125 49.2799 36.9958 49.1098 36.9884V36.7435H49.3564Z" fill="#E33137"/>
<path d="M48.6167 10.2901C48.7868 10.2828 48.8707 10.3661 48.8633 10.5351C48.6932 10.5424 48.6093 10.4591 48.6167 10.2901Z" fill="#E33137"/>
<path d="M4.48411 37.9682C4.31399 37.9755 4.23016 37.8922 4.23756 37.7232H4.48411V37.9682Z" fill="#E33137"/>
<path d="M14.5927 2.20718C14.5853 2.03817 14.6691 1.95489 14.8393 1.96224C14.8467 2.13125 14.7628 2.21453 14.5927 2.20718Z" fill="#E33137"/>
<path d="M48.6167 38.2131C48.6241 38.3821 48.5402 38.4654 48.3701 38.458C48.3627 38.289 48.4466 38.2057 48.6167 38.2131Z" fill="#E33137"/>
<path d="M4.97721 10.78C4.96981 10.611 5.05364 10.5277 5.22376 10.5351C5.23116 10.7041 5.14733 10.7873 4.97721 10.78Z" fill="#E33137"/>
<path d="M5.47031 39.1929C5.30019 39.2002 5.21636 39.1169 5.22376 38.9479H5.47031V39.1929Z" fill="#E33137"/>
<path d="M6.94962 41.1524C6.7795 41.1597 6.69567 41.0764 6.70306 40.9074H6.94962V41.1524Z" fill="#E33137"/>
<path d="M36.2892 1.47236C36.4593 1.46502 36.5431 1.54829 36.5357 1.7173C36.3656 1.72465 36.2818 1.64137 36.2892 1.47236Z" fill="#E33137"/>
<path d="M3.49809 12.7395C3.49069 12.5705 3.57434 12.4872 3.74446 12.4946C3.75185 12.6636 3.66821 12.7469 3.49809 12.7395Z" fill="#E33137"/>
<path d="M3.74446 12.4946C3.73706 12.3256 3.82089 12.2423 3.99101 12.2496C3.9984 12.4186 3.91458 12.5019 3.74446 12.4946Z" fill="#E33137"/>
<path d="M49.6029 11.7598C49.773 11.7524 49.8569 11.8357 49.8495 12.0047C49.6793 12.0121 49.5955 11.9288 49.6029 11.7598Z" fill="#E33137"/>
<path d="M44.4253 42.8669C44.4327 43.0359 44.3489 43.1192 44.1788 43.1119V42.8669H44.4253Z" fill="#E33137"/>
<path d="M10.4013 44.5815C10.2312 44.5888 10.1474 44.5056 10.1548 44.3366H10.4013V44.5815Z" fill="#E33137"/>
<path d="M14.5927 32.8245H14.8393V34.0492C14.6198 34.0639 14.5927 33.9242 14.5927 33.7552C14.5927 33.4442 14.5927 33.1331 14.5927 32.8245Z" fill="#E33137"/>
<path d="M14.8393 21.0674H14.5927C14.5927 20.8372 14.5927 20.607 14.5927 20.3767C14.5927 20.2102 14.6248 20.073 14.8393 20.0877V21.0674Z" fill="#E33137"/>
<path d="M15.0858 19.1079V20.0877H14.8393C14.8393 19.8574 14.8393 19.6272 14.8393 19.397C14.8393 19.2304 14.8713 19.0932 15.0858 19.1079Z" fill="#E33137"/>
<path d="M7.68938 17.3934H7.93594C7.93594 17.6236 7.93585 17.8538 7.93585 18.0841C7.93585 18.2506 7.9038 18.3878 7.6893 18.3731L7.68938 17.3934Z" fill="#E33137"/>
<path d="M6.20999 24.4966V23.7618C6.54777 24.0091 6.54777 24.2492 6.20999 24.4966Z" fill="#E33137"/>
<path d="M7.19628 18.863V18.618C7.36147 18.5372 7.52411 18.4539 7.6893 18.3731C7.76326 18.7748 7.60063 18.9365 7.19628 18.863Z" fill="#E33137"/>
<path d="M16.8117 8.57559V8.33065H17.5513C17.4354 8.80338 17.0533 8.48251 16.8117 8.57559Z" fill="#E33137"/>
<path d="M8.1824 33.0694H7.93585V32.5795C8.30568 32.6016 8.14542 32.8833 8.1824 33.0694Z" fill="#E33137"/>
<path d="M24.4427 43.2858C24.3367 43.3103 24.2307 43.3617 24.1321 43.3495C24.0211 43.3348 23.9225 43.2466 23.9718 43.1143C23.9817 43.0898 24.1148 43.1143 24.1912 43.1094C24.3096 43.0996 24.3934 43.1364 24.4427 43.2833V43.2858Z" fill="#E33137"/>
<path d="M16.3186 8.82052V8.57559H16.8117C16.7895 8.94299 16.506 8.78378 16.3186 8.82052Z" fill="#E33137"/>
<path d="M23.4685 42.8669C23.6559 42.9037 23.9395 42.7444 23.9616 43.1119C23.7743 43.0751 23.4907 43.2343 23.4685 42.8669Z" fill="#E33137"/>
<path d="M22.9754 42.622H23.4685V42.8669C23.2812 42.8302 22.9976 42.9894 22.9754 42.622Z" fill="#E33137"/>
<path d="M17.7979 42.1321H17.3048V41.8872C17.4922 41.9239 17.7757 41.7647 17.7979 42.1321Z" fill="#E33137"/>
<path d="M17.3048 41.8872C17.1174 41.8504 16.8339 42.0096 16.8117 41.6422C16.9991 41.679 17.2826 41.5198 17.3048 41.8872Z" fill="#E33137"/>
<path d="M15.0858 9.55534V9.3104H15.5789C15.5567 9.67781 15.2732 9.5186 15.0858 9.55534Z" fill="#E33137"/>
<path d="M10.4014 13.4743L10.6479 13.4743C10.6109 13.6605 10.7712 13.9422 10.4014 13.9642L10.4014 13.4743Z" fill="#E33137"/>
<path d="M16.3186 36.4985H16.5652V36.9884C16.1953 36.9664 16.3556 36.6847 16.3186 36.4985Z" fill="#E33137"/>
<path d="M9.41524 14.699H9.66179C9.62481 14.8852 9.78498 15.1669 9.41515 15.1889L9.41524 14.699Z" fill="#E33137"/>
<path d="M7.6893 32.3346H7.44275V31.8447C7.81257 31.8668 7.65232 32.1484 7.6893 32.3346Z" fill="#E33137"/>
<path d="M7.44275 31.8447C7.07292 31.8227 7.23322 31.541 7.19624 31.3548C7.56607 31.3769 7.40577 31.6586 7.44275 31.8447Z" fill="#E33137"/>
<path d="M17.5513 8.08571H18.0444C18.0222 8.45312 17.7387 8.29391 17.5513 8.33065V8.08571Z" fill="#E33137"/>
<path d="M18.0444 8.08571V7.84077H18.5375C18.5153 8.20818 18.2318 8.04897 18.0444 8.08571Z" fill="#E33137"/>
<path d="M24.7013 8.08568H24.4547C24.4473 7.91667 24.5311 7.83339 24.7013 7.84074V8.08568Z" fill="#E33137"/>
<path d="M22.9754 9.06543C22.9828 9.23444 22.899 9.31772 22.7289 9.31037C22.7215 9.14136 22.8053 9.05808 22.9754 9.06543Z" fill="#E33137"/>
<path d="M14.8393 9.55534H15.0858C15.0932 9.72435 15.0094 9.80763 14.8393 9.80028V9.55534Z" fill="#E33137"/>
<path d="M7.93585 32.5795C7.76573 32.5869 7.6819 32.5036 7.6893 32.3346C7.85942 32.3272 7.94325 32.4105 7.93585 32.5795Z" fill="#E33137"/>
<path d="M13.853 10.5351C13.8456 10.3661 13.9295 10.2828 14.0996 10.2901C14.107 10.4591 14.0232 10.5424 13.853 10.5351Z" fill="#E33137"/>
<path d="M22.7289 9.55531H22.4823C22.4749 9.3863 22.5587 9.30302 22.7289 9.31037V9.55531Z" fill="#E33137"/>
<path d="M16.3185 36.2536L16.3186 36.4985C16.1485 36.5059 16.0646 36.4226 16.072 36.2536H16.3185Z" fill="#E33137"/>
<path d="M9.16869 15.4338C9.16129 15.2648 9.24503 15.1816 9.41515 15.1889C9.42255 15.3579 9.33881 15.4412 9.16869 15.4338Z" fill="#E33137"/>
<path d="M16.5652 36.9884C16.7353 36.9811 16.819 37.0643 16.8116 37.2333C16.6415 37.2407 16.5578 37.1574 16.5652 36.9884Z" fill="#E33137"/>
<path d="M10.1549 14.2092V13.9642L10.4014 13.9642C10.4088 14.1332 10.325 14.2165 10.1549 14.2092Z" fill="#E33137"/>
<path d="M16.8116 37.2333C16.9818 37.226 17.0656 37.3093 17.0582 37.4783C16.8881 37.4856 16.8042 37.4023 16.8116 37.2333Z" fill="#E33137"/>
<path d="M17.3047 37.4783V37.7232C17.1346 37.7306 17.0508 37.6473 17.0582 37.4783L17.3047 37.4783Z" fill="#E33137"/>
<path d="M17.5513 37.7232V37.9682C17.3812 37.9755 17.2973 37.8922 17.3047 37.7232H17.5513Z" fill="#E33137"/>
<path d="M17.7978 37.9682V38.2131C17.6277 38.2205 17.5439 38.1372 17.5513 37.9682H17.7978Z" fill="#E33137"/>
<path d="M10.648 13.2294L10.8945 13.2294C10.9019 13.3984 10.818 13.4817 10.6479 13.4743L10.648 13.2294Z" fill="#E33137"/>
<path d="M12.8668 38.9479C12.6967 38.9552 12.6129 38.872 12.6203 38.703C12.7904 38.6956 12.8742 38.7789 12.8668 38.9479Z" fill="#E33137"/>
<path d="M13.36 39.4378V39.1928C13.5301 39.1855 13.6139 39.2688 13.6065 39.4378H13.36Z" fill="#E33137"/>
<path d="M10.8945 12.9845H11.1411C11.1485 13.1535 11.0646 13.2368 10.8945 13.2294L10.8945 12.9845Z" fill="#E33137"/>
<path d="M13.853 39.6827C13.6829 39.6901 13.5991 39.6068 13.6065 39.4378C13.7766 39.4304 13.8604 39.5137 13.853 39.6827Z" fill="#E33137"/>
<path d="M14.0996 39.9276C13.9295 39.935 13.8456 39.8517 13.853 39.6827C14.0232 39.6754 14.107 39.7586 14.0996 39.9276Z" fill="#E33137"/>
<path d="M14.3461 40.1726C14.176 40.1799 14.0922 40.0966 14.0996 39.9276C14.2697 39.9203 14.3535 40.0036 14.3461 40.1726Z" fill="#E33137"/>
<path d="M13.6065 10.78C13.5991 10.611 13.6829 10.5277 13.853 10.5351C13.8604 10.7041 13.7766 10.7873 13.6065 10.78Z" fill="#E33137"/>
<path d="M18.0444 42.377H17.7979V42.1321C17.968 42.1248 18.0518 42.208 18.0444 42.377Z" fill="#E33137"/>
<path d="M20.0168 12.0047C20.0242 12.1737 19.9404 12.257 19.7702 12.2496C19.7629 12.0806 19.8467 11.9973 20.0168 12.0047Z" fill="#E33137"/>
<path d="M11.8807 12.0047L12.1272 12.0047C12.1346 12.1737 12.0509 12.257 11.8807 12.2496V12.0047Z" fill="#E33137"/>
<path d="M12.1273 11.7598L12.3738 11.7598C12.3812 11.9288 12.2973 12.0121 12.1272 12.0047L12.1273 11.7598Z" fill="#E33137"/>
<path d="M12.3738 11.5148L12.6203 11.5148C12.6277 11.6839 12.5439 11.7671 12.3738 11.7598L12.3738 11.5148Z" fill="#E33137"/>
<path d="M13.3599 11.0249C13.3525 10.8559 13.4364 10.7727 13.6065 10.78C13.6139 10.949 13.5301 11.0323 13.3599 11.0249Z" fill="#E33137"/>
<path d="M36.4249 33.3143C36.388 33.2654 36.3091 33.2041 36.3189 33.1723C36.3485 33.0768 36.4225 33.0621 36.4644 33.1257C36.4989 33.1821 36.5137 33.2507 36.5359 33.3143C36.4989 33.3143 36.4619 33.3143 36.4249 33.3143Z" fill="#E33137"/>
<path d="M36.76 33.4564C36.7304 33.4858 36.691 33.5372 36.6811 33.5323C36.6269 33.5029 36.5603 33.4711 36.5381 33.4221C36.4888 33.3192 36.5381 33.2702 36.6417 33.3192C36.691 33.3437 36.7206 33.4099 36.76 33.4589V33.4564Z" fill="#E33137"/>
<path d="M21.7428 21.5573H21.4962C21.4864 21.4373 21.5109 21.3295 21.6588 21.3638C21.6983 21.3736 21.7157 21.4912 21.7428 21.5573Z" fill="#E33137"/>
</svg>
