<svg width="86" height="80" viewBox="0 0 86 80" fill="none" xmlns="http://www.w3.org/2000/svg">
<path d="M1.25755 34.0998C1.09975 33.0181 1.62047 32.0501 1.80982 31.0273C1.95183 30.2552 2.10173 29.4518 2.0544 28.7386C2.00706 28.0449 2.20035 27.4375 2.83941 27.0456C2.88281 27.1553 2.90648 27.3434 2.97354 27.3552C3.21023 27.41 3.24967 27.2337 3.2339 27.0456C3.69149 27.073 4.13331 27.1004 4.03075 26.4107C3.98735 26.105 4.02286 25.7915 4.02286 25.478C4.13331 25.4348 4.32266 25.4113 4.3345 25.3447C4.38972 25.1096 4.21221 25.0704 4.02286 25.0861C4.22404 24.6589 4.50412 24.2944 4.43706 23.7458C4.3345 22.9228 4.62641 22.1781 5.2063 21.5589C5.2063 21.8803 5.20236 22.2056 5.21025 22.5269C5.21025 22.574 5.30098 22.668 5.33253 22.6602C5.42721 22.6367 5.585 22.5818 5.58895 22.5269C5.61262 22.2056 5.60078 21.8842 5.60078 21.5629C5.83747 21.5158 6.25957 21.6961 6.29112 21.4335C6.35819 20.877 6.63827 20.4146 6.76845 19.8973C6.81184 19.7288 6.63038 19.5602 6.38974 19.6034C6.79606 19.3055 6.50809 18.5491 7.36017 18.5413C7.47851 18.5805 7.43117 18.4708 7.35228 18.4355C7.1866 18.3571 7.10375 18.4355 7.1866 18.6001C7.22604 18.6785 7.33255 18.7294 7.41539 18.7764C7.43117 18.7843 7.49429 18.702 7.36017 18.5413C7.23788 18.1298 6.98147 17.6752 7.57319 17.6439C7.61658 17.7536 7.64025 17.9417 7.70731 17.9535C7.944 18.0083 7.98345 17.832 7.96767 17.6439C8.24775 17.589 8.65407 17.8202 8.74874 17.3499C8.80002 17.0952 8.73691 16.8326 8.36215 16.86C8.75663 16.2526 9.26551 15.6922 9.51403 15.0299C9.75467 14.3793 10.1728 14.0188 10.729 13.7248C10.729 13.8542 10.7133 13.9835 10.733 14.1089C10.7527 14.2226 10.7961 14.4107 10.8592 14.4263C11.0998 14.4812 11.1314 14.3009 11.1235 14.1089C11.1196 13.9796 11.1235 13.8542 11.1235 13.7248C11.3957 13.7366 11.5298 13.6034 11.518 13.3329C11.7902 13.3447 11.9243 13.2115 11.9125 12.941C12.0229 12.8979 12.2123 12.8744 12.2241 12.8078C12.2793 12.5727 12.1018 12.5335 11.9125 12.5491C11.8651 12.2278 12.1886 11.977 12.3188 11.977C13.3011 11.9809 13.2419 10.8365 14.019 10.5544C14.7409 10.2918 14.8593 9.42961 15.1393 8.77121C15.1709 8.69283 15.3484 8.67716 15.4589 8.63405C15.5378 9.37474 15.522 9.31204 15.8691 9.2219C16.6107 9.02987 16.6896 8.23823 17.2183 7.862C17.3958 7.73659 17.4549 7.55632 17.2183 7.4701C17.0486 7.4074 16.8317 7.45834 16.6384 7.45834C16.7607 6.79211 17.522 7.0782 18.0033 6.78819C18.1216 6.82738 18.0743 6.71765 17.9954 6.68238C17.8297 6.604 17.7469 6.68238 17.8297 6.84698C17.8691 6.92536 17.9757 6.97631 18.0585 7.02333C18.0743 7.03117 18.1374 6.94887 18.0033 6.78819C17.9757 6.05534 18.3938 5.82804 19.0052 5.89074C19.0486 6.00047 19.0723 6.18858 19.1394 6.20034C19.3761 6.25521 19.4155 6.07885 19.3997 5.89074C19.5102 5.84763 19.6995 5.82412 19.7114 5.75749C19.7666 5.52235 19.5891 5.48316 19.3997 5.49884C19.5536 4.87963 19.9717 4.65233 20.5832 4.71504V5.19316C20.5832 5.22059 20.5832 5.16572 20.5832 5.10694C20.4806 5.14221 20.3702 5.1618 20.2794 5.22059C20.1769 5.28721 20.2005 5.40478 20.3544 5.45181C20.4096 5.46749 20.5082 5.34208 20.5832 5.19707C20.7134 5.11086 20.8435 5.12653 20.9698 5.10302C21.0842 5.08342 21.2735 5.04031 21.2893 4.97761C21.3445 4.73855 21.1631 4.7072 20.9698 4.71504C20.8396 4.71896 20.7134 4.71504 20.5832 4.71504C20.5832 4.65233 20.5753 4.53868 20.5832 4.53868C21.2735 4.43679 21.8179 3.88029 22.5556 3.93123V4.40935C22.5556 4.43679 22.5556 4.38192 22.5556 4.32314C22.453 4.35841 22.3426 4.378 22.2518 4.43679C22.1493 4.50341 22.1729 4.62098 22.3268 4.66801C22.382 4.68368 22.4806 4.55828 22.5556 4.41327C22.8554 4.26827 23.309 4.51909 23.3445 3.93515C24.3386 3.95083 25.2183 3.74312 25.7114 2.75945C26.0349 2.75945 26.3899 2.84567 26.67 2.73594C27.0132 2.60661 27.2972 2.3166 27.6089 2.09714C27.2657 1.83456 26.8673 2.03835 26.5004 1.97565C26.5477 1.86592 26.599 1.65429 26.6385 1.65429C28.3742 1.75618 30.0231 1.05076 31.7707 1.17225C33.4314 1.28982 35.0449 0.529532 36.7293 0.799944C36.962 0.839134 37.1474 0.709807 37.1395 0.517776C37.1119 -0.152375 37.5932 0.0200611 37.9443 0.0200611C41.3605 0.0122231 44.7728 0.0122231 48.189 0.0200611C48.5401 0.0200611 48.974 -0.152375 49.0095 0.513856C49.0332 0.980219 49.5144 0.799944 49.7984 0.792106C51.5144 0.745078 53.1673 0.999814 54.8005 1.55239C55.3882 1.75226 56.1023 1.58375 56.761 1.58375C57.0293 1.58375 57.3015 1.58375 57.2699 1.97565C57.1397 1.97565 57.0056 1.95997 56.8794 1.97565C56.6348 2.01484 56.2995 1.82673 56.1811 2.11281C56.1378 2.22255 56.3942 2.5635 56.5796 2.63012C57.0056 2.78296 57.3173 3.04946 57.6683 3.31203C58.1812 3.69217 58.7768 3.7588 59.2423 3.14743C59.4396 3.14743 59.7473 3.06905 59.8143 3.15919C60.5836 4.22516 61.6289 4.51125 62.8794 4.33489C63.0688 4.30746 63.2345 4.46814 63.1871 4.71504C62.911 4.75815 62.5165 4.55828 62.41 4.97761C62.3114 5.35775 62.5283 5.491 62.9228 5.51451C63.195 5.53019 63.3252 5.98871 63.696 5.88682C63.8814 5.83587 64.0234 5.72614 63.98 5.49884C64.8834 6.05142 65.984 6.26305 66.7414 7.06644C66.5442 7.06644 66.2996 6.99198 66.1615 7.08212C65.7749 7.34077 66.1773 7.52105 66.3154 7.60335C66.7256 7.85416 67.1635 8.08539 67.6211 8.22255C67.8696 8.29701 68.3114 8.38715 68.3154 7.85024C68.7454 7.9443 69.0097 8.20687 69.1044 8.72027C69.1044 8.7477 69.1044 8.69283 69.1044 8.63405C69.0018 8.66932 68.8913 8.68891 68.8006 8.7477C68.698 8.81432 68.7217 8.93189 68.8756 8.97892C68.9308 8.9946 69.0294 8.86919 69.1044 8.72418C69.8973 9.37082 71.2424 9.50799 71.4988 10.8209C72.6507 10.8836 73.2306 11.7889 73.9525 12.4786C74.0827 12.604 74.2957 12.6981 74.2326 13.0351C74.2326 13.0625 74.2326 13.0077 74.2326 12.9489C74.13 12.9841 74.0196 13.0037 73.9289 13.0625C73.8263 13.1292 73.85 13.2467 74.0038 13.2938C74.059 13.3094 74.1577 13.184 74.2326 13.039C74.8874 12.8352 74.3667 13.7562 74.9624 13.7484C75.4358 13.7405 75.6961 14.0776 75.9999 14.8026C76.0038 14.9005 75.8145 14.7085 75.6251 14.5204C75.5541 14.6105 75.4397 14.6968 75.4239 14.7947C75.3884 15.0377 75.4121 15.2807 75.7514 15.3081C75.9447 15.3238 76.0906 15.265 75.9999 14.8065C76.2326 14.5165 76.6744 14.442 76.631 15.1278C76.6192 15.3081 77.0374 15.3943 76.99 15.7C76.7967 15.7 76.56 15.6295 76.422 15.7118C76.0275 15.9469 76.4101 16.1272 76.5482 16.2213C77.2583 16.6876 77.3806 17.6047 78.0354 18.1024C78.1853 18.216 78.3155 18.6158 78.5561 18.2239C78.6429 18.0828 78.5679 17.8476 78.5679 17.6595C79.2386 17.781 78.9506 18.5374 79.3569 18.8352C79.1202 18.8823 78.7021 18.7059 78.6784 18.9646C78.6468 19.2585 78.8717 19.5955 79.0453 19.8816C79.207 20.1481 79.5147 19.9639 79.7553 20.0109C79.8145 20.3088 79.5581 20.7595 80.1498 20.7947C80.1498 20.9241 80.134 21.0534 80.1538 21.1788C80.1735 21.2925 80.2169 21.4806 80.28 21.4962C80.5206 21.5511 80.5522 21.3708 80.5443 21.1788C80.5404 21.0495 80.5443 20.9241 80.5443 20.7947C81.1913 20.9593 81.2149 21.6295 81.2741 22.0253C81.3372 22.4799 81.6962 22.7386 81.7277 23.1461C81.4911 23.103 81.3648 23.2441 81.3372 23.4362C81.2228 24.3375 81.8343 24.749 82.5167 25.1056C82.5167 25.427 82.5128 25.7523 82.5207 26.0736C82.5207 26.1207 82.6114 26.2147 82.6429 26.2069C82.7376 26.1834 82.8954 26.1285 82.8994 26.0736C82.923 25.7523 82.9112 25.4309 82.9112 25.1096C83.2623 25.0861 83.3057 25.3094 83.3057 25.5799C83.3057 26.0776 83.3057 26.5753 83.3057 27.1592C83.3057 27.1866 83.3057 27.1318 83.3057 27.073C83.2031 27.1083 83.0927 27.1279 83.0019 27.1866C82.8994 27.2533 82.923 27.3708 83.0769 27.4179C83.1321 27.4335 83.2307 27.3081 83.3057 27.1631C84.2682 27.896 84.6272 28.911 84.5088 30.1768C84.4142 31.2075 84.5128 32.2539 84.4812 33.2925C84.4536 34.1468 84.5956 34.9424 85.2899 35.491C85.8856 35.9613 85.5858 36.267 85.2978 36.749C84.4536 38.1756 84.4891 38.1991 84.4891 39.9195C84.4891 40.3741 84.4378 40.8366 84.497 41.2833C84.7061 42.8196 84.0986 44.2657 83.9921 45.7667C83.9802 45.9391 83.7199 46.0057 83.9092 46.3349C84.3944 47.1814 83.9171 47.781 83.1913 48.2396C83.0571 48.3258 82.8481 48.318 83.0532 48.6001C83.424 49.1253 83.3925 49.1488 82.8205 49.8072C82.7928 49.8072 82.8481 49.8072 82.9072 49.8072C82.8717 49.7053 82.852 49.5955 82.7928 49.5054C82.7258 49.4035 82.6074 49.427 82.5601 49.5799C82.5443 49.6347 82.6706 49.7327 82.8165 49.8072C82.9033 50.3049 82.9033 50.8026 82.9033 51.2964C82.9033 51.5629 82.8599 51.7902 82.422 51.7667C82.5088 51.8255 82.5601 51.7667 82.5128 51.5825C82.4694 51.4179 82.4654 51.2376 82.4023 51.0809C82.355 50.9594 82.213 50.9868 82.1538 51.1475C82.067 51.3826 82.0828 51.6099 82.422 51.7667C82.4496 52.0606 82.7061 52.5152 82.0276 52.5505C81.9999 52.5505 82.0552 52.5505 82.1143 52.5505C82.0788 52.4486 82.0591 52.3389 81.9999 52.2487C81.9329 52.1468 81.8145 52.1703 81.7672 52.3232C81.7514 52.378 81.8777 52.476 82.0236 52.5505C82.1341 52.9424 81.7475 53.1344 81.6765 53.5459C81.4871 54.655 81.0414 55.6974 80.138 56.4695C80.0946 56.3598 80.0709 56.1716 80.0039 56.1599C79.7672 56.105 79.7277 56.2814 79.7396 56.6419C79.6528 56.7281 79.9289 56.4225 79.562 56.4812C79.4792 56.493 79.3569 56.6537 79.3609 56.7399C79.3688 56.9006 79.4555 57.0613 79.5108 57.2219C79.6962 57.1592 79.7711 57.026 79.7396 56.6459C79.8737 56.4734 80.0039 56.4734 80.138 56.4734C80.1695 57.1436 80.2208 57.8216 79.349 58.041C79.3056 57.9313 79.282 57.7432 79.2149 57.7314C78.9782 57.6765 78.9388 57.8529 78.9545 58.041C78.3628 58.0763 78.6192 58.527 78.5601 58.8248C78.2879 58.8131 78.1537 58.9463 78.1656 59.2167C77.9249 59.1736 77.8027 59.3186 77.779 59.5146C77.7514 59.7771 77.7948 60.028 78.1656 60.0005C78.0157 60.3846 78.5325 60.992 77.7711 61.1762C77.7711 60.9803 77.8461 60.7373 77.7553 60.6001C77.4989 60.2161 77.3845 60.6472 77.2228 60.7491C77.1163 60.8157 77.0137 60.9137 76.9466 61.0234C76.8441 61.1841 76.4101 61.2977 76.7967 61.5524C76.9309 61.6426 77.1794 61.5681 77.3766 61.5681C77.4358 62.1677 76.5048 62.011 76.6429 62.1364C77.2859 62.7242 76.5798 62.8653 76.3667 63.1201C76.2878 63.2141 75.992 63.1357 75.708 63.1357C75.6803 63.1357 75.7356 63.1357 75.7947 63.1357C75.7592 63.0338 75.7395 62.9241 75.6804 62.834C75.6133 62.7321 75.4949 62.7556 75.4476 62.9084C75.4318 62.9633 75.5581 63.0613 75.704 63.1357C75.7829 63.4688 76.4101 63.7393 75.7869 64.1586C75.0768 64.6328 74.4377 65.1579 74.1261 66.0946C73.8855 66.8157 72.99 67.1488 72.1576 67.4506C72.13 67.4506 72.1852 67.4506 72.2444 67.4506C72.2089 67.3487 72.1892 67.2389 72.13 67.1488C72.063 67.0469 71.9446 67.0704 71.8973 67.2233C71.8815 67.2781 72.0077 67.3761 72.1537 67.4506C71.846 67.8425 71.4515 68.2344 71.057 68.6263C71.0136 68.5165 70.99 68.3284 70.9229 68.3167C70.6862 68.2618 70.6468 68.4382 70.6626 68.6263C70.5324 68.6263 70.4022 68.6106 70.276 68.6263C69.9919 68.6655 69.6093 68.4538 69.487 68.9045C69.4594 69.0103 69.4712 69.1945 69.5422 69.2572C69.9051 69.5825 69.9328 68.8418 70.2799 69.0064C70.3825 69.0574 70.5324 69.0142 70.6626 69.0142C70.7257 69.2572 70.5284 69.4297 70.3904 69.4649C69.1911 69.751 68.4653 70.7308 67.4199 71.3657C67.3923 71.3657 67.4475 71.3657 67.5067 71.3657C67.4712 71.2638 67.4515 71.154 67.3923 71.0639C67.3252 70.962 67.2069 70.9855 67.1596 71.1384C67.1438 71.1932 67.27 71.2912 67.416 71.3657C67.4081 71.7928 67.1438 72.0554 66.627 72.1495C66.5994 72.1495 66.6546 72.1495 66.7138 72.1495C66.6783 72.0476 66.6586 71.9378 66.5994 71.8477C66.5323 71.7458 66.414 71.7693 66.3667 71.9222C66.3509 71.977 66.4771 72.075 66.6231 72.1495C65.9998 72.9724 64.9505 73.0234 64.0116 73.3212C63.6921 73.4231 63.5974 73.4741 63.7394 73.674C64.2996 74.4656 63.5895 74.5988 63.1595 74.8888C63.2029 74.6498 63.057 74.5283 62.8597 74.5048C62.5954 74.4773 62.3429 74.5205 62.3706 74.8888C62.2404 74.8888 62.1102 74.8732 61.984 74.8928C61.8696 74.9124 61.6802 74.9555 61.6644 75.0182C61.6092 75.2572 61.7907 75.2886 61.984 75.2807C62.1141 75.2768 62.2404 75.2807 62.3706 75.2807C62.2325 76.041 61.6447 75.5668 61.27 75.657C60.9978 75.7236 60.7492 75.7393 60.7966 76.0881C60.8755 76.6602 60.6822 76.9581 60.0628 76.8444C59.554 76.7504 59.1792 76.962 58.9031 77.3578C58.6743 77.6909 58.3508 77.6322 57.9405 77.6282C57.9129 77.6282 57.9682 77.6282 58.0273 77.6282C57.9918 77.5263 57.9721 77.4166 57.9129 77.3265C57.8459 77.2246 57.7275 77.2481 57.6802 77.4009C57.6644 77.4558 57.7906 77.5538 57.9366 77.6282C58.0549 78.0162 57.7709 77.9692 57.5184 78.028C56.6979 78.22 55.5658 77.4166 55.0884 78.7608C55.0727 78.8118 54.8478 78.8118 54.7255 78.8C53.2462 78.6472 51.8931 79.2468 50.5361 79.6465C49.8497 79.8464 49.2067 79.9757 48.5164 79.9757C46.2836 79.9836 44.0469 80.0345 41.8181 79.96C40.323 79.9091 38.8516 79.5917 37.3762 79.3095C36.465 79.137 35.5458 78.9411 34.6228 78.8C34.1888 78.7334 33.5577 79.1018 33.4985 78.1886C33.4788 77.8673 32.9186 78.0005 32.6227 78.0319C31.1277 78.1887 29.7312 77.8986 28.4925 77.0678C27.9324 76.6916 27.3682 76.9228 26.8081 76.8483C26.4886 76.8052 26.1177 76.9111 25.8495 76.7856C25.4037 76.5779 26.0901 75.5237 25.0014 75.6452C24.453 75.7079 23.8376 75.849 23.3169 75.4689C23.2854 75.4453 23.313 75.3435 23.4274 75.1005C23.4668 74.9829 23.3564 75.0299 23.3209 75.1083C23.242 75.2729 23.3209 75.3552 23.4866 75.2729C23.5655 75.2337 23.6167 75.1279 23.6641 75.0456C23.672 75.0299 23.5891 74.9672 23.4274 75.1005C23.0132 75.222 22.5556 75.4767 22.6384 74.7086C22.6779 74.591 22.5674 74.638 22.5319 74.7164C22.453 74.881 22.5319 74.9633 22.6976 74.881C22.7765 74.8418 22.8278 74.736 22.8751 74.6537C22.883 74.638 22.8002 74.5753 22.6384 74.7086C21.7114 74.7517 20.9106 74.6028 20.666 73.5329C20.7055 73.4153 20.595 73.4623 20.5595 73.5407C20.4806 73.7053 20.5595 73.7876 20.7252 73.7053C20.8041 73.6661 20.8554 73.5603 20.9027 73.478C20.9106 73.4623 20.8278 73.3996 20.666 73.5329C20.2518 73.6544 19.7942 73.9091 19.8771 73.141C19.9165 73.0234 19.806 73.0704 19.7705 73.1488C19.6916 73.3134 19.7705 73.3957 19.9362 73.3134C20.0151 73.2742 20.0664 73.1684 20.1137 73.0861C20.1216 73.0704 20.0388 73.0077 19.8771 73.141C18.6778 72.7216 17.5693 72.1573 16.6068 71.3617C16.737 71.3617 16.8672 71.3774 16.9934 71.3578C17.1078 71.3382 17.2971 71.2951 17.3129 71.2324C17.3682 70.9933 17.1867 70.962 16.9934 70.9698C16.8632 70.9737 16.737 70.9698 16.6068 70.9698C16.5634 70.8601 16.5397 70.672 16.4727 70.6602C16.236 70.6054 16.1965 70.7817 16.2123 70.9698C15.9677 71.0325 15.806 70.8405 15.7547 70.6955C15.4115 69.7275 14.5792 69.222 13.8454 68.6184C13.9559 68.5753 14.1452 68.5518 14.1571 68.4852C14.2123 68.25 14.0348 68.2108 13.8454 68.2265C13.8888 67.9875 13.7429 67.866 13.5456 67.8425C13.2813 67.815 13.0289 67.8581 13.0565 68.2265C12.4529 68.3206 12.1097 68.0071 11.873 67.5015C11.6166 66.9568 11.3484 66.4199 11.0841 65.8751C11.1945 65.832 11.3839 65.8085 11.3957 65.7419C11.4509 65.5067 11.2734 65.4675 11.0841 65.4832C11.0407 65.3735 11.017 65.1854 10.9499 65.1736C10.7133 65.1188 10.6738 65.2951 10.6896 65.4832C9.79412 65.1266 9.48248 64.2997 9.38386 63.3513C9.35624 63.0769 9.20239 63.1828 9.11561 63.3434C9.02488 63.508 9.10377 63.559 9.29312 63.5276C9.50614 63.4924 9.77439 63.5982 9.84934 63.2886C9.85723 63.2611 9.66394 63.1828 9.37991 63.3513C8.516 63.4884 8.77241 63.0378 8.71324 62.7399C8.82369 62.6968 9.01304 62.6733 9.02488 62.6067C9.0801 62.3715 8.90259 62.3323 8.71324 62.348C8.66985 62.2383 8.64618 62.0502 8.57911 62.0384C8.34243 61.9835 8.30298 62.1599 8.31876 62.348C7.92428 61.8268 7.52979 61.3016 7.13531 60.7804C7.24577 60.7373 7.43512 60.7138 7.44695 60.6472C7.50218 60.412 7.32466 60.3728 7.13531 60.3885C7.13531 60.2592 7.15109 60.1298 7.13137 60.0044C7.11164 59.8908 7.06825 59.7027 7.00513 59.687C6.7645 59.6321 6.73294 59.8124 6.74083 60.0044C6.74478 60.1338 6.74083 60.2592 6.74083 60.3885C6.51598 60.4316 6.32268 60.2631 6.36213 60.122C6.51598 59.5812 6.11755 59.2402 6.08994 58.4368C5.99132 58.1312 5.93215 58.2644 5.94793 58.4564C5.95976 58.5779 5.91637 58.7935 5.95582 58.8052C6.16883 58.8797 6.31085 58.7268 6.33452 58.5505C6.35424 58.3937 6.2714 58.2252 6.09388 58.4408C5.50216 58.2056 4.76054 57.7588 4.77237 56.8653C4.90255 56.8653 5.03667 56.8653 5.34831 56.979C5.46666 57.0182 5.41932 56.9084 5.34042 56.8731C5.17474 56.7948 5.0919 56.8732 5.17474 57.0378C5.21419 57.1161 5.3207 57.1671 5.40749 57.2141C5.42327 57.2219 5.48638 57.1396 5.35226 56.979C5.1274 56.7556 5.10374 56.5675 5.03667 56.5557C4.79999 56.5008 4.76054 56.6772 4.77632 56.8653C4.19643 56.4421 4.10964 55.7327 4.03469 55.1527C3.9558 54.5335 3.82956 54.0397 3.33252 53.6752C2.59484 53.1305 2.2043 52.4447 2.40943 51.5198C2.63428 50.4969 1.93211 49.7641 1.59285 48.9293C1.4035 48.463 0.985353 48.1729 1.57313 47.6478C1.94 47.3225 1.1747 47.0717 1.36406 46.2918C1.26543 45.9861 1.20626 46.1194 1.22204 46.3114C1.23388 46.4329 1.19048 46.6485 1.22993 46.6602C1.44295 46.7347 1.58496 46.5818 1.60863 46.4055C1.62836 46.2487 1.54552 46.0802 1.368 46.2957C0.626375 46.4447 0.440969 45.8059 0.476473 45.3748C0.681603 42.9411 -0.1902 40.5857 0.0385986 38.1638C0.0622675 37.9012 0.0543778 37.6347 0.437024 37.6661C0.437024 38.2461 0.385742 38.83 0.452804 39.4061C0.515921 39.9861 0.137219 40.6328 0.681603 41.1462C0.973519 40.6093 0.582983 39.8882 0.874899 39.4963C1.39956 38.7908 0.515921 38.2657 0.83545 37.6622C1.35617 37.6622 1.29699 37.235 1.20626 36.9959C1.06425 36.604 1.82165 36.4865 1.41928 36.0906C1.1392 35.8163 1.15892 35.5655 1.43112 35.299C1.74276 34.9933 1.65203 34.6171 1.54552 34.2683C1.52579 34.1978 1.34039 34.1782 1.22993 34.135L1.25755 34.0998ZM19.7982 18.4237C19.526 18.412 19.3918 18.5452 19.4037 18.8156C19.1315 18.8039 18.9974 18.9371 19.0092 19.2075C18.8987 19.2506 18.7094 19.2742 18.6976 19.3408C18.6423 19.5759 18.8198 19.6151 19.0092 19.5994C18.7765 20.152 18.382 20.5439 17.8258 20.7751C17.7824 20.6654 17.7587 20.4773 17.6916 20.4655C17.4549 20.4107 17.4155 20.587 17.4313 20.7751C17.1591 20.7634 17.025 20.8966 17.0368 21.167C16.7646 21.1553 16.6305 21.2885 16.6423 21.5589C16.0506 21.5942 16.307 22.0449 16.2478 22.3427C16.1374 22.3859 15.948 22.4094 15.9362 22.476C15.881 22.7111 16.0585 22.7503 16.2478 22.7346C16.1532 23.1618 15.8888 23.4244 15.4589 23.5184C15.4155 23.4087 15.3918 23.2206 15.3247 23.2088C15.0881 23.154 15.0486 23.3303 15.0644 23.5184C14.6778 23.5028 14.5082 23.8359 14.3543 24.0632C14.1807 24.3179 14.1847 24.6706 14.6699 24.6942C14.2123 25.474 13.8099 26.2931 13.2734 27.0103C13.0762 27.2768 13.305 27.8686 12.6975 27.8294C12.6541 27.7196 12.6304 27.5315 12.5634 27.5198C12.3267 27.4649 12.2872 27.6413 12.303 27.8294C12.0624 28.0841 11.5969 29.2441 11.5141 29.7889C11.4036 29.832 11.2142 29.8555 11.2024 29.9221C11.1472 30.1573 11.3247 30.1964 11.5141 30.1808C11.1787 30.9058 10.6738 31.5642 10.6383 32.4107C10.6383 32.4577 10.4371 32.493 10.157 32.5322H10.3346C10.2991 32.4303 10.2793 32.3205 10.2202 32.2304C10.1531 32.1285 10.0347 32.152 9.98741 32.3049C9.97163 32.3597 10.0979 32.4577 10.3346 32.5322C10.4687 33.6413 9.92035 34.621 9.72705 35.6674C9.72705 35.6791 9.60871 35.6674 9.37202 35.6713C9.54559 35.7301 9.60082 35.6713 9.54954 35.4832C9.50614 35.3186 9.5022 35.1383 9.43908 34.9816C9.39175 34.8601 9.24973 34.8875 9.19056 35.0482C9.10377 35.2833 9.11955 35.5106 9.54559 35.6674V36.8117C9.54559 36.6863 9.57715 36.5492 9.5377 36.4394C9.49037 36.3101 9.731 35.9966 9.36019 36.0789C9.26157 36.1024 9.18267 36.3689 9.159 36.5335C9.1235 36.7804 9.13533 37.0351 9.159 37.2859C9.17084 37.3917 9.28129 37.5877 9.31285 37.5799C9.51403 37.5407 9.56137 37.38 9.54559 37.188C9.53376 37.0626 9.54559 36.9371 9.54559 36.0593C9.89668 36.0358 9.94007 36.2592 9.94007 36.5296C9.94007 37.0273 9.94007 37.525 9.94007 38.0188C9.65999 38.0737 9.20239 37.8346 9.16689 38.3206C9.11166 39.0926 9.13928 39.8725 9.159 40.6445C9.16295 40.813 9.27735 40.9816 9.34046 41.1462C9.51798 41.0286 9.49431 40.8326 9.55743 40.6641C9.73889 40.186 9.09194 39.4923 9.94007 39.1906V42.9097C9.94007 42.6511 9.9164 42.3846 9.94796 42.1298C9.97558 41.93 9.93218 41.8516 9.74678 41.9417C9.63632 41.9966 9.5377 42.1063 9.47064 42.2121C9.39175 42.3415 9.04066 42.4629 9.26551 42.604C9.77439 42.9215 9.34835 43.4858 9.67577 43.8111C9.69944 43.8346 9.92035 43.7405 9.92824 43.6896C9.95585 43.4309 9.94007 43.1723 9.94007 41.9339C10.0505 41.977 10.2517 42.0162 10.2557 42.0671C10.2951 42.8823 10.3464 43.7014 10.3267 44.5204C10.3069 45.3865 11.021 46.1272 10.7527 47.201C10.6856 46.9463 10.2083 46.9502 10.3227 46.5622C10.3464 46.4878 10.1807 46.2761 10.161 46.2801C9.97558 46.3467 9.91246 46.5034 9.94007 46.6955C9.97163 46.9267 9.82962 47.205 10.0939 47.3696C10.1847 47.4283 10.3346 47.4401 10.4411 47.4127C10.5476 47.3852 10.6304 47.2833 10.7251 47.0286C11.2261 47.0639 11.2103 47.4048 11.0249 47.6831C10.8474 47.9496 10.5318 48.1808 10.8316 48.4865C11.301 48.9646 11.0052 49.717 11.5141 50.1599C10.871 50.8692 10.9026 50.9946 11.9085 51.7275C11.8454 52.3349 12.0742 52.7504 12.6975 52.9032C12.6975 53.0325 12.6817 53.1618 12.7014 53.2873C12.7212 53.4009 12.7646 53.589 12.8277 53.6047C13.0683 53.6596 13.0999 53.4793 13.092 53.2873C13.088 53.1579 13.092 53.0325 13.092 52.9032C13.7034 53.5773 14.232 54.2984 14.2754 55.431V55.2546C14.1729 55.2899 14.0624 55.3095 13.9717 55.3682C13.8691 55.4349 13.8928 55.5524 14.0466 55.5995C14.1018 55.6151 14.2005 55.4897 14.2754 55.2546C15.2419 55.7837 15.8455 56.6106 16.2478 57.7824V57.606C16.1453 57.6413 16.0348 57.6609 15.9441 57.7197C15.8415 57.7863 15.8652 57.9038 16.019 57.9509C16.0743 57.9666 16.1729 57.8411 16.2478 57.606C16.8987 57.606 16.5279 58.3428 16.9776 58.5779C17.3287 58.7621 17.735 59.0756 17.8258 59.738V59.5616C17.7232 59.5969 17.6127 59.6165 17.522 59.6752C17.4194 59.7419 17.4431 59.8594 17.597 59.9065C17.6522 59.9221 17.7508 59.7967 17.8258 59.5616C18.7804 60.1808 19.5694 60.9646 20.1926 61.913C19.7311 61.9248 19.6838 62.3088 19.8534 62.5165C20.1177 62.834 20.4806 62.8614 20.5871 62.3049C20.8869 62.3637 21.3406 62.1089 21.3761 62.6968C21.2656 62.7399 21.0763 62.7634 21.0644 62.83C21.0092 63.0652 21.1867 63.1044 21.3761 63.0887C21.2498 63.9509 21.9362 64.2683 22.4846 64.6367C22.67 64.7621 22.9816 64.625 22.954 64.2644C23.384 64.3585 23.6483 64.621 23.743 65.2246V65.0482C23.6404 65.0835 23.5299 65.1031 23.4392 65.1619C23.3367 65.2285 23.3603 65.3461 23.5142 65.3931C23.5694 65.4088 23.668 65.2833 23.743 65.0482C24.0428 65.107 24.4964 64.8523 24.5319 65.6165C24.5319 65.5577 24.5319 65.4989 24.5319 65.4401C24.4294 65.4754 24.3189 65.495 24.2282 65.5538C24.1256 65.6204 24.1493 65.738 24.3031 65.785C24.3584 65.8007 24.457 65.6752 24.5319 65.4401C25.1315 65.2794 25.4629 65.7027 25.743 66.0789C26.0507 66.4943 26.8199 65.8124 26.8988 66.6158C26.7055 66.6158 26.5083 66.6001 26.3189 66.6197C26.1414 66.6393 25.8574 66.6472 25.81 66.7491C25.7035 66.9724 25.9718 66.9372 26.098 67.0234C26.5872 67.3604 27.1158 67.4466 27.6878 67.3996C27.7233 67.9875 28.1769 67.7327 28.4767 67.7915C28.5201 67.9012 28.5438 68.0894 28.6109 68.1011C28.8476 68.156 28.887 67.9796 28.8712 67.7915C29.4827 67.7366 29.0961 68.5792 29.4945 68.5518C30.3426 68.493 31.1198 68.9124 31.8969 68.9163C33.1908 68.9163 34.3703 69.6374 35.676 69.363C36.2638 69.2416 36.6346 69.8999 37.2934 69.7863C37.8102 69.6962 38.3703 69.6413 38.9423 70.0763C39.4433 70.4564 40.3625 69.8137 40.9029 70.5348C41.1435 70.1468 41.5143 70.1155 41.9207 70.139C42.3033 70.1586 42.3388 69.8529 42.2678 69.6099C42.181 69.3082 41.8023 69.2416 41.6603 69.4179C41.0015 70.2566 40.4059 69.4532 40.0469 69.222C38.7806 68.4107 38.6701 68.2736 37.5459 68.1834C37.5893 67.9444 37.4433 67.8229 37.2461 67.7994C36.9818 67.7719 36.7293 67.815 36.7569 68.1834C36.4571 67.7798 35.6957 68.0658 35.8023 67.0391C35.7273 67.1018 35.6169 67.1488 35.5774 67.2272C35.4985 67.3918 35.5774 67.4741 35.7431 67.3918C35.822 67.3526 35.8733 67.2468 35.9206 67.1645C35.9285 67.1488 35.8456 67.0861 35.5695 67.3996C35.2697 66.996 34.5084 67.282 34.3861 66.6158C34.5162 66.6158 34.6464 66.6315 34.7727 66.6119C34.8871 66.5923 35.0764 66.5492 35.0922 66.4865C35.1474 66.2474 34.966 66.2161 34.7727 66.2239C34.6425 66.2278 34.5162 66.2239 34.3861 66.2239C34.3979 65.9535 34.2638 65.8203 33.8141 65.832H33.9916C33.9561 65.7301 33.9364 65.6204 33.8772 65.5302C33.8101 65.4284 33.6918 65.4519 33.6444 65.6047C33.6287 65.6596 33.7549 65.7575 33.9916 65.832C33.9798 66.1024 34.1139 66.2357 34.3861 66.2239V66.6158C34.0744 66.6158 33.6997 66.7099 33.534 66.3493C33.0172 65.2285 32.1573 64.5897 30.9896 64.1743C30.4018 63.9666 30.39 62.7869 29.3801 62.9986C29.3762 62.9986 29.2578 62.6694 29.2657 62.4969C29.2854 62.1207 29.2065 61.9365 28.7647 61.8934C28.2913 61.8503 28.5241 61.4074 28.4689 61.1292C28.599 61.1292 28.7332 61.1292 29.2263 61.3565C29.1631 61.282 29.1158 61.1723 29.0369 61.1331C28.8712 61.0547 28.7884 61.1331 28.8712 61.2977C28.9107 61.3761 29.0172 61.427 29.1 61.4741C29.1158 61.4819 29.1789 61.3996 28.8633 61.1253C28.8752 60.8549 28.741 60.7216 28.4689 60.7334C28.4807 60.463 28.3466 60.3297 28.0744 60.3415C28.0862 60.0711 27.9521 59.9378 27.6799 59.9496C27.7391 59.0874 27.1316 58.7268 26.4964 58.382C26.5083 58.1116 26.3742 57.9783 26.102 57.9901C26.102 57.6687 26.1059 57.3434 26.098 57.0221C26.098 56.975 26.0073 56.881 25.9757 56.8888C25.8811 56.9123 25.7233 56.9672 25.7193 57.0221C25.6957 57.3434 25.7075 57.6648 25.7075 57.9862C25.4668 57.7314 25.0014 56.5714 25.1473 55.6661C25.0724 55.7288 24.9619 55.7758 24.9225 55.8542C24.8436 56.0188 24.9225 56.1011 25.0881 56.0188C25.167 55.9796 25.2183 55.8738 25.2657 55.7915C25.2736 55.7758 25.1907 55.7131 24.9146 56.0266C24.2795 55.6818 23.672 55.3212 23.7311 54.459C23.8613 54.459 23.9954 54.459 24.4885 54.6863C24.4254 54.6119 24.3781 54.5021 24.2992 54.463C24.1335 54.3846 24.0507 54.463 24.1335 54.6276C24.173 54.7059 24.2795 54.7569 24.3623 54.8039C24.3781 54.8117 24.4412 54.7295 24.1256 54.4551C24.4333 53.8751 24.2913 53.1736 23.7311 52.4956C23.7311 52.3663 23.7469 52.237 23.7272 52.1116C23.7075 51.9979 23.6641 51.8098 23.601 51.7941C23.3603 51.7392 23.3288 51.9195 23.3367 52.1116C23.3406 52.2409 23.3367 52.3663 23.3367 52.4956C23.0881 52.5387 22.9698 52.3898 22.9461 52.186C22.8238 51.1318 23.2538 50.011 22.5556 49.0195C22.5122 48.9567 22.5753 48.7608 22.6503 48.6824C23.2499 48.0358 22.9303 47.542 22.4057 47.0639C22.0033 46.6994 21.9836 45.994 22.3307 45.9313C23.0329 45.8019 22.9422 45.4257 22.9422 44.9868C22.9422 44.4656 22.9698 43.9443 22.9382 43.4231C22.8554 42.1063 23.1197 40.7817 22.6069 39.4571C22.4254 38.9868 22.1611 38.0972 23.6917 37.8424C23.6404 37.6426 23.4905 37.5603 23.313 37.6151C23.1867 37.6543 22.9146 37.4231 22.9422 37.7915C22.958 38.007 22.8672 38.3441 23.1749 38.3284C23.3564 38.3206 23.5221 38.0149 22.9422 37.6112C22.9422 36.4669 22.9422 35.3225 22.9422 34.1782C22.9422 33.9117 22.9698 33.6648 23.3367 33.6922C23.3367 34.0136 23.3327 34.3388 23.3406 34.6602C23.3406 34.7072 23.4313 34.8013 23.4629 34.7934C23.5576 34.7699 23.7154 34.7151 23.7193 34.6602C23.743 34.3388 23.7311 34.0175 23.7311 33.6961C24.0743 33.7196 24.1256 33.5041 24.1256 33.2337C24.1256 32.8653 24.1256 32.4969 24.1256 32.1285C24.4688 32.152 24.5201 31.9365 24.5201 31.6661C24.5201 31.2977 24.5201 30.9293 24.7489 30.2004C24.6739 30.2631 24.5635 30.3101 24.524 30.3885C24.4451 30.5531 24.524 30.6354 24.6897 30.5531C24.7686 30.5139 24.8199 30.4081 24.8672 30.3258C24.8751 30.3101 24.7923 30.2474 24.5162 30.5609H24.1217C24.0586 29.9535 24.2874 29.538 25.2736 29.6125C25.2104 29.538 25.1631 29.4283 25.0842 29.3891C24.9185 29.3107 24.8357 29.3891 24.9185 29.5537C24.958 29.6321 25.0645 29.6831 25.1473 29.7301C25.1631 29.7379 25.2262 29.6556 24.9106 29.3813C25.0566 28.8679 24.5595 28.1703 25.2262 27.8294C26.1256 27.3708 24.7292 26.8222 25.3446 26.4068C25.6049 26.2343 25.6996 25.8385 26.0941 25.8542C26.1375 25.9639 26.1611 26.152 26.2282 26.1638C26.4649 26.2186 26.5043 26.0423 26.7174 25.4936C26.6424 25.5563 26.532 25.6034 26.4925 25.6817C26.4136 25.8463 26.4925 25.9286 26.6582 25.8463C26.7371 25.8072 26.7884 25.7013 26.8357 25.6151C26.8436 25.5994 26.7607 25.5367 26.4846 25.8503H26.0901C26.173 24.9724 26.3899 24.7569 27.6365 24.9019C27.5734 24.8274 27.526 24.7177 27.4471 24.6785C27.2815 24.6001 27.1986 24.6785 27.2815 24.8431C27.3209 24.9215 27.4274 24.9724 27.5103 25.0194C27.526 25.0273 27.5892 24.945 27.2736 24.6706C27.4393 24.2474 27.8377 23.9103 27.6838 23.3695C27.6444 23.2324 27.8377 23.0599 28.4215 23.3303C28.3584 23.2559 28.3111 23.1461 28.2322 23.107C28.0665 23.0286 27.9836 23.107 28.0665 23.2716C28.1059 23.3499 28.2124 23.4009 28.2953 23.4479C28.3111 23.4557 28.3742 23.3734 28.0586 23.0991C28.1414 22.2213 28.3584 22.0057 30.0113 22.2017C29.9324 21.9665 29.7983 21.9038 29.6089 21.9234C29.4866 21.9352 29.2696 21.8921 29.2578 21.9313C29.1829 22.1429 29.3367 22.284 29.5142 22.3075C29.672 22.3271 29.8416 22.2448 29.242 21.9273C29.175 21.312 30.5438 21.6295 30.031 20.7281C30.4018 20.1324 30.7371 19.4897 31.6089 19.5759C31.6208 20.0344 32.0073 20.0815 32.2164 19.913C32.536 19.6504 32.5636 19.2898 32.0034 19.184C33.1553 17.7144 34.4689 16.4094 35.9482 15.265C35.9916 15.3747 36.0153 15.5629 36.0823 15.5746C36.319 15.6295 36.3585 15.4531 36.3427 15.265C36.6228 15.2101 37.0291 15.4414 37.1238 14.9711C37.175 14.7164 37.1119 14.4538 36.7372 14.4812C37.4157 13.7954 38.3822 13.5367 39.1041 12.9136C39.1475 13.0233 39.1711 13.2115 39.2382 13.2232C39.4749 13.2781 39.5143 13.1017 39.4985 12.9136C39.609 12.8705 39.7983 12.847 39.8102 12.7804C39.8654 12.5452 39.6879 12.506 39.4985 12.5217C39.7944 12.0867 39.9443 11.3734 40.7333 11.9691C41.1278 12.267 41.5104 12.2003 41.9443 11.8868C42.4808 11.5028 43.1159 11.2519 43.7155 10.9541C43.8773 10.8718 44.0548 10.8248 44.2244 10.7621C44.11 10.5818 43.9325 10.5544 43.7353 10.5544C42.2284 10.5583 40.7175 10.5544 39.2106 10.5544C37.8338 10.5544 36.4571 10.5504 35.0804 10.5622C34.9738 10.5622 34.8713 10.6837 34.7687 10.7464C34.8713 10.813 34.966 10.9227 35.0764 10.9345C35.3368 10.9619 35.6011 10.9423 35.8614 10.9423C37.3052 10.9423 38.7451 10.9423 40.1889 10.9423C40.3861 10.9423 40.6583 10.9737 40.6504 11.1501C40.6386 11.3382 40.3625 11.3499 40.1652 11.3382C40.0982 11.3382 40.035 11.3382 39.968 11.3382C37.3999 11.4557 34.8279 11.1422 32.2519 11.6674C31.317 11.8555 30.4886 12.1572 29.6405 12.5139C29.6839 12.2748 29.5379 12.1533 29.3407 12.1298C29.0764 12.0985 28.8239 12.1455 28.8515 12.5139C28.5517 12.5727 28.098 12.3179 28.0625 12.9058C27.6759 13.0547 27.0645 12.5413 26.8791 13.2977C26.5793 13.3565 26.1256 13.1017 26.0901 13.6896C25.9797 13.7327 25.7903 13.7562 25.7785 13.8228C25.7233 14.058 25.9008 14.0971 26.0901 14.0815C25.9678 14.7477 25.2065 14.4616 24.9067 14.8653C24.9501 14.6262 24.8041 14.5047 24.6069 14.4812C24.3426 14.4538 24.0901 14.4969 24.1177 14.8653C23.8455 14.8535 23.7114 14.9868 23.7232 15.2572C23.6128 15.3003 23.4234 15.3238 23.4116 15.3904C23.3564 15.6256 23.5339 15.6648 23.7232 15.6491C23.5694 16.2683 23.1512 16.4956 22.5398 16.4329C22.4925 16.3231 22.453 16.1154 22.4017 16.1154C21.6956 16.0723 20.9934 16.7738 21.0368 17.4714C21.0368 17.5224 21.2459 17.5616 21.3564 17.6086C21.2341 18.2748 20.4727 17.9887 20.1729 18.3924C20.1295 18.2827 20.1059 18.0945 20.0388 18.0828C19.8021 18.0279 19.7627 18.2043 19.7784 18.3924L19.7982 18.4237ZM34.394 34.4917C34.4374 34.6014 34.461 34.7895 34.5281 34.8013C34.7648 34.8561 34.8042 34.6798 34.7884 34.4917C35.037 34.5544 35.1198 34.331 35.2618 34.2173C35.4709 34.0527 35.6879 33.8372 35.5656 33.5746C35.3881 33.1945 35.108 33.2533 34.8042 33.4923C34.3545 33.845 34.0705 33.2964 33.7391 33.1827C33.388 33.0652 33.7194 32.6929 33.893 32.4185C34.0665 32.1481 33.6878 32.007 33.53 31.8973C33.3052 31.7405 33.2697 31.7954 33.2145 32.2696C33.0961 33.363 32.9068 33.4884 31.7312 33.3238C31.4748 33.2885 31.2066 33.3199 30.9462 33.3199C30.6701 33.3199 30.4413 33.3512 30.4452 33.7236C30.4491 34.1076 30.7766 34.2056 30.9541 34.0841C31.4235 33.7627 31.5734 34.7229 32.0981 34.2761C32.4216 33.9979 32.7569 34.6171 33.2342 34.527C33.6997 34.4407 33.7352 34.9345 33.5024 35.154C33.1119 35.5145 33.3999 35.6439 33.6011 35.8673C33.7667 36.0554 33.8693 36.0083 34.0271 35.8555C34.2638 35.6282 34.461 35.4871 34.106 35.1422C33.8811 34.9267 33.9009 34.5348 34.4018 34.4956L34.394 34.4917ZM59.2463 47.2912C59.1358 46.9306 59.412 46.4016 59.1121 45.9195C58.552 46.3467 58.9622 46.9385 58.8636 47.4479C58.8044 47.7575 58.7926 48.024 58.5875 48.3219C58.3745 48.6315 58.8636 48.8784 59.0609 48.9607C59.408 49.1057 59.2226 48.7255 59.2305 48.6001C59.262 48.2121 59.2423 47.8202 61.842 51.6844C62.0274 51.5668 62.0234 51.4414 61.842 51.3905C61.6605 51.3395 61.4593 51.3669 61.27 51.3434C59.9287 51.171 59.7078 50.9476 59.6368 49.6935C59.621 49.4427 59.7078 49.0547 59.4356 49.0351C59.2542 49.0234 58.982 49.3761 58.8636 49.6191C58.7334 49.8856 59.0056 50.4617 58.6861 50.4852C57.7946 50.5518 58.1023 51.1436 58.0628 51.5982C58.047 51.7902 58.0786 51.9901 58.051 52.1821C58.0352 52.2957 57.905 52.4917 57.8853 52.4878C57.6841 52.4133 57.6447 52.2409 57.6644 52.0449C57.7157 51.4179 57.6092 51.2063 57.0175 51.7118C56.8794 51.8333 56.548 51.8255 56.3784 52.0371C56.2443 52.2056 55.8853 52.3702 56.3823 52.5231C57.6565 52.911 58.2325 53.9809 58.8478 55.0116C58.9465 55.1762 59.2305 55.2938 59.1871 55.0939C59.0766 54.557 60.2167 54.1886 59.3607 53.6047C59.2818 53.5498 59.2147 53.3578 59.2502 53.2716C59.5106 52.6602 60.0747 52.2997 60.5244 51.849C60.8321 51.5433 61.0609 51.8647 61.337 52.0253C61.5974 52.1782 61.6723 51.7549 59.2384 47.2912H59.2463ZM53.0647 24.2983C53.2304 24.3963 53.3961 24.4864 53.1515 24.6746C52.9859 24.8 52.8991 24.9567 53.1358 25.0782C53.2383 25.1331 53.4474 25.1409 53.5145 25.0782C53.7393 24.8627 54.0352 24.6275 54.0904 24.3571C54.1811 23.926 53.7235 23.538 53.4434 23.5616C52.7886 23.6164 52.5835 23.3303 52.3744 22.813C52.2955 22.621 51.901 22.6955 51.7551 22.958C51.6998 23.056 51.7551 23.2128 51.7432 23.3421C51.6959 23.8281 51.6959 23.8281 50.9977 23.9143C50.5835 23.9652 50.0706 24.4864 50.1732 24.7921C50.3271 25.2585 50.8714 25.2546 51.2028 25.4035C51.617 25.5916 51.692 25.4309 51.7432 25.8503C51.7511 25.913 51.7156 26.007 51.7511 26.0384C51.8182 26.1089 51.9129 26.1638 52.0075 26.1951C52.0352 26.203 52.1338 26.1128 52.1338 26.0658C52.1456 25.7405 52.0864 25.4074 52.1535 25.0939C52.2482 24.6275 52.5204 24.2866 53.0647 24.3023V24.2983ZM71.8539 43.1017C71.8263 43.0234 71.8105 42.8353 71.7434 42.8117C71.487 42.7334 71.5501 42.992 71.4594 43.1017C71.0886 43.5564 71.2109 44.5675 70.1576 44.301C70.1024 44.2892 70.0077 44.442 69.9288 44.5165C70.0353 44.5714 70.1418 44.6733 70.2523 44.6733C70.99 44.6772 71.491 44.7556 71.2148 45.7628C71.1083 46.1507 71.6921 46.2801 71.9998 45.9313C72.3233 45.559 72.3036 44.9633 72.8204 44.7085C72.9782 44.6302 73.1202 44.4499 72.8638 44.3127C72.7612 44.2579 72.6034 44.2696 72.4851 44.297C71.6843 44.493 71.6921 44.5008 71.8539 43.717C71.8933 43.5328 71.8578 43.333 71.8578 43.1057L71.8539 43.1017ZM41.8891 40.7582C41.8891 40.6289 41.9049 40.4995 41.8891 40.3741C41.8457 40.0959 42.0706 39.7 41.5972 39.5903C40.9384 39.4336 41.2343 40.1155 40.966 40.3153C40.5202 40.6484 40.7569 41.1383 40.7096 41.5577C40.6702 41.9339 40.9502 41.9456 41.2106 41.9378C41.5065 41.926 41.893 42.0515 41.8891 41.5341C41.8891 41.2755 41.8891 41.0208 41.8891 40.7621V40.7582ZM69.6882 27.4296C69.0294 26.7124 68.9032 27.4022 68.7256 27.8176C68.6546 27.9783 69.7829 28.7072 69.9959 28.6014C70.3272 28.4407 70.7651 28.2017 70.6547 27.7941C70.5442 27.3904 70.3312 26.6928 69.6882 27.4296ZM34.532 49.3839C34.106 49.4114 33.5813 49.8346 33.6129 50.1677C33.6523 50.591 33.9719 50.8379 34.3427 50.9358C34.6267 51.0103 35.609 50.0737 35.4788 49.9012C35.2579 49.6112 35.0172 49.2389 34.532 49.3839ZM61.6171 62.301C61.554 62.0698 61.767 61.7131 61.4672 61.6191C61.2108 61.5368 61.0609 61.96 60.7019 61.9483C60.268 61.9326 60.5559 62.4852 60.2838 62.6694C60.1694 62.7477 59.9011 62.9555 60.2049 63.0456C60.5559 63.1514 60.9702 63.1514 61.337 63.0848C61.7867 63.0025 61.5579 62.5792 61.621 62.301H61.6171ZM39.9167 45.4767C40.0153 45.6922 39.893 46.3232 40.1258 46.139C40.5439 45.8176 40.966 45.9548 41.3487 45.798C41.5301 45.7236 41.5301 45.6217 41.3644 45.5315C40.9778 45.3238 41.2461 44.5126 40.4058 44.6498C39.7707 44.7517 39.9404 45.1044 39.9167 45.4767ZM1.28516 43.6034C0.981408 43.1723 1.61652 42.4943 1.00113 41.9966C0.701327 42.5413 0.847285 43.1331 0.886733 43.6857C0.926181 44.2579 0.527755 44.9084 1.11948 45.4061C1.43112 44.8653 1.1747 44.2775 1.28516 43.6034ZM51.9918 20.4381C51.9129 20.4891 51.763 20.5439 51.759 20.6066C51.7393 21.1161 51.7353 21.6295 51.759 22.139C51.759 22.2134 51.9365 22.3114 52.043 22.3349C52.1535 22.3584 52.3231 22.3427 52.3941 22.2722C52.6466 22.0096 52.3231 20.5635 51.9878 20.4381H51.9918ZM49.7827 61.3016C49.7748 60.9646 49.7432 60.7138 49.3803 60.753C48.9976 60.7922 48.5243 61.333 48.5992 61.6543C48.6781 61.9835 48.9621 61.9012 49.2067 61.9365C49.8182 62.0267 49.8063 61.6465 49.7827 61.3056V61.3016ZM84.0946 29.9691C84.0512 29.5733 84.2209 29.1148 83.9802 28.7072C83.9368 28.6328 83.7514 28.6092 83.641 28.6249C83.5305 28.6406 83.4319 28.7347 83.3254 28.7934C83.996 29.3382 83.6015 30.0867 83.712 30.7412C83.7238 30.8078 83.8658 30.8666 83.9605 30.9019C83.9842 30.9097 84.0867 30.8196 84.0867 30.7725C84.0986 30.5178 84.0946 30.2591 84.0946 29.9691ZM15.3918 67.4114C15.2537 67.5877 14.7409 67.1488 14.7606 67.6661C14.7725 67.9365 15.2064 67.768 15.447 67.7994C15.6364 67.8229 15.8376 67.8268 16.023 67.7915C16.09 67.7798 16.1453 67.6387 16.1768 67.5446C16.1847 67.5172 16.0979 67.4231 16.0466 67.4192C15.8533 67.4035 15.66 67.4114 15.3879 67.4114H15.3918ZM54.0825 78.3728C54.4691 78.3885 54.7295 78.4395 54.907 78.1886C54.7413 78.122 54.5796 78.0201 54.4099 78.0005C54.1693 77.9731 53.8971 77.9339 53.7235 78.1886C53.8813 78.267 54.0391 78.3493 54.0825 78.3728ZM58.4691 31.1684C58.3508 31.0939 58.2561 30.9842 58.1496 30.9724C57.8893 30.9489 57.6486 30.9842 57.6605 31.3486C57.6683 31.5367 57.7196 31.7523 57.9129 31.67C58.1299 31.5759 58.2837 31.3447 58.4691 31.1684ZM44.5834 69.5355C44.469 69.2651 44.2481 69.3866 44.0706 69.3866C44.0232 69.3866 43.9088 69.5747 43.9325 69.6256C44.0351 69.849 44.2599 69.7628 44.4374 69.751C44.4966 69.7471 44.544 69.5943 44.5834 69.5355ZM38.9187 0.760754C39.1711 0.635346 39.179 0.517776 38.9897 0.466828C38.8279 0.423719 38.6346 0.423719 38.4768 0.466828C38.2875 0.517776 38.2875 0.65886 38.4768 0.717645C38.6386 0.768592 38.82 0.752916 38.9226 0.760754H38.9187ZM40.7017 54.8784C40.7175 54.6863 40.6741 54.5178 40.4453 54.557C40.3822 54.5688 40.3309 54.753 40.3112 54.8666C40.2796 55.0547 40.3309 55.2272 40.5636 55.188C40.6268 55.1762 40.6583 54.9881 40.7017 54.8784ZM80.781 54.0319C80.6784 54.1847 80.5522 54.2905 80.5601 54.3807C80.5798 54.5492 80.6784 54.7059 80.7455 54.8705C80.8125 54.7726 80.9348 54.6707 80.9309 54.5727C80.9269 54.4042 80.8441 54.2396 80.781 54.0319ZM3.26151 52.0802C3.16289 51.9352 3.09977 51.8372 3.03271 51.7353C2.96565 51.896 2.86703 52.0567 2.8473 52.2252C2.83547 52.3153 2.96565 52.4212 3.03271 52.5191C3.11161 52.3663 3.19445 52.2095 3.26151 52.0802ZM35.9048 46.8052C35.7904 46.5348 35.5695 46.6563 35.392 46.6563C35.3447 46.6563 35.2303 46.8444 35.2539 46.8954C35.3565 47.1187 35.5813 47.0325 35.7589 47.0208C35.818 47.0168 35.8654 46.864 35.9048 46.8052ZM45.3724 40.9267C45.258 40.6563 45.0371 40.7778 44.8595 40.7778C44.8122 40.7778 44.6978 40.9659 44.7215 41.0168C44.824 41.2402 45.0489 41.154 45.2264 41.1422C45.2856 41.1383 45.3329 40.9855 45.3724 40.9267ZM23.739 36.459C23.7548 36.267 23.7114 36.0985 23.4826 36.1377C23.4195 36.1494 23.3682 36.3336 23.3485 36.4473C23.3169 36.6354 23.3682 36.8078 23.601 36.7686C23.6641 36.7569 23.6956 36.5688 23.739 36.459ZM9.73889 33.316C9.6955 33.3591 9.60871 33.414 9.6166 33.4453C9.63632 33.5394 9.6955 33.6217 9.73889 33.7079C9.78228 33.6648 9.86907 33.6099 9.86118 33.5786C9.84145 33.4845 9.78228 33.4022 9.73889 33.316ZM10.6659 30.8274C10.6186 30.7451 10.5712 30.6589 10.5239 30.5766C10.4805 30.6197 10.3937 30.6746 10.4016 30.7059C10.4213 30.8 10.4805 30.8823 10.5239 30.9685C10.5673 30.9254 10.6107 30.8823 10.6659 30.8274ZM71.7276 41.9966C71.6448 42.0436 71.558 42.0906 71.4752 42.1377C71.5186 42.1808 71.5738 42.267 71.6054 42.2592C71.7 42.2396 71.7829 42.1808 71.8697 42.1377C71.8263 42.0946 71.7829 42.0515 71.7276 41.9966ZM71.6724 46.6406C71.629 46.6837 71.5422 46.7386 71.5501 46.7699C71.5699 46.864 71.629 46.9463 71.6724 47.0325C71.7158 46.9894 71.8026 46.9345 71.7947 46.9032C71.775 46.8091 71.7158 46.7268 71.6724 46.6406ZM34.5912 47.0325C34.5478 47.0756 34.461 47.1305 34.4689 47.1618C34.4886 47.2559 34.5478 47.3382 34.5912 47.4244C34.6346 47.3813 34.7214 47.3264 34.7135 47.2951C34.6938 47.201 34.6346 47.1187 34.5912 47.0325ZM25.7706 26.9084L25.9126 27.0495C25.956 26.9633 26.0152 26.877 26.0349 26.7869C26.0428 26.7556 25.956 26.7007 25.9126 26.6576C25.8653 26.7438 25.8179 26.8261 25.7706 26.9084ZM12.8947 26.2618C12.8513 26.3049 12.7646 26.3597 12.7724 26.3911C12.7922 26.4851 12.8513 26.5674 12.8947 26.6537C12.9381 26.6106 13.0249 26.5557 13.017 26.5243C12.9973 26.4303 12.9381 26.348 12.8947 26.2618ZM29.9127 62.3754C29.8298 62.4225 29.743 62.4695 29.6602 62.5165C29.7036 62.5596 29.7588 62.6459 29.7904 62.638C29.885 62.6184 29.9679 62.5596 30.0547 62.5165C30.0113 62.4734 29.9679 62.4303 29.9127 62.3754ZM75.2228 63.4924C75.1794 63.5355 75.0926 63.5903 75.1005 63.6217C75.1202 63.7157 75.1794 63.798 75.2228 63.8843C75.2661 63.8411 75.3529 63.7863 75.345 63.7549C75.3253 63.6609 75.2661 63.5786 75.2228 63.4924ZM37.605 64.8091C37.6524 64.8914 37.6997 64.9777 37.747 65.06C37.7904 65.0169 37.8772 64.962 37.8693 64.9306C37.8496 64.8366 37.7904 64.7543 37.747 64.6681C37.7037 64.7112 37.6603 64.7543 37.605 64.8091ZM73.7001 65.7889C73.7513 65.738 73.7947 65.6948 73.8421 65.6478C73.7553 65.6047 73.6685 65.5459 73.5778 65.5263C73.5462 65.5185 73.491 65.6047 73.4476 65.6478C73.5344 65.6948 73.6172 65.7419 73.7001 65.7889ZM72.7139 66.3767C72.7612 66.459 72.8085 66.5453 72.8559 66.6276C72.8993 66.5845 72.986 66.5296 72.9782 66.4982C72.9584 66.4042 72.8993 66.3219 72.8559 66.2357C72.8125 66.2788 72.7691 66.3219 72.7139 66.3767ZM35.0409 70.0998C35.0922 70.0489 35.1356 70.0058 35.1829 69.9587C35.0961 69.9156 35.0093 69.8568 34.9186 69.8372C34.8871 69.8294 34.8318 69.9156 34.7884 69.9587C34.8752 70.0058 34.9581 70.0528 35.0409 70.0998ZM60.2877 75.9783C60.339 75.9274 60.3824 75.8843 60.4297 75.8372C60.3429 75.7941 60.2561 75.7353 60.1654 75.7158C60.1339 75.7079 60.0786 75.7941 60.0352 75.8372C60.122 75.8843 60.2049 75.9313 60.2877 75.9783ZM30.7845 77.4636C30.7371 77.3813 30.6898 77.2951 30.6424 77.2128C30.599 77.2559 30.5123 77.3108 30.5202 77.3421C30.5399 77.4362 30.599 77.5185 30.6424 77.6047C30.6858 77.5616 30.7292 77.5185 30.7845 77.4636Z" fill="#E33137"/>
<path d="M0.468446 37.6269C0.468446 36.8705 0.468446 36.118 0.468446 35.3617C0.468446 35.0952 0.503949 34.8561 0.862927 34.8835V37.6269H0.468446Z" fill="#E33137"/>
<path d="M3.23028 26.2618C3.23028 26.0776 3.25395 25.8895 3.22634 25.7092C3.11194 25.0116 3.58532 25.0783 4.01925 25.0861V25.478C3.77861 25.4349 3.65632 25.5799 3.63265 25.7758C3.6011 26.0384 3.6011 26.2892 3.23028 26.2618Z" fill="#E33137"/>
<path d="M24.5318 2.74767C24.7172 1.9913 25.3286 2.50469 25.7152 2.35576V2.74767H24.5318Z" fill="#E33137"/>
<path d="M5.20246 21.559C5.35237 21.1749 4.8356 20.5675 5.59695 20.3833V21.559H5.20246Z" fill="#E33137"/>
<path d="M63.1909 74.8575C63.1554 75.4454 62.7018 75.1906 62.402 75.2494V74.8575H63.1909Z" fill="#E33137"/>
<path d="M25.7152 2.35576C25.7507 1.76791 26.2044 2.02267 26.5042 1.96388C26.4687 2.55173 26.015 2.29698 25.7152 2.35576Z" fill="#E33137"/>
<path d="M57.2737 1.96388C57.5735 2.02267 58.0272 1.76793 58.0627 2.35578C57.7629 2.297 57.3092 2.55173 57.2737 1.96388Z" fill="#E33137"/>
<path d="M13.8808 68.5871C13.581 68.5283 13.1273 68.783 13.0918 68.1952H13.8808V68.5871Z" fill="#E33137"/>
<path d="M78.1813 16.8561C78.773 16.8914 78.5166 17.3421 78.5758 17.6399C77.9841 17.6047 78.2405 17.154 78.1813 16.8561Z" fill="#E33137"/>
<path d="M79.7591 19.2076C80.3509 19.2428 80.0945 19.6935 80.1536 19.9914H79.7591V19.2076Z" fill="#E33137"/>
<path d="M80.1536 19.9914C80.7453 20.0266 80.4889 20.4773 80.5481 20.7752H80.1536V19.9914Z" fill="#E33137"/>
<path d="M23.7428 3.13958C23.7783 2.55173 24.232 2.80645 24.5318 2.74767C24.4963 3.33552 24.0426 3.0808 23.7428 3.13958Z" fill="#E33137"/>
<path d="M58.4572 2.74768C58.757 2.80647 59.2106 2.55173 59.2461 3.13958C58.9463 3.0808 58.4927 3.33554 58.4572 2.74768Z" fill="#E33137"/>
<path d="M22.5594 3.92339C22.5949 3.33554 23.0485 3.59027 23.3483 3.53149V3.92339H22.5594Z" fill="#E33137"/>
<path d="M78.5757 59.1815C78.5165 59.4793 78.7729 59.93 78.1812 59.9653V59.1815H78.5757Z" fill="#E33137"/>
<path d="M81.7316 23.1266C82.3233 23.1618 82.0669 23.6125 82.1261 23.9104C81.5344 23.8751 81.7908 23.4244 81.7316 23.1266Z" fill="#E33137"/>
<path d="M79.3647 58.0058C79.3055 58.3036 79.5619 58.7543 78.9702 58.7896V58.0058H79.3647Z" fill="#E33137"/>
<path d="M82.5205 24.3023C83.1122 24.3375 82.8558 24.7882 82.915 25.0861H82.5205V24.3023Z" fill="#E33137"/>
<path d="M2.8354 27.0456C2.89458 26.7477 2.63816 26.297 3.22988 26.2618V27.0456H2.8354Z" fill="#E33137"/>
<path d="M66.7413 7.0586C67.0411 7.11738 67.4947 6.86264 67.5302 7.4505C67.2304 7.39171 66.7768 7.64645 66.7413 7.0586Z" fill="#E33137"/>
<path d="M67.5302 7.4505C67.83 7.50928 68.2837 7.25455 68.3192 7.8424C68.0194 7.78361 67.5657 8.03835 67.5302 7.4505Z" fill="#E33137"/>
<path d="M0.862927 34.8835C0.922099 34.5857 0.665824 34.1351 1.25755 34.0998C1.19837 34.3976 1.45465 34.8483 0.862927 34.8835Z" fill="#E33137"/>
<path d="M76.9977 15.6804C77.2699 15.6686 77.404 15.8019 77.3922 16.0723C77.12 16.0841 76.9859 15.9508 76.9977 15.6804Z" fill="#E33137"/>
<path d="M11.1194 13.329C11.1076 13.0586 11.2417 12.9253 11.5139 12.9371V13.329H11.1194Z" fill="#E33137"/>
<path d="M11.5139 12.9371C11.502 12.6667 11.6362 12.5334 11.9083 12.5452V12.9371H11.5139Z" fill="#E33137"/>
<path d="M15.4587 8.62617C15.4468 8.35576 15.581 8.22252 15.8532 8.23427C15.865 8.50469 15.7309 8.63793 15.4587 8.62617Z" fill="#E33137"/>
<path d="M15.8532 8.23427C15.8413 7.96386 15.9754 7.83062 16.2476 7.84237C16.2595 8.11278 16.1254 8.24603 15.8532 8.23427Z" fill="#E33137"/>
<path d="M16.2476 7.84237C16.2358 7.57196 16.3699 7.43871 16.6421 7.45047C16.654 7.72088 16.5198 7.85413 16.2476 7.84237Z" fill="#E33137"/>
<path d="M77.3922 16.0723C77.6644 16.0605 77.7985 16.1938 77.7867 16.4642C77.5145 16.476 77.3804 16.3427 77.3922 16.0723Z" fill="#E33137"/>
<path d="M19.009 5.88287C18.9972 5.61246 19.1313 5.47921 19.4035 5.49097V5.88287H19.009Z" fill="#E33137"/>
<path d="M63.5854 5.09907C63.8576 5.08731 63.9917 5.22055 63.9799 5.49097C63.7077 5.50272 63.5735 5.36948 63.5854 5.09907Z" fill="#E33137"/>
<path d="M63.1909 4.70716C63.4631 4.69541 63.5972 4.82865 63.5854 5.09907C63.3132 5.11082 63.1791 4.97758 63.1909 4.70716Z" fill="#E33137"/>
<path d="M7.56906 17.6399C7.55722 17.3695 7.69134 17.2362 7.96354 17.248V17.6399H7.56906Z" fill="#E33137"/>
<path d="M10.7249 13.7209C10.7131 13.4505 10.8472 13.3172 11.1194 13.329V13.7209H10.7249Z" fill="#E33137"/>
<path d="M82.1261 23.9104C82.3983 23.8986 82.5323 24.0319 82.5205 24.3023C82.2483 24.314 82.1143 24.1808 82.1261 23.9104Z" fill="#E33137"/>
<path d="M78.9702 58.7896C78.982 59.06 78.8479 59.1932 78.5757 59.1815V58.7896H78.9702Z" fill="#E33137"/>
<path d="M77.7867 16.4642C78.0589 16.4524 78.1931 16.5857 78.1813 16.8561C77.9091 16.8679 77.7749 16.7346 77.7867 16.4642Z" fill="#E33137"/>
<path d="M7.17457 60.7491C6.90238 60.7608 6.76826 60.6276 6.78009 60.3572H7.17457V60.7491Z" fill="#E33137"/>
<path d="M23.3483 3.53149C23.3365 3.26107 23.4706 3.12783 23.7428 3.13958C23.7547 3.41 23.6205 3.54324 23.3483 3.53149Z" fill="#E33137"/>
<path d="M77.7867 61.1409C77.7985 61.4113 77.6644 61.5446 77.3922 61.5328C77.3804 61.2624 77.5145 61.1292 77.7867 61.1409Z" fill="#E33137"/>
<path d="M7.96354 17.248C7.9517 16.9776 8.08583 16.8443 8.35802 16.8561C8.36985 17.1265 8.23573 17.2598 7.96354 17.248Z" fill="#E33137"/>
<path d="M8.7525 62.7086C8.48031 62.7203 8.34618 62.5871 8.35802 62.3167H8.7525V62.7086Z" fill="#E33137"/>
<path d="M11.1194 65.8438C10.8472 65.8555 10.7131 65.7223 10.7249 65.4519H11.1194V65.8438Z" fill="#E33137"/>
<path d="M58.0627 2.35578C58.3349 2.34403 58.469 2.47727 58.4572 2.74768C58.185 2.75944 58.0509 2.62619 58.0627 2.35578Z" fill="#E33137"/>
<path d="M5.59695 20.3833C5.58511 20.1128 5.71894 19.9795 5.99113 19.9913C6.00297 20.2617 5.86914 20.395 5.59695 20.3833Z" fill="#E33137"/>
<path d="M5.99113 19.9913C5.9793 19.7209 6.11342 19.5876 6.38561 19.5994C6.39745 19.8698 6.26332 20.0031 5.99113 19.9913Z" fill="#E33137"/>
<path d="M79.3646 18.8156C79.6368 18.8038 79.771 18.9371 79.7591 19.2076C79.487 19.2193 79.3528 19.086 79.3646 18.8156Z" fill="#E33137"/>
<path d="M71.0806 68.5871C71.0924 68.8575 70.9583 68.9907 70.6861 68.979V68.5871H71.0806Z" fill="#E33137"/>
<path d="M16.6421 71.3304C16.3699 71.3422 16.2358 71.2089 16.2476 70.9385H16.6421V71.3304Z" fill="#E33137"/>
<path d="M23.3483 52.5191H23.7428V54.4787C23.3917 54.5022 23.3483 54.2788 23.3483 54.0084C23.3483 53.5107 23.3483 53.0129 23.3483 52.5191Z" fill="#E33137"/>
<path d="M23.7428 33.7079H23.3483C23.3483 33.3395 23.3483 32.9711 23.3483 32.6027C23.3483 32.3362 23.3996 32.1168 23.7428 32.1403V33.7079Z" fill="#E33137"/>
<path d="M24.1373 30.5727V32.1403H23.7428C23.7428 31.7719 23.7428 31.4035 23.7428 31.0351C23.7428 30.7686 23.7941 30.5492 24.1373 30.5727Z" fill="#E33137"/>
<path d="M12.303 27.8294H12.6975C12.6975 28.1977 12.6974 28.5662 12.6974 28.9345C12.6974 29.201 12.6461 29.4205 12.3029 29.397L12.303 27.8294Z" fill="#E33137"/>
<path d="M9.93599 39.1945V38.0188C10.4764 38.4146 10.4764 38.7987 9.93599 39.1945Z" fill="#E33137"/>
<path d="M11.5141 30.1808V29.7889C11.7784 29.6595 12.0386 29.5263 12.3029 29.397C12.4212 30.0397 12.161 30.2983 11.5141 30.1808Z" fill="#E33137"/>
<path d="M26.8987 13.7209V13.329H28.0821C27.8967 14.0854 27.2853 13.572 26.8987 13.7209Z" fill="#E33137"/>
<path d="M13.0918 52.911H12.6974V52.1272C13.2891 52.1625 13.0327 52.6132 13.0918 52.911Z" fill="#E33137"/>
<path d="M39.1083 69.2573C38.9387 69.2965 38.7691 69.3788 38.6113 69.3592C38.4338 69.3356 38.276 69.1946 38.3549 68.9829C38.3707 68.9437 38.5837 68.9829 38.706 68.9751C38.8953 68.9594 39.0294 69.0182 39.1083 69.2534V69.2573Z" fill="#E33137"/>
<path d="M26.1097 14.1128V13.7209H26.8987C26.8632 14.3088 26.4095 14.0541 26.1097 14.1128Z" fill="#E33137"/>
<path d="M37.5497 68.5871C37.8495 68.6459 38.3031 68.3911 38.3386 68.979C38.0388 68.9202 37.5852 69.1749 37.5497 68.5871Z" fill="#E33137"/>
<path d="M36.7607 68.1952H37.5497V68.5871C37.2499 68.5283 36.7962 68.783 36.7607 68.1952Z" fill="#E33137"/>
<path d="M28.4766 67.4114H27.6876V67.0195C27.9874 67.0782 28.4411 66.8235 28.4766 67.4114Z" fill="#E33137"/>
<path d="M27.6876 67.0195C27.3878 66.9607 26.9342 67.2154 26.8987 66.6276C27.1985 66.6863 27.6521 66.4316 27.6876 67.0195Z" fill="#E33137"/>
<path d="M24.1373 15.2885V14.8966H24.9263C24.8908 15.4845 24.4371 15.2298 24.1373 15.2885Z" fill="#E33137"/>
<path d="M16.6423 21.5589L17.0367 21.559C16.9775 21.8568 17.2339 22.3075 16.6422 22.3428L16.6423 21.5589Z" fill="#E33137"/>
<path d="M26.1098 58.3977H26.5043V59.1815C25.9125 59.1462 26.169 58.6955 26.1098 58.3977Z" fill="#E33137"/>
<path d="M15.0644 23.5184H15.4589C15.3997 23.8163 15.656 24.267 15.0642 24.3023L15.0644 23.5184Z" fill="#E33137"/>
<path d="M12.3029 51.7353H11.9084V50.9515C12.5001 50.9868 12.2437 51.4375 12.3029 51.7353Z" fill="#E33137"/>
<path d="M11.9084 50.9515C11.3167 50.9163 11.5732 50.4656 11.514 50.1677C12.1057 50.203 11.8492 50.6537 11.9084 50.9515Z" fill="#E33137"/>
<path d="M28.0821 12.9371H28.8711C28.8356 13.525 28.3819 13.2703 28.0821 13.329V12.9371Z" fill="#E33137"/>
<path d="M28.8711 12.9371V12.5452H29.66C29.6245 13.1331 29.1709 12.8784 28.8711 12.9371Z" fill="#E33137"/>
<path d="M39.522 12.9371H39.1275C39.1157 12.6667 39.2498 12.5334 39.522 12.5452V12.9371Z" fill="#E33137"/>
<path d="M36.7607 14.5047C36.7725 14.7751 36.6384 14.9083 36.3662 14.8966C36.3543 14.6262 36.4885 14.4929 36.7607 14.5047Z" fill="#E33137"/>
<path d="M23.7428 15.2885H24.1373C24.1491 15.559 24.015 15.6922 23.7428 15.6804V15.2885Z" fill="#E33137"/>
<path d="M12.6974 52.1272C12.4252 52.139 12.291 52.0058 12.3029 51.7353C12.5751 51.7236 12.7092 51.8568 12.6974 52.1272Z" fill="#E33137"/>
<path d="M22.1649 16.8561C22.153 16.5857 22.2871 16.4524 22.5593 16.4642C22.5712 16.7346 22.437 16.8679 22.1649 16.8561Z" fill="#E33137"/>
<path d="M36.3662 15.2885H35.9717C35.9599 15.0181 36.094 14.8848 36.3662 14.8966V15.2885Z" fill="#E33137"/>
<path d="M26.1097 58.0058L26.1098 58.3977C25.8376 58.4094 25.7034 58.2762 25.7152 58.0058H26.1097Z" fill="#E33137"/>
<path d="M14.6699 24.6942C14.6581 24.4237 14.7921 24.2905 15.0642 24.3023C15.0761 24.5727 14.9421 24.7059 14.6699 24.6942Z" fill="#E33137"/>
<path d="M26.5043 59.1815C26.7765 59.1697 26.9105 59.3029 26.8986 59.5733C26.6264 59.5851 26.4924 59.4519 26.5043 59.1815Z" fill="#E33137"/>
<path d="M16.2478 22.7346V22.3427L16.6422 22.3428C16.654 22.6132 16.52 22.7464 16.2478 22.7346Z" fill="#E33137"/>
<path d="M26.8986 59.5733C27.1708 59.5616 27.3049 59.6948 27.2931 59.9652C27.0209 59.977 26.8868 59.8437 26.8986 59.5733Z" fill="#E33137"/>
<path d="M27.6876 59.9653V60.3572C27.4154 60.3689 27.2813 60.2356 27.2931 59.9652L27.6876 59.9653Z" fill="#E33137"/>
<path d="M28.0821 60.3572V60.7491C27.8099 60.7608 27.6758 60.6276 27.6876 60.3572H28.0821Z" fill="#E33137"/>
<path d="M28.4766 60.7491V61.141C28.2044 61.1527 28.0702 61.0195 28.0821 60.7491H28.4766Z" fill="#E33137"/>
<path d="M17.0368 21.167L17.4311 21.1671C17.443 21.4375 17.3088 21.5707 17.0367 21.559L17.0368 21.167Z" fill="#E33137"/>
<path d="M20.5869 62.3166C20.3147 62.3284 20.1806 62.1951 20.1925 61.9247C20.4646 61.913 20.5988 62.0462 20.5869 62.3166Z" fill="#E33137"/>
<path d="M21.3759 63.1004V62.7085C21.6481 62.6968 21.7823 62.83 21.7704 63.1004H21.3759Z" fill="#E33137"/>
<path d="M17.4313 20.7751H17.8258C17.8376 21.0456 17.7033 21.1788 17.4311 21.1671L17.4313 20.7751Z" fill="#E33137"/>
<path d="M22.1649 63.4923C21.8927 63.5041 21.7586 63.3708 21.7704 63.1004C22.0426 63.0887 22.1767 63.2219 22.1649 63.4923Z" fill="#E33137"/>
<path d="M22.5593 63.8842C22.2871 63.896 22.153 63.7627 22.1649 63.4923C22.437 63.4806 22.5712 63.6138 22.5593 63.8842Z" fill="#E33137"/>
<path d="M22.9538 64.2761C22.6816 64.2879 22.5475 64.1546 22.5593 63.8842C22.8315 63.8725 22.9657 64.0057 22.9538 64.2761Z" fill="#E33137"/>
<path d="M21.7704 17.248C21.7585 16.9776 21.8927 16.8443 22.1649 16.8561C22.1767 17.1265 22.0426 17.2598 21.7704 17.248Z" fill="#E33137"/>
<path d="M28.8711 67.8032H28.4766V67.4114C28.7488 67.3996 28.8829 67.5328 28.8711 67.8032Z" fill="#E33137"/>
<path d="M32.0269 19.2075C32.0387 19.4779 31.9046 19.6112 31.6324 19.5994C31.6206 19.329 31.7547 19.1957 32.0269 19.2075Z" fill="#E33137"/>
<path d="M19.0092 19.2075L19.4035 19.2076C19.4154 19.478 19.2814 19.6112 19.0092 19.5994V19.2075Z" fill="#E33137"/>
<path d="M19.4037 18.8156L19.798 18.8157C19.8099 19.0861 19.6757 19.2193 19.4035 19.2076L19.4037 18.8156Z" fill="#E33137"/>
<path d="M19.7982 18.4237L20.1925 18.4238C20.2043 18.6942 20.0702 18.8274 19.798 18.8157L19.7982 18.4237Z" fill="#E33137"/>
<path d="M21.3759 17.6399C21.3641 17.3695 21.4982 17.2362 21.7704 17.248C21.7822 17.5184 21.6481 17.6517 21.3759 17.6399Z" fill="#E33137"/>
<path d="M58.2799 53.303C58.2207 53.2246 58.0945 53.1266 58.1103 53.0757C58.1576 52.9228 58.276 52.8993 58.343 53.0012C58.3982 53.0913 58.4219 53.2011 58.4574 53.303C58.3982 53.303 58.3391 53.303 58.2799 53.303Z" fill="#E33137"/>
<path d="M58.816 53.5302C58.7687 53.5773 58.7056 53.6596 58.6898 53.6517C58.603 53.6047 58.4965 53.5538 58.461 53.4754C58.3821 53.3108 58.461 53.2324 58.6267 53.3108C58.7056 53.35 58.7529 53.4558 58.816 53.5342V53.5302Z" fill="#E33137"/>
<path d="M34.7884 34.4917H34.394C34.3782 34.2996 34.4175 34.1272 34.6541 34.1821C34.7173 34.1978 34.745 34.3859 34.7884 34.4917Z" fill="#E33137"/>
</svg>
