<svg width="52" height="50" viewBox="0 0 52 50" fill="none" xmlns="http://www.w3.org/2000/svg">
<path d="M12.4895 39.5093C12.2593 39.7482 11.9278 39.9475 11.7233 40.2357C11.2985 40.8357 10.7011 40.6916 10.1353 40.6838C9.94081 40.6818 9.78003 40.5101 9.76415 40.3107C9.74827 40.1271 9.70261 39.9317 9.8098 39.7462C10.1413 39.1678 10.4589 38.5856 10.6495 37.9401C10.6753 37.8513 10.7805 37.7072 11.0365 37.7881C11.0961 37.8079 11.0723 37.7526 11.0326 37.7348C10.9492 37.6954 10.9075 37.7348 10.9492 37.8178C10.969 37.8572 11.0226 37.8829 11.0643 37.9066C11.0723 37.9105 11.104 37.8691 11.0365 37.7881C11.1179 37.2019 11.6122 36.8486 11.7392 36.2959C11.8643 35.7492 12.3565 35.4511 12.6166 34.9952C12.694 34.859 12.7655 34.778 12.5531 34.7741C12.3526 34.7702 12.162 34.7741 12.0429 34.5767C11.6459 34.9557 11.0881 34.7149 10.6316 34.9596C9.64505 35.4906 8.54933 35.7926 7.56875 36.3433C7.51912 36.3709 7.43972 36.3472 7.33055 36.3472C7.31665 36.3472 7.34444 36.3472 7.37422 36.3472C7.35635 36.2959 7.34643 36.2407 7.31665 36.1953C7.28291 36.1439 7.22336 36.1558 7.19954 36.2328C7.1916 36.2604 7.25512 36.3097 7.32856 36.3472C6.80849 36.8683 6.08397 37.0855 5.38327 37.3105C5.11927 37.3953 4.85725 37.4861 4.62699 37.6164C4.25182 37.8276 3.87071 37.7131 3.49753 37.7033C3.38438 37.6993 3.20176 37.5039 3.19581 37.2611C3.18191 36.7361 3.43202 36.3453 3.81314 36.0551C4.17441 35.7808 4.59523 35.5893 5.08155 35.4176C5.1411 35.4373 5.11728 35.382 5.07758 35.3643C4.99421 35.3248 4.95253 35.3643 4.99421 35.4472C5.01406 35.4867 5.06766 35.5123 5.10934 35.536C5.11728 35.5399 5.14904 35.4985 5.08155 35.4176C5.00811 35.0643 5.23638 35.1926 5.47855 35.2202C5.5381 35.2399 5.51428 35.1847 5.47458 35.1669C5.39121 35.1274 5.34953 35.1669 5.39121 35.2498C5.41106 35.2893 5.46466 35.3149 5.50634 35.3386C5.51428 35.3426 5.54604 35.3011 5.47855 35.2202C5.36739 34.9004 5.6433 35.0307 5.71476 34.9261C5.95098 34.5728 6.40554 34.9458 6.66558 34.6024C6.85018 34.3596 7.05463 34.0931 7.46354 34.0339C7.52309 34.0536 7.49927 33.9984 7.45957 33.9806C7.3762 33.9411 7.33452 33.9806 7.3762 34.0635C7.39605 34.103 7.44965 34.1287 7.49133 34.1523C7.49927 34.1563 7.53103 34.1148 7.46354 34.0339C7.67991 33.6905 8.00743 33.426 8.39649 33.2582C9.39692 32.824 10.2366 32.2061 10.8043 31.2587C10.8797 31.1344 10.8063 30.8481 10.6693 30.8481C10.2267 30.8442 9.76613 30.6981 9.3473 30.9389C9.25599 30.9922 9.17659 31.0278 9.0833 31.0159C8.10866 30.8857 7.1777 31.3159 6.20307 31.2212C5.95892 31.1975 5.70682 31.16 5.47657 31.389C5.37732 31.4877 5.09942 31.4225 4.9029 31.4087C4.52178 31.3811 4.05134 31.0811 3.99576 30.8462C3.93224 30.5797 4.22999 29.9895 4.55354 29.8375C5.0756 29.5928 5.59368 29.3224 6.27056 29.2967C6.33011 29.3165 6.30629 29.2612 6.26659 29.2434C6.18322 29.2039 6.14154 29.2434 6.18322 29.3263C6.20307 29.3658 6.25667 29.3915 6.29835 29.4151C6.30629 29.4191 6.33805 29.3776 6.27056 29.2967C6.42341 28.8941 6.86804 28.9572 7.19557 28.7539C7.51912 28.5526 7.8526 28.2723 8.25555 28.2683C8.48383 28.2683 8.56124 28.0433 8.85105 28.1124C8.9106 28.1322 8.88678 28.0769 8.84708 28.0591C8.76371 28.0196 8.72203 28.0591 8.76371 28.142C8.78356 28.1815 8.83716 28.2072 8.87884 28.2308C8.88678 28.2348 8.91854 28.1933 8.85105 28.1124C8.98802 27.7137 9.41082 27.5183 9.71055 27.5716C9.99639 27.6229 9.97853 27.5301 9.9428 27.3979C9.87729 27.1591 9.51404 27.0919 9.54381 26.7682C9.5458 26.7426 9.387 26.6932 9.29768 26.6735C8.96221 26.6024 8.57117 26.8255 8.28334 26.4899C8.06499 26.8413 7.65013 26.1919 7.45362 26.6518C7.16381 26.3143 6.76879 26.559 6.4373 26.4702C5.08949 26.111 3.71191 26.3754 2.35417 26.261C1.72096 26.2077 1.10164 26.0438 0.450564 26.0636C0.0495956 26.0754 -0.154859 25.432 0.13892 25.0905C0.430714 24.7549 0.718538 24.3444 1.27632 24.5003C1.71302 24.6227 2.08421 24.3562 2.47724 24.2733C2.77698 24.2102 2.94768 24.5733 3.24345 24.372C3.49951 24.1983 3.81513 24.3128 4.10494 24.3049C4.63294 24.2891 5.16294 24.295 5.69094 24.3009C6.83827 24.3128 7.94193 24.1272 8.96817 23.5963C9.25004 23.4502 9.54183 23.5529 9.82568 23.5055C9.92692 23.4897 9.97654 23.389 9.95074 23.2825C9.93684 23.2252 9.89516 23.1305 9.86141 23.1285C9.27783 23.1009 8.84113 22.7041 8.33694 22.4949C7.83077 22.2837 7.32062 22.0745 6.80849 21.8771C6.29637 21.6777 5.81798 21.3974 5.2602 21.2987C4.86916 21.2297 4.6389 20.8724 4.35703 20.6158C4.08906 20.373 4.15853 20.075 4.25579 19.8164C4.33916 19.5953 4.58133 19.5539 4.83343 19.5559C6.45318 19.5677 8.07294 19.548 9.69269 19.5736C10.0301 19.5795 10.31 19.4749 10.6018 19.3624C10.8102 19.2815 10.713 19.2618 10.582 19.1591C9.76613 18.5235 8.89671 17.963 8.065 17.3531C7.9062 17.2366 7.5747 17.3175 7.6283 16.905C7.64815 16.8458 7.59257 16.8695 7.5747 16.9089C7.535 16.9918 7.5747 17.0333 7.65807 16.9918C7.69777 16.9721 7.72358 16.9188 7.7474 16.8774C7.75137 16.8695 7.70968 16.8379 7.6283 16.905C7.13403 16.7787 6.66359 16.6129 6.51273 16.0582C6.48097 15.9418 6.33805 15.7779 6.14154 15.8115C5.60162 15.9082 5.3535 15.4542 4.99024 15.2174C5.04582 15.1957 5.1411 15.1838 5.14706 15.1503C5.17485 15.0318 5.08552 15.0121 4.99024 15.02C4.96841 14.9647 4.9565 14.87 4.92275 14.8641C4.80365 14.8364 4.7838 14.9252 4.79174 15.02C4.64088 14.8167 4.25778 14.9608 4.25381 14.5344C4.27366 14.4752 4.21808 14.4989 4.20021 14.5384C4.16052 14.6213 4.20021 14.6627 4.28358 14.6213C4.32328 14.6015 4.34909 14.5482 4.37291 14.5068C4.37688 14.4989 4.33519 14.4673 4.25381 14.5344C3.81513 14.4693 3.57693 14.1397 3.34071 13.8456C3.16206 13.6205 2.98738 13.3521 2.99532 13.0027C3.00922 12.379 3.0906 12.3079 3.71786 12.2468C4.47613 12.1737 5.01406 12.5487 5.46862 13.0442C5.99465 13.6186 6.74894 13.8732 7.27894 14.4278C8.16821 14.5206 8.82525 15.1542 9.63512 15.4424C9.78598 15.4957 10.1909 15.4819 10.1592 15.8747C10.1532 15.9497 10.2147 16.0148 10.3418 15.928C10.6296 15.7345 10.8976 15.7582 11.2271 15.9536C11.4474 16.0839 11.8008 16.0168 12.0925 15.999C12.3049 15.9872 12.6086 16.1451 12.7178 15.8865C12.8687 15.5312 12.3804 15.6852 12.3149 15.4878C12.1719 15.0476 11.7313 14.8266 11.5963 14.3351C11.6161 14.2759 11.5606 14.2995 11.5427 14.339C11.503 14.4219 11.5427 14.4634 11.6261 14.4219C11.6658 14.4022 11.6916 14.3489 11.7154 14.3074C11.7194 14.2995 11.6777 14.268 11.5963 14.3351C11.241 14.3015 11.1834 14.0035 11.1576 13.7587C11.1259 13.4547 11.1338 13.1942 10.7507 13.1508C10.9293 12.7382 10.0659 12.9179 10.3477 12.4481C10.1592 12.1639 9.94875 11.8934 9.78995 11.5934C9.64902 11.323 9.57954 11.025 9.37311 10.7762C9.25202 10.6282 9.4267 10.4683 9.55771 10.3835C9.85149 10.194 10.2822 10.1683 10.4668 10.3479C10.9452 10.8138 11.5923 10.8513 12.1263 11.1552C13.0136 11.6605 13.9187 12.1323 14.7246 12.7659C14.8418 12.8586 14.9628 12.904 15.0601 12.7915C15.1455 12.6928 14.9827 12.6593 14.947 12.5882C14.8815 12.456 14.9013 12.3415 15.0204 12.2527C15.0939 12.1994 15.1177 12.1244 15.0641 12.1165C14.5381 12.0494 14.806 11.4829 14.5738 11.1789C14.5936 11.1197 14.5381 11.1434 14.5202 11.1829C14.4805 11.2658 14.5202 11.3072 14.6036 11.2658C14.6433 11.246 14.6691 11.1927 14.6929 11.1513C14.6969 11.1434 14.6552 11.1118 14.5738 11.1789C14.4825 11.2697 14.4209 11.2737 14.4209 11.2697C14.3197 10.3696 13.5793 9.7163 13.4801 8.79452C13.4463 8.47673 13.0731 8.16882 12.8052 7.9063C12.5034 7.61022 12.3704 7.22532 12.1997 6.87201C11.9258 6.30947 12.1997 5.97786 12.825 5.93246C13.3431 5.89496 13.8096 5.94431 14.1014 6.42592C14.2046 6.59567 14.5341 6.42395 14.5142 6.72989C14.4587 6.7516 14.3634 6.76345 14.3574 6.797C14.3296 6.91543 14.419 6.93517 14.5142 6.92728C14.5083 7.06347 14.5758 7.13058 14.7127 7.12466C14.7068 7.26085 14.7743 7.32796 14.9112 7.32204C14.9053 7.45824 14.9728 7.52535 15.1097 7.51943C15.1316 7.57469 15.1435 7.66944 15.1772 7.67536C15.2963 7.70299 15.3162 7.61417 15.3082 7.51943C15.6457 7.58061 15.5008 7.96156 15.7052 8.155C15.7052 8.16882 15.7052 8.14118 15.7052 8.11158C15.6536 8.12934 15.598 8.13921 15.5524 8.16882C15.5008 8.20237 15.5127 8.26159 15.5901 8.28527C15.6179 8.29317 15.6675 8.23001 15.7052 8.15697C16.1181 8.36028 16.4496 8.68793 16.6977 9.14389C16.6977 9.15771 16.6977 9.13007 16.6977 9.10047C16.6461 9.11823 16.5905 9.1281 16.5449 9.15771C16.4933 9.19126 16.5052 9.25048 16.5826 9.27416C16.6104 9.28206 16.66 9.2189 16.6977 9.14586C17.1702 9.48536 17.6644 9.8446 18.0872 10.3302C18.0872 10.344 18.0872 10.3163 18.0872 10.2867C18.0356 10.3045 17.98 10.3144 17.9344 10.344C17.8828 10.3775 17.8947 10.4368 17.9721 10.4604C17.9999 10.4683 18.0495 10.4052 18.0872 10.3321C18.3691 10.4427 18.641 10.5966 18.6887 10.9657C18.7006 11.0625 18.8217 11.096 18.9229 11.0763C19.0261 11.0565 19.0936 11.0032 19.0797 10.8789C19.0698 10.7822 19.1095 10.6697 19.0718 10.5868C18.7264 9.81697 18.8753 9.00375 18.8991 8.21421C18.915 7.71878 18.6232 7.32007 18.6569 6.82266C18.6867 6.36868 18.8495 5.86338 18.4902 5.42716C18.3969 5.31268 18.6629 4.62579 18.7701 4.57249C19.0122 4.45209 19.699 4.60407 19.836 4.83304C20.0583 5.1982 20.2568 5.5752 20.4652 5.99168C20.4652 6.0055 20.4652 5.97786 20.4652 5.94825C20.4136 5.96602 20.3581 5.97589 20.3124 6.0055C20.2608 6.03905 20.2727 6.09827 20.3501 6.12195C20.3779 6.12985 20.4275 6.06668 20.4652 5.99365C20.763 6.01537 20.7848 6.32131 20.8444 6.50685C21.164 7.51943 21.7396 8.39581 22.2517 9.34917C22.2517 9.36299 22.2517 9.33535 22.2517 9.30574C22.2001 9.32351 22.1445 9.33338 22.0989 9.36298C22.0473 9.39654 22.0592 9.45576 22.1366 9.47944C22.1644 9.48734 22.214 9.42417 22.2517 9.35114C22.5515 9.4301 22.5376 9.73604 22.6487 9.97093C22.744 10.1723 22.9266 10.0894 23.0755 10.0913C23.2641 10.0933 23.2561 9.94132 23.2442 9.81302C23.1033 8.35436 23.5638 6.9253 23.4447 5.46861C23.4269 5.2436 23.405 5.01068 23.6392 4.86265C23.3971 4.71658 23.4765 4.47183 23.4368 4.25668C23.3236 3.63492 23.6968 3.07435 23.6392 2.46839C23.5817 1.8565 23.6968 1.26435 23.8536 0.684044C23.9171 0.449158 23.9112 0.103738 24.2506 0.0326796C24.7548 -0.0719335 24.9493 0.0721563 25.2392 0.500478C25.517 0.911035 25.7155 1.32751 25.6203 1.81702C25.5409 2.22166 25.8962 2.51576 25.8366 2.91842C25.785 3.27174 25.8208 3.63887 25.8267 3.99811C25.8366 4.53894 25.5151 5.02648 25.6183 5.58902C25.7414 6.26012 25.7751 6.94504 25.9895 7.60233C26.047 7.77997 26.0252 7.98525 26.0232 8.17869C26.0093 8.83597 26.1681 9.42023 26.6902 9.87421C26.8688 10.0301 26.9185 10.0203 27.0475 9.77749C27.1626 9.56037 27.2837 9.31956 27.4703 9.16955C27.8534 8.86163 27.9149 8.40568 27.9884 8.00499C28.0797 7.50363 28.304 7.11479 28.699 6.79503C28.7585 6.81477 28.7347 6.7595 28.695 6.74174C28.6117 6.70226 28.57 6.74174 28.6117 6.82464C28.6315 6.86411 28.6851 6.88977 28.7268 6.91346C28.7347 6.91741 28.7665 6.87596 28.699 6.79503C28.7724 6.14366 29.4295 5.78837 29.4076 5.09753C29.4037 5.00279 29.5089 4.96923 29.618 4.95542C30.6125 4.83699 30.8448 4.98305 30.7753 5.93246C30.7058 6.90754 31.0234 7.83326 31.0095 8.80242C30.9996 9.44589 30.8408 10.0459 30.6979 10.6519C30.6641 10.792 30.6522 10.8394 30.7415 10.9381C30.8468 11.0565 30.9023 11.0782 31.0294 10.948C31.6725 10.2848 32.3494 9.65906 32.7901 8.82018C32.9707 8.47871 33.3062 8.21816 33.6615 7.97735C33.721 7.99709 33.6972 7.94183 33.6575 7.92406C33.5741 7.88458 33.5324 7.92406 33.5741 8.00696C33.594 8.04644 33.6476 8.0721 33.6893 8.09579C33.6972 8.09973 33.729 8.05828 33.6615 7.97735C33.5622 7.7247 33.7468 7.66746 33.8461 7.55298C34.1438 7.20953 34.4555 6.87596 34.8525 6.59567C34.912 6.61541 34.8882 6.56014 34.8485 6.54238C34.7651 6.5029 34.7234 6.54238 34.7651 6.62528C34.785 6.66476 34.8386 6.69042 34.8803 6.7141C34.8882 6.71805 34.92 6.6766 34.8525 6.59567C34.9279 6.0805 35.2455 5.69758 35.3686 5.21004C35.4976 4.69882 36.2062 4.16391 36.6211 4.16983C36.7878 4.16983 36.8672 4.19352 36.9625 4.39287C37.292 5.08964 37.2841 5.78245 36.8057 6.3371C36.5218 6.66673 36.3948 7.02992 36.2023 7.38126C35.8211 8.07802 35.4976 8.80834 35.0649 9.47155C34.7195 10.0025 34.5091 10.5986 34.4217 11.169C34.3304 11.7553 34.0585 12.3257 34.1597 12.9475C34.2113 13.2731 34.2292 13.2554 34.5746 13.1606C34.9061 13.0698 35.049 12.7461 35.4499 12.7146C35.5095 12.7343 35.4857 12.679 35.446 12.6613C35.3626 12.6218 35.3209 12.6613 35.3626 12.7442C35.3825 12.7836 35.4361 12.8093 35.4797 12.833C35.4877 12.8369 35.5194 12.7955 35.4519 12.7146C36.3531 11.8244 37.4349 11.1197 38.5009 10.3894C38.8383 10.1584 39.1837 9.94329 39.547 9.80512C39.9221 9.66103 40.1246 9.15968 40.6209 9.3018C40.7955 9.01164 41.1409 8.9544 41.3771 8.74715C41.4268 8.70373 41.4645 8.64451 41.5181 8.61095C41.6828 8.50832 42.3756 8.457 42.4431 8.55766C42.5781 8.75899 42.5344 9.0077 42.4947 9.21495C42.4193 9.6255 42.1989 9.98079 41.8654 10.2887C41.8516 10.2887 41.8793 10.2887 41.9091 10.2887C41.8913 10.2374 41.8813 10.1821 41.8516 10.1367C41.8178 10.0854 41.7583 10.0973 41.7344 10.1742C41.7265 10.2019 41.79 10.2512 41.8635 10.2887C41.4625 10.8295 41.0377 11.3743 40.3906 11.7257C40.0571 11.9053 39.8149 12.2586 39.545 12.5448C39.2155 12.8942 38.7669 13.1291 38.4632 13.4705C38.1753 13.7942 37.961 14.1456 37.5441 14.3509C37.2881 14.4772 37.2523 14.8147 37.157 15.0654C37.1034 15.2075 37.0955 15.3516 36.9883 15.4917C36.6767 15.9003 36.7303 15.9812 37.1948 16.1747C37.6751 16.376 38.094 16.1056 38.4572 15.9536C40.0015 15.3101 41.5955 14.7831 43.1001 14.0429C43.1537 14.0173 43.2311 14.039 43.3879 14.0962C43.4475 14.116 43.4237 14.0607 43.384 14.0429C43.3006 14.0035 43.2589 14.0429 43.3006 14.1258C43.3204 14.1653 43.374 14.191 43.4157 14.2147C43.4237 14.2186 43.4554 14.1772 43.3879 14.0962C44.7377 13.36 45.2022 12.9751 46.4686 13.0343C46.8696 13.0521 46.8656 13.1942 46.8776 13.4942C46.8974 14.0311 46.6056 14.4515 46.3337 14.8344C46.0617 15.2154 45.7223 15.5865 45.2379 15.8174C45.2241 15.8174 45.2518 15.8174 45.2816 15.8174C45.2638 15.7661 45.2538 15.7108 45.2241 15.6654C45.1903 15.6141 45.1308 15.626 45.1069 15.7029C45.099 15.7306 45.1625 15.7799 45.236 15.8174C45.2796 15.851 45.2896 15.8865 45.2796 15.9161C45.1367 16.3385 44.5095 16.0464 44.3626 16.5912C44.2693 16.9346 43.7691 16.9662 43.386 17.0313C43.1597 17.0688 42.9532 17.2583 42.7527 17.4004C42.0381 17.9018 41.2164 18.1406 40.3926 18.3834C40.333 18.4012 40.2338 18.3716 40.208 18.4051C39.8666 18.8453 39.3644 19.0466 38.9019 19.3091C38.8423 19.3427 38.7192 19.3979 38.7808 19.5085C38.8026 19.548 38.8919 19.5657 38.9495 19.5657C39.807 19.5697 40.6824 19.6743 41.5141 19.5361C42.2188 19.4177 42.9612 19.5361 43.5983 19.3269C44.2097 19.1256 44.8707 19.3841 45.4364 18.9894C45.629 18.8551 46.0657 19.1275 46.2265 19.4256C46.3694 19.692 46.2662 19.9072 46.0458 20.0987C45.6885 20.4086 45.4364 20.8921 44.833 20.7579C44.7953 20.75 44.698 20.8231 44.696 20.8625C44.6702 21.3757 44.1621 21.3165 43.8524 21.5415C43.8385 21.5415 43.8663 21.5415 43.8961 21.5415C43.8782 21.4902 43.8683 21.4349 43.8385 21.3895C43.8048 21.3382 43.7452 21.3501 43.7214 21.427C43.7135 21.4547 43.777 21.504 43.8504 21.5415C43.8782 21.8376 43.648 21.7093 43.4534 21.7389C43.4395 21.7389 43.4673 21.7389 43.4971 21.7389C43.4792 21.6876 43.4693 21.6323 43.4395 21.5869C43.4058 21.5356 43.3463 21.5475 43.3224 21.6244C43.3145 21.6521 43.378 21.7014 43.4515 21.7389C43.1775 22.0764 42.7071 22.1435 42.3121 22.2955C41.9726 22.4258 41.661 22.6232 41.268 22.7258C41.2541 22.7258 41.2819 22.7258 41.3116 22.7258C41.2938 22.6745 41.2838 22.6192 41.2541 22.5738C41.2203 22.5225 41.1608 22.5344 41.137 22.6113C41.129 22.639 41.1925 22.6883 41.266 22.7258C40.9246 22.9508 40.8432 22.9686 40.4224 22.9311C40.331 22.9232 40.2298 22.8897 40.1524 22.9864C40.0909 23.0634 39.9797 23.1186 39.9559 23.1995C39.942 23.2509 40.0373 23.3693 40.1087 23.3989C40.3906 23.5154 40.6923 23.7187 40.9682 23.693C41.9508 23.6022 42.8837 23.9654 43.8623 23.9239C45.357 23.8588 46.8379 24.2457 48.3405 24.1075C49.0829 24.451 49.8709 24.2773 50.6391 24.2931C50.9091 24.299 51.1135 24.3878 51.2048 24.5891C51.32 24.8438 51.2048 25.0747 50.9746 25.2602C50.5796 25.576 50.0416 25.58 49.6466 25.882C48.93 25.7754 48.2432 26.032 47.5524 26.1169C46.1868 26.2866 44.829 26.2491 43.4654 26.2807C43.0902 26.2886 42.7627 26.5472 42.3557 26.482C41.9707 26.4189 41.663 26.7268 41.2958 26.7821C40.9265 26.8373 40.6189 27.1117 40.2239 27.0722C40.1941 27.0702 40.1365 27.161 40.1226 27.2163C40.0968 27.315 40.1306 27.4314 40.2298 27.4551C40.6486 27.5518 40.9841 27.7729 41.2501 28.0966C41.3712 28.2447 41.5181 28.2703 41.6848 28.2466C42.0898 28.1914 42.4014 28.4085 42.7388 28.5763C43.5368 28.9691 44.3487 29.3303 45.099 29.8178C45.2955 29.9461 45.4563 30.0961 45.6032 30.2599C45.7679 30.4435 45.7064 30.71 45.6588 30.9113C45.6171 31.0909 45.3749 31.008 45.2201 31.01C43.3363 31.0139 41.4526 31.012 39.5688 31.012C39.4041 31.012 39.2373 31.0041 39.0726 31.0179C39.0249 31.0218 38.9495 31.0811 38.9435 31.1225C38.9277 31.2528 38.9098 31.1699 39.009 31.1798C39.678 31.2409 39.541 32.2279 40.2457 32.2259C40.6625 32.6246 41.0992 32.9996 41.5439 33.3668C41.9865 33.7319 42.4252 34.1662 42.9056 34.4208C43.7155 34.8531 44.4181 35.4886 45.3213 35.7492C45.4226 35.7788 45.5 35.8222 45.4781 35.99C45.4781 36.0038 45.4781 35.9762 45.4781 35.9466C45.4265 35.9643 45.3709 35.9742 45.3253 36.0038C45.2737 36.0374 45.2856 36.0966 45.363 36.1203C45.3908 36.1281 45.4404 36.065 45.4781 35.992C45.7421 36.1459 46.0081 36.3433 46.2721 36.5841C46.2721 36.5979 46.2721 36.5703 46.2721 36.5407C46.2205 36.5584 46.1649 36.5683 46.1193 36.5979C46.0677 36.6315 46.0796 36.6907 46.157 36.7144C46.1848 36.7223 46.2344 36.6591 46.2721 36.5861C46.5897 36.6571 46.7862 36.9276 46.9808 37.1664C47.2884 37.5473 47.0145 38.1 46.5242 38.1178C45.8434 38.1434 45.2042 38.0092 44.7417 37.4388C44.7615 37.3796 44.706 37.4032 44.6881 37.4427C44.6484 37.5256 44.6881 37.5671 44.7715 37.5256C44.8112 37.5059 44.837 37.4526 44.8608 37.4111C44.8648 37.4032 44.8231 37.3717 44.7417 37.4388C44.0867 37.4486 43.6122 37.0855 43.0981 36.8289C41.4605 36.0137 39.7514 35.3623 38.0761 34.6359C37.7426 34.4918 37.3059 34.5826 36.9169 34.5728C36.8633 34.5728 36.8097 34.628 36.7561 34.6576C36.7958 34.703 36.8255 34.7702 36.8772 34.7938C37.6751 35.1649 38.0066 35.8933 38.3421 36.6335C38.4929 36.967 38.7292 37.2611 38.9296 37.571C39.1123 37.8553 39.4438 38.0546 39.3385 38.4928C39.277 38.7455 39.5668 38.8777 39.7355 39.004C40.0988 39.2764 40.1425 39.6278 40.1266 40.0324C40.1187 40.2515 40.0293 40.3087 39.8288 40.2949C39.5132 40.2752 39.2175 40.3245 38.9356 40.0363C38.6914 39.7857 38.3123 39.6593 37.9788 39.5074C37.4707 39.2725 36.9605 39.0613 36.5516 38.6448C36.3492 38.4375 36.0177 38.3606 35.7477 38.2145C35.4777 38.0704 35.1304 38.1099 34.9219 37.8059C34.7969 37.6223 34.5547 37.7566 34.3661 37.7329C34.3126 37.725 34.253 37.7724 34.1954 37.7941C34.2193 37.8395 34.2331 37.9007 34.2709 37.9303C34.523 38.1375 34.6163 38.4415 34.7572 38.7593C34.7572 38.7731 34.7572 38.7454 34.7572 38.7158C34.7056 38.7336 34.65 38.7435 34.6043 38.7731C34.5527 38.8066 34.5646 38.8659 34.6421 38.8895C34.6698 38.8974 34.7195 38.8343 34.7572 38.7612C34.8703 38.6961 34.9676 38.781 34.9477 38.8501C34.8703 39.1225 35.0708 39.2942 35.1542 39.5508C35.1542 39.5646 35.1542 39.537 35.1542 39.5074C35.1026 39.5251 35.047 39.535 35.0013 39.5646C34.9497 39.5981 34.9616 39.6574 35.0391 39.681C35.0668 39.6889 35.1165 39.6258 35.1542 39.5527C35.5313 39.6356 35.2316 40.1133 35.5512 40.2692C35.5413 40.8594 35.8509 41.3588 36.1765 41.7733C36.9645 42.7839 37.3297 43.9919 37.8776 45.1091C38.0344 45.4269 37.9391 45.8749 37.9213 46.2638C37.9173 46.3644 37.7903 46.5046 37.687 46.55C37.3813 46.6842 37.0459 46.6151 36.7263 46.6033C36.5298 46.5954 36.4008 46.4276 36.3452 46.2302C36.2598 45.9322 35.974 45.796 35.7953 45.5729C35.5333 45.2473 35.1324 45.0439 35.0152 44.5505C35.0351 44.4913 34.9795 44.515 34.9616 44.5544C34.9219 44.6373 34.9616 44.6788 35.045 44.6373C35.0847 44.6176 35.1105 44.5643 35.1343 44.5229C35.1383 44.515 35.0966 44.4834 35.0152 44.5505C34.1796 43.7333 33.6297 42.6754 32.9747 41.6865C32.9429 41.6371 32.9449 41.5601 32.9072 41.5207C32.6789 41.2838 32.4447 41.0548 32.2104 40.8239C31.9544 40.5693 31.5812 40.3561 31.472 40.0502C31.343 39.6889 30.9738 39.7107 30.8229 39.4501C30.7932 39.3968 30.7316 39.3613 30.686 39.3179C30.6542 39.4027 30.5947 39.4876 30.5947 39.5725C30.5986 39.9475 30.6423 40.3028 30.7535 40.6798C30.8964 41.1614 30.8289 41.722 30.7753 42.2391C30.7296 42.6734 30.9162 43.0385 30.9877 43.4353C31.0552 43.8024 30.9043 44.1616 31.1485 44.5525C31.3887 44.9374 31.0472 45.3973 30.9003 45.7901C30.7594 46.1611 30.4855 46.0822 30.1679 45.719C29.8146 45.3163 29.5506 44.8643 29.2627 44.4202C29.1774 44.288 29.227 44.1715 29.2588 43.9603C29.2786 43.9011 29.223 43.9248 29.2052 43.9643C29.1655 44.0472 29.2052 44.0886 29.2885 44.0472C29.3282 44.0274 29.354 43.9741 29.3779 43.9327C29.3818 43.9248 29.3401 43.8932 29.2588 43.9603C28.8042 43.9504 29.1357 43.457 28.7605 43.2853C28.5323 43.1807 28.4747 42.8234 28.2722 42.6082C28.0697 42.3931 27.9368 42.0635 27.8673 41.799C27.7164 41.2167 27.1666 40.9226 26.984 40.3818C26.9284 40.2179 26.4976 40.2692 26.4262 40.4469C26.323 40.7035 26.1999 40.9443 26.2098 41.2522C26.2416 42.1069 26.2257 42.9616 26.2197 43.8182C26.2158 44.2722 26.3368 44.8071 26.1383 45.1604C25.92 45.5512 26.2674 46.0388 25.8267 46.321C25.8267 46.8145 25.8188 47.3079 25.8267 47.7994C25.8346 48.3778 25.7493 48.9285 25.3324 49.3706C25.2272 49.4811 25.2233 49.5956 25.2292 49.7239C25.2332 49.8265 25.2173 49.9568 25.122 49.9647C24.86 49.9884 24.5662 50.0397 24.3399 49.945C24.1891 49.8818 24.1057 49.5976 24.0442 49.3962C23.9985 49.2462 24.0581 49.0666 24.0303 48.9067C23.9628 48.5061 24.2308 48.056 23.8437 47.6968C23.802 47.6593 23.7961 47.5053 23.9033 47.4362C24.1176 47.2981 23.9787 47.0711 24.0402 46.8994C24.1653 46.546 23.7901 46.3329 23.8199 45.9914C23.8437 45.7249 23.941 45.4269 23.6889 45.1584C23.5876 45.0499 23.5837 44.7597 23.6492 44.5998C23.9449 43.8873 23.8874 43.2122 23.6611 42.4819C23.5182 42.0161 23.669 41.4812 23.4626 40.9818C23.3951 40.816 23.2482 40.6838 23.2284 40.4824C23.2105 40.285 23.0537 40.1153 22.8492 40.1113C22.5157 40.1054 22.7063 40.3956 22.6388 40.5456C22.4264 41.0173 22.5634 41.6332 22.0473 41.9786C22.0334 42.5885 21.418 42.9813 21.4518 43.609C21.4518 43.6425 21.4657 43.684 21.4518 43.7057C21.3486 43.8636 21.2374 43.986 21.033 44.061C20.636 44.209 21.2533 44.3215 21.0846 44.5663C21.0052 44.6808 20.9139 44.888 20.8404 45.0499C20.6399 45.5058 19.572 45.8591 19.169 45.6045C19.0142 45.5058 18.8733 45.2315 18.8872 45.0499C18.9428 44.288 18.6728 43.5024 19.0579 42.7563C19.1393 42.6003 19.0718 42.3674 19.0698 42.17C19.0698 42.0417 19.044 41.8937 19.2326 41.8819C19.5065 41.8641 19.4926 41.7654 19.31 41.6272C19.1075 41.4733 19.04 41.2799 19.0678 41.0331C19.0837 40.9028 19.0837 40.7686 19.0678 40.6384C19.0202 40.2673 19.1948 39.8725 18.9606 39.5192C18.6807 39.7975 18.3969 40.0758 18.119 40.3581C18.0217 40.4568 18.1488 40.7153 17.8351 40.6936C17.8212 40.6936 17.849 40.6936 17.8788 40.6936C17.8609 40.6423 17.851 40.587 17.8212 40.5416C17.7875 40.4903 17.7279 40.5022 17.7041 40.5791C17.6962 40.6068 17.7597 40.6561 17.8331 40.6936C17.186 41.6095 16.2412 42.2865 15.5167 43.1609C14.9092 43.8912 14.1728 44.515 13.6924 45.3499C13.6924 45.3519 12.1858 46.4572 12.1799 46.4592C11.4673 46.8026 11.1794 46.623 11.1199 45.8848C11.0584 45.1269 11.3065 44.509 11.8603 44.0314C12.2434 43.6998 12.3486 43.1905 12.8091 42.9241C12.8687 42.9438 12.8449 42.8885 12.8052 42.8708C12.7218 42.8313 12.6801 42.8708 12.7218 42.9537C12.7416 42.9931 12.7952 43.0188 12.8389 43.0425C12.8468 43.0464 12.8786 43.005 12.8111 42.9241C13.0354 42.3082 13.5515 41.9115 13.9386 41.4042C14.6075 40.5298 15.1752 39.6297 15.4869 38.5796C15.5464 38.3783 15.6377 38.3803 15.7846 38.3073C16.0308 38.1869 15.6854 38.104 15.6854 37.9559C15.6874 37.7013 15.7628 37.4368 15.6437 37.1881C15.4809 37.3855 15.3261 37.5908 15.1494 37.7763C14.9748 37.9599 14.8298 38.2125 14.4587 38.1276C14.4448 38.1276 14.4726 38.1276 14.5023 38.1276C14.4845 38.0763 14.4745 38.0211 14.4448 37.9757C14.411 37.9243 14.3515 37.9362 14.3276 38.0132C14.3197 38.0408 14.3832 38.0901 14.4567 38.1276C14.5003 38.1592 14.5103 38.2165 14.5003 38.2204C13.7441 38.5046 13.1267 39.002 12.4717 39.5093C12.4578 39.5093 12.4856 39.5093 12.5153 39.5093C12.4975 39.458 12.4876 39.4027 12.4578 39.3573C12.424 39.306 12.3645 39.3179 12.3407 39.3948C12.3327 39.4225 12.3962 39.4718 12.4697 39.5093H12.4895ZM23.8477 26.8768C23.4943 27.0248 23.5876 27.3367 23.7703 27.4472C23.9946 27.5815 24.2486 27.7275 24.5007 27.8006C24.8005 27.8874 25.1399 27.8835 25.4575 27.8538C25.7394 27.8282 25.8366 27.465 26.1602 27.4157C26.315 27.392 26.1245 27.317 26.0709 27.2716C25.4595 26.7682 24.9176 26.2412 25.0287 25.3352C25.0843 24.8872 25.0387 24.4253 25.0387 23.9693C25.0387 23.8351 25.0327 23.7029 24.8402 23.7187C24.8322 23.5193 25.0744 23.4443 25.0506 23.2074C25.0089 22.785 25.0287 22.3528 25.0426 21.9264C25.0506 21.7113 25.0843 21.5119 25.1657 21.2889C25.5746 20.1855 26.3746 19.7671 27.4941 19.7631C27.7402 19.7631 27.9824 19.8026 28.2504 19.6782C28.437 19.5914 28.7407 19.7927 29.0166 19.7769C29.4791 19.7532 29.9436 19.7868 30.4041 19.7651C30.8706 19.7434 31.1505 20.2408 31.6288 20.1697C31.6765 20.1638 31.7321 20.2329 31.7857 20.2605C32.139 20.4421 32.5658 20.4421 32.8834 20.7362C32.9588 20.8053 33.2109 20.8329 33.3339 20.6888C33.4272 20.5783 33.33 20.4737 33.2804 20.3533C32.9985 19.6743 31.9167 18.5354 31.3073 17.811C31.2696 17.8426 31.214 17.8663 31.1941 17.9057C31.1544 17.9886 31.1941 18.0301 31.2775 17.9886C31.3172 17.9689 31.343 17.9156 31.3668 17.8741C31.3708 17.8663 31.3291 17.8347 31.1902 17.9926C30.942 17.9472 30.7832 17.7439 30.6899 17.5682C30.5708 17.3432 30.1977 17.5268 30.3128 17.0215C30.2751 17.053 30.2195 17.0767 30.1996 17.1162C30.1599 17.1991 30.1996 17.2405 30.283 17.1991C30.3227 17.1794 30.3485 17.1261 30.3723 17.0826C30.3763 17.0747 30.3346 17.0432 30.1957 17.2011C29.8682 17.0412 29.5267 16.9011 29.2191 16.7116C28.9054 16.5201 28.5362 16.4431 28.2563 16.1727C27.911 15.8411 27.4504 16.0543 27.0435 16.0266C26.8549 16.0148 26.7835 15.8648 26.6406 15.8036C26.3746 15.6871 26.1225 15.6102 25.8287 15.6181C25.2054 15.6319 24.5762 15.6733 23.9588 15.6082C23.3336 15.5411 22.7877 15.9437 22.1664 15.8233C21.8944 15.77 21.6761 15.9733 21.5034 16.1056C21.2017 16.3385 20.8742 16.4826 20.5407 16.6484C20.104 16.8655 19.6971 17.1458 19.1869 17.3985H19.2762C19.2584 17.3471 19.2484 17.2919 19.2187 17.2465C19.1849 17.1952 19.1254 17.207 19.1016 17.284C19.0936 17.3116 19.1571 17.361 19.2762 17.3985C19.2286 17.6136 19.0956 17.7459 18.7899 17.7932H18.8792C18.8614 17.7419 18.8514 17.6866 18.8217 17.6412C18.7879 17.5899 18.7284 17.6018 18.7046 17.6787C18.6966 17.7064 18.7601 17.7557 18.8792 17.7932C18.6033 18.034 18.3413 18.2946 18.0475 18.5117C17.7498 18.7308 17.6942 19.1058 17.4282 19.3466C17.2019 19.5519 16.7831 19.621 16.8645 20.0829C16.8803 20.1717 16.7017 20.1381 16.6144 20.1658C16.5151 20.1974 16.4794 20.296 16.4992 20.3987C16.5191 20.5013 16.5707 20.5803 16.6957 20.5546C16.9717 20.4974 17.2357 20.5704 17.5394 20.4401C18.7343 19.923 19.9968 19.6664 21.3148 19.7631C21.7237 19.7927 22.1247 19.7631 22.5277 19.9427C22.7738 20.0533 23.1132 19.9763 23.409 19.9605C23.8417 19.9368 23.7147 20.4757 24.0362 20.5566C24.2764 20.6178 24.471 20.7559 24.4313 21.0145C24.3876 21.2948 24.9275 21.5514 24.4531 21.8534C24.4035 21.885 24.3598 22.1712 24.5087 22.2995C24.7588 22.5146 24.6357 22.791 24.6198 23.0298C24.598 23.3614 24.5563 23.3634 24.8362 23.7147C24.4948 24.3404 24.5901 25.0076 24.727 25.6491C24.7687 25.8445 24.8064 25.9353 24.7131 26.1346C24.5583 26.4643 24.3697 26.7189 24.0422 26.8728C24.0204 26.8176 24.0085 26.7228 23.9747 26.7169C23.8556 26.6893 23.8358 26.7781 23.8437 26.8728L23.8477 26.8768ZM30.7793 33.3095C30.7475 33.272 30.7237 33.2167 30.684 33.197C30.6006 33.1575 30.5589 33.197 30.6006 33.2799C30.6205 33.3194 30.6741 33.345 30.7177 33.3687C30.7257 33.3727 30.7574 33.3312 30.5986 33.1931C30.7018 32.7253 31.2378 32.7667 31.4879 32.4371C31.7281 32.1232 31.9861 31.7798 32.5658 31.7285C32.534 31.691 32.5102 31.6357 32.4705 31.616C32.3871 31.5765 32.3454 31.616 32.3871 31.6989C32.407 31.7383 32.4606 31.764 32.5042 31.7877C32.5122 31.7916 32.5439 31.7502 32.3851 31.612C32.3911 31.3238 32.671 31.2015 32.8079 31.0061C33.1632 30.4948 33.3498 29.8928 33.7309 29.4151C33.9155 29.1862 33.993 28.9868 33.9731 28.7204C33.9473 28.3888 33.9493 28.0749 34.2689 27.8538C34.3304 27.8104 34.3741 27.6841 34.3642 27.6051C34.2907 27.0544 34.5249 26.5432 34.5567 26.0103C34.6024 25.2898 34.5706 24.5654 34.5666 23.845C34.5666 23.5706 34.2252 23.3594 34.0684 23.5529C33.7726 23.9121 33.4193 23.9516 33.0203 23.9121C32.804 23.8904 32.6432 24.0542 32.5221 24.1351C31.8015 24.6187 31.0314 24.7984 30.1778 24.7095C29.9495 24.6858 29.7133 24.6858 29.485 24.7095C28.9531 24.7668 28.5084 24.5852 28.0539 24.3306C27.8812 24.2338 27.7641 24.0799 27.5993 24.0029C27.3849 23.9042 27.1527 23.7305 27.0098 24.149C26.9224 24.4056 26.7001 24.6207 26.3984 24.7076C26.0987 24.7944 26.5492 25.1181 26.2475 25.2148C26.6604 25.353 26.7458 25.8109 27.0713 26.0438C27.5556 26.3932 27.7005 26.9597 27.5576 27.4453C27.4484 27.8163 26.8867 27.8973 26.9919 28.3828C26.9939 28.3947 26.8807 28.4618 26.8331 28.4499C26.4917 28.3651 26.2773 28.7875 25.922 28.6592C25.8069 28.6177 25.6342 28.6315 25.6401 28.8171C25.6461 28.9809 25.5607 29.1447 25.8466 29.2671C26.2634 29.4467 26.714 29.6007 27.0534 29.9501C27.2142 30.1159 27.2718 30.2955 27.2122 30.4711C27.1408 30.6804 26.984 30.8462 26.7061 30.8284C26.446 30.8126 26.1006 30.7297 25.9379 30.86C25.6282 31.1047 25.4476 30.7731 25.1856 30.8008C24.4987 30.8718 23.802 30.8185 23.1073 30.8284C22.7857 30.8324 22.5257 30.7791 22.4602 30.41C22.3808 29.9698 22.488 29.7487 22.9544 29.6579C23.2164 29.6066 23.4804 29.4823 23.6055 29.3461C23.804 29.1289 24.2228 29.4684 24.2387 29.0658C24.2546 28.6335 23.7643 29.0204 23.6531 28.7539C23.6412 28.7263 23.6531 28.6888 23.7663 28.4756C23.7286 28.5072 23.673 28.5309 23.6531 28.5703C23.6134 28.6532 23.6531 28.6947 23.7365 28.6532C23.7762 28.6335 23.802 28.5802 23.8258 28.5388C23.8298 28.5309 23.7881 28.4993 23.6492 28.6572C23.0854 28.5309 22.8214 28.0098 22.4145 27.6821C22.1962 27.5064 22.0016 27.0011 22.1048 26.7899C22.345 26.2925 22.355 25.6649 23.0378 25.4162C23.006 25.3787 22.9822 25.3234 22.9425 25.3037C22.8591 25.2642 22.8175 25.3037 22.8591 25.3866C22.879 25.426 22.9326 25.4517 22.9763 25.4754C22.9842 25.4793 23.016 25.4379 22.8572 25.2997C22.883 25.1793 22.7857 25.0214 22.9286 24.9405C23.0418 24.8773 23.0755 25.1576 23.2006 25.0471C23.3097 24.9503 23.2819 24.8102 23.1648 24.7194C23.004 24.595 23.1073 24.4115 23.0517 24.2753C22.8055 23.6891 22.1168 23.4897 21.7535 23.9614C21.2275 24.6483 20.5685 24.7826 19.7824 24.7135C19.4231 24.6819 19.0599 24.7135 18.6966 24.7056C18.5735 24.7016 18.4366 24.7648 18.3274 24.6464C17.9086 24.1904 17.2654 24.1865 16.7692 23.8845C16.4496 23.6891 16.0963 23.5844 15.733 23.5331C15.5742 23.5114 15.4373 23.4976 15.2864 23.7364C15.0343 24.1332 14.8715 24.4944 14.9112 24.9661C14.945 25.355 14.9092 25.7517 14.9212 26.1425C14.9271 26.3261 14.9013 26.4998 15.0085 26.6952C15.3718 27.3584 15.5643 28.0828 15.5008 28.8408C15.4789 29.1013 15.6755 29.2355 15.7112 29.5355V29.4467C15.6596 29.4645 15.604 29.4744 15.5583 29.504C15.5067 29.5375 15.5186 29.5967 15.5961 29.6204C15.6238 29.6283 15.6735 29.5652 15.7112 29.4467C16.1578 29.6204 16.2332 30.0191 16.3067 30.4218C16.3285 30.5442 16.2412 30.7613 16.3682 30.7771C16.9617 30.8541 16.9677 31.464 17.319 31.766C18.113 32.4548 18.7959 33.2641 19.7467 33.7793C20.0682 33.953 20.4315 34.1227 20.6538 34.4563C20.7054 34.5353 20.7908 34.5629 20.896 34.5846C21.5649 34.7248 22.218 34.9419 22.9068 34.9695C23.2681 34.9853 23.6313 34.9695 23.9946 34.9735C24.3856 34.9774 24.8025 34.9103 25.1617 35.0228C25.5131 35.1314 25.7771 34.9162 26.1046 34.9537C26.6306 35.0149 27.2023 35.0741 27.645 34.6478C27.7641 34.5333 27.8971 34.5668 28.0122 34.5846C28.3854 34.6379 28.6791 34.4484 28.9848 34.3043C29.5823 34.024 30.0627 33.5701 30.7812 33.3115L30.7793 33.3095ZM14.5182 21.054C14.5182 20.8921 14.5103 20.7283 14.5202 20.5684C14.5281 20.448 14.4686 20.375 14.3693 20.373C14.286 20.373 14.1649 20.4105 14.1252 20.4717C13.9128 20.8013 13.9108 21.1764 13.9168 21.5534C13.9207 21.7448 14.0418 21.7508 14.1748 21.7468C14.3237 21.7409 14.5182 21.8041 14.5162 21.5435C14.5162 21.3817 14.5162 21.2198 14.5162 21.056L14.5182 21.054ZM36.5536 27.9012C36.5536 27.767 36.5258 27.6486 36.3492 27.6703C36.2936 27.6762 36.24 27.7117 36.1864 27.7354C36.2777 27.842 36.369 27.9486 36.4603 28.0552C36.4901 28.0039 36.5218 27.9545 36.5536 27.9012ZM15.735 35.3505C15.6695 35.384 15.5901 35.4255 15.5127 35.4649C15.5623 35.4985 15.6159 35.5617 15.6616 35.5577C15.7469 35.5478 15.8263 35.4985 15.9097 35.4649C15.8601 35.4314 15.8085 35.3998 15.735 35.3505ZM11.507 23.999C11.4494 23.8628 11.3382 23.9239 11.2489 23.9239C11.2251 23.9239 11.1675 24.0187 11.1794 24.0443C11.2311 24.1569 11.3442 24.1134 11.4335 24.1075C11.4633 24.1055 11.4871 24.0286 11.507 23.999ZM19.4529 12.004C19.4291 11.9625 19.4053 11.9191 19.3814 11.8776C19.3596 11.8994 19.3159 11.927 19.3199 11.9428C19.3298 11.9902 19.3596 12.0316 19.3814 12.075C19.4033 12.0533 19.4251 12.0316 19.4529 12.004ZM10.846 24.1134C10.8241 24.1351 10.7805 24.1628 10.7844 24.1786C10.7944 24.2259 10.8241 24.2674 10.846 24.3108C10.8678 24.2891 10.9115 24.2615 10.9075 24.2457C10.8976 24.1983 10.8678 24.1569 10.846 24.1134ZM12.5054 33.124C12.4816 33.0825 12.4578 33.0391 12.434 32.9976C12.4121 33.0194 12.3685 33.047 12.3724 33.0628C12.3824 33.1102 12.4121 33.1516 12.434 33.195C12.4558 33.1733 12.4776 33.1516 12.5054 33.124ZM33.4471 35.3939C33.4213 35.4195 33.3995 35.4413 33.3756 35.4649C33.4193 35.4867 33.463 35.5163 33.5086 35.5261C33.5245 35.5301 33.5523 35.4867 33.5741 35.4649C33.5305 35.4413 33.4888 35.4176 33.4471 35.3939Z" fill="#E33137"/>
<path d="M15.1137 7.33586C15.2507 7.32994 15.3182 7.39705 15.3122 7.53324H15.1137V7.33586Z" fill="#E33137"/>
<path d="M4.99024 15.2312C4.85328 15.2371 4.78579 15.17 4.79174 15.0338H4.99024V15.2312Z" fill="#E33137"/>
<path d="M14.9152 7.13848C15.0522 7.13255 15.1197 7.19966 15.1137 7.33586H14.9152V7.13848Z" fill="#E33137"/>
<path d="M14.7167 6.94109C14.8537 6.93517 14.9212 7.00228 14.9152 7.13848H14.7167V6.94109Z" fill="#E33137"/>
<path d="M14.5182 6.74371C14.6552 6.73779 14.7227 6.8049 14.7167 6.94109H14.5182V6.74371Z" fill="#E33137"/>
<path d="M23.8477 26.8768H24.0462C24.0541 26.9735 24.0343 27.0604 23.9152 27.0327C23.8834 27.0248 23.8695 26.9301 23.8477 26.8768Z" fill="#E33137"/>
</svg>
