<svg width="103" height="100" viewBox="0 0 103 100" fill="none" xmlns="http://www.w3.org/2000/svg">
<path d="M24.9791 79.0186C24.5186 79.4963 23.8556 79.895 23.4467 80.4714C22.5971 81.6715 21.4021 81.3833 20.2707 81.3675C19.8816 81.3636 19.5601 81.0201 19.5283 80.6214C19.4965 80.2543 19.4052 79.8634 19.6196 79.4924C20.2826 78.3357 20.9178 77.1711 21.2989 75.8803C21.3505 75.7026 21.5609 75.4144 22.0731 75.5763C22.1922 75.6158 22.1445 75.5052 22.0651 75.4697C21.8984 75.3907 21.815 75.4697 21.8984 75.6355C21.9381 75.7145 22.0453 75.7658 22.1286 75.8131C22.1445 75.821 22.208 75.7381 22.0731 75.5763C22.2358 74.4038 23.2244 73.6972 23.4784 72.5918C23.7285 71.4983 24.7131 70.9022 25.2332 69.9903C25.388 69.718 25.5309 69.5561 25.1061 69.5482C24.7052 69.5403 24.324 69.5482 24.0858 69.1534C23.2918 69.9114 22.1763 69.4298 21.2632 69.9193C19.2901 70.9812 17.0987 71.5852 15.1375 72.6866C15.0382 72.7419 14.8794 72.6945 14.6611 72.6945C14.6333 72.6945 14.6889 72.6945 14.7484 72.6945C14.7127 72.5918 14.6929 72.4813 14.6333 72.3905C14.5658 72.2879 14.4467 72.3116 14.3991 72.4655C14.3832 72.5208 14.5102 72.6195 14.6571 72.6945C13.617 73.7367 12.1679 74.1709 10.7665 74.6209C10.2385 74.7907 9.71449 74.9723 9.25398 75.2328C8.50365 75.6552 7.74141 75.4263 6.99506 75.4065C6.76877 75.3986 6.40353 75.0078 6.39162 74.5223C6.36383 73.4722 6.86405 72.6905 7.62628 72.1102C8.34882 71.5615 9.19046 71.1786 10.1631 70.8351C10.2822 70.8746 10.2346 70.7641 10.1552 70.7285C9.98842 70.6496 9.90505 70.7285 9.98842 70.8944C10.0281 70.9733 10.1353 71.0246 10.2187 71.072C10.2346 71.0799 10.2981 70.997 10.1631 70.8351C10.0162 70.1285 10.4728 70.3851 10.9571 70.4404C11.0762 70.4799 11.0286 70.3693 10.9492 70.3338C10.7824 70.2548 10.6991 70.3338 10.7824 70.4996C10.8221 70.5785 10.9293 70.6299 11.0127 70.6772C11.0286 70.6851 11.0921 70.6022 10.9571 70.4404C10.7348 69.8009 11.2866 70.0614 11.4295 69.8522C11.902 69.1455 12.8111 69.8916 13.3312 69.2048C13.7004 68.7192 14.1093 68.1863 14.9271 68.0678C15.0462 68.1073 14.9985 67.9968 14.9191 67.9612C14.7524 67.8823 14.669 67.9612 14.7524 68.127C14.7921 68.206 14.8993 68.2573 14.9827 68.3047C14.9985 68.3126 15.0621 68.2297 14.9271 68.0678C15.3598 67.3809 16.0149 66.8519 16.793 66.5164C18.7938 65.6479 20.4732 64.4123 21.6086 62.5174C21.7594 62.2687 21.6125 61.6963 21.3386 61.6963C20.4533 61.6884 19.5323 61.3963 18.6946 61.8779C18.512 61.9845 18.3532 62.0555 18.1666 62.0318C16.2173 61.7713 14.3554 62.6319 12.4061 62.4424C11.9178 62.395 11.4136 62.32 10.9531 62.778C10.7546 62.9753 10.1988 62.8451 9.8058 62.8174C9.04357 62.7622 8.10268 62.1621 7.99152 61.6923C7.86448 61.1594 8.45998 59.9791 9.10709 59.6751C10.1512 59.1856 11.1874 58.6447 12.5411 58.5934C12.6602 58.6329 12.6126 58.5224 12.5332 58.4868C12.3664 58.4079 12.2831 58.4868 12.3664 58.6526C12.4061 58.7316 12.5133 58.7829 12.5967 58.8303C12.6126 58.8382 12.6761 58.7553 12.5411 58.5934C12.8468 57.7881 13.7361 57.9144 14.3911 57.5078C15.0382 57.1052 15.7052 56.5446 16.5111 56.5367C16.9677 56.5367 17.1225 56.0867 17.7021 56.2248C17.8212 56.2643 17.7736 56.1538 17.6942 56.1182C17.5274 56.0393 17.4441 56.1182 17.5274 56.284C17.5671 56.363 17.6743 56.4143 17.7577 56.4617C17.7736 56.4696 17.8371 56.3867 17.7021 56.2248C17.976 55.4274 18.8216 55.0366 19.4211 55.1432C19.9928 55.2458 19.9571 55.0603 19.8856 54.7958C19.7546 54.3181 19.0281 54.1839 19.0876 53.5365C19.0916 53.4852 18.774 53.3865 18.5953 53.347C17.9244 53.2049 17.1423 53.6509 16.5667 52.9798C16.13 53.6825 15.3003 52.3838 14.9072 53.3036C14.3276 52.6285 13.5376 53.118 12.8746 52.9404C10.179 52.2219 7.42381 52.7509 4.70834 52.5219C3.44192 52.4153 2.20328 52.0877 0.901128 52.1272C0.0991913 52.1508 -0.309717 50.8639 0.277841 50.181C0.861428 49.5099 1.43708 48.6887 2.55264 49.0006C3.42604 49.2454 4.16843 48.7124 4.95448 48.5466C5.55395 48.4203 5.89537 49.1467 6.4869 48.744C6.99902 48.3966 7.63025 48.6256 8.20987 48.6098C9.26589 48.5782 10.3259 48.5901 11.3819 48.6019C13.6765 48.6256 15.8839 48.2545 17.9363 47.1926C18.5001 46.9005 19.0837 47.1057 19.6514 47.011C19.8538 46.9794 19.9531 46.7781 19.9015 46.5649C19.8737 46.4504 19.7903 46.2609 19.7228 46.257C18.5557 46.2017 17.6823 45.4082 16.6739 44.9898C15.6615 44.5674 14.6412 44.1489 13.617 43.7542C12.5927 43.3554 11.636 42.7949 10.5204 42.5975C9.73832 42.4593 9.2778 41.7448 8.71406 41.2316C8.17811 40.746 8.31706 40.1499 8.51159 39.6328C8.67833 39.1907 9.16267 39.1078 9.66685 39.1117C12.9064 39.1354 16.1459 39.0959 19.3854 39.1472C20.0603 39.1591 20.62 38.9499 21.2036 38.7248C21.6205 38.563 21.4259 38.5235 21.1639 38.3182C19.5323 37.0471 17.7934 35.9259 16.13 34.7061C15.8124 34.4732 15.1494 34.6351 15.2566 33.81C15.2963 33.6916 15.1851 33.7389 15.1494 33.8179C15.07 33.9837 15.1494 34.0666 15.3161 33.9837C15.3955 33.9442 15.4472 33.8376 15.4948 33.7547C15.5027 33.7389 15.4194 33.6758 15.2566 33.81C14.2681 33.5573 13.3272 33.2257 13.0255 32.1164C12.9619 31.8835 12.6761 31.5559 12.2831 31.623C11.2032 31.8164 10.707 30.9085 9.98048 30.4347C10.0916 30.3913 10.2822 30.3676 10.2941 30.3005C10.3497 30.0637 10.171 30.0242 9.98048 30.04C9.93681 29.9294 9.91299 29.74 9.8455 29.7281C9.60731 29.6728 9.56761 29.8505 9.58349 30.04C9.28177 29.6334 8.51556 29.9215 8.50762 29.0689C8.54732 28.9504 8.43616 28.9978 8.40043 29.0767C8.32103 29.2425 8.40043 29.3254 8.56717 29.2425C8.64657 29.2031 8.69818 29.0965 8.74582 29.0136C8.75376 28.9978 8.67039 28.9346 8.50762 29.0689C7.63025 28.9386 7.15385 28.2793 6.68143 27.6911C6.32413 27.2411 5.97477 26.7042 5.99065 26.0055C6.01844 24.758 6.18121 24.6159 7.43572 24.4935C8.95226 24.3474 10.0281 25.0975 10.9372 26.0884C11.9893 27.2371 13.4979 27.7464 14.5579 28.8557C16.3364 29.0412 17.6505 30.3084 19.2702 30.8848C19.572 30.9914 20.3818 30.9637 20.3183 31.7493C20.3064 31.8993 20.4295 32.0296 20.6836 31.8559C21.2592 31.469 21.7952 31.5164 22.4542 31.9072C22.8948 32.1678 23.6015 32.0335 24.1851 31.998C24.6099 31.9743 25.2173 32.2901 25.4356 31.773C25.7374 31.0624 24.7607 31.3703 24.6297 30.9756C24.3439 30.0952 23.4626 29.6531 23.1926 28.6701C23.2323 28.5517 23.1211 28.5991 23.0854 28.678C23.006 28.8438 23.0854 28.9267 23.2521 28.8438C23.3315 28.8044 23.3832 28.6978 23.4308 28.6149C23.4387 28.5991 23.3554 28.5359 23.1926 28.6701C22.482 28.603 22.3668 28.0069 22.3152 27.5174C22.2517 26.9095 22.2676 26.3884 21.5014 26.3015C21.8587 25.4765 20.1317 25.8357 20.6955 24.8962C20.3183 24.3277 19.8975 23.7869 19.5799 23.1868C19.298 22.646 19.1591 22.0499 18.7462 21.5525C18.504 21.2564 18.8534 20.9367 19.1154 20.7669C19.703 20.3879 20.5645 20.3366 20.9337 20.6959C21.8904 21.6275 23.1847 21.7025 24.2526 22.3105C26.0272 23.3211 27.8375 24.2645 29.4493 25.5317C29.6835 25.7173 29.9257 25.8081 30.1202 25.5831C30.2909 25.3857 29.9654 25.3186 29.8939 25.1765C29.7629 24.912 29.8026 24.683 30.0408 24.5054C30.1877 24.3988 30.2353 24.2488 30.1282 24.233C29.0761 24.0987 29.6121 22.9658 29.1476 22.3578C29.1873 22.2394 29.0761 22.2868 29.0404 22.3657C28.961 22.5315 29.0404 22.6144 29.2071 22.5315C29.2865 22.492 29.3381 22.3855 29.3858 22.3026C29.3937 22.2868 29.3103 22.2236 29.1476 22.3578C28.965 22.5394 28.8419 22.5473 28.8419 22.5394C28.6394 20.7393 27.1586 19.4326 26.9601 17.589C26.8926 16.9535 26.1463 16.3376 25.6103 15.8126C25.0069 15.2204 24.7409 14.4506 24.3995 13.744C23.8516 12.6189 24.3995 11.9557 25.65 11.8649C26.6862 11.7899 27.6191 11.8886 28.2027 12.8518C28.4092 13.1913 29.0682 12.8479 29.0285 13.4598C28.9173 13.5032 28.7268 13.5269 28.7148 13.594C28.6593 13.8309 28.8379 13.8703 29.0285 13.8546C29.0166 14.1269 29.1515 14.2612 29.4255 14.2493C29.4136 14.5217 29.5485 14.6559 29.8225 14.6441C29.8106 14.9165 29.9455 15.0507 30.2195 15.0389C30.2631 15.1494 30.287 15.3389 30.3544 15.3507C30.5926 15.406 30.6323 15.2283 30.6165 15.0389C31.2914 15.1612 31.0016 15.9231 31.4105 16.31C31.4105 16.3376 31.4105 16.2824 31.4105 16.2232C31.3072 16.2587 31.1961 16.2784 31.1048 16.3376C31.0016 16.4047 31.0254 16.5232 31.1802 16.5705C31.2358 16.5863 31.335 16.46 31.4105 16.3139C32.2362 16.7206 32.8992 17.3759 33.3955 18.2878C33.3955 18.3154 33.3955 18.2601 33.3955 18.2009C33.2922 18.2365 33.1811 18.2562 33.0898 18.3154C32.9865 18.3825 33.0104 18.501 33.1652 18.5483C33.2208 18.5641 33.32 18.4378 33.3955 18.2917C34.3403 18.9707 35.3288 19.6892 36.1744 20.6603C36.1744 20.688 36.1744 20.6327 36.1744 20.5735C36.0712 20.609 35.9601 20.6287 35.8688 20.688C35.7655 20.7551 35.7894 20.8735 35.9442 20.9209C35.9998 20.9367 36.099 20.8103 36.1744 20.6643C36.7382 20.8853 37.2821 21.1933 37.3774 21.9315C37.4012 22.1249 37.6433 22.192 37.8458 22.1525C38.0522 22.1131 38.1872 22.0065 38.1594 21.7578C38.1396 21.5643 38.219 21.3393 38.1436 21.1735C37.4528 19.6339 37.7505 18.0075 37.7982 16.4284C37.8299 15.4376 37.2463 14.6401 37.3138 13.6453C37.3734 12.7374 37.6989 11.7268 36.9804 10.8543C36.7938 10.6254 37.3257 9.25157 37.5401 9.14499C38.0245 8.90418 39.3981 9.20815 39.672 9.66608C40.1166 10.3964 40.5136 11.1504 40.9305 11.9834C40.9305 12.011 40.9305 11.9557 40.9305 11.8965C40.8273 11.932 40.7161 11.9518 40.6248 12.011C40.5216 12.0781 40.5454 12.1965 40.7002 12.2439C40.7558 12.2597 40.8551 12.1334 40.9305 11.9873C41.526 12.0307 41.5697 12.6426 41.6888 13.0137C42.3279 15.0389 43.4792 16.7916 44.5035 18.6983C44.5035 18.726 44.5035 18.6707 44.5035 18.6115C44.4003 18.647 44.2891 18.6668 44.1978 18.726C44.0946 18.7931 44.1184 18.9115 44.2732 18.9589C44.3288 18.9747 44.428 18.8483 44.5035 18.7023C45.1029 18.8602 45.0752 19.4721 45.2975 19.9419C45.488 20.3445 45.8533 20.1787 46.151 20.1827C46.5282 20.1866 46.5123 19.8826 46.4885 19.626C46.2066 16.7087 47.1276 13.8506 46.8894 10.9372C46.8537 10.4872 46.81 10.0214 47.2785 9.72529C46.7942 9.43317 46.953 8.94366 46.8736 8.51336C46.6473 7.26985 47.3936 6.14871 47.2785 4.93678C47.1634 3.713 47.3936 2.5287 47.7072 1.36809C47.8343 0.898317 47.8224 0.207475 48.5012 0.0653593C49.5096 -0.143867 49.8987 0.144313 50.4783 1.00096C51.0341 1.82207 51.4311 2.65503 51.2405 3.63405C51.0817 4.44332 51.7924 5.03152 51.6733 5.83684C51.57 6.54348 51.6415 7.27774 51.6534 7.99622C51.6733 9.07788 51.0301 10.053 51.2366 11.178C51.4827 12.5202 51.5502 13.8901 51.979 15.2047C52.0941 15.5599 52.0504 15.9705 52.0464 16.3574C52.0187 17.6719 52.3363 18.8405 53.3804 19.7484C53.7377 20.0603 53.8369 20.0405 54.0949 19.555C54.3252 19.1207 54.5674 18.6391 54.9406 18.3391C55.7068 17.7233 55.8298 16.8114 55.9767 16.01C56.1593 15.0073 56.608 14.2296 57.398 13.5901C57.5171 13.6295 57.4694 13.519 57.39 13.4835C57.2233 13.4045 57.1399 13.4835 57.2233 13.6493C57.263 13.7282 57.3702 13.7795 57.4536 13.8269C57.4694 13.8348 57.533 13.7519 57.398 13.5901C57.5449 12.2873 58.8589 11.5767 58.8153 10.1951C58.8073 10.0056 59.0177 9.93847 59.2361 9.91083C61.2251 9.67397 61.6895 9.9661 61.5506 11.8649C61.4116 13.8151 62.0468 15.6665 62.019 17.6048C61.9992 18.8918 61.6816 20.0919 61.3958 21.3038C61.3283 21.5841 61.3044 21.6788 61.4831 21.8762C61.6935 22.1131 61.8047 22.1565 62.0587 21.8959C63.345 20.5695 64.6988 19.3181 65.5801 17.6404C65.9414 16.9574 66.6123 16.4363 67.3229 15.9547C67.442 15.9942 67.3944 15.8837 67.315 15.8481C67.1483 15.7692 67.0649 15.8481 67.1483 16.0139C67.188 16.0929 67.2952 16.1442 67.3785 16.1916C67.3944 16.1995 67.4579 16.1166 67.3229 15.9547C67.1244 15.4494 67.4937 15.3349 67.6922 15.106C68.2876 14.4191 68.9109 13.7519 69.7049 13.1913C69.824 13.2308 69.7764 13.1203 69.697 13.0848C69.5303 13.0058 69.4469 13.0848 69.5303 13.2506C69.57 13.3295 69.6771 13.3808 69.7605 13.4282C69.7764 13.4361 69.8399 13.3532 69.7049 13.1913C69.8558 12.161 70.491 11.3952 70.7371 10.4201C70.9952 9.39764 72.4125 8.32782 73.2422 8.33966C73.5757 8.33966 73.7345 8.38704 73.925 8.78575C74.5841 10.1793 74.5682 11.5649 73.6114 12.6742C73.0437 13.3335 72.7896 14.0598 72.4045 14.7625C71.6423 16.156 70.9952 17.6167 70.1297 18.9431C69.4389 20.005 69.0181 21.1972 68.8435 22.3381C68.6608 23.5105 68.1169 24.6514 68.3194 25.8949C68.4226 26.5463 68.4584 26.5108 69.1491 26.3213C69.8121 26.1397 70.098 25.4923 70.8999 25.4291C71.019 25.4686 70.9714 25.358 70.892 25.3225C70.7252 25.2436 70.6418 25.3225 70.7252 25.4883C70.7649 25.5673 70.8721 25.6186 70.9595 25.666C70.9753 25.6739 71.0389 25.591 70.9039 25.4291C72.7062 23.6487 74.8699 22.2394 77.0018 20.7788C77.6767 20.3169 78.3674 19.8866 79.0939 19.6102C79.8443 19.3221 80.2492 18.3194 81.2417 18.6036C81.5911 18.0233 82.2818 17.9088 82.7543 17.4943C82.8535 17.4074 82.929 17.289 83.0361 17.2219C83.3657 17.0166 84.7512 16.914 84.8862 17.1153C85.1561 17.518 85.0688 18.0154 84.9894 18.4299C84.8385 19.251 84.3978 19.9616 83.7309 20.5774C83.7031 20.5774 83.7587 20.5774 83.8182 20.5774C83.7825 20.4748 83.7626 20.3643 83.7031 20.2735C83.6356 20.1708 83.5165 20.1945 83.4689 20.3485C83.453 20.4037 83.58 20.5024 83.7269 20.5774C82.925 21.6591 82.0754 22.7486 80.7812 23.4513C80.1142 23.8106 79.6299 24.5172 79.09 25.0896C78.431 25.7883 77.5337 26.2581 76.9263 26.9411C76.3507 27.5885 75.9219 28.2912 75.0882 28.7017C74.5761 28.9544 74.5046 29.6294 74.3141 30.1308C74.2069 30.415 74.191 30.7032 73.9766 30.9835C73.3533 31.8006 73.4605 31.9625 74.3895 32.3494C75.3503 32.752 76.1879 32.2112 76.9144 31.9072C80.0031 30.6203 83.191 29.5663 86.2002 28.0859C86.3074 28.0346 86.4622 28.078 86.7759 28.1925C86.895 28.2319 86.8473 28.1214 86.7679 28.0859C86.6012 28.0069 86.5178 28.0859 86.6012 28.2517C86.6409 28.3306 86.7481 28.382 86.8314 28.4293C86.8473 28.4372 86.9108 28.3543 86.7759 28.1925C89.4755 26.72 90.4044 25.9502 92.9373 26.0686C93.7392 26.1042 93.7313 26.3884 93.7551 26.9884C93.7948 28.0622 93.2112 28.903 92.6673 29.6689C92.1234 30.4308 91.4446 31.173 90.4759 31.6348C90.4481 31.6348 90.5037 31.6348 90.5632 31.6348C90.5275 31.5322 90.5077 31.4217 90.4481 31.3309C90.3806 31.2282 90.2615 31.2519 90.2139 31.4059C90.198 31.4611 90.325 31.5598 90.4719 31.6348C90.5593 31.7019 90.5791 31.773 90.5593 31.8322C90.2734 32.677 89.0189 32.0928 88.7251 33.1823C88.5385 33.8692 87.5381 33.9324 86.7719 34.0626C86.3193 34.1377 85.9064 34.5166 85.5055 34.8009C84.0763 35.8036 82.4327 36.2812 80.7852 36.7668C80.6661 36.8023 80.4676 36.7431 80.416 36.8102C79.7331 37.6906 78.7287 38.0932 77.8037 38.6183C77.6846 38.6854 77.4385 38.7959 77.5615 39.017C77.6052 39.0959 77.7839 39.1314 77.899 39.1314C79.614 39.1393 81.3648 39.3486 83.0282 39.0722C84.4375 38.8354 85.9223 39.0722 87.1967 38.6538C88.4194 38.2511 89.7414 38.7683 90.8729 37.9787C91.258 37.7103 92.1314 38.2551 92.4529 38.8512C92.7388 39.3841 92.5323 39.8144 92.0917 40.1973C91.3771 40.8171 90.8729 41.7843 89.666 41.5158C89.5906 41.5 89.3961 41.6461 89.3921 41.7251C89.3405 42.7515 88.3242 42.633 87.7048 43.0831C87.6771 43.0831 87.7326 43.0831 87.7922 43.0831C87.7565 42.9804 87.7366 42.8699 87.6771 42.7791C87.6096 42.6764 87.4905 42.7001 87.4428 42.8541C87.4269 42.9094 87.554 43.0081 87.7009 43.0831C87.7565 43.6752 87.2959 43.4186 86.9069 43.4778C86.8791 43.4778 86.9347 43.4778 86.9942 43.4778C86.9585 43.3752 86.9386 43.2646 86.8791 43.1739C86.8116 43.0712 86.6925 43.0949 86.6449 43.2489C86.629 43.3041 86.756 43.4028 86.9029 43.4778C86.355 44.1529 85.4142 44.2871 84.6241 44.5911C83.9453 44.8516 83.322 45.2464 82.5359 45.4517C82.5081 45.4517 82.5637 45.4517 82.6233 45.4517C82.5875 45.349 82.5677 45.2385 82.5081 45.1477C82.4406 45.045 82.3216 45.0687 82.2739 45.2227C82.258 45.278 82.3851 45.3767 82.532 45.4517C81.8491 45.9017 81.6863 45.9372 80.8447 45.8622C80.6621 45.8464 80.4596 45.7793 80.3048 45.9727C80.1817 46.1267 79.9594 46.2372 79.9118 46.3991C79.884 46.5017 80.0745 46.7386 80.2175 46.7978C80.7812 47.0307 81.3846 47.4373 81.9365 47.386C83.9016 47.2044 85.7675 47.9308 87.7247 47.8479C90.7141 47.7176 93.6757 48.4914 96.681 48.215C98.1658 48.9019 99.7418 48.5545 101.278 48.5861C101.818 48.5979 102.227 48.7756 102.41 49.1783C102.64 49.6875 102.41 50.1494 101.949 50.5205C101.159 51.1521 100.083 51.16 99.2932 51.764C97.8601 51.5508 96.4864 52.064 95.1049 52.2337C92.3735 52.5732 89.6581 52.4982 86.9307 52.5614C86.1804 52.5772 85.5253 53.0943 84.7115 52.9641C83.9413 52.8377 83.326 53.4536 82.5915 53.5641C81.8531 53.6746 81.2377 54.2234 80.4477 54.1444C80.3882 54.1405 80.273 54.3221 80.2452 54.4326C80.1936 54.63 80.2611 54.8629 80.4596 54.9103C81.2973 55.1037 81.9682 55.5458 82.5002 56.1933C82.7424 56.4893 83.0361 56.5406 83.3696 56.4933C84.1795 56.3827 84.8028 56.817 85.4777 57.1525C87.0736 57.9381 88.6973 58.6605 90.198 59.6356C90.591 59.8922 90.9126 60.1922 91.2064 60.5199C91.5359 60.887 91.4128 61.42 91.3175 61.8226C91.2342 62.1819 90.7498 62.0161 90.4402 62.02C86.6727 62.0279 82.9051 62.0239 79.1376 62.0239C78.8081 62.0239 78.4746 62.0082 78.1451 62.0358C78.0498 62.0437 77.899 62.1621 77.8871 62.245C77.8553 62.5056 77.8196 62.3398 78.0181 62.3595C79.356 62.4819 79.082 64.4557 80.4914 64.4518C81.3251 65.2492 82.1985 65.9993 83.0877 66.7335C83.9731 67.4638 84.8504 68.3323 85.8112 68.8416C87.4309 69.7061 88.8363 70.9772 90.6426 71.4983C90.8451 71.5576 90.9999 71.6444 90.9563 71.98C90.9563 72.0076 90.9563 71.9523 90.9563 71.8931C90.853 71.9286 90.7419 71.9484 90.6506 72.0076C90.5473 72.0747 90.5712 72.1931 90.726 72.2405C90.7816 72.2563 90.8808 72.13 90.9563 71.9839C91.4843 72.2918 92.0163 72.6866 92.5443 73.1682C92.5443 73.1958 92.5443 73.1406 92.5443 73.0814C92.441 73.1169 92.3299 73.1366 92.2386 73.1958C92.1353 73.2629 92.1592 73.3814 92.314 73.4288C92.3696 73.4445 92.4688 73.3182 92.5443 73.1722C93.1795 73.3143 93.5725 73.8551 93.9615 74.3328C94.5769 75.0947 94.029 76.2 93.0484 76.2355C91.6867 76.2869 90.4084 76.0184 89.4834 74.8775C89.5231 74.7591 89.4119 74.8065 89.3762 74.8854C89.2968 75.0512 89.3762 75.1341 89.543 75.0512C89.6224 75.0118 89.674 74.9052 89.7216 74.8223C89.7295 74.8065 89.6462 74.7433 89.4834 74.8775C88.1733 74.8973 87.2245 74.1709 86.1963 73.6577C82.921 72.0273 79.5029 70.7246 76.1522 69.2719C75.4852 68.9837 74.6118 69.1653 73.8337 69.1455C73.7265 69.1455 73.6193 69.2561 73.5121 69.3153C73.5915 69.4061 73.6511 69.5403 73.7543 69.5877C75.3503 70.3298 76.0132 71.7865 76.6842 73.2669C76.9859 73.9341 77.4583 74.5223 77.8593 75.142C78.2245 75.7105 78.8875 76.1092 78.6771 76.9856C78.554 77.4909 79.1336 77.7554 79.4711 78.008C80.1976 78.5528 80.2849 79.2555 80.2532 80.0648C80.2373 80.503 80.0587 80.6174 79.6577 80.5898C79.0265 80.5503 78.4349 80.649 77.8712 80.0727C77.3829 79.5713 76.6246 79.3187 75.9577 79.0147C74.9413 78.5449 73.9211 78.1225 73.1032 77.2896C72.6983 76.8751 72.0353 76.7211 71.4954 76.429C70.9555 76.1408 70.2607 76.2198 69.8439 75.6118C69.5938 75.2447 69.1094 75.5131 68.7323 75.4657C68.6251 75.45 68.506 75.5447 68.3909 75.5881C68.4385 75.6789 68.4663 75.8013 68.5417 75.8605C69.0459 76.275 69.2325 76.883 69.5144 77.5185C69.5144 77.5462 69.5144 77.4909 69.5144 77.4317C69.4112 77.4672 69.3 77.487 69.2087 77.5462C69.1055 77.6133 69.1293 77.7317 69.2841 77.7791C69.3397 77.7949 69.4389 77.6685 69.5144 77.5225C69.7407 77.3922 69.9352 77.562 69.8955 77.7001C69.7407 78.2449 70.1416 78.5884 70.3084 79.1015C70.3084 79.1292 70.3084 79.0739 70.3084 79.0147C70.2052 79.0502 70.094 79.07 70.0027 79.1292C69.8995 79.1963 69.9233 79.3147 70.0781 79.3621C70.1337 79.3779 70.2329 79.2516 70.3084 79.1055C71.0627 79.2713 70.4632 80.2266 71.1024 80.5385C71.0825 81.7189 71.7018 82.7176 72.3529 83.5466C73.929 85.5678 74.6595 87.9838 75.7552 90.2182C76.0688 90.8537 75.8783 91.7499 75.8425 92.5276C75.8346 92.7289 75.5805 93.0092 75.3741 93.1C74.7627 93.3684 74.0918 93.2302 73.4526 93.2065C73.0596 93.1908 72.8015 92.8552 72.6904 92.4604C72.5197 91.8643 71.948 91.592 71.5907 91.1459C71.0666 90.4945 70.2647 90.0879 70.0305 89.101C70.0702 88.9826 69.959 89.0299 69.9233 89.1089C69.8439 89.2747 69.9233 89.3576 70.09 89.2747C70.1694 89.2352 70.221 89.1286 70.2687 89.0457C70.2766 89.0299 70.1932 88.9668 70.0305 89.101C68.3591 87.4666 67.2594 85.3507 65.9493 83.3729C65.8858 83.2742 65.8898 83.1203 65.8143 83.0413C65.3578 82.5676 64.8893 82.1097 64.4209 81.6478C63.9088 81.1385 63.1624 80.7122 62.944 80.1003C62.686 79.3779 61.9476 79.4213 61.6459 78.9002C61.5863 78.7936 61.4632 78.7226 61.3719 78.6357C61.3084 78.8055 61.1893 78.9752 61.1893 79.145C61.1973 79.895 61.2846 80.6056 61.5069 81.3596C61.7927 82.3228 61.6578 83.444 61.5506 84.4783C61.4593 85.3468 61.8325 86.0771 61.9754 86.8705C62.1104 87.6048 61.8086 88.3233 62.2969 89.1049C62.7773 89.8747 62.0945 90.7945 61.8007 91.5801C61.5188 92.3223 60.971 92.1644 60.3358 91.438C59.6291 90.6327 59.1011 89.7287 58.5255 88.8404C58.3547 88.5759 58.454 88.343 58.5175 87.9206C58.5572 87.8022 58.4461 87.8496 58.4103 87.9285C58.3309 88.0943 58.4103 88.1772 58.5771 88.0943C58.6565 88.0549 58.7081 87.9483 58.7557 87.8654C58.7637 87.8496 58.6803 87.7864 58.5175 87.9206C57.6084 87.9009 58.2714 86.914 57.5211 86.5705C57.0645 86.3613 56.9494 85.6468 56.5444 85.2165C56.1395 84.7862 55.8735 84.1269 55.7346 83.5979C55.4328 82.4334 54.3332 81.8452 53.9679 80.7635C53.8568 80.4359 52.9953 80.5385 52.8523 80.8938C52.6459 81.407 52.3998 81.8886 52.4196 82.5044C52.4831 84.2138 52.4514 85.9231 52.4395 87.6364C52.4315 88.5444 52.6737 89.6142 52.2767 90.3208C51.84 91.1024 52.5348 92.0775 51.6534 92.642C51.6534 93.6289 51.6375 94.6159 51.6534 95.5988C51.6693 96.7555 51.4986 97.8569 50.6649 98.7412C50.4545 98.9622 50.4465 99.1912 50.4585 99.4478C50.4664 99.6531 50.4346 99.9136 50.2441 99.9294C49.72 99.9768 49.1325 100.079 48.6799 99.8899C48.3782 99.7636 48.2114 99.1952 48.0884 98.7925C47.9971 98.4925 48.1162 98.1332 48.0606 97.8135C47.9256 97.0121 48.4615 96.112 47.6874 95.3936C47.604 95.3185 47.5921 95.0106 47.8065 94.8725C48.2353 94.5961 47.9574 94.1422 48.0804 93.7987C48.3305 93.0921 47.5802 92.6657 47.6398 91.9828C47.6874 91.4498 47.8819 90.8537 47.3777 90.3169C47.1753 90.0997 47.1673 89.5194 47.2983 89.1997C47.8899 87.7746 47.7747 86.4245 47.3222 84.9638C47.0363 84.0322 47.338 82.9624 46.9252 81.9636C46.7902 81.632 46.4964 81.3675 46.4567 80.9649C46.421 80.5701 46.1073 80.2306 45.6984 80.2227C45.0315 80.2108 45.4126 80.7911 45.2776 81.0912C44.8528 82.0347 45.1268 83.2663 44.0946 83.9572C44.0668 85.177 42.8361 85.9626 42.9036 87.2179C42.9036 87.2851 42.9314 87.368 42.9036 87.4114C42.6971 87.7272 42.4748 87.9719 42.0659 88.122C41.2719 88.418 42.5066 88.643 42.1691 89.1326C42.0103 89.3615 41.8277 89.776 41.6808 90.0997C41.2798 91.0117 39.144 91.7183 38.3381 91.209C38.0284 91.0116 37.7466 90.4629 37.7743 90.0997C37.8855 88.5759 37.3456 87.0048 38.1158 85.5126C38.2785 85.2007 38.1436 84.7349 38.1396 84.3401C38.1396 84.0835 38.088 83.7874 38.4651 83.7637C39.013 83.7282 38.9852 83.5308 38.62 83.2545C38.215 82.9466 38.08 82.5597 38.1356 82.0662C38.1674 81.8057 38.1674 81.5373 38.1356 81.2767C38.0403 80.5346 38.3897 79.745 37.9212 79.0384C37.3615 79.595 36.7938 80.1516 36.238 80.7161C36.0434 80.9135 36.2975 81.4307 35.6703 81.3872C35.6425 81.3872 35.698 81.3872 35.7576 81.3872C35.7219 81.2846 35.702 81.1741 35.6425 81.0833C35.575 80.9806 35.4559 81.0043 35.4082 81.1583C35.3924 81.2135 35.5194 81.3122 35.6663 81.3872C34.3721 83.219 32.4824 84.573 31.0333 86.3218C29.8185 87.7825 28.3456 89.0299 27.3849 90.6998C27.3849 90.7037 24.3717 92.9144 24.3598 92.9184C22.9345 93.6053 22.3589 93.246 22.2398 91.7696C22.1167 90.2537 22.613 89.0181 23.7206 88.0627C24.4868 87.3995 24.6972 86.381 25.6183 85.8481C25.7374 85.8876 25.6897 85.777 25.6103 85.7415C25.4436 85.6626 25.3602 85.7415 25.4436 85.9073C25.4833 85.9863 25.5905 86.0376 25.6778 86.085C25.6937 86.0929 25.7572 86.01 25.6222 85.8481C26.0708 84.6164 27.103 83.823 27.8772 82.8084C29.2151 81.0596 30.3505 79.2594 30.9738 77.1593C31.0929 76.7566 31.2755 76.7606 31.5693 76.6145C32.0615 76.3737 31.3708 76.2079 31.3708 75.9118C31.3747 75.4026 31.5256 74.8736 31.2874 74.3762C30.9619 74.771 30.6522 75.1815 30.2989 75.5526C29.9495 75.9197 29.6597 76.425 28.9173 76.2553C28.8895 76.2553 28.9451 76.2553 29.0047 76.2553C28.9689 76.1526 28.9491 76.0421 28.8895 75.9513C28.822 75.8487 28.7029 75.8724 28.6553 76.0263C28.6394 76.0816 28.7665 76.1803 28.9133 76.2553C29.0007 76.3184 29.0205 76.4329 29.0007 76.4408C27.4881 77.0093 26.2535 78.0041 24.9434 79.0186C24.9156 79.0186 24.9711 79.0186 25.0307 79.0186C24.995 78.916 24.9751 78.8055 24.9156 78.7147C24.8481 78.612 24.729 78.6357 24.6813 78.7897C24.6655 78.8449 24.7925 78.9436 24.9394 79.0186H24.9791ZM47.6953 53.7536C46.9887 54.0497 47.1753 54.6734 47.5405 54.8945C47.9891 55.1629 48.4973 55.455 49.0015 55.6011C49.6009 55.7748 50.2798 55.7669 50.915 55.7077C51.4787 55.6564 51.6733 54.93 52.3204 54.8313C52.63 54.7839 52.2489 54.6339 52.1417 54.5431C50.919 53.5365 49.8352 52.4824 50.0575 50.6705C50.1686 49.7743 50.0773 48.8506 50.0773 47.9387C50.0773 47.6702 50.0654 47.4058 49.6803 47.4373C49.6645 47.0386 50.1488 46.8886 50.1012 46.4149C50.0178 45.5701 50.0575 44.7055 50.0853 43.8529C50.1012 43.4226 50.1686 43.0238 50.3314 42.5778C51.1492 40.371 52.7491 39.5341 54.9882 39.5262C55.4805 39.5262 55.9648 39.6052 56.5008 39.3565C56.8739 39.1828 57.4813 39.5854 58.0332 39.5538C58.9582 39.5065 59.8872 39.5736 60.8082 39.5302C61.7411 39.4867 62.3009 40.4815 63.2577 40.3394C63.353 40.3276 63.4641 40.4658 63.5713 40.521C64.278 40.8842 65.1315 40.8842 65.7667 41.4724C65.9176 41.6106 66.4218 41.6658 66.6679 41.3777C66.8545 41.1566 66.66 40.9474 66.5607 40.7066C65.997 39.3486 63.8333 37.0708 62.6145 35.622C62.5391 35.6851 62.4279 35.7325 62.3882 35.8115C62.3088 35.9773 62.3883 36.0602 62.555 35.9773C62.6344 35.9378 62.686 35.8312 62.7336 35.7483C62.7416 35.7325 62.6582 35.6693 62.3803 35.9852C61.8841 35.8944 61.5665 35.4878 61.3799 35.1364C61.1417 34.6864 60.3953 35.0535 60.6256 34.0429C60.5502 34.1061 60.439 34.1534 60.3993 34.2324C60.3199 34.3982 60.3993 34.4811 60.566 34.3982C60.6454 34.3587 60.697 34.2521 60.7447 34.1653C60.7526 34.1495 60.6692 34.0863 60.3913 34.4021C59.7363 34.0824 59.0535 33.8021 58.4381 33.4231C57.8109 33.0402 57.0724 32.8862 56.5127 32.3454C55.8219 31.6822 54.9009 32.1086 54.087 32.0533C53.7099 32.0296 53.5669 31.7296 53.2811 31.6072C52.7491 31.3743 52.2449 31.2203 51.6574 31.2361C50.4108 31.2638 49.1523 31.3467 47.9177 31.2164C46.6671 31.0822 45.5754 31.8875 44.3328 31.6467C43.7889 31.5401 43.3522 31.9467 43.0068 32.2112C42.4033 32.677 41.7483 32.9652 41.0813 33.2968C40.208 33.731 39.3941 34.2916 38.3738 34.7969H38.5525C38.5167 34.6943 38.4969 34.5837 38.4373 34.4929C38.3698 34.3903 38.2507 34.414 38.2031 34.5679C38.1872 34.6232 38.3143 34.7219 38.5525 34.7969C38.4572 35.2272 38.1912 35.4917 37.5798 35.5864H37.7585C37.7227 35.4838 37.7029 35.3733 37.6433 35.2825C37.5758 35.1798 37.4567 35.2035 37.4091 35.3575C37.3932 35.4127 37.5203 35.5114 37.7585 35.5864C37.2066 36.0681 36.6826 36.5892 36.095 37.0234C35.4995 37.4616 35.3884 38.2116 34.8564 38.6933C34.4038 39.1038 33.5662 39.242 33.7289 40.1657C33.7607 40.3434 33.4034 40.2763 33.2287 40.3315C33.0302 40.3947 32.9588 40.5921 32.9985 40.7974C33.0382 41.0026 33.1414 41.1605 33.3915 41.1092C33.9433 40.9947 34.4713 41.1408 35.0787 40.8803C37.4687 39.846 39.9936 39.3328 42.6296 39.5262C43.4475 39.5854 44.2494 39.5262 45.0553 39.8855C45.5476 40.1065 46.2264 39.9526 46.818 39.921C47.6834 39.8736 47.4293 40.9513 48.0725 41.1132C48.5529 41.2356 48.9419 41.5119 48.8625 42.029C48.7752 42.5896 49.855 43.1028 48.9062 43.7068C48.8069 43.77 48.7196 44.3424 49.0173 44.599C49.5176 45.0293 49.2714 45.5819 49.2397 46.0596C49.196 46.7228 49.1126 46.7268 49.6724 47.4294C48.9896 48.6808 49.1801 50.0152 49.454 51.2981C49.5374 51.689 49.6128 51.8706 49.4263 52.2693C49.1166 52.9285 48.7394 53.4378 48.0844 53.7457C48.0407 53.6352 48.0169 53.4457 47.9494 53.4338C47.7112 53.3786 47.6715 53.5562 47.6874 53.7457L47.6953 53.7536ZM61.5585 66.619C61.495 66.544 61.4474 66.4335 61.368 66.394C61.2012 66.3151 61.1179 66.394 61.2012 66.5598C61.2409 66.6388 61.3481 66.6901 61.4355 66.7375C61.4513 66.7454 61.5149 66.6625 61.1973 66.3861C61.4037 65.4505 62.4756 65.5334 62.9758 64.8742C63.4562 64.2465 63.9723 63.5596 65.1315 63.457C65.068 63.3819 65.0204 63.2714 64.941 63.2319C64.7742 63.153 64.6908 63.2319 64.7742 63.3977C64.8139 63.4767 64.9211 63.528 65.0084 63.5754C65.0243 63.5833 65.0878 63.5004 64.7702 63.224C64.7822 62.6477 65.3419 62.4029 65.6158 62.0121C66.3265 60.9897 66.6997 59.7856 67.4619 58.8303C67.8311 58.3724 67.9859 57.9736 67.9462 57.4407C67.8946 56.7775 67.8986 56.1498 68.5378 55.7077C68.6608 55.6208 68.7482 55.3682 68.7283 55.2103C68.5814 54.1089 69.0499 53.0864 69.1134 52.0206C69.2047 50.5797 69.1412 49.1309 69.1333 47.69C69.1333 47.1413 68.4504 46.7189 68.1368 47.1057C67.5453 47.8242 66.8386 47.9032 66.0406 47.8242C65.6079 47.7808 65.2863 48.1084 65.0442 48.2703C63.6031 49.2375 62.0627 49.5967 60.3556 49.4191C59.8991 49.3717 59.4266 49.3717 58.9701 49.4191C57.9061 49.5335 57.0169 49.1704 56.1077 48.6611C55.7623 48.4677 55.5281 48.1598 55.1986 48.0058C54.7698 47.8084 54.3054 47.461 54.0195 48.2979C53.8448 48.8111 53.4002 49.2414 52.7968 49.4151C52.1973 49.5888 53.0985 50.2362 52.495 50.4297C53.3208 50.706 53.4915 51.6219 54.1426 52.0877C55.1113 52.7864 55.4011 53.9194 55.1152 54.8905C54.8969 55.6327 53.7734 55.7945 53.9838 56.7657C53.9878 56.7893 53.7615 56.9236 53.6662 56.8999C52.9834 56.7301 52.5546 57.5749 51.844 57.3183C51.6137 57.2354 51.2683 57.2631 51.2802 57.6341C51.2921 57.9618 51.1214 58.2895 51.6931 58.5342C52.5268 58.8935 53.428 59.2014 54.1069 59.9001C54.4284 60.2317 54.5436 60.591 54.4245 60.9423C54.2815 61.3607 53.9679 61.6923 53.4121 61.6568C52.892 61.6252 52.2013 61.4594 51.8757 61.72C51.2564 62.2095 50.8951 61.5463 50.3711 61.6016C48.9975 61.7437 47.604 61.6371 46.2145 61.6568C45.5714 61.6647 45.0513 61.5581 44.9203 60.8199C44.7615 59.9396 44.9759 59.4974 45.9088 59.3158C46.4329 59.2132 46.9609 58.9645 47.211 58.6921C47.608 58.2579 48.4457 58.9369 48.4774 58.1316C48.5092 57.267 47.5286 58.0408 47.3063 57.5078C47.2825 57.4526 47.3063 57.3776 47.5326 56.9512C47.4571 57.0144 47.346 57.0617 47.3063 57.1407C47.2269 57.3065 47.3063 57.3894 47.473 57.3065C47.5524 57.267 47.604 57.1604 47.6517 57.0775C47.6596 57.0617 47.5762 56.9986 47.2983 57.3144C46.1709 57.0617 45.6429 56.0196 44.829 55.3642C44.3923 55.0129 44.0033 54.0023 44.2097 53.5799C44.6901 52.5851 44.7099 51.3297 46.0756 50.8323C46.0121 50.7573 45.9644 50.6468 45.885 50.6073C45.7183 50.5284 45.6349 50.6073 45.7183 50.7731C45.758 50.8521 45.8652 50.9034 45.9525 50.9507C45.9684 50.9586 46.0319 50.8757 45.7143 50.5994C45.7659 50.3586 45.5714 50.0428 45.8572 49.8809C46.0835 49.7546 46.151 50.3152 46.4011 50.0941C46.6195 49.9007 46.5639 49.6204 46.3297 49.4388C46.0081 49.1901 46.2145 48.823 46.1034 48.5506C45.6111 47.3781 44.2335 46.9794 43.507 47.9229C42.455 49.2967 41.1369 49.5651 39.5648 49.427C38.8462 49.3638 38.1197 49.427 37.3932 49.4112C37.1471 49.4033 36.8732 49.5296 36.6548 49.2927C35.8171 48.3808 34.5309 48.3729 33.5384 47.7689C32.8992 47.3781 32.1926 47.1689 31.466 47.0662C31.1484 47.0228 30.8745 46.9952 30.5728 47.4729C30.0686 48.2663 29.7431 48.9888 29.8225 49.9323C29.89 50.7099 29.8185 51.5034 29.8423 52.2851C29.8542 52.6522 29.8026 52.9996 30.017 53.3904C30.7435 54.7168 31.1286 56.1656 31.0016 57.6815C30.9579 58.2026 31.3509 58.4711 31.4224 59.0711V58.8935C31.3192 58.929 31.208 58.9487 31.1167 59.0079C31.0135 59.075 31.0373 59.1935 31.1921 59.2408C31.2477 59.2566 31.3469 59.1303 31.4224 58.8935C32.3156 59.2408 32.4665 60.0383 32.6134 60.8436C32.657 61.0884 32.4824 61.5226 32.7364 61.5542C33.9235 61.7081 33.9354 62.928 34.6381 63.532C36.2261 64.9097 37.5917 66.5282 39.4934 67.5586C40.1365 67.906 40.863 68.2455 41.3076 68.9126C41.4109 69.0705 41.5816 69.1258 41.792 69.1692C43.1299 69.4495 44.436 69.8837 45.8136 69.939C46.5361 69.9706 47.2626 69.939 47.9891 69.9469C48.7712 69.9548 49.6049 69.8206 50.3235 70.0456C51.0262 70.2627 51.5542 69.8324 52.2092 69.9074C53.2613 70.0298 54.4046 70.1482 55.2899 69.2955C55.5281 69.0666 55.7941 69.1337 56.0244 69.1692C56.7707 69.2758 57.3583 68.8968 57.9697 68.6087C59.1646 68.0481 60.1254 67.1401 61.5625 66.623L61.5585 66.619ZM29.0364 42.108C29.0364 41.7843 29.0205 41.4566 29.0404 41.1369C29.0563 40.8961 28.9372 40.75 28.7387 40.746C28.5719 40.746 28.3298 40.821 28.2504 40.9434C27.8256 41.6027 27.8216 42.3527 27.8335 43.1067C27.8414 43.4897 28.0836 43.5015 28.3496 43.4936C28.6474 43.4818 29.0364 43.6081 29.0324 43.087C29.0324 42.7633 29.0324 42.4396 29.0324 42.1119L29.0364 42.108ZM73.1072 55.8024C73.1072 55.534 73.0516 55.2971 72.6983 55.3406C72.5871 55.3524 72.48 55.4235 72.3728 55.4708C72.5554 55.684 72.738 55.8972 72.9206 56.1103C72.9802 56.0077 73.0437 55.909 73.1072 55.8024ZM31.47 70.7009C31.339 70.768 31.1802 70.8509 31.0254 70.9299C31.1246 70.997 31.2318 71.1233 31.3231 71.1154C31.4938 71.0957 31.6526 70.997 31.8194 70.9299C31.7201 70.8628 31.6169 70.7996 31.47 70.7009ZM23.0139 47.9979C22.8988 47.7255 22.6765 47.8479 22.4978 47.8479C22.4502 47.8479 22.3351 48.0374 22.3589 48.0887C22.4621 48.3137 22.6884 48.2269 22.8671 48.215C22.9266 48.2111 22.9742 48.0571 23.0139 47.9979ZM38.9058 24.0079C38.8582 23.925 38.8105 23.8382 38.7629 23.7553C38.7192 23.7987 38.6319 23.854 38.6398 23.8856C38.6597 23.9803 38.7192 24.0632 38.7629 24.1501C38.8065 24.1066 38.8502 24.0632 38.9058 24.0079ZM21.6919 48.2269C21.6483 48.2703 21.5609 48.3256 21.5689 48.3571C21.5887 48.4519 21.6483 48.5348 21.6919 48.6216C21.7356 48.5782 21.8229 48.5229 21.815 48.4914C21.7952 48.3966 21.7356 48.3137 21.6919 48.2269ZM25.0108 66.2479C24.9632 66.165 24.9156 66.0782 24.8679 65.9953C24.8243 66.0387 24.7369 66.094 24.7449 66.1256C24.7647 66.2203 24.8243 66.3032 24.8679 66.3901C24.9116 66.3466 24.9553 66.3032 25.0108 66.2479ZM66.8942 70.7878C66.8426 70.8391 66.7989 70.8825 66.7513 70.9299C66.8386 70.9733 66.9259 71.0325 67.0173 71.0523C67.049 71.0602 67.1046 70.9733 67.1483 70.9299C67.0609 70.8825 66.9776 70.8351 66.8942 70.7878Z" fill="#E33137"/>
<path d="M30.2274 14.6717C30.5013 14.6599 30.6363 14.7941 30.6244 15.0665H30.2274V14.6717Z" fill="#E33137"/>
<path d="M9.98048 30.4624C9.70655 30.4742 9.57158 30.34 9.58349 30.0676H9.98048V30.4624Z" fill="#E33137"/>
<path d="M29.8304 14.277C30.1043 14.2651 30.2393 14.3993 30.2274 14.6717H29.8304V14.277Z" fill="#E33137"/>
<path d="M29.4334 13.8822C29.7073 13.8703 29.8423 14.0046 29.8304 14.277H29.4334V13.8822Z" fill="#E33137"/>
<path d="M29.0364 13.4874C29.3103 13.4756 29.4453 13.6098 29.4334 13.8822H29.0364V13.4874Z" fill="#E33137"/>
<path d="M47.6953 53.7536H48.0923C48.1082 53.947 48.0685 54.1207 47.8303 54.0655C47.7668 54.0497 47.739 53.8602 47.6953 53.7536Z" fill="#E33137"/>
</svg>
