<svg width="178" height="90" viewBox="0 0 178 90" fill="none" xmlns="http://www.w3.org/2000/svg">
<g clip-path="url(#clip0_482_1067)">
<path d="M173.79 63.0902C174.49 64.5102 173.4 65.7602 172.83 66.5102C171.95 67.6902 171.6 69.7702 170.04 69.9902C167.85 70.3102 170.19 73.1101 168.01 73.0901C167.9 72.8101 167.84 72.3302 167.67 72.3002C167.07 72.1602 166.97 72.6101 167.01 73.0901C166.73 73.2001 166.25 73.2602 166.22 73.4302C166.08 74.0302 166.53 74.1301 167.01 74.0901C165.21 76.5801 162.36 77.8802 160.21 79.9902C159.68 80.5102 159.06 80.6202 158.94 81.5702C158.87 82.0902 158.11 82.8702 157.59 82.9402C153.94 83.3902 151.17 86.0001 147.71 86.8401C146.62 87.1101 145.45 87.0202 144.31 87.0802C143.33 87.1302 142.02 86.7802 141.43 87.2802C138.46 89.8002 134.99 89.0202 131.66 89.0602C124.17 89.1302 116.68 89.0902 109.19 89.0702C107.18 89.0702 105.12 89.4202 103.23 88.3602C101.14 89.8702 98.7704 88.8402 96.5304 89.0402C94.3804 89.2302 92.2104 89.0802 90.0404 89.0802H43.1004C42.1004 89.0802 40.8404 89.4702 40.1504 89.0102C37.6304 87.3102 34.7304 88.7002 32.1704 87.7502C28.8504 86.5202 25.5004 85.3602 22.2204 84.0502C20.9404 83.5402 19.3104 83.3502 18.5904 82.0702C17.9704 80.9602 17.1504 80.3702 16.1804 79.6202C12.8504 77.0502 9.36042 74.5502 7.74042 70.3602C7.40042 69.4902 6.09042 69.2302 6.29042 67.6202C6.39042 67.3202 6.11042 67.4402 6.02042 67.6402C5.82042 68.0602 6.02042 68.2702 6.44042 68.0602C6.64042 67.9602 6.77042 67.6902 6.89042 67.4802C6.91042 67.4402 6.70042 67.2802 6.29042 67.6202C4.85042 66.5002 2.98042 65.3602 3.29042 62.6202C3.39042 62.3202 3.11042 62.4402 3.02042 62.6402C2.82042 63.0602 3.02042 63.2702 3.44042 63.0602C3.64042 62.9602 3.77042 62.6902 3.89042 62.4802C3.91042 62.4402 3.70042 62.2802 3.29042 62.6202C1.36042 63.0702 2.41042 60.9302 1.09042 60.6702C1.54042 58.0702 -0.0295751 55.7502 0.000424906 53.1702C0.0504249 48.1902 0.0204249 43.2102 0.0104249 38.2202C0.0104249 36.7802 0.0104249 35.4202 0.980425 34.1302C2.83042 31.6502 2.70042 28.0202 5.54042 26.0702C6.01042 25.7502 5.96043 25.2602 6.03043 24.7702C6.53043 20.8002 9.31043 18.1002 11.5304 15.1002C11.5904 15.0202 11.8504 15.0902 12.4704 15.3802C12.7704 15.4802 12.6504 15.2002 12.4504 15.1102C12.0304 14.9102 11.8204 15.1102 12.0304 15.5302C12.1304 15.7302 12.4004 15.8602 12.6104 15.9802C12.6504 16.0002 12.8104 15.7902 12.4704 15.3802C14.8904 13.1802 16.8304 10.1902 19.9804 8.52015C21.8904 7.51015 23.5604 6.06015 25.5104 5.00015C27.4504 3.95015 29.4004 4.91015 31.3404 4.18015C33.8004 3.26015 36.5604 3.14015 39.1004 2.39015C39.8404 2.17015 39.8304 2.66015 40.1804 2.75015C41.9104 3.21015 43.6704 3.65015 45.2304 2.34015C46.6004 1.19015 47.8304 3.20015 48.9704 2.53015C50.2204 1.80015 51.9404 2.49015 52.8704 1.08015C55.0904 2.92015 57.2604 0.660154 59.5504 0.980154C61.8904 1.31015 64.3204 1.02015 66.5804 2.00015C68.7404 0.120154 71.3204 1.20015 73.6904 1.13015C79.5104 0.960154 85.3404 1.15015 91.1704 1.03015C93.3704 0.990154 95.7704 1.87015 97.7704 0.0901537C97.9604 -0.0798463 98.4804 -0.0498463 98.7404 0.0901537C102.14 1.84015 105.79 0.790154 109.32 1.06015C109.97 1.11015 110.61 1.03015 111.09 1.64015C111.57 2.24015 112.12 2.17015 112.79 1.82015C115.39 0.440154 118.23 0.710154 120.79 1.54015C122.34 2.04015 123.51 -0.129846 124.53 1.23015C125.59 2.65015 127.59 1.33015 128.36 2.94015C131.21 0.380154 134.74 5.35015 137.53 2.11015C138.95 4.34015 141.8 1.88015 143.29 3.87015C145.17 3.44015 146.83 5.31015 148.91 4.15015C150.26 3.40015 151.79 4.69015 152.75 5.47015C155.86 7.99015 159.84 9.44015 162.18 12.8402C162.95 13.9602 164.72 13.5302 164.99 15.0702C164.71 15.1802 164.23 15.2402 164.2 15.4102C164.06 16.0102 164.51 16.1102 164.99 16.0702C165.1 16.3502 165.16 16.8302 165.33 16.8602C165.93 17.0002 166.03 16.5502 165.99 16.0702C168.53 19.1402 171.43 21.9802 172.02 26.2202C172.08 26.6402 172.49 27.0302 172.81 27.3702C175.88 30.6802 176.79 34.7602 176.97 39.0702C177.09 42.0502 176.78 45.0602 177.04 48.0202C177.47 52.7602 176.82 58.2802 175 62.2902C174.78 62.7702 174.62 63.1802 173.77 63.0702C173.7 63.0702 173.84 63.0702 173.99 63.0702C173.9 62.8102 173.85 62.5302 173.7 62.3002C173.53 62.0402 173.23 62.1002 173.11 62.4902C173.07 62.6302 173.39 62.8802 173.76 63.0702L173.79 63.0902ZM150.02 13.0902C149.52 13.0902 148.6 13.1802 148.58 13.0802C148.19 11.2102 147.32 11.7002 145.83 11.9602C143.36 12.3902 140.95 10.6602 138.35 10.9202C137.02 9.20015 135.85 12.4302 134.63 11.0702C133.14 9.41015 131.25 10.1502 129.53 10.1202C124.7 10.0302 119.88 10.0902 115.05 10.0702C114.76 10.0702 114.26 9.91015 114.23 9.75015C114.11 9.12015 114.6 9.14015 115.07 9.07015C116.02 8.94015 117.86 9.33015 117.74 8.73015C117.47 7.34015 115.89 8.27015 114.88 8.11015C113.91 7.96015 113.2 7.98015 112.85 9.46015C112.65 10.3102 110.79 10.8502 110.6 8.16015C110.41 8.32015 110.13 8.44015 110.03 8.64015C109.83 9.06015 110.03 9.27015 110.45 9.06015C110.65 8.96015 110.78 8.69015 110.9 8.48015C110.92 8.44015 110.71 8.28015 110.01 9.08015C105.7 9.08015 101.38 9.05015 97.0704 9.09015C95.6104 9.10015 94.2704 8.93015 92.9704 8.12015C92.2504 7.67015 91.2304 6.69015 90.3404 8.07015C87.7204 7.65015 85.2304 9.08015 82.8004 8.89015C80.8504 8.74015 79.0304 9.13015 77.1404 9.08015C74.8204 9.02015 72.4904 9.02015 70.1704 9.08015C68.9204 9.12015 67.7204 8.83015 66.4804 9.88015C65.7204 10.5302 63.8904 10.6002 63.8304 8.44015C63.8104 7.89015 63.0004 8.05015 62.5404 8.09015C62.4004 8.10015 62.1404 8.65015 62.1904 8.71015C62.7804 9.35015 63.4904 10.0202 61.8804 10.0402C58.2304 10.0902 54.5804 9.99015 50.9304 10.0802C48.6604 10.1402 46.1504 9.32015 44.1704 10.5202C41.9504 11.8602 39.2104 9.83015 37.2804 12.0202C37.0504 12.2802 36.1204 12.0702 36.0604 11.5802C35.9304 10.3602 35.8204 9.53015 34.6104 10.9402C33.9404 11.7302 33.2304 12.2002 32.0804 12.0902C29.8204 11.8702 27.8604 12.7302 25.7304 13.5402C23.2904 14.4602 21.7604 16.0902 19.9004 17.5602C18.6404 18.5602 18.5304 20.4002 16.5304 21.0702H16.9804C16.8904 20.8102 16.8404 20.5302 16.6904 20.3002C16.5204 20.0402 16.2204 20.1002 16.1004 20.4902C16.0604 20.6302 16.3804 20.8802 16.9804 21.0702C16.3804 22.6902 14.8504 23.5002 13.8104 24.7302C13.2704 25.3602 12.1604 25.9102 12.1504 26.5002C12.1304 28.3802 11.4504 30.2502 10.2304 31.1302C8.20042 32.5902 9.66043 34.8502 8.32043 36.4402C7.65043 37.2302 7.78043 39.0102 8.07043 40.2202C8.41043 41.6802 6.23042 42.3802 7.19042 43.7202C8.49042 45.5302 8.29042 47.3402 7.39042 49.1102C7.06042 49.7502 7.27042 50.0602 7.66042 50.0402C9.33042 49.9302 8.98043 51.0902 9.00043 52.0202C9.04043 53.7702 8.67043 55.5902 10.0004 57.5302V57.0802C9.74043 57.1702 9.46042 57.2202 9.23042 57.3702C8.97042 57.5402 9.03043 57.8402 9.42043 57.9602C9.56043 58.0002 9.81043 57.6802 10.0004 57.0802C12.1404 57.3702 10.0204 60.0402 11.9004 60.4802C11.6604 62.2302 13.8404 62.5702 14.0004 64.5302V64.0802C13.7404 64.1702 13.4604 64.2202 13.2304 64.3702C12.9704 64.5402 13.0304 64.8402 13.4204 64.9602C13.5604 65.0002 13.8104 64.6802 14.0004 64.0802C14.2804 64.1902 14.7204 64.2302 14.8104 64.4302C16.4704 68.0002 18.7604 70.9202 22.2404 73.0102C23.1304 73.5402 24.7904 73.5102 25.0004 75.5302V75.0802C24.7404 75.1702 24.4604 75.2202 24.2304 75.3702C23.9704 75.5402 24.0304 75.8402 24.4204 75.9602C24.5604 76.0002 24.8104 75.6802 25.0004 75.0802C25.7604 76.1102 27.6904 75.3802 28.0004 77.5302V77.0802C27.7404 77.1702 27.4604 77.2202 27.2304 77.3702C26.9704 77.5402 27.0304 77.8402 27.4204 77.9602C27.5604 78.0002 27.8104 77.6802 28.0004 77.0802C30.2604 78.8902 33.2704 78.7602 35.7504 80.0502C37.1304 80.7702 38.6004 81.2002 40.3104 81.1402C45.4604 80.9702 50.6304 80.8502 55.7604 81.1902C57.8704 81.3302 59.3504 79.7302 61.3404 80.0702C61.9104 80.1702 62.7304 79.8302 62.8804 80.6702C62.9504 81.0802 61.5304 81.3902 62.5204 82.0302C63.0904 82.4002 63.6504 81.6802 64.2204 81.4402C65.7804 80.7802 67.4604 79.2402 69.0904 80.1702C71.2904 81.4302 73.5004 81.0302 75.7104 81.0502C83.6904 81.1202 91.6604 81.1302 99.6404 81.0502C101.68 81.0302 103.73 81.5202 105.78 80.2102C106.84 79.5302 109.01 79.5502 110.12 80.2102C112.33 81.4902 114.54 81.0302 116.75 81.0702C122.73 81.1602 128.72 81.2002 134.7 81.0502C137.34 80.9802 140.4 82.2302 142.43 79.2302C142.6 78.9802 143.4 78.9902 143.83 79.1202C146.12 79.8202 147.34 77.9402 149.91 77.6802C149.75 77.4902 149.63 77.2102 149.43 77.1102C149.01 76.9102 148.8 77.1102 149.01 77.5302C149.11 77.7302 149.38 77.8602 149.59 77.9802C149.63 78.0002 149.79 77.7901 148.99 77.0901C148.99 76.9201 148.93 76.6502 148.99 76.6102C156.35 72.2202 160.2 69.7501 162.98 64.0901C163.01 65.2601 163.99 65.3801 164.52 64.9501C165.33 64.2801 165.4 63.3602 163.98 63.0902C165.27 60.9902 167.19 59.1902 167.17 56.4402C167.17 56.3302 167.7 56.2102 168.9 56.6702C168.74 56.4802 168.62 56.2002 168.42 56.1002C168 55.9002 167.79 56.1002 168 56.5202C168.1 56.7202 168.37 56.8502 168.58 56.9702C168.62 56.9902 168.78 56.7802 167.98 56.0802C167.52 53.2802 168.43 50.7002 169.42 48.2002C170.25 46.1302 170.39 44.0702 169.45 42.1802C168.96 41.1802 168.94 40.2902 169.01 39.3802C169.27 36.0902 167.98 33.2102 166.71 30.3502C166.09 28.9402 164.87 27.7902 165.56 25.1602C165.37 25.3202 165.09 25.4402 164.99 25.6402C164.79 26.0602 164.99 26.2702 165.41 26.0602C165.61 25.9602 165.74 25.6902 165.86 25.4802C165.88 25.4402 165.67 25.2802 164.97 26.0802C163.88 25.8402 163.21 25.1702 163.55 23.1602C163.36 23.3202 163.08 23.4402 162.98 23.6402C162.78 24.0602 162.98 24.2702 163.4 24.0602C163.6 23.9602 163.73 23.6902 163.85 23.4802C163.87 23.4402 163.66 23.2802 162.96 24.0802C159.88 22.0702 158.43 18.6302 156.54 15.1602C156.35 15.3202 156.07 15.4402 155.97 15.6402C155.77 16.0602 155.97 16.2702 156.39 16.0602C156.59 15.9602 156.72 15.6902 156.84 15.4802C156.86 15.4402 156.65 15.2802 155.95 16.0802C155.19 15.0502 153.26 15.7802 153.53 13.1602C153.34 13.3202 153.06 13.4402 152.96 13.6402C152.76 14.0602 152.96 14.2702 153.38 14.0602C153.58 13.9602 153.71 13.6902 153.83 13.4702C153.85 13.4302 153.64 13.2702 152.94 14.0702C151.96 13.6902 150.41 15.0002 150.52 12.1502C150.33 12.3102 150.05 12.4302 149.95 12.6302C149.75 13.0502 149.95 13.2602 150.37 13.0502C150.57 12.9502 150.7 12.6802 150.82 12.4702C150.84 12.4302 150.63 12.2702 149.93 13.0702L150.02 13.0902ZM120.35 8.03015C120.05 8.13015 119.27 8.24015 119.25 8.43015C119.15 9.48015 120.02 9.04015 120.52 9.08015C120.97 9.12015 121.72 9.33015 121.8 8.77015C121.94 7.73015 121.01 8.24015 120.35 8.04015V8.03015ZM60.8704 8.47015C60.5304 7.89015 60.0004 8.10015 59.5504 8.13015C59.4104 8.13015 59.1404 8.61015 59.2004 8.74015C59.4604 9.31015 60.0304 9.09015 60.4804 9.06015C60.6304 9.05015 60.7504 8.66015 60.8704 8.47015ZM56.5204 8.09015C56.4104 8.20015 56.1904 8.34015 56.2104 8.42015C56.2604 8.66015 56.4104 8.87015 56.5204 9.09015C56.6304 8.98015 56.8504 8.84015 56.8304 8.76015C56.7804 8.52015 56.6304 8.31015 56.5204 8.09015ZM9.87043 59.4502C9.74043 59.3202 9.63043 59.2102 9.51043 59.0902C9.40043 59.3102 9.25043 59.5302 9.20043 59.7602C9.18043 59.8402 9.40043 59.9802 9.51043 60.0902C9.63043 59.8702 9.75043 59.6602 9.87043 59.4502ZM157.52 80.0901C157.41 80.2001 157.19 80.3402 157.21 80.4202C157.26 80.6602 157.41 80.8701 157.52 81.0901C157.63 80.9801 157.85 80.8402 157.83 80.7602C157.78 80.5202 157.63 80.3101 157.52 80.0901ZM34.6604 86.9501C34.7904 86.8201 34.9004 86.7101 35.0204 86.5901C34.8004 86.4801 34.5804 86.3302 34.3504 86.2802C34.2704 86.2602 34.1304 86.4801 34.0204 86.5901C34.2404 86.7101 34.4504 86.8301 34.6604 86.9501ZM169.66 52.2402C169.45 52.3602 169.23 52.4802 169.02 52.6002C169.13 52.7102 169.27 52.9302 169.35 52.9102C169.59 52.8602 169.8 52.7102 170.02 52.6002C169.91 52.4902 169.8 52.3802 169.66 52.2402Z" fill="#E33137"/>
<path d="M165.02 15.0902C165.71 15.0602 166.05 15.4002 166.02 16.0902H165.02V15.0902Z" fill="black"/>
<path d="M168.02 73.0898C168.05 73.7798 167.71 74.1198 167.02 74.0898V73.0898H168.02Z" fill="black"/>
<path d="M15.471 31.3801C16.391 29.8601 15.961 27.9301 17.011 26.4001C19.141 23.2901 22.411 21.6301 24.941 19.0801C26.081 17.9301 26.951 16.3101 29.481 17.3801C29.781 17.4801 29.661 17.2001 29.461 17.1101C29.041 16.9101 28.831 17.1101 29.041 17.5301C29.141 17.7301 29.411 17.8601 29.621 17.9801C29.661 18.0001 29.821 17.7901 29.481 17.3801C30.761 15.3101 32.991 15.1801 35.291 15.0601C37.471 14.9401 39.771 15.8001 41.831 14.1501C42.331 13.7501 43.711 13.7501 44.191 14.1501C45.771 15.4501 47.531 14.9701 49.251 15.1001C49.761 15.1401 50.141 15.4601 50.021 16.3101C50.021 16.3801 50.021 16.2401 50.021 16.0901C49.761 16.1801 49.481 16.2301 49.251 16.3801C48.991 16.5501 49.051 16.8501 49.441 16.9701C49.581 17.0101 49.831 16.6901 50.021 16.3201C51.931 16.1401 53.731 15.8701 55.341 17.7301C56.531 19.1001 59.241 18.8201 60.021 21.3201C60.021 21.3901 60.021 21.2501 60.021 21.1001C59.761 21.1901 59.481 21.2401 59.251 21.3901C58.991 21.5601 59.051 21.8601 59.441 21.9801C59.581 22.0201 59.831 21.7001 60.021 21.3301C62.441 22.6901 64.441 24.6901 66.021 27.3301C66.021 27.4001 66.021 27.2601 66.021 27.1101C65.761 27.2001 65.481 27.2501 65.251 27.4001C64.991 27.5701 65.051 27.8701 65.441 27.9901C65.581 28.0301 65.831 27.7101 66.021 27.3401C69.241 28.3501 68.871 31.7201 69.871 34.1401C70.671 36.0701 71.741 38.1001 71.941 40.1901C72.241 43.4601 71.881 46.7901 72.091 50.0801C72.181 51.5101 71.361 52.5301 70.921 53.5901C69.431 57.1601 68.881 61.2001 65.801 64.1301C65.731 64.1301 65.871 64.1301 66.021 64.1301C65.931 63.8701 65.881 63.5901 65.731 63.3601C65.561 63.1001 65.261 63.1601 65.141 63.5501C65.101 63.6901 65.421 63.9401 65.791 64.1301C62.811 68.7701 58.331 71.5501 52.791 73.1301C52.721 73.1301 52.861 73.1301 53.011 73.1301C52.921 72.8701 52.871 72.5901 52.721 72.3601C52.551 72.1001 52.251 72.1601 52.131 72.5501C52.091 72.6901 52.411 72.9401 52.781 73.1301C51.991 74.7501 50.431 75.1501 48.651 75.1401C44.831 75.1201 40.991 75.4101 37.211 75.0701C31.141 74.5301 25.651 72.3701 21.281 67.9001C19.021 65.5901 16.631 63.4201 14.891 60.6001C13.651 58.6001 13.661 56.0901 12.031 54.2901C11.911 54.1601 12.141 53.7101 12.231 53.4101C12.451 52.6601 14.101 53.7701 13.671 52.3801C13.551 52.0101 12.091 51.7701 12.121 51.6801C12.391 50.5101 11.051 50.1101 11.001 49.1001C10.661 42.8101 11.571 36.7801 14.541 31.1401C14.581 31.0701 14.861 31.1401 15.481 31.4201C15.781 31.5201 15.661 31.2401 15.461 31.1501C15.041 30.9501 14.831 31.1501 15.041 31.5701C15.141 31.7701 15.411 31.9001 15.621 32.0201C15.661 32.0401 15.821 31.8301 15.481 31.4201L15.471 31.3801ZM50.021 59.0901C51.271 59.0701 54.961 57.2401 54.981 56.6201C54.981 56.5101 54.821 56.3301 54.691 56.2801C52.731 55.4701 51.511 57.1901 49.931 57.6901C49.791 57.7401 49.671 57.9001 49.581 58.0401C49.431 58.2601 49.301 58.5101 49.171 58.7401C49.451 58.8601 49.741 58.9801 50.021 59.0901ZM56.051 45.1001C56.951 45.1501 57.061 44.5201 56.991 43.8601C56.961 43.5901 56.691 43.3501 56.521 43.1001C56.121 43.6901 55.211 43.9001 55.241 44.7801C55.241 44.8901 55.761 44.9901 56.051 45.1001ZM48.031 45.0901C48.301 44.9801 48.791 44.9001 48.821 44.7401C48.921 44.1501 48.481 44.0201 48.001 44.1001C47.711 44.1501 47.241 44.2801 47.211 44.4401C47.111 45.0301 47.541 45.1301 48.031 45.0901Z" fill="#E33137"/>
<path d="M164.021 63.0902C164.051 63.7802 163.711 64.1202 163.021 64.0902C162.991 63.4002 163.331 63.0602 164.021 63.0902Z" fill="black"/>
</g>
<defs>
<clipPath id="clip0_482_1067">
<rect width="177.19" height="89.25" fill="white"/>
</clipPath>
</defs>
</svg>
